%TF.GenerationSoftware,KiCad,Pcbnew,7.0.1*%
%TF.CreationDate,2023-04-20T20:08:01+02:00*%
%TF.ProjectId,RHT device,52485420-6465-4766-9963-652e6b696361,rev?*%
%TF.SameCoordinates,Original*%
%TF.FileFunction,Copper,L2,Bot*%
%TF.FilePolarity,Positive*%
%FSLAX46Y46*%
G04 Gerber Fmt 4.6, Leading zero omitted, Abs format (unit mm)*
G04 Created by KiCad (PCBNEW 7.0.1) date 2023-04-20 20:08:01*
%MOMM*%
%LPD*%
G01*
G04 APERTURE LIST*
%TA.AperFunction,ComponentPad*%
%ADD10C,1.850000*%
%TD*%
%TA.AperFunction,ComponentPad*%
%ADD11R,1.500000X1.500000*%
%TD*%
%TA.AperFunction,ComponentPad*%
%ADD12C,1.500000*%
%TD*%
%TA.AperFunction,ComponentPad*%
%ADD13C,1.550000*%
%TD*%
%TA.AperFunction,ComponentPad*%
%ADD14C,1.950000*%
%TD*%
%TA.AperFunction,ViaPad*%
%ADD15C,0.800000*%
%TD*%
%TA.AperFunction,Conductor*%
%ADD16C,0.200000*%
%TD*%
G04 APERTURE END LIST*
D10*
%TO.P,S1,1,1*%
%TO.N,gnd*%
X138570000Y-67500000D03*
%TO.P,S1,2,2*%
X126070000Y-67500000D03*
%TO.P,S1,3,3*%
%TO.N,Net-(R12-Pad1)*%
X138570000Y-62500000D03*
%TO.P,S1,4,4*%
X126070000Y-62500000D03*
%TD*%
D11*
%TO.P,U1,1,e*%
%TO.N,/D_e*%
X114430000Y-42390000D03*
D12*
%TO.P,U1,2,d*%
%TO.N,/D_d*%
X116970000Y-42390000D03*
%TO.P,U1,3,DPX*%
%TO.N,/D_dp*%
X119510000Y-42390000D03*
%TO.P,U1,4,c*%
%TO.N,/D_c*%
X122050000Y-42390000D03*
%TO.P,U1,5,g*%
%TO.N,/D_g*%
X124590000Y-42390000D03*
%TO.P,U1,6,CC4*%
%TO.N,/CC_4*%
X127130000Y-42390000D03*
%TO.P,U1,7,b*%
%TO.N,/D_b*%
X127130000Y-32230000D03*
%TO.P,U1,8,CC3*%
%TO.N,/CC_3*%
X124590000Y-32230000D03*
%TO.P,U1,9,CC2*%
%TO.N,/CC_2*%
X122050000Y-32230000D03*
%TO.P,U1,10,f*%
%TO.N,/D_f*%
X119510000Y-32230000D03*
%TO.P,U1,11,a*%
%TO.N,/D_a*%
X116970000Y-32230000D03*
%TO.P,U1,12,CC1*%
%TO.N,/CC_1*%
X114430000Y-32230000D03*
%TD*%
D13*
%TO.P,J1,7*%
%TO.N,N/C*%
X111900000Y-69665000D03*
%TO.P,J1,8*%
X106820000Y-70681000D03*
%TO.P,J1,9*%
X106820000Y-68649000D03*
%TD*%
D14*
%TO.P,U2,1,1*%
%TO.N,+3V*%
X129370000Y-54700000D03*
%TO.P,U2,2,2*%
%TO.N,gnd*%
X109370000Y-54700000D03*
%TD*%
D15*
%TO.N,gnd*%
X116650000Y-62725000D03*
X115300000Y-67100000D03*
X134885000Y-29360000D03*
X134885000Y-50660000D03*
X117175000Y-53375000D03*
%TO.N,+3V*%
X120300500Y-57699500D03*
X129325000Y-57575000D03*
X113595548Y-58660920D03*
X112800000Y-71200000D03*
X113550000Y-64350000D03*
X137800000Y-39650000D03*
X120300500Y-63550000D03*
X108725000Y-42925000D03*
X136925000Y-30200000D03*
X115700000Y-43350500D03*
X108725000Y-40550000D03*
%TO.N,/B_1*%
X109550000Y-71425000D03*
X110275000Y-67425000D03*
X116164502Y-59400000D03*
X112400000Y-64286500D03*
%TO.N,Net-(C3-Pad1)*%
X121700000Y-66350000D03*
X121625000Y-61750000D03*
%TO.N,/D_a*%
X107300000Y-35075000D03*
X116575000Y-34600000D03*
X110266234Y-63800000D03*
%TO.N,/D_b*%
X127100000Y-36450000D03*
X109350000Y-63200000D03*
X106150000Y-36450000D03*
%TO.N,/D_c*%
X108475000Y-63750000D03*
X123525000Y-39925000D03*
X105475000Y-38850000D03*
%TO.N,/C_1*%
X106075000Y-63800000D03*
X103550000Y-61525000D03*
%TO.N,/D_dp*%
X107275000Y-44000000D03*
X107275000Y-60500000D03*
%TO.N,/D_g*%
X113165734Y-39890734D03*
X109200000Y-61600000D03*
%TO.N,/D_d*%
X109750000Y-60500000D03*
X112515734Y-40709266D03*
%TO.N,/D_e*%
X110800000Y-42600000D03*
X110775000Y-56075000D03*
%TO.N,/D_f*%
X111865734Y-55940734D03*
X113700000Y-33650000D03*
%TO.N,/CC_1*%
X108050000Y-32625000D03*
X108050000Y-45475000D03*
%TO.N,/CC_2*%
X109425000Y-45700000D03*
X110500000Y-31325000D03*
%TO.N,/CC_3*%
X131071000Y-46504000D03*
X131300000Y-31075000D03*
%TO.N,/CC_4*%
X127275000Y-45800000D03*
%TO.N,/MCLR*%
X114775000Y-58400000D03*
X110525000Y-61600000D03*
X113975000Y-62450000D03*
X111575000Y-68350000D03*
%TO.N,Net-(R12-Pad1)*%
X120950000Y-59725000D03*
X120950000Y-65600000D03*
%TO.N,/PGC*%
X110915734Y-62909266D03*
X109375000Y-68000000D03*
%TO.N,/I2C_DATA*%
X107425000Y-64050000D03*
X103700000Y-34400000D03*
X112925000Y-30225000D03*
X123600000Y-28710500D03*
%TO.N,/I2C_SCK*%
X110480761Y-39875000D03*
X118600000Y-29100000D03*
X110480761Y-37780761D03*
%TD*%
D16*
%TO.N,gnd*%
X116650000Y-62725000D02*
X116650000Y-65875000D01*
X117175000Y-62200000D02*
X117175000Y-53375000D01*
X116650000Y-62725000D02*
X117175000Y-62200000D01*
X134885000Y-29360000D02*
X134885000Y-50660000D01*
X115425000Y-67100000D02*
X115300000Y-67100000D01*
X116650000Y-65875000D02*
X115425000Y-67100000D01*
%TO.N,+3V*%
X137800000Y-31225000D02*
X136925000Y-30350000D01*
X136525000Y-54700000D02*
X137925000Y-53300000D01*
X115700000Y-43350500D02*
X115700000Y-43725000D01*
X136925000Y-30350000D02*
X136925000Y-30200000D01*
X120300500Y-63550000D02*
X120300500Y-57699500D01*
X108725000Y-40550000D02*
X108725000Y-42625000D01*
X113550000Y-70450000D02*
X112800000Y-71200000D01*
X113625000Y-58631468D02*
X113595548Y-58660920D01*
X129370000Y-57530000D02*
X129370000Y-54700000D01*
X137925000Y-53300000D02*
X137925000Y-39775000D01*
X137925000Y-39775000D02*
X137800000Y-39650000D01*
X113625000Y-45800000D02*
X113625000Y-58631468D01*
X115700000Y-43725000D02*
X113625000Y-45800000D01*
X129370000Y-54700000D02*
X136525000Y-54700000D01*
X129325000Y-57575000D02*
X129370000Y-57530000D01*
X108725000Y-42625000D02*
X108725000Y-42925000D01*
X137800000Y-39650000D02*
X137800000Y-31225000D01*
X113550000Y-64350000D02*
X113550000Y-70450000D01*
%TO.N,/B_1*%
X115800000Y-62950000D02*
X115250000Y-63500000D01*
X109650000Y-71425000D02*
X109550000Y-71425000D01*
X115250000Y-63500000D02*
X113186500Y-63500000D01*
X113186500Y-63500000D02*
X112400000Y-64286500D01*
X110275000Y-67425000D02*
X110275000Y-70800000D01*
X110275000Y-70800000D02*
X109650000Y-71425000D01*
X115825000Y-59739502D02*
X115825000Y-62950000D01*
X116164502Y-59400000D02*
X115825000Y-59739502D01*
X115825000Y-62950000D02*
X115800000Y-62950000D01*
%TO.N,Net-(C3-Pad1)*%
X121700000Y-61825000D02*
X121625000Y-61750000D01*
X121700000Y-66350000D02*
X121700000Y-61825000D01*
%TO.N,/D_a*%
X106625000Y-43150000D02*
X107550000Y-42225000D01*
X107725000Y-61275000D02*
X106725000Y-61275000D01*
X108700000Y-62250000D02*
X107725000Y-61275000D01*
X109925000Y-62225000D02*
X109900000Y-62250000D01*
X107550000Y-35325000D02*
X107300000Y-35075000D01*
X110266234Y-62566234D02*
X109925000Y-62225000D01*
X106725000Y-61275000D02*
X106625000Y-61175000D01*
X107550000Y-42225000D02*
X107550000Y-35325000D01*
X116970000Y-32230000D02*
X116970000Y-34205000D01*
X106625000Y-61175000D02*
X106625000Y-43150000D01*
X116970000Y-34205000D02*
X116575000Y-34600000D01*
X110266234Y-63800000D02*
X110266234Y-62566234D01*
X109900000Y-62250000D02*
X108700000Y-62250000D01*
%TO.N,/D_b*%
X106575000Y-61775000D02*
X106150000Y-61350000D01*
X127130000Y-36420000D02*
X127130000Y-32230000D01*
X106150000Y-61350000D02*
X106150000Y-36450000D01*
X108950000Y-63200000D02*
X107525000Y-61775000D01*
X127100000Y-36450000D02*
X127130000Y-36420000D01*
X109350000Y-63200000D02*
X108950000Y-63200000D01*
X107525000Y-61775000D02*
X106575000Y-61775000D01*
%TO.N,/D_c*%
X108055026Y-63750000D02*
X105525000Y-61219974D01*
X123525000Y-39925000D02*
X123525000Y-40915000D01*
X105525000Y-38900000D02*
X105475000Y-38850000D01*
X105525000Y-61219974D02*
X105525000Y-38900000D01*
X108475000Y-63750000D02*
X108055026Y-63750000D01*
X123525000Y-40915000D02*
X122050000Y-42390000D01*
%TO.N,/C_1*%
X106075000Y-63800000D02*
X103800000Y-61525000D01*
X103800000Y-61525000D02*
X103550000Y-61525000D01*
%TO.N,/D_dp*%
X107275000Y-60500000D02*
X107275000Y-44000000D01*
%TO.N,/D_g*%
X108145000Y-59814239D02*
X109480761Y-61150000D01*
X113165734Y-58003505D02*
X113165734Y-39890734D01*
X108145000Y-60545000D02*
X108145000Y-59814239D01*
X109200000Y-61600000D02*
X108145000Y-60545000D01*
X109480761Y-61150000D02*
X110019239Y-61150000D01*
X110019239Y-61150000D02*
X113165734Y-58003505D01*
%TO.N,/D_d*%
X109750000Y-59900000D02*
X112515734Y-57134266D01*
X109750000Y-60500000D02*
X109750000Y-59900000D01*
X112515734Y-57134266D02*
X112515734Y-40709266D01*
%TO.N,/D_e*%
X110775000Y-42700000D02*
X110775000Y-42625000D01*
X110775000Y-56075000D02*
X110775000Y-42700000D01*
X110775000Y-42625000D02*
X110800000Y-42600000D01*
%TO.N,/D_f*%
X111865734Y-55940734D02*
X111865734Y-35409266D01*
X113625000Y-33650000D02*
X113700000Y-33650000D01*
X111865734Y-35409266D02*
X113625000Y-33650000D01*
%TO.N,/CC_1*%
X108050000Y-45475000D02*
X108050000Y-32625000D01*
%TO.N,/CC_2*%
X109425000Y-32400000D02*
X110500000Y-31325000D01*
X109425000Y-32450000D02*
X109425000Y-32400000D01*
X109425000Y-45700000D02*
X109425000Y-32450000D01*
%TO.N,/CC_3*%
X132000000Y-45575000D02*
X132000000Y-31775000D01*
X131071000Y-46504000D02*
X132000000Y-45575000D01*
X132000000Y-31775000D02*
X131300000Y-31075000D01*
%TO.N,/CC_4*%
X127130000Y-45655000D02*
X127130000Y-42390000D01*
X127275000Y-45800000D02*
X127130000Y-45655000D01*
%TO.N,/MCLR*%
X111575000Y-62650000D02*
X110525000Y-61600000D01*
X111575000Y-68350000D02*
X111575000Y-62650000D01*
X113975000Y-62450000D02*
X113975000Y-59200000D01*
X113975000Y-59200000D02*
X114775000Y-58400000D01*
%TO.N,Net-(R12-Pad1)*%
X120950000Y-65600000D02*
X120950000Y-59725000D01*
%TO.N,/PGC*%
X109280761Y-67905761D02*
X109375000Y-68000000D01*
X110915734Y-62909266D02*
X110915734Y-65865027D01*
X110915734Y-65865027D02*
X109280761Y-67500000D01*
X109280761Y-67500000D02*
X109280761Y-67905761D01*
%TO.N,/I2C_DATA*%
X102450000Y-59075000D02*
X102400000Y-59025000D01*
X102400000Y-35700000D02*
X103700000Y-34400000D01*
X123600000Y-28710500D02*
X123339500Y-28450000D01*
X120550000Y-28450000D02*
X118775000Y-30225000D01*
X118775000Y-30225000D02*
X112925000Y-30225000D01*
X107425000Y-64050000D02*
X102450000Y-59075000D01*
X123339500Y-28450000D02*
X120550000Y-28450000D01*
X102400000Y-59025000D02*
X102400000Y-35700000D01*
%TO.N,/I2C_SCK*%
X112800000Y-29100000D02*
X112025000Y-29875000D01*
X110480761Y-37780761D02*
X110480761Y-33219239D01*
X110480761Y-39875000D02*
X110480761Y-37780761D01*
X112025000Y-31675000D02*
X112025000Y-29875000D01*
X110480761Y-33219239D02*
X112025000Y-31675000D01*
X118600000Y-29100000D02*
X112800000Y-29100000D01*
%TD*%
%TA.AperFunction,Conductor*%
%TO.N,gnd*%
G36*
X122415324Y-25004225D02*
G01*
X122505720Y-25028446D01*
X122526028Y-25035838D01*
X122526037Y-25035842D01*
X122652418Y-25094775D01*
X122671136Y-25105582D01*
X122785370Y-25185569D01*
X122801928Y-25199463D01*
X122900536Y-25298071D01*
X122914430Y-25314629D01*
X122994417Y-25428863D01*
X123005224Y-25447581D01*
X123064160Y-25573968D01*
X123071553Y-25594280D01*
X123107647Y-25728986D01*
X123111400Y-25750272D01*
X123124028Y-25894609D01*
X123124500Y-25905416D01*
X123124500Y-25941434D01*
X123124960Y-25944255D01*
X123138601Y-27239708D01*
X123138608Y-27241113D01*
X123138526Y-27343253D01*
X123165016Y-27494881D01*
X123170624Y-27526980D01*
X123184758Y-27566197D01*
X123233861Y-27702443D01*
X123236042Y-27706263D01*
X123326349Y-27864402D01*
X123430376Y-27989977D01*
X123456984Y-28047459D01*
X123451732Y-28110584D01*
X123415988Y-28162878D01*
X123359080Y-28190696D01*
X123326811Y-28197116D01*
X123302615Y-28199500D01*
X120586885Y-28199500D01*
X120562694Y-28197117D01*
X120550000Y-28194592D01*
X120549999Y-28194592D01*
X120452259Y-28214033D01*
X120437616Y-28223818D01*
X120437615Y-28223817D01*
X120369399Y-28269397D01*
X120362202Y-28280169D01*
X120346783Y-28298955D01*
X119354346Y-29291392D01*
X119301883Y-29322605D01*
X119240883Y-29325001D01*
X119186133Y-29298001D01*
X119150901Y-29248148D01*
X119143726Y-29187528D01*
X119155250Y-29100000D01*
X119136330Y-28956291D01*
X119090063Y-28844590D01*
X119080862Y-28822377D01*
X119080861Y-28822376D01*
X119080861Y-28822375D01*
X118992621Y-28707379D01*
X118877625Y-28619139D01*
X118877624Y-28619138D01*
X118877622Y-28619137D01*
X118743709Y-28563670D01*
X118600000Y-28544749D01*
X118456290Y-28563670D01*
X118322377Y-28619137D01*
X118207377Y-28707380D01*
X118172084Y-28753376D01*
X118135550Y-28800987D01*
X118092020Y-28836712D01*
X118037176Y-28849500D01*
X112836891Y-28849500D01*
X112812699Y-28847117D01*
X112808608Y-28846303D01*
X112799998Y-28844590D01*
X112702260Y-28864033D01*
X112661751Y-28891101D01*
X112619397Y-28919400D01*
X112612202Y-28930168D01*
X112596785Y-28948952D01*
X111873955Y-29671783D01*
X111855169Y-29687201D01*
X111844400Y-29694397D01*
X111827869Y-29719137D01*
X111827869Y-29719139D01*
X111789033Y-29777259D01*
X111769592Y-29874999D01*
X111772117Y-29887693D01*
X111774500Y-29911885D01*
X111774500Y-31519877D01*
X111765061Y-31567330D01*
X111738181Y-31607558D01*
X110329716Y-33016022D01*
X110310930Y-33031441D01*
X110300160Y-33038637D01*
X110275530Y-33075500D01*
X110275529Y-33075500D01*
X110244795Y-33121496D01*
X110225353Y-33219238D01*
X110227878Y-33231932D01*
X110230261Y-33256124D01*
X110230261Y-37217937D01*
X110217473Y-37272781D01*
X110181748Y-37316311D01*
X110152634Y-37338651D01*
X110088141Y-37388138D01*
X109999898Y-37503138D01*
X109944431Y-37637051D01*
X109925510Y-37780761D01*
X109944431Y-37924470D01*
X109999898Y-38058383D01*
X109999899Y-38058385D01*
X109999900Y-38058386D01*
X110088140Y-38173382D01*
X110181748Y-38245210D01*
X110217473Y-38288741D01*
X110230261Y-38343585D01*
X110230261Y-39312176D01*
X110217473Y-39367020D01*
X110181748Y-39410550D01*
X110152634Y-39432890D01*
X110088141Y-39482377D01*
X109999898Y-39597377D01*
X109944431Y-39731290D01*
X109925510Y-39875000D01*
X109944431Y-40018709D01*
X109999898Y-40152622D01*
X109999899Y-40152624D01*
X109999900Y-40152625D01*
X110088140Y-40267621D01*
X110203136Y-40355861D01*
X110337052Y-40411330D01*
X110480761Y-40430250D01*
X110624470Y-40411330D01*
X110758386Y-40355861D01*
X110873382Y-40267621D01*
X110961622Y-40152625D01*
X111017091Y-40018709D01*
X111036011Y-39875000D01*
X111017091Y-39731291D01*
X110961622Y-39597375D01*
X110873382Y-39482379D01*
X110873380Y-39482378D01*
X110873380Y-39482377D01*
X110823544Y-39444137D01*
X110779773Y-39410550D01*
X110744049Y-39367020D01*
X110731261Y-39312176D01*
X110731261Y-38343585D01*
X110744049Y-38288741D01*
X110779773Y-38245210D01*
X110873382Y-38173382D01*
X110961622Y-38058386D01*
X111017091Y-37924470D01*
X111036011Y-37780761D01*
X111017091Y-37637052D01*
X110961622Y-37503136D01*
X110873382Y-37388140D01*
X110873380Y-37388139D01*
X110873380Y-37388138D01*
X110830750Y-37355427D01*
X110779773Y-37316311D01*
X110744049Y-37272781D01*
X110731261Y-37217937D01*
X110731261Y-33374361D01*
X110740700Y-33326908D01*
X110767580Y-33286680D01*
X111455976Y-32598284D01*
X112176051Y-31878208D01*
X112194827Y-31862799D01*
X112205601Y-31855601D01*
X112260966Y-31772740D01*
X112267677Y-31739004D01*
X112280409Y-31675000D01*
X112277882Y-31662300D01*
X112275500Y-31638109D01*
X112275500Y-30648143D01*
X112290527Y-30588975D01*
X112331965Y-30544148D01*
X112389771Y-30524525D01*
X112449935Y-30534863D01*
X112497875Y-30572656D01*
X112532376Y-30617618D01*
X112532377Y-30617619D01*
X112532379Y-30617621D01*
X112647375Y-30705861D01*
X112781291Y-30761330D01*
X112925000Y-30780250D01*
X113068709Y-30761330D01*
X113202625Y-30705861D01*
X113317621Y-30617621D01*
X113389449Y-30524012D01*
X113432980Y-30488288D01*
X113487824Y-30475500D01*
X118738115Y-30475500D01*
X118762305Y-30477882D01*
X118775000Y-30480408D01*
X118872741Y-30460966D01*
X118902536Y-30441057D01*
X118955601Y-30405601D01*
X118962798Y-30394828D01*
X118978210Y-30376048D01*
X120617440Y-28736819D01*
X120657669Y-28709939D01*
X120705122Y-28700500D01*
X122934689Y-28700500D01*
X122991946Y-28714511D01*
X123036264Y-28753376D01*
X123057627Y-28808312D01*
X123062404Y-28844590D01*
X123063670Y-28854209D01*
X123119137Y-28988122D01*
X123119138Y-28988124D01*
X123119139Y-28988125D01*
X123207379Y-29103121D01*
X123322375Y-29191361D01*
X123456291Y-29246830D01*
X123600000Y-29265750D01*
X123743709Y-29246830D01*
X123877625Y-29191361D01*
X123992621Y-29103121D01*
X124080861Y-28988125D01*
X124136330Y-28854209D01*
X124155250Y-28710500D01*
X124136330Y-28566791D01*
X124107540Y-28497284D01*
X124098742Y-28437239D01*
X124119490Y-28380211D01*
X124164815Y-28339858D01*
X124223860Y-28325844D01*
X124239545Y-28326066D01*
X124243301Y-28325499D01*
X138700802Y-28325499D01*
X138700806Y-28325500D01*
X138725469Y-28325500D01*
X138745933Y-28325500D01*
X138754042Y-28325765D01*
X138777909Y-28327329D01*
X138993102Y-28341433D01*
X139009165Y-28343548D01*
X139240136Y-28389492D01*
X139255779Y-28393683D01*
X139478787Y-28469384D01*
X139493754Y-28475584D01*
X139634007Y-28544749D01*
X139704960Y-28579739D01*
X139719006Y-28587849D01*
X139914802Y-28718675D01*
X139927667Y-28728546D01*
X140010269Y-28800986D01*
X140104716Y-28883814D01*
X140116185Y-28895283D01*
X140271450Y-29072328D01*
X140281324Y-29085197D01*
X140412150Y-29280993D01*
X140420260Y-29295039D01*
X140524412Y-29506238D01*
X140530617Y-29521220D01*
X140606288Y-29744139D01*
X140606311Y-29744204D01*
X140610509Y-29759872D01*
X140656449Y-29990825D01*
X140658567Y-30006906D01*
X140674235Y-30245957D01*
X140674500Y-30254067D01*
X140674500Y-71245933D01*
X140674235Y-71254043D01*
X140658567Y-71493093D01*
X140656449Y-71509174D01*
X140610509Y-71740127D01*
X140606311Y-71755795D01*
X140530619Y-71978776D01*
X140524412Y-71993761D01*
X140420260Y-72204960D01*
X140412150Y-72219006D01*
X140281324Y-72414802D01*
X140271450Y-72427671D01*
X140116185Y-72604716D01*
X140104716Y-72616185D01*
X139927671Y-72771450D01*
X139914802Y-72781324D01*
X139719006Y-72912150D01*
X139704960Y-72920260D01*
X139493761Y-73024412D01*
X139478776Y-73030619D01*
X139255795Y-73106311D01*
X139240127Y-73110509D01*
X139009174Y-73156449D01*
X138993093Y-73158567D01*
X138754043Y-73174235D01*
X138745933Y-73174500D01*
X102754067Y-73174500D01*
X102745957Y-73174235D01*
X102506906Y-73158567D01*
X102490825Y-73156449D01*
X102259872Y-73110509D01*
X102244210Y-73106312D01*
X102021220Y-73030617D01*
X102006238Y-73024412D01*
X101795039Y-72920260D01*
X101780993Y-72912150D01*
X101585197Y-72781324D01*
X101572328Y-72771450D01*
X101395283Y-72616185D01*
X101383814Y-72604716D01*
X101228549Y-72427671D01*
X101218675Y-72414802D01*
X101087849Y-72219006D01*
X101079739Y-72204960D01*
X101062469Y-72169940D01*
X100975584Y-71993754D01*
X100969384Y-71978787D01*
X100893683Y-71755779D01*
X100889492Y-71740136D01*
X100843548Y-71509165D01*
X100841433Y-71493102D01*
X100825765Y-71254042D01*
X100825500Y-71245933D01*
X100825500Y-70681000D01*
X105889402Y-70681000D01*
X105909738Y-70874482D01*
X105909739Y-70874485D01*
X105969855Y-71059507D01*
X106067129Y-71227992D01*
X106197308Y-71372570D01*
X106354699Y-71486921D01*
X106354700Y-71486921D01*
X106354701Y-71486922D01*
X106386766Y-71501198D01*
X106532431Y-71566052D01*
X106722724Y-71606500D01*
X106722726Y-71606500D01*
X106917274Y-71606500D01*
X106917276Y-71606500D01*
X107107568Y-71566052D01*
X107107569Y-71566051D01*
X107107571Y-71566051D01*
X107285299Y-71486922D01*
X107370527Y-71425000D01*
X107442691Y-71372570D01*
X107572870Y-71227992D01*
X107619414Y-71147375D01*
X107670144Y-71059508D01*
X107730262Y-70874482D01*
X107750598Y-70681000D01*
X107730262Y-70487518D01*
X107670144Y-70302492D01*
X107617894Y-70211992D01*
X107572870Y-70134007D01*
X107442691Y-69989429D01*
X107285300Y-69875078D01*
X107107568Y-69795947D01*
X107062131Y-69786290D01*
X107003028Y-69755392D01*
X106968480Y-69698346D01*
X106968480Y-69631654D01*
X107003028Y-69574608D01*
X107062131Y-69543710D01*
X107107568Y-69534052D01*
X107107569Y-69534051D01*
X107107571Y-69534051D01*
X107285299Y-69454922D01*
X107442692Y-69340569D01*
X107572870Y-69195992D01*
X107670144Y-69027508D01*
X107730262Y-68842482D01*
X107750598Y-68649000D01*
X107730262Y-68455518D01*
X107670144Y-68270492D01*
X107618218Y-68180553D01*
X107572870Y-68102007D01*
X107442691Y-67957429D01*
X107285300Y-67843078D01*
X107107568Y-67763947D01*
X106917276Y-67723500D01*
X106917274Y-67723500D01*
X106722726Y-67723500D01*
X106722724Y-67723500D01*
X106532431Y-67763947D01*
X106354699Y-67843078D01*
X106197308Y-67957429D01*
X106067129Y-68102007D01*
X105969855Y-68270492D01*
X105930174Y-68392621D01*
X105909738Y-68455518D01*
X105889402Y-68649000D01*
X105909738Y-68842482D01*
X105909739Y-68842485D01*
X105969855Y-69027507D01*
X106067129Y-69195992D01*
X106197308Y-69340570D01*
X106354699Y-69454921D01*
X106532431Y-69534052D01*
X106577868Y-69543710D01*
X106636971Y-69574608D01*
X106671519Y-69631654D01*
X106671519Y-69698346D01*
X106636971Y-69755392D01*
X106577868Y-69786290D01*
X106532431Y-69795947D01*
X106354699Y-69875078D01*
X106197308Y-69989429D01*
X106067129Y-70134007D01*
X105969855Y-70302492D01*
X105915130Y-70470922D01*
X105909738Y-70487518D01*
X105889402Y-70681000D01*
X100825500Y-70681000D01*
X100825500Y-59025000D01*
X102144592Y-59025000D01*
X102164033Y-59122741D01*
X102178635Y-59144593D01*
X102178637Y-59144596D01*
X102219398Y-59205600D01*
X102230162Y-59212793D01*
X102248954Y-59228215D01*
X102298996Y-59278257D01*
X102299002Y-59278262D01*
X103798974Y-60778234D01*
X103830187Y-60830697D01*
X103832583Y-60891696D01*
X103805583Y-60946447D01*
X103755730Y-60981679D01*
X103695107Y-60988854D01*
X103550000Y-60969749D01*
X103406290Y-60988670D01*
X103272377Y-61044137D01*
X103157379Y-61132379D01*
X103069137Y-61247377D01*
X103013670Y-61381290D01*
X102994749Y-61525000D01*
X103013670Y-61668709D01*
X103069137Y-61802622D01*
X103069138Y-61802624D01*
X103069139Y-61802625D01*
X103157379Y-61917621D01*
X103272375Y-62005861D01*
X103272376Y-62005861D01*
X103272377Y-62005862D01*
X103302715Y-62018428D01*
X103406291Y-62061330D01*
X103550000Y-62080250D01*
X103693709Y-62061330D01*
X103821065Y-62008577D01*
X103868517Y-61999139D01*
X103915970Y-62008578D01*
X103956197Y-62035457D01*
X104728118Y-62807379D01*
X105499893Y-63579154D01*
X105529631Y-63626977D01*
X105535151Y-63683021D01*
X105519749Y-63799999D01*
X105538670Y-63943709D01*
X105594137Y-64077622D01*
X105594138Y-64077624D01*
X105594139Y-64077625D01*
X105682379Y-64192621D01*
X105797375Y-64280861D01*
X105797376Y-64280861D01*
X105797377Y-64280862D01*
X105810989Y-64286500D01*
X105931291Y-64336330D01*
X106075000Y-64355250D01*
X106218709Y-64336330D01*
X106352625Y-64280861D01*
X106467621Y-64192621D01*
X106555861Y-64077625D01*
X106611330Y-63943709D01*
X106619590Y-63880964D01*
X106646676Y-63818486D01*
X106702670Y-63779732D01*
X106770686Y-63776390D01*
X106830210Y-63809470D01*
X106849892Y-63829152D01*
X106879630Y-63876974D01*
X106885150Y-63933018D01*
X106869749Y-64049998D01*
X106888670Y-64193709D01*
X106944137Y-64327622D01*
X106944138Y-64327624D01*
X106944139Y-64327625D01*
X107032379Y-64442621D01*
X107147375Y-64530861D01*
X107281291Y-64586330D01*
X107425000Y-64605250D01*
X107568709Y-64586330D01*
X107702625Y-64530861D01*
X107817621Y-64442621D01*
X107905861Y-64327625D01*
X107944741Y-64233757D01*
X107977541Y-64187985D01*
X108027207Y-64161437D01*
X108083492Y-64159595D01*
X108134787Y-64182836D01*
X108197375Y-64230861D01*
X108331291Y-64286330D01*
X108475000Y-64305250D01*
X108618709Y-64286330D01*
X108752625Y-64230861D01*
X108867621Y-64142621D01*
X108955861Y-64027625D01*
X109011330Y-63893709D01*
X109019967Y-63828103D01*
X109039802Y-63775401D01*
X109080904Y-63736904D01*
X109134794Y-63720557D01*
X109190356Y-63729729D01*
X109206291Y-63736330D01*
X109350000Y-63755250D01*
X109493709Y-63736330D01*
X109542506Y-63716117D01*
X109598062Y-63706945D01*
X109651952Y-63723292D01*
X109693055Y-63761789D01*
X109712892Y-63814494D01*
X109729904Y-63943709D01*
X109785371Y-64077622D01*
X109785372Y-64077624D01*
X109785373Y-64077625D01*
X109873613Y-64192621D01*
X109988609Y-64280861D01*
X109988610Y-64280861D01*
X109988611Y-64280862D01*
X110002223Y-64286500D01*
X110122525Y-64336330D01*
X110266234Y-64355250D01*
X110409943Y-64336330D01*
X110493782Y-64301603D01*
X110553389Y-64292762D01*
X110610125Y-64313063D01*
X110650592Y-64357712D01*
X110665234Y-64416165D01*
X110665234Y-65709905D01*
X110655795Y-65757358D01*
X110628915Y-65797586D01*
X109129716Y-67296783D01*
X109110931Y-67312201D01*
X109100161Y-67319398D01*
X109064709Y-67372452D01*
X109064704Y-67372460D01*
X109064703Y-67372463D01*
X109054714Y-67387412D01*
X109044793Y-67402261D01*
X109020541Y-67524191D01*
X109020263Y-67524135D01*
X109017585Y-67556791D01*
X108990633Y-67593136D01*
X108992317Y-67594428D01*
X108894137Y-67722377D01*
X108838670Y-67856290D01*
X108819749Y-67999999D01*
X108838670Y-68143709D01*
X108894137Y-68277622D01*
X108894138Y-68277624D01*
X108894139Y-68277625D01*
X108982379Y-68392621D01*
X109097375Y-68480861D01*
X109231291Y-68536330D01*
X109375000Y-68555250D01*
X109518709Y-68536330D01*
X109652625Y-68480861D01*
X109767621Y-68392621D01*
X109789602Y-68363975D01*
X109802125Y-68347656D01*
X109850065Y-68309863D01*
X109910229Y-68299525D01*
X109968035Y-68319148D01*
X110009473Y-68363975D01*
X110024500Y-68423143D01*
X110024500Y-70644878D01*
X110015061Y-70692331D01*
X109988183Y-70732556D01*
X109850128Y-70870610D01*
X109809903Y-70897488D01*
X109762451Y-70906927D01*
X109714998Y-70897488D01*
X109693709Y-70888670D01*
X109550000Y-70869749D01*
X109406290Y-70888670D01*
X109272377Y-70944137D01*
X109157379Y-71032379D01*
X109069137Y-71147377D01*
X109013670Y-71281290D01*
X108994750Y-71424999D01*
X109013670Y-71568709D01*
X109069137Y-71702622D01*
X109069138Y-71702624D01*
X109069139Y-71702625D01*
X109157379Y-71817621D01*
X109272375Y-71905861D01*
X109406291Y-71961330D01*
X109550000Y-71980250D01*
X109693709Y-71961330D01*
X109827625Y-71905861D01*
X109942621Y-71817621D01*
X110030861Y-71702625D01*
X110086330Y-71568709D01*
X110105250Y-71425000D01*
X110101482Y-71396384D01*
X110107001Y-71340342D01*
X110136738Y-71292520D01*
X110426048Y-71003210D01*
X110444829Y-70987797D01*
X110455601Y-70980601D01*
X110510966Y-70897740D01*
X110525500Y-70824674D01*
X110525500Y-70824673D01*
X110530408Y-70800000D01*
X110527882Y-70787305D01*
X110525500Y-70763114D01*
X110525500Y-67987824D01*
X110538288Y-67932980D01*
X110574012Y-67889449D01*
X110667621Y-67817621D01*
X110755861Y-67702625D01*
X110811330Y-67568709D01*
X110830250Y-67425000D01*
X110811330Y-67281291D01*
X110755861Y-67147375D01*
X110667621Y-67032379D01*
X110552625Y-66944139D01*
X110552624Y-66944138D01*
X110517950Y-66929776D01*
X110468283Y-66909204D01*
X110419884Y-66873310D01*
X110394120Y-66818836D01*
X110397076Y-66758649D01*
X110428054Y-66706965D01*
X111066782Y-66068237D01*
X111085562Y-66052825D01*
X111096335Y-66045628D01*
X111096338Y-66045624D01*
X111097398Y-66044039D01*
X111144205Y-66002444D01*
X111205368Y-65989025D01*
X111265290Y-66007202D01*
X111308689Y-66052340D01*
X111324500Y-66112929D01*
X111324500Y-67787176D01*
X111311712Y-67842020D01*
X111275987Y-67885550D01*
X111249518Y-67905861D01*
X111182380Y-67957377D01*
X111094137Y-68072377D01*
X111038670Y-68206290D01*
X111019749Y-68349999D01*
X111038670Y-68493709D01*
X111094137Y-68627622D01*
X111094138Y-68627624D01*
X111094139Y-68627625D01*
X111182379Y-68742621D01*
X111255004Y-68798348D01*
X111295281Y-68852287D01*
X111301441Y-68919322D01*
X111271668Y-68979694D01*
X111228618Y-69027507D01*
X111147127Y-69118010D01*
X111049855Y-69286492D01*
X110995130Y-69454922D01*
X110989738Y-69471518D01*
X110969402Y-69665000D01*
X110989738Y-69858482D01*
X110989739Y-69858485D01*
X111049855Y-70043507D01*
X111147129Y-70211992D01*
X111277308Y-70356570D01*
X111434699Y-70470921D01*
X111612431Y-70550052D01*
X111802724Y-70590500D01*
X111802726Y-70590500D01*
X111997274Y-70590500D01*
X111997276Y-70590500D01*
X112187568Y-70550052D01*
X112187569Y-70550051D01*
X112187571Y-70550051D01*
X112365299Y-70470922D01*
X112522692Y-70356569D01*
X112652870Y-70211992D01*
X112750144Y-70043508D01*
X112810262Y-69858482D01*
X112830598Y-69665000D01*
X112810262Y-69471518D01*
X112750144Y-69286492D01*
X112697894Y-69195992D01*
X112652870Y-69118007D01*
X112522691Y-68973429D01*
X112365300Y-68859078D01*
X112187568Y-68779947D01*
X112154365Y-68772890D01*
X112105305Y-68750468D01*
X112070408Y-68709336D01*
X112056276Y-68657279D01*
X112065585Y-68604148D01*
X112085839Y-68555250D01*
X112111330Y-68493709D01*
X112130250Y-68350000D01*
X112129941Y-68347656D01*
X112125734Y-68315696D01*
X112111330Y-68206291D01*
X112055861Y-68072375D01*
X111967621Y-67957379D01*
X111967619Y-67957378D01*
X111967619Y-67957377D01*
X111915123Y-67917096D01*
X111874012Y-67885550D01*
X111838288Y-67842020D01*
X111825500Y-67787176D01*
X111825500Y-64791008D01*
X111844199Y-64725528D01*
X111894656Y-64679796D01*
X111961654Y-64667605D01*
X112024986Y-64692632D01*
X112122374Y-64767360D01*
X112122375Y-64767361D01*
X112256291Y-64822830D01*
X112400000Y-64841750D01*
X112543709Y-64822830D01*
X112677625Y-64767361D01*
X112792621Y-64679121D01*
X112855305Y-64597429D01*
X112906229Y-64558354D01*
X112969868Y-64549976D01*
X113029169Y-64574540D01*
X113068243Y-64625463D01*
X113069137Y-64627622D01*
X113069138Y-64627624D01*
X113069139Y-64627625D01*
X113157379Y-64742621D01*
X113250987Y-64814449D01*
X113286712Y-64857980D01*
X113299500Y-64912824D01*
X113299500Y-70294878D01*
X113290061Y-70342331D01*
X113263181Y-70382559D01*
X113020846Y-70624893D01*
X112973023Y-70654631D01*
X112916979Y-70660150D01*
X112902921Y-70658300D01*
X112800000Y-70644749D01*
X112656290Y-70663670D01*
X112522377Y-70719137D01*
X112407379Y-70807379D01*
X112319137Y-70922377D01*
X112263670Y-71056290D01*
X112244749Y-71200000D01*
X112263670Y-71343709D01*
X112319137Y-71477622D01*
X112319138Y-71477624D01*
X112319139Y-71477625D01*
X112407379Y-71592621D01*
X112522375Y-71680861D01*
X112656291Y-71736330D01*
X112800000Y-71755250D01*
X112943709Y-71736330D01*
X113077625Y-71680861D01*
X113192621Y-71592621D01*
X113280861Y-71477625D01*
X113336330Y-71343709D01*
X113355250Y-71200000D01*
X113339848Y-71083015D01*
X113345367Y-71026975D01*
X113375104Y-70979154D01*
X113701048Y-70653210D01*
X113719828Y-70637798D01*
X113730601Y-70630601D01*
X113766057Y-70577536D01*
X113785966Y-70547741D01*
X113805408Y-70450000D01*
X113802882Y-70437305D01*
X113800500Y-70413115D01*
X113800500Y-68670165D01*
X125253386Y-68670165D01*
X125287926Y-68697049D01*
X125495626Y-68809451D01*
X125718982Y-68886129D01*
X125951921Y-68925000D01*
X126188079Y-68925000D01*
X126421017Y-68886129D01*
X126644373Y-68809451D01*
X126852074Y-68697049D01*
X126886612Y-68670166D01*
X126886613Y-68670165D01*
X137753386Y-68670165D01*
X137787926Y-68697049D01*
X137995626Y-68809451D01*
X138218982Y-68886129D01*
X138451921Y-68925000D01*
X138688079Y-68925000D01*
X138921017Y-68886129D01*
X139144373Y-68809451D01*
X139352074Y-68697049D01*
X139386612Y-68670166D01*
X139386613Y-68670165D01*
X138570000Y-67853553D01*
X137753386Y-68670165D01*
X126886613Y-68670165D01*
X126070000Y-67853553D01*
X125253386Y-68670165D01*
X113800500Y-68670165D01*
X113800500Y-67500000D01*
X124640115Y-67500000D01*
X124659617Y-67735346D01*
X124717591Y-67964282D01*
X124812456Y-68180552D01*
X124900750Y-68315695D01*
X125716447Y-67500001D01*
X126423553Y-67500001D01*
X127239248Y-68315696D01*
X127327542Y-68180553D01*
X127422408Y-67964282D01*
X127480382Y-67735346D01*
X127499884Y-67500000D01*
X137140115Y-67500000D01*
X137159617Y-67735346D01*
X137217591Y-67964282D01*
X137312456Y-68180552D01*
X137400750Y-68315695D01*
X138216447Y-67500001D01*
X138216447Y-67500000D01*
X138923553Y-67500000D01*
X139739248Y-68315696D01*
X139827542Y-68180553D01*
X139922408Y-67964282D01*
X139980382Y-67735346D01*
X139999884Y-67499999D01*
X139980382Y-67264653D01*
X139922408Y-67035717D01*
X139827543Y-66819447D01*
X139739248Y-66684302D01*
X138923553Y-67500000D01*
X138216447Y-67500000D01*
X137400749Y-66684302D01*
X137312454Y-66819449D01*
X137217592Y-67035714D01*
X137159617Y-67264653D01*
X137140115Y-67500000D01*
X127499884Y-67500000D01*
X127480382Y-67264653D01*
X127422408Y-67035717D01*
X127327543Y-66819447D01*
X127239248Y-66684302D01*
X126423553Y-67500000D01*
X126423553Y-67500001D01*
X125716447Y-67500001D01*
X125716447Y-67500000D01*
X124900749Y-66684302D01*
X124812454Y-66819449D01*
X124717592Y-67035714D01*
X124659617Y-67264653D01*
X124640115Y-67500000D01*
X113800500Y-67500000D01*
X113800500Y-64912824D01*
X113813288Y-64857980D01*
X113849012Y-64814449D01*
X113942621Y-64742621D01*
X114030861Y-64627625D01*
X114086330Y-64493709D01*
X114105250Y-64350000D01*
X114086330Y-64206291D01*
X114030861Y-64072375D01*
X114013692Y-64050000D01*
X113936949Y-63949986D01*
X113911922Y-63886654D01*
X113924113Y-63819656D01*
X113969845Y-63769199D01*
X114035325Y-63750500D01*
X115213115Y-63750500D01*
X115237305Y-63752882D01*
X115250000Y-63755408D01*
X115347741Y-63735966D01*
X115377536Y-63716057D01*
X115430601Y-63680601D01*
X115437798Y-63669828D01*
X115453210Y-63651048D01*
X115554259Y-63549999D01*
X119745249Y-63549999D01*
X119764170Y-63693709D01*
X119819637Y-63827622D01*
X119819638Y-63827624D01*
X119819639Y-63827625D01*
X119907879Y-63942621D01*
X120022875Y-64030861D01*
X120156791Y-64086330D01*
X120281578Y-64102758D01*
X120300499Y-64105250D01*
X120300499Y-64105249D01*
X120300500Y-64105250D01*
X120444209Y-64086330D01*
X120528048Y-64051603D01*
X120587655Y-64042762D01*
X120644391Y-64063063D01*
X120684858Y-64107712D01*
X120699500Y-64166165D01*
X120699500Y-65037176D01*
X120686712Y-65092020D01*
X120650987Y-65135550D01*
X120633264Y-65149150D01*
X120557380Y-65207377D01*
X120469137Y-65322377D01*
X120413670Y-65456290D01*
X120394749Y-65600000D01*
X120413670Y-65743709D01*
X120469137Y-65877622D01*
X120469138Y-65877624D01*
X120469139Y-65877625D01*
X120557379Y-65992621D01*
X120672375Y-66080861D01*
X120806291Y-66136330D01*
X120950000Y-66155250D01*
X121014059Y-66146816D01*
X121070102Y-66152335D01*
X121117925Y-66182073D01*
X121147663Y-66229896D01*
X121153183Y-66285940D01*
X121144749Y-66349998D01*
X121163670Y-66493709D01*
X121219137Y-66627622D01*
X121219138Y-66627624D01*
X121219139Y-66627625D01*
X121307379Y-66742621D01*
X121422375Y-66830861D01*
X121556291Y-66886330D01*
X121700000Y-66905250D01*
X121843709Y-66886330D01*
X121977625Y-66830861D01*
X122092621Y-66742621D01*
X122180861Y-66627625D01*
X122236330Y-66493709D01*
X122255250Y-66350000D01*
X122252595Y-66329833D01*
X125253385Y-66329833D01*
X126070000Y-67146447D01*
X126070001Y-67146447D01*
X126886612Y-66329833D01*
X137753385Y-66329833D01*
X138570000Y-67146447D01*
X138570001Y-67146447D01*
X139386612Y-66329833D01*
X139386612Y-66329831D01*
X139352074Y-66302950D01*
X139144376Y-66190549D01*
X138921017Y-66113870D01*
X138688079Y-66075000D01*
X138451921Y-66075000D01*
X138218982Y-66113870D01*
X137995626Y-66190548D01*
X137787924Y-66302951D01*
X137753386Y-66329832D01*
X137753385Y-66329833D01*
X126886612Y-66329833D01*
X126886612Y-66329831D01*
X126852074Y-66302950D01*
X126644376Y-66190549D01*
X126421017Y-66113870D01*
X126188079Y-66075000D01*
X125951921Y-66075000D01*
X125718982Y-66113870D01*
X125495626Y-66190548D01*
X125287924Y-66302951D01*
X125253386Y-66329832D01*
X125253385Y-66329833D01*
X122252595Y-66329833D01*
X122236330Y-66206291D01*
X122186861Y-66086861D01*
X122180862Y-66072377D01*
X122180861Y-66072376D01*
X122180861Y-66072375D01*
X122092621Y-65957379D01*
X122092619Y-65957378D01*
X122092619Y-65957377D01*
X122049989Y-65924666D01*
X121999012Y-65885550D01*
X121963288Y-65842020D01*
X121950500Y-65787176D01*
X121950500Y-62499999D01*
X124989892Y-62499999D01*
X125008282Y-62698470D01*
X125062827Y-62890178D01*
X125110706Y-62986329D01*
X125151674Y-63068604D01*
X125198492Y-63130601D01*
X125271791Y-63227665D01*
X125419087Y-63361943D01*
X125419089Y-63361944D01*
X125419090Y-63361945D01*
X125588554Y-63466873D01*
X125774414Y-63538876D01*
X125970340Y-63575500D01*
X126169658Y-63575500D01*
X126169660Y-63575500D01*
X126365586Y-63538876D01*
X126551446Y-63466873D01*
X126720910Y-63361945D01*
X126868209Y-63227664D01*
X126988326Y-63068604D01*
X127077171Y-62890180D01*
X127086453Y-62857559D01*
X127131717Y-62698470D01*
X127133993Y-62673905D01*
X127150108Y-62500000D01*
X127150108Y-62499999D01*
X137489892Y-62499999D01*
X137508282Y-62698470D01*
X137562827Y-62890178D01*
X137610706Y-62986329D01*
X137651674Y-63068604D01*
X137698492Y-63130601D01*
X137771791Y-63227665D01*
X137919087Y-63361943D01*
X137919089Y-63361944D01*
X137919090Y-63361945D01*
X138088554Y-63466873D01*
X138274414Y-63538876D01*
X138470340Y-63575500D01*
X138669658Y-63575500D01*
X138669660Y-63575500D01*
X138865586Y-63538876D01*
X139051446Y-63466873D01*
X139220910Y-63361945D01*
X139368209Y-63227664D01*
X139488326Y-63068604D01*
X139577171Y-62890180D01*
X139586453Y-62857559D01*
X139631717Y-62698470D01*
X139633993Y-62673905D01*
X139650108Y-62500000D01*
X139631717Y-62301531D01*
X139631717Y-62301529D01*
X139577172Y-62109821D01*
X139540143Y-62035458D01*
X139488326Y-61931396D01*
X139401517Y-61816443D01*
X139368208Y-61772334D01*
X139220912Y-61638056D01*
X139051447Y-61533127D01*
X138958515Y-61497125D01*
X138865586Y-61461124D01*
X138669660Y-61424500D01*
X138470340Y-61424500D01*
X138300269Y-61456291D01*
X138274414Y-61461124D01*
X138088552Y-61533127D01*
X137919087Y-61638056D01*
X137771791Y-61772334D01*
X137651674Y-61931396D01*
X137562827Y-62109821D01*
X137508282Y-62301529D01*
X137489892Y-62499999D01*
X127150108Y-62499999D01*
X127131717Y-62301531D01*
X127131717Y-62301529D01*
X127077172Y-62109821D01*
X127040143Y-62035458D01*
X126988326Y-61931396D01*
X126901517Y-61816443D01*
X126868208Y-61772334D01*
X126720912Y-61638056D01*
X126551447Y-61533127D01*
X126458515Y-61497125D01*
X126365586Y-61461124D01*
X126169660Y-61424500D01*
X125970340Y-61424500D01*
X125800269Y-61456291D01*
X125774414Y-61461124D01*
X125588552Y-61533127D01*
X125419087Y-61638056D01*
X125271791Y-61772334D01*
X125151674Y-61931396D01*
X125062827Y-62109821D01*
X125008282Y-62301529D01*
X124989892Y-62499999D01*
X121950500Y-62499999D01*
X121950500Y-62255275D01*
X121963288Y-62200431D01*
X121999014Y-62156899D01*
X122014042Y-62145367D01*
X122017621Y-62142621D01*
X122105861Y-62027625D01*
X122161330Y-61893709D01*
X122180250Y-61750000D01*
X122161330Y-61606291D01*
X122116608Y-61498322D01*
X122105862Y-61472377D01*
X122105861Y-61472376D01*
X122105861Y-61472375D01*
X122017621Y-61357379D01*
X121902625Y-61269139D01*
X121902624Y-61269138D01*
X121902622Y-61269137D01*
X121768709Y-61213670D01*
X121625000Y-61194749D01*
X121481290Y-61213670D01*
X121371952Y-61258959D01*
X121312345Y-61267801D01*
X121255609Y-61247500D01*
X121215142Y-61202851D01*
X121200500Y-61144398D01*
X121200500Y-60287824D01*
X121213288Y-60232980D01*
X121249012Y-60189449D01*
X121342621Y-60117621D01*
X121430861Y-60002625D01*
X121486330Y-59868709D01*
X121505250Y-59725000D01*
X121504512Y-59719398D01*
X121494291Y-59641761D01*
X121486330Y-59581291D01*
X121430861Y-59447375D01*
X121342621Y-59332379D01*
X121227625Y-59244139D01*
X121227624Y-59244138D01*
X121227622Y-59244137D01*
X121093709Y-59188670D01*
X120949999Y-59169749D01*
X120806291Y-59188670D01*
X120722451Y-59223397D01*
X120662845Y-59232238D01*
X120606109Y-59211937D01*
X120565642Y-59167288D01*
X120551000Y-59108835D01*
X120551000Y-58262324D01*
X120563788Y-58207480D01*
X120599512Y-58163949D01*
X120693121Y-58092121D01*
X120781361Y-57977125D01*
X120836830Y-57843209D01*
X120855750Y-57699500D01*
X120836830Y-57555791D01*
X120781361Y-57421875D01*
X120693121Y-57306879D01*
X120578125Y-57218639D01*
X120578124Y-57218638D01*
X120578122Y-57218637D01*
X120444209Y-57163170D01*
X120300500Y-57144249D01*
X120156790Y-57163170D01*
X120022877Y-57218637D01*
X119907879Y-57306879D01*
X119819637Y-57421877D01*
X119764170Y-57555790D01*
X119745249Y-57699499D01*
X119764170Y-57843209D01*
X119819637Y-57977122D01*
X119819638Y-57977124D01*
X119819639Y-57977125D01*
X119907879Y-58092121D01*
X119907880Y-58092122D01*
X119935479Y-58113300D01*
X120001487Y-58163949D01*
X120037212Y-58207480D01*
X120050000Y-58262324D01*
X120050000Y-62987176D01*
X120037212Y-63042020D01*
X120001487Y-63085550D01*
X119977037Y-63104312D01*
X119907880Y-63157377D01*
X119819637Y-63272377D01*
X119764170Y-63406290D01*
X119745249Y-63549999D01*
X115554259Y-63549999D01*
X115900705Y-63203553D01*
X115919491Y-63188136D01*
X115922738Y-63185966D01*
X115922740Y-63185966D01*
X116005601Y-63130601D01*
X116060966Y-63047740D01*
X116080408Y-62950000D01*
X116077882Y-62937305D01*
X116075500Y-62913115D01*
X116075500Y-60075712D01*
X116089511Y-60018455D01*
X116128376Y-59974137D01*
X116183312Y-59952773D01*
X116308211Y-59936330D01*
X116442127Y-59880861D01*
X116557123Y-59792621D01*
X116645363Y-59677625D01*
X116700832Y-59543709D01*
X116719752Y-59400000D01*
X116700832Y-59256291D01*
X116645363Y-59122375D01*
X116557123Y-59007379D01*
X116442127Y-58919139D01*
X116442126Y-58919138D01*
X116442124Y-58919137D01*
X116308211Y-58863670D01*
X116164502Y-58844749D01*
X116020792Y-58863670D01*
X115886879Y-58919137D01*
X115771881Y-59007379D01*
X115683639Y-59122377D01*
X115628172Y-59256290D01*
X115609251Y-59400000D01*
X115626422Y-59530416D01*
X115624244Y-59574759D01*
X115606586Y-59615492D01*
X115589033Y-59641761D01*
X115569592Y-59739501D01*
X115572117Y-59752195D01*
X115574500Y-59776387D01*
X115574500Y-62769878D01*
X115565061Y-62817331D01*
X115538181Y-62857559D01*
X115182559Y-63213181D01*
X115142331Y-63240061D01*
X115094878Y-63249500D01*
X114011610Y-63249500D01*
X113975000Y-63240117D01*
X113938390Y-63249500D01*
X113223385Y-63249500D01*
X113199194Y-63247117D01*
X113196793Y-63246639D01*
X113186499Y-63244591D01*
X113088761Y-63264032D01*
X113081118Y-63269139D01*
X113058963Y-63283942D01*
X113058960Y-63283943D01*
X113058952Y-63283948D01*
X113023102Y-63307904D01*
X113006289Y-63319139D01*
X113005898Y-63319400D01*
X112998701Y-63330170D01*
X112983283Y-63348955D01*
X112620845Y-63711393D01*
X112573022Y-63741131D01*
X112516979Y-63746650D01*
X112400000Y-63731250D01*
X112399999Y-63731250D01*
X112256290Y-63750170D01*
X112122375Y-63805638D01*
X112024986Y-63880368D01*
X111961654Y-63905395D01*
X111894656Y-63893204D01*
X111844199Y-63847472D01*
X111825500Y-63781992D01*
X111825500Y-62686885D01*
X111827883Y-62662693D01*
X111830408Y-62650000D01*
X111810966Y-62552259D01*
X111795007Y-62528375D01*
X111779662Y-62505409D01*
X111779661Y-62505407D01*
X111755602Y-62469399D01*
X111744833Y-62462204D01*
X111726042Y-62446782D01*
X111100106Y-61820846D01*
X111070367Y-61773023D01*
X111064848Y-61716983D01*
X111080250Y-61600000D01*
X111061330Y-61456291D01*
X111005861Y-61322375D01*
X110917621Y-61207379D01*
X110802625Y-61119139D01*
X110692456Y-61073506D01*
X110644059Y-61037612D01*
X110618295Y-60983139D01*
X110621251Y-60922952D01*
X110652229Y-60871268D01*
X112841825Y-58681672D01*
X112901346Y-58648594D01*
X112969362Y-58651936D01*
X113025357Y-58690690D01*
X113052443Y-58753169D01*
X113059218Y-58804629D01*
X113114685Y-58938542D01*
X113114686Y-58938544D01*
X113114687Y-58938545D01*
X113202927Y-59053541D01*
X113317923Y-59141781D01*
X113451839Y-59197250D01*
X113595548Y-59216170D01*
X113611734Y-59218301D01*
X113611273Y-59221798D01*
X113652904Y-59228205D01*
X113705080Y-59273962D01*
X113724500Y-59340588D01*
X113724500Y-61887176D01*
X113711712Y-61942020D01*
X113675987Y-61985550D01*
X113657808Y-61999500D01*
X113582380Y-62057377D01*
X113494137Y-62172377D01*
X113438670Y-62306290D01*
X113419749Y-62449999D01*
X113438670Y-62593709D01*
X113494137Y-62727622D01*
X113494138Y-62727624D01*
X113494139Y-62727625D01*
X113582379Y-62842621D01*
X113697375Y-62930861D01*
X113831291Y-62986330D01*
X113954576Y-63002561D01*
X113975000Y-63010761D01*
X113995423Y-63002561D01*
X114118709Y-62986330D01*
X114252625Y-62930861D01*
X114367621Y-62842621D01*
X114455861Y-62727625D01*
X114511330Y-62593709D01*
X114530250Y-62450000D01*
X114511330Y-62306291D01*
X114455861Y-62172375D01*
X114367621Y-62057379D01*
X114367619Y-62057378D01*
X114367619Y-62057377D01*
X114324989Y-62024666D01*
X114274012Y-61985550D01*
X114238288Y-61942020D01*
X114225500Y-61887176D01*
X114225500Y-59355122D01*
X114234939Y-59307669D01*
X114261816Y-59267443D01*
X114554156Y-58975102D01*
X114601975Y-58945368D01*
X114658015Y-58939848D01*
X114775000Y-58955250D01*
X114918709Y-58936330D01*
X115052625Y-58880861D01*
X115167621Y-58792621D01*
X115255861Y-58677625D01*
X115311330Y-58543709D01*
X115330250Y-58400000D01*
X115311330Y-58256291D01*
X115255861Y-58122375D01*
X115167621Y-58007379D01*
X115052625Y-57919139D01*
X115052624Y-57919138D01*
X115052622Y-57919137D01*
X114918709Y-57863670D01*
X114774999Y-57844749D01*
X114631290Y-57863670D01*
X114497377Y-57919137D01*
X114382379Y-58007379D01*
X114294137Y-58122377D01*
X114232423Y-58271373D01*
X114231098Y-58270824D01*
X114218959Y-58302443D01*
X114175935Y-58341180D01*
X114120014Y-58356162D01*
X114063386Y-58344124D01*
X114018395Y-58307690D01*
X113988169Y-58268298D01*
X113924014Y-58219071D01*
X113888288Y-58175539D01*
X113875500Y-58120695D01*
X113875500Y-54700000D01*
X128239678Y-54700000D01*
X128258923Y-54907698D01*
X128316005Y-55108319D01*
X128408978Y-55295035D01*
X128534682Y-55461494D01*
X128688826Y-55602014D01*
X128688828Y-55602015D01*
X128688829Y-55602016D01*
X128866172Y-55711823D01*
X129040294Y-55779278D01*
X129081821Y-55805884D01*
X129109692Y-55846572D01*
X129119500Y-55894905D01*
X129119500Y-56981410D01*
X129110060Y-57028864D01*
X129083179Y-57069094D01*
X129058706Y-57085444D01*
X128932379Y-57182379D01*
X128844137Y-57297377D01*
X128788670Y-57431290D01*
X128769749Y-57575000D01*
X128788670Y-57718709D01*
X128844137Y-57852622D01*
X128844138Y-57852624D01*
X128844139Y-57852625D01*
X128932379Y-57967621D01*
X129047375Y-58055861D01*
X129181291Y-58111330D01*
X129325000Y-58130250D01*
X129468709Y-58111330D01*
X129602625Y-58055861D01*
X129717621Y-57967621D01*
X129805861Y-57852625D01*
X129861330Y-57718709D01*
X129880250Y-57575000D01*
X129861330Y-57431291D01*
X129805861Y-57297375D01*
X129717621Y-57182379D01*
X129669012Y-57145079D01*
X129633288Y-57101549D01*
X129620500Y-57046705D01*
X129620500Y-55894905D01*
X129630308Y-55846572D01*
X129658179Y-55805884D01*
X129699706Y-55779278D01*
X129873828Y-55711823D01*
X130051171Y-55602016D01*
X130205318Y-55461493D01*
X130331019Y-55295038D01*
X130331019Y-55295036D01*
X130331021Y-55295035D01*
X130423994Y-55108319D01*
X130443272Y-55040566D01*
X130468372Y-54993823D01*
X130510711Y-54961850D01*
X130562538Y-54950500D01*
X136488115Y-54950500D01*
X136512305Y-54952882D01*
X136525000Y-54955408D01*
X136622741Y-54935966D01*
X136652536Y-54916057D01*
X136705601Y-54880601D01*
X136712798Y-54869828D01*
X136728210Y-54851048D01*
X138076048Y-53503210D01*
X138094828Y-53487798D01*
X138105601Y-53480601D01*
X138141057Y-53427536D01*
X138160966Y-53397741D01*
X138180408Y-53300000D01*
X138177882Y-53287305D01*
X138175500Y-53263115D01*
X138175500Y-40107026D01*
X138182081Y-40067167D01*
X138201122Y-40031541D01*
X138280861Y-39927625D01*
X138336330Y-39793709D01*
X138355250Y-39650000D01*
X138336330Y-39506291D01*
X138280861Y-39372375D01*
X138192621Y-39257379D01*
X138192619Y-39257378D01*
X138192619Y-39257377D01*
X138149989Y-39224666D01*
X138099012Y-39185550D01*
X138063288Y-39142020D01*
X138050500Y-39087176D01*
X138050500Y-31261885D01*
X138052883Y-31237693D01*
X138055408Y-31225000D01*
X138035966Y-31127260D01*
X137980601Y-31044399D01*
X137969833Y-31037204D01*
X137951043Y-31021783D01*
X137464746Y-30535486D01*
X137437866Y-30495257D01*
X137428427Y-30447803D01*
X137437865Y-30400356D01*
X137461330Y-30343709D01*
X137480250Y-30200000D01*
X137461330Y-30056291D01*
X137405861Y-29922375D01*
X137317621Y-29807379D01*
X137202625Y-29719139D01*
X137202624Y-29719138D01*
X137202622Y-29719137D01*
X137068709Y-29663670D01*
X136925000Y-29644749D01*
X136781290Y-29663670D01*
X136647377Y-29719137D01*
X136532379Y-29807379D01*
X136444137Y-29922377D01*
X136388670Y-30056290D01*
X136369749Y-30200000D01*
X136388670Y-30343709D01*
X136444137Y-30477622D01*
X136444138Y-30477624D01*
X136444139Y-30477625D01*
X136532379Y-30592621D01*
X136647375Y-30680861D01*
X136647376Y-30680861D01*
X136647377Y-30680862D01*
X136677715Y-30693428D01*
X136781291Y-30736330D01*
X136925000Y-30755250D01*
X136925000Y-30755249D01*
X136941187Y-30757381D01*
X136940790Y-30760395D01*
X136965378Y-30762786D01*
X137013297Y-30792557D01*
X137513181Y-31292441D01*
X137540061Y-31332669D01*
X137549500Y-31380122D01*
X137549500Y-39087176D01*
X137536712Y-39142020D01*
X137500987Y-39185550D01*
X137480754Y-39201076D01*
X137407380Y-39257377D01*
X137319137Y-39372377D01*
X137263670Y-39506290D01*
X137244749Y-39649999D01*
X137263670Y-39793709D01*
X137319137Y-39927622D01*
X137319138Y-39927624D01*
X137319139Y-39927625D01*
X137407379Y-40042621D01*
X137522375Y-40130861D01*
X137522376Y-40130861D01*
X137522377Y-40130862D01*
X137597952Y-40162166D01*
X137638181Y-40189045D01*
X137665061Y-40229274D01*
X137674500Y-40276727D01*
X137674500Y-53144878D01*
X137665061Y-53192331D01*
X137638181Y-53232559D01*
X136457559Y-54413181D01*
X136417331Y-54440061D01*
X136369878Y-54449500D01*
X130562538Y-54449500D01*
X130510711Y-54438150D01*
X130468372Y-54406177D01*
X130443272Y-54359434D01*
X130423994Y-54291680D01*
X130331021Y-54104964D01*
X130205317Y-53938505D01*
X130051173Y-53797985D01*
X129873827Y-53688176D01*
X129679328Y-53612827D01*
X129606182Y-53599154D01*
X129474293Y-53574500D01*
X129265707Y-53574500D01*
X129197682Y-53587216D01*
X129060671Y-53612827D01*
X128866172Y-53688176D01*
X128688826Y-53797985D01*
X128534682Y-53938505D01*
X128408978Y-54104964D01*
X128316005Y-54291680D01*
X128258923Y-54492301D01*
X128239678Y-54700000D01*
X113875500Y-54700000D01*
X113875500Y-46503999D01*
X130515749Y-46503999D01*
X130534670Y-46647709D01*
X130590137Y-46781622D01*
X130590138Y-46781624D01*
X130590139Y-46781625D01*
X130678379Y-46896621D01*
X130793375Y-46984861D01*
X130927291Y-47040330D01*
X131071000Y-47059250D01*
X131214709Y-47040330D01*
X131348625Y-46984861D01*
X131463621Y-46896621D01*
X131551861Y-46781625D01*
X131607330Y-46647709D01*
X131626250Y-46504000D01*
X131610848Y-46387015D01*
X131616367Y-46330975D01*
X131646104Y-46283154D01*
X132151048Y-45778210D01*
X132169829Y-45762797D01*
X132180601Y-45755601D01*
X132235966Y-45672740D01*
X132250500Y-45599674D01*
X132250500Y-45599673D01*
X132255408Y-45575000D01*
X132252882Y-45562305D01*
X132250500Y-45538114D01*
X132250500Y-31811886D01*
X132252883Y-31787692D01*
X132255408Y-31774999D01*
X132243994Y-31717622D01*
X132243994Y-31717621D01*
X132235965Y-31677257D01*
X132180601Y-31594399D01*
X132169833Y-31587204D01*
X132151043Y-31571783D01*
X131875106Y-31295846D01*
X131845367Y-31248023D01*
X131839848Y-31191983D01*
X131855250Y-31075000D01*
X131836330Y-30931291D01*
X131780861Y-30797375D01*
X131692621Y-30682379D01*
X131577625Y-30594139D01*
X131577624Y-30594138D01*
X131577622Y-30594137D01*
X131443709Y-30538670D01*
X131299999Y-30519749D01*
X131156290Y-30538670D01*
X131022377Y-30594137D01*
X130907379Y-30682379D01*
X130819137Y-30797377D01*
X130763670Y-30931290D01*
X130744749Y-31075000D01*
X130763670Y-31218709D01*
X130819137Y-31352622D01*
X130819138Y-31352624D01*
X130819139Y-31352625D01*
X130907379Y-31467621D01*
X131022375Y-31555861D01*
X131156291Y-31611330D01*
X131300000Y-31630250D01*
X131416983Y-31614848D01*
X131473023Y-31620367D01*
X131520846Y-31650106D01*
X131713181Y-31842441D01*
X131740061Y-31882669D01*
X131749500Y-31930122D01*
X131749500Y-45419878D01*
X131740061Y-45467331D01*
X131713181Y-45507559D01*
X131291846Y-45928893D01*
X131244023Y-45958631D01*
X131187979Y-45964150D01*
X131173921Y-45962300D01*
X131071000Y-45948749D01*
X130927290Y-45967670D01*
X130793377Y-46023137D01*
X130678379Y-46111379D01*
X130590137Y-46226377D01*
X130534670Y-46360290D01*
X130515749Y-46503999D01*
X113875500Y-46503999D01*
X113875500Y-45955122D01*
X113884939Y-45907669D01*
X113911819Y-45867441D01*
X114371881Y-45407379D01*
X115851048Y-43928210D01*
X115869828Y-43912798D01*
X115880601Y-43905601D01*
X115891161Y-43889795D01*
X115915598Y-43862831D01*
X115946810Y-43844124D01*
X115977625Y-43831361D01*
X116092621Y-43743121D01*
X116180861Y-43628125D01*
X116236330Y-43494209D01*
X116255250Y-43350500D01*
X116239536Y-43231143D01*
X116245372Y-43174180D01*
X116276182Y-43125912D01*
X116325394Y-43096633D01*
X116382514Y-43092589D01*
X116435360Y-43114641D01*
X116517269Y-43174151D01*
X116690197Y-43251144D01*
X116875352Y-43290500D01*
X116875354Y-43290500D01*
X117064646Y-43290500D01*
X117064648Y-43290500D01*
X117188083Y-43264262D01*
X117249803Y-43251144D01*
X117422730Y-43174151D01*
X117540209Y-43088798D01*
X117575870Y-43062889D01*
X117702533Y-42922216D01*
X117797179Y-42758284D01*
X117809333Y-42720877D01*
X117855674Y-42578256D01*
X117875460Y-42390000D01*
X118604540Y-42390000D01*
X118624326Y-42578257D01*
X118682820Y-42758284D01*
X118777466Y-42922216D01*
X118904129Y-43062889D01*
X119057269Y-43174151D01*
X119230197Y-43251144D01*
X119415352Y-43290500D01*
X119415354Y-43290500D01*
X119604646Y-43290500D01*
X119604648Y-43290500D01*
X119728083Y-43264262D01*
X119789803Y-43251144D01*
X119962730Y-43174151D01*
X120080209Y-43088798D01*
X120115870Y-43062889D01*
X120242533Y-42922216D01*
X120337179Y-42758284D01*
X120349333Y-42720877D01*
X120395674Y-42578256D01*
X120415460Y-42390000D01*
X121144540Y-42390000D01*
X121164326Y-42578257D01*
X121222820Y-42758284D01*
X121317466Y-42922216D01*
X121444129Y-43062889D01*
X121597269Y-43174151D01*
X121770197Y-43251144D01*
X121955352Y-43290500D01*
X121955354Y-43290500D01*
X122144646Y-43290500D01*
X122144648Y-43290500D01*
X122268083Y-43264262D01*
X122329803Y-43251144D01*
X122502730Y-43174151D01*
X122620209Y-43088798D01*
X122655870Y-43062889D01*
X122782533Y-42922216D01*
X122877179Y-42758284D01*
X122889333Y-42720877D01*
X122935674Y-42578256D01*
X122955460Y-42390000D01*
X123684540Y-42390000D01*
X123704326Y-42578257D01*
X123762820Y-42758284D01*
X123857466Y-42922216D01*
X123984129Y-43062889D01*
X124137269Y-43174151D01*
X124310197Y-43251144D01*
X124495352Y-43290500D01*
X124495354Y-43290500D01*
X124684646Y-43290500D01*
X124684648Y-43290500D01*
X124808083Y-43264262D01*
X124869803Y-43251144D01*
X125042730Y-43174151D01*
X125160209Y-43088798D01*
X125195870Y-43062889D01*
X125322533Y-42922216D01*
X125417179Y-42758284D01*
X125429333Y-42720877D01*
X125475674Y-42578256D01*
X125495460Y-42390000D01*
X126224540Y-42390000D01*
X126244326Y-42578257D01*
X126302820Y-42758284D01*
X126397466Y-42922216D01*
X126524129Y-43062889D01*
X126677265Y-43174149D01*
X126677335Y-43174180D01*
X126805937Y-43231438D01*
X126844698Y-43258579D01*
X126870471Y-43298266D01*
X126879500Y-43344717D01*
X126879500Y-45369038D01*
X126872919Y-45408897D01*
X126853876Y-45444525D01*
X126794137Y-45522377D01*
X126738670Y-45656290D01*
X126719749Y-45799999D01*
X126738670Y-45943709D01*
X126794137Y-46077622D01*
X126794138Y-46077624D01*
X126794139Y-46077625D01*
X126882379Y-46192621D01*
X126997375Y-46280861D01*
X127131291Y-46336330D01*
X127275000Y-46355250D01*
X127418709Y-46336330D01*
X127552625Y-46280861D01*
X127667621Y-46192621D01*
X127755861Y-46077625D01*
X127811330Y-45943709D01*
X127830250Y-45800000D01*
X127811330Y-45656291D01*
X127755861Y-45522375D01*
X127667621Y-45407379D01*
X127552625Y-45319139D01*
X127552624Y-45319138D01*
X127552622Y-45319137D01*
X127457048Y-45279550D01*
X127416819Y-45252671D01*
X127389939Y-45212442D01*
X127380500Y-45164989D01*
X127380500Y-43344717D01*
X127389529Y-43298266D01*
X127415302Y-43258579D01*
X127454062Y-43231438D01*
X127582730Y-43174151D01*
X127582730Y-43174150D01*
X127582734Y-43174149D01*
X127735870Y-43062889D01*
X127862533Y-42922216D01*
X127957179Y-42758284D01*
X127969333Y-42720877D01*
X128015674Y-42578256D01*
X128035460Y-42390000D01*
X128015674Y-42201744D01*
X127957179Y-42021716D01*
X127957179Y-42021715D01*
X127862533Y-41857783D01*
X127735870Y-41717110D01*
X127582730Y-41605848D01*
X127409802Y-41528855D01*
X127224648Y-41489500D01*
X127224646Y-41489500D01*
X127035354Y-41489500D01*
X127035352Y-41489500D01*
X126850197Y-41528855D01*
X126677269Y-41605848D01*
X126524129Y-41717110D01*
X126397466Y-41857783D01*
X126302820Y-42021715D01*
X126244326Y-42201742D01*
X126224540Y-42390000D01*
X125495460Y-42390000D01*
X125475674Y-42201744D01*
X125417179Y-42021716D01*
X125417179Y-42021715D01*
X125322533Y-41857783D01*
X125195870Y-41717110D01*
X125042730Y-41605848D01*
X124869802Y-41528855D01*
X124684648Y-41489500D01*
X124684646Y-41489500D01*
X124495354Y-41489500D01*
X124495352Y-41489500D01*
X124310197Y-41528855D01*
X124137269Y-41605848D01*
X123984129Y-41717110D01*
X123857466Y-41857783D01*
X123762820Y-42021715D01*
X123704326Y-42201742D01*
X123684540Y-42390000D01*
X122955460Y-42390000D01*
X122935674Y-42201744D01*
X122877179Y-42021716D01*
X122877178Y-42021714D01*
X122874999Y-42015008D01*
X122872356Y-41947743D01*
X122905247Y-41889011D01*
X123676048Y-41118210D01*
X123694829Y-41102797D01*
X123705601Y-41095601D01*
X123748857Y-41030863D01*
X123748858Y-41030862D01*
X123760966Y-41012741D01*
X123760965Y-41012741D01*
X123780408Y-40915000D01*
X123777882Y-40902305D01*
X123775500Y-40878115D01*
X123775500Y-40487824D01*
X123788288Y-40432980D01*
X123824012Y-40389449D01*
X123917621Y-40317621D01*
X124005861Y-40202625D01*
X124061330Y-40068709D01*
X124080250Y-39925000D01*
X124061330Y-39781291D01*
X124005861Y-39647375D01*
X123917621Y-39532379D01*
X123802625Y-39444139D01*
X123802624Y-39444138D01*
X123802622Y-39444137D01*
X123668709Y-39388670D01*
X123525000Y-39369749D01*
X123381290Y-39388670D01*
X123247377Y-39444137D01*
X123132379Y-39532379D01*
X123044137Y-39647377D01*
X122988670Y-39781290D01*
X122969749Y-39925000D01*
X122988670Y-40068709D01*
X123044137Y-40202622D01*
X123044138Y-40202624D01*
X123044139Y-40202625D01*
X123132379Y-40317621D01*
X123225987Y-40389449D01*
X123261712Y-40432980D01*
X123274500Y-40487824D01*
X123274500Y-40759878D01*
X123265061Y-40807331D01*
X123238181Y-40847559D01*
X122547188Y-41538550D01*
X122505958Y-41565840D01*
X122457343Y-41574850D01*
X122409073Y-41564149D01*
X122329803Y-41528856D01*
X122329802Y-41528855D01*
X122329798Y-41528854D01*
X122144648Y-41489500D01*
X122144646Y-41489500D01*
X121955354Y-41489500D01*
X121955352Y-41489500D01*
X121770197Y-41528855D01*
X121597269Y-41605848D01*
X121444129Y-41717110D01*
X121317466Y-41857783D01*
X121222820Y-42021715D01*
X121164326Y-42201742D01*
X121144540Y-42390000D01*
X120415460Y-42390000D01*
X120395674Y-42201744D01*
X120337179Y-42021716D01*
X120337179Y-42021715D01*
X120242533Y-41857783D01*
X120115870Y-41717110D01*
X119962730Y-41605848D01*
X119789802Y-41528855D01*
X119604648Y-41489500D01*
X119604646Y-41489500D01*
X119415354Y-41489500D01*
X119415352Y-41489500D01*
X119230197Y-41528855D01*
X119057269Y-41605848D01*
X118904129Y-41717110D01*
X118777466Y-41857783D01*
X118682820Y-42021715D01*
X118624326Y-42201742D01*
X118604540Y-42390000D01*
X117875460Y-42390000D01*
X117855674Y-42201744D01*
X117797179Y-42021716D01*
X117797179Y-42021715D01*
X117702533Y-41857783D01*
X117575870Y-41717110D01*
X117422730Y-41605848D01*
X117249802Y-41528855D01*
X117064648Y-41489500D01*
X117064646Y-41489500D01*
X116875354Y-41489500D01*
X116875352Y-41489500D01*
X116690197Y-41528855D01*
X116517269Y-41605848D01*
X116364129Y-41717110D01*
X116237466Y-41857783D01*
X116142820Y-42021715D01*
X116084326Y-42201742D01*
X116064540Y-42390000D01*
X116084326Y-42578257D01*
X116127201Y-42710212D01*
X116129252Y-42779839D01*
X116093442Y-42839586D01*
X116031070Y-42870599D01*
X115961819Y-42863092D01*
X115843709Y-42814170D01*
X115843708Y-42814169D01*
X115843706Y-42814169D01*
X115700000Y-42795249D01*
X115556291Y-42814170D01*
X115501951Y-42836678D01*
X115442345Y-42845519D01*
X115385609Y-42825218D01*
X115345142Y-42780569D01*
X115330500Y-42722116D01*
X115330500Y-41625179D01*
X115325255Y-41598812D01*
X115321767Y-41581278D01*
X115310322Y-41564149D01*
X115288504Y-41531495D01*
X115238723Y-41498233D01*
X115194821Y-41489500D01*
X115194820Y-41489500D01*
X113665180Y-41489500D01*
X113665179Y-41489500D01*
X113621278Y-41498232D01*
X113609124Y-41506354D01*
X113546318Y-41527102D01*
X113481780Y-41512609D01*
X113433876Y-41467000D01*
X113416234Y-41403251D01*
X113416234Y-40453558D01*
X113429022Y-40398714D01*
X113464746Y-40355183D01*
X113558355Y-40283355D01*
X113646595Y-40168359D01*
X113702064Y-40034443D01*
X113720984Y-39890734D01*
X113702064Y-39747025D01*
X113646595Y-39613109D01*
X113558355Y-39498113D01*
X113443359Y-39409873D01*
X113443358Y-39409872D01*
X113443356Y-39409871D01*
X113309443Y-39354404D01*
X113165734Y-39335483D01*
X113022024Y-39354404D01*
X112888111Y-39409871D01*
X112773113Y-39498113D01*
X112684871Y-39613111D01*
X112629404Y-39747024D01*
X112610483Y-39890733D01*
X112626756Y-40014328D01*
X112618378Y-40077966D01*
X112579304Y-40128889D01*
X112520003Y-40153453D01*
X112372024Y-40172936D01*
X112329599Y-40190509D01*
X112300349Y-40202625D01*
X112287686Y-40207870D01*
X112228079Y-40216712D01*
X112171343Y-40196411D01*
X112130876Y-40151762D01*
X112116234Y-40093309D01*
X112116234Y-35564388D01*
X112125673Y-35516935D01*
X112152553Y-35476707D01*
X112423211Y-35206049D01*
X113029260Y-34599999D01*
X116019749Y-34599999D01*
X116038670Y-34743709D01*
X116094137Y-34877622D01*
X116094138Y-34877624D01*
X116094139Y-34877625D01*
X116182379Y-34992621D01*
X116297375Y-35080861D01*
X116431291Y-35136330D01*
X116575000Y-35155250D01*
X116718709Y-35136330D01*
X116852625Y-35080861D01*
X116967621Y-34992621D01*
X117055861Y-34877625D01*
X117111330Y-34743709D01*
X117130250Y-34600000D01*
X117116016Y-34491884D01*
X117126018Y-34424502D01*
X117139916Y-34408130D01*
X117136896Y-34406112D01*
X117150601Y-34385601D01*
X117192847Y-34322375D01*
X117205966Y-34302741D01*
X117225408Y-34205000D01*
X117222882Y-34192305D01*
X117220500Y-34168115D01*
X117220500Y-33184717D01*
X117229529Y-33138266D01*
X117255302Y-33098579D01*
X117294062Y-33071438D01*
X117422730Y-33014151D01*
X117422730Y-33014150D01*
X117422734Y-33014149D01*
X117575870Y-32902889D01*
X117576111Y-32902622D01*
X117702533Y-32762216D01*
X117797179Y-32598284D01*
X117855674Y-32418256D01*
X117875460Y-32230000D01*
X117875460Y-32229999D01*
X118604540Y-32229999D01*
X118624326Y-32418257D01*
X118682820Y-32598284D01*
X118777466Y-32762216D01*
X118904129Y-32902889D01*
X119057269Y-33014151D01*
X119230197Y-33091144D01*
X119415352Y-33130500D01*
X119415354Y-33130500D01*
X119604646Y-33130500D01*
X119604648Y-33130500D01*
X119728083Y-33104262D01*
X119789803Y-33091144D01*
X119962730Y-33014151D01*
X120115871Y-32902888D01*
X120242533Y-32762216D01*
X120337179Y-32598284D01*
X120395674Y-32418256D01*
X120415460Y-32230000D01*
X120415460Y-32229999D01*
X121144540Y-32229999D01*
X121164326Y-32418257D01*
X121222820Y-32598284D01*
X121317466Y-32762216D01*
X121444129Y-32902889D01*
X121597269Y-33014151D01*
X121770197Y-33091144D01*
X121955352Y-33130500D01*
X121955354Y-33130500D01*
X122144646Y-33130500D01*
X122144648Y-33130500D01*
X122268083Y-33104262D01*
X122329803Y-33091144D01*
X122502730Y-33014151D01*
X122655871Y-32902888D01*
X122782533Y-32762216D01*
X122877179Y-32598284D01*
X122935674Y-32418256D01*
X122955460Y-32230000D01*
X122955460Y-32229999D01*
X123684540Y-32229999D01*
X123704326Y-32418257D01*
X123762820Y-32598284D01*
X123857466Y-32762216D01*
X123984129Y-32902889D01*
X124137269Y-33014151D01*
X124310197Y-33091144D01*
X124495352Y-33130500D01*
X124495354Y-33130500D01*
X124684646Y-33130500D01*
X124684648Y-33130500D01*
X124808083Y-33104262D01*
X124869803Y-33091144D01*
X125042730Y-33014151D01*
X125195871Y-32902888D01*
X125322533Y-32762216D01*
X125417179Y-32598284D01*
X125475674Y-32418256D01*
X125495460Y-32230000D01*
X125495460Y-32229999D01*
X126224540Y-32229999D01*
X126244326Y-32418257D01*
X126302820Y-32598284D01*
X126397466Y-32762216D01*
X126524129Y-32902889D01*
X126677265Y-33014149D01*
X126717742Y-33032170D01*
X126805937Y-33071438D01*
X126844698Y-33098579D01*
X126870471Y-33138266D01*
X126879500Y-33184717D01*
X126879500Y-35864155D01*
X126866712Y-35918999D01*
X126830987Y-35962531D01*
X126822375Y-35969138D01*
X126822375Y-35969139D01*
X126707378Y-36057379D01*
X126707379Y-36057379D01*
X126619137Y-36172377D01*
X126563670Y-36306290D01*
X126544749Y-36449999D01*
X126563670Y-36593709D01*
X126619137Y-36727622D01*
X126619138Y-36727624D01*
X126619139Y-36727625D01*
X126707379Y-36842621D01*
X126822375Y-36930861D01*
X126956291Y-36986330D01*
X127100000Y-37005250D01*
X127243709Y-36986330D01*
X127377625Y-36930861D01*
X127492621Y-36842621D01*
X127580861Y-36727625D01*
X127636330Y-36593709D01*
X127655250Y-36450000D01*
X127636330Y-36306291D01*
X127580861Y-36172375D01*
X127492621Y-36057379D01*
X127429012Y-36008569D01*
X127393288Y-35965039D01*
X127380500Y-35910195D01*
X127380500Y-33184717D01*
X127389529Y-33138266D01*
X127415302Y-33098579D01*
X127454062Y-33071438D01*
X127582730Y-33014151D01*
X127582730Y-33014150D01*
X127582734Y-33014149D01*
X127735870Y-32902889D01*
X127736111Y-32902622D01*
X127862533Y-32762216D01*
X127957179Y-32598284D01*
X128015674Y-32418256D01*
X128035460Y-32230000D01*
X128015674Y-32041744D01*
X127959990Y-31870367D01*
X127957179Y-31861715D01*
X127862533Y-31697783D01*
X127735870Y-31557110D01*
X127582730Y-31445848D01*
X127409802Y-31368855D01*
X127224648Y-31329500D01*
X127224646Y-31329500D01*
X127035354Y-31329500D01*
X127035352Y-31329500D01*
X126850197Y-31368855D01*
X126677269Y-31445848D01*
X126524129Y-31557110D01*
X126397466Y-31697783D01*
X126302820Y-31861715D01*
X126244326Y-32041742D01*
X126224540Y-32229999D01*
X125495460Y-32229999D01*
X125475674Y-32041744D01*
X125419990Y-31870367D01*
X125417179Y-31861715D01*
X125322533Y-31697783D01*
X125195870Y-31557110D01*
X125042730Y-31445848D01*
X124869802Y-31368855D01*
X124684648Y-31329500D01*
X124684646Y-31329500D01*
X124495354Y-31329500D01*
X124495352Y-31329500D01*
X124310197Y-31368855D01*
X124137269Y-31445848D01*
X123984129Y-31557110D01*
X123857466Y-31697783D01*
X123762820Y-31861715D01*
X123704326Y-32041742D01*
X123684540Y-32229999D01*
X122955460Y-32229999D01*
X122935674Y-32041744D01*
X122879990Y-31870367D01*
X122877179Y-31861715D01*
X122782533Y-31697783D01*
X122655870Y-31557110D01*
X122502730Y-31445848D01*
X122329802Y-31368855D01*
X122144648Y-31329500D01*
X122144646Y-31329500D01*
X121955354Y-31329500D01*
X121955352Y-31329500D01*
X121770197Y-31368855D01*
X121597269Y-31445848D01*
X121444129Y-31557110D01*
X121317466Y-31697783D01*
X121222820Y-31861715D01*
X121164326Y-32041742D01*
X121144540Y-32229999D01*
X120415460Y-32229999D01*
X120395674Y-32041744D01*
X120339990Y-31870367D01*
X120337179Y-31861715D01*
X120242533Y-31697783D01*
X120115870Y-31557110D01*
X119962730Y-31445848D01*
X119789802Y-31368855D01*
X119604648Y-31329500D01*
X119604646Y-31329500D01*
X119415354Y-31329500D01*
X119415352Y-31329500D01*
X119230197Y-31368855D01*
X119057269Y-31445848D01*
X118904129Y-31557110D01*
X118777466Y-31697783D01*
X118682820Y-31861715D01*
X118624326Y-32041742D01*
X118604540Y-32229999D01*
X117875460Y-32229999D01*
X117855674Y-32041744D01*
X117799990Y-31870367D01*
X117797179Y-31861715D01*
X117702533Y-31697783D01*
X117575870Y-31557110D01*
X117422730Y-31445848D01*
X117249802Y-31368855D01*
X117064648Y-31329500D01*
X117064646Y-31329500D01*
X116875354Y-31329500D01*
X116875352Y-31329500D01*
X116690197Y-31368855D01*
X116517269Y-31445848D01*
X116364129Y-31557110D01*
X116237466Y-31697783D01*
X116142820Y-31861715D01*
X116084326Y-32041742D01*
X116064540Y-32229999D01*
X116084326Y-32418257D01*
X116142820Y-32598284D01*
X116237466Y-32762216D01*
X116364129Y-32902889D01*
X116517265Y-33014149D01*
X116557742Y-33032170D01*
X116645937Y-33071438D01*
X116684698Y-33098579D01*
X116710471Y-33138266D01*
X116719500Y-33184717D01*
X116719500Y-33922379D01*
X116700080Y-33989004D01*
X116647904Y-34034761D01*
X116579314Y-34045318D01*
X116575000Y-34044750D01*
X116574999Y-34044750D01*
X116431290Y-34063670D01*
X116297377Y-34119137D01*
X116182379Y-34207379D01*
X116094139Y-34322375D01*
X116038670Y-34456290D01*
X116019749Y-34599999D01*
X113029260Y-34599999D01*
X113417548Y-34211710D01*
X113457774Y-34184832D01*
X113505229Y-34175394D01*
X113552676Y-34184832D01*
X113556291Y-34186330D01*
X113652096Y-34198943D01*
X113699999Y-34205250D01*
X113699999Y-34205249D01*
X113700000Y-34205250D01*
X113843709Y-34186330D01*
X113977625Y-34130861D01*
X114092621Y-34042621D01*
X114180861Y-33927625D01*
X114236330Y-33793709D01*
X114255250Y-33650000D01*
X114236330Y-33506291D01*
X114180861Y-33372375D01*
X114133598Y-33310781D01*
X114109712Y-33255976D01*
X114114246Y-33196361D01*
X114146149Y-33145798D01*
X114198004Y-33116040D01*
X114257755Y-33114006D01*
X114335354Y-33130500D01*
X114524646Y-33130500D01*
X114524648Y-33130500D01*
X114648083Y-33104262D01*
X114709803Y-33091144D01*
X114882730Y-33014151D01*
X115035871Y-32902888D01*
X115162533Y-32762216D01*
X115257179Y-32598284D01*
X115315674Y-32418256D01*
X115335460Y-32230000D01*
X115315674Y-32041744D01*
X115259990Y-31870367D01*
X115257179Y-31861715D01*
X115162533Y-31697783D01*
X115035870Y-31557110D01*
X114882730Y-31445848D01*
X114709802Y-31368855D01*
X114524648Y-31329500D01*
X114524646Y-31329500D01*
X114335354Y-31329500D01*
X114335352Y-31329500D01*
X114150197Y-31368855D01*
X113977269Y-31445848D01*
X113824129Y-31557110D01*
X113697466Y-31697783D01*
X113602820Y-31861715D01*
X113544326Y-32041742D01*
X113524540Y-32229999D01*
X113544326Y-32418257D01*
X113602820Y-32598284D01*
X113697466Y-32762216D01*
X113811901Y-32889308D01*
X113840015Y-32942071D01*
X113840172Y-33001857D01*
X113812335Y-33054768D01*
X113762975Y-33088502D01*
X113703567Y-33095219D01*
X113700002Y-33094749D01*
X113556290Y-33113670D01*
X113422377Y-33169137D01*
X113307379Y-33257379D01*
X113219137Y-33372377D01*
X113163670Y-33506290D01*
X113144749Y-33650000D01*
X113151425Y-33700704D01*
X113145905Y-33756748D01*
X113116167Y-33804570D01*
X111714689Y-35206049D01*
X111695904Y-35221467D01*
X111685134Y-35228664D01*
X111649682Y-35281718D01*
X111649677Y-35281726D01*
X111649676Y-35281729D01*
X111639687Y-35296678D01*
X111629766Y-35311527D01*
X111610325Y-35409265D01*
X111612851Y-35421959D01*
X111615234Y-35446151D01*
X111615234Y-55377910D01*
X111602446Y-55432754D01*
X111566721Y-55476284D01*
X111537607Y-55498624D01*
X111473114Y-55548111D01*
X111374935Y-55676061D01*
X111374481Y-55675712D01*
X111346638Y-55711995D01*
X111287338Y-55736556D01*
X111223701Y-55728176D01*
X111172780Y-55689102D01*
X111167621Y-55682378D01*
X111107479Y-55636230D01*
X111074012Y-55610550D01*
X111038288Y-55567020D01*
X111025500Y-55512176D01*
X111025500Y-43182008D01*
X111038288Y-43127164D01*
X111074013Y-43083632D01*
X111077623Y-43080861D01*
X111077625Y-43080861D01*
X111192621Y-42992621D01*
X111280861Y-42877625D01*
X111336330Y-42743709D01*
X111355250Y-42600000D01*
X111336330Y-42456291D01*
X111280861Y-42322375D01*
X111192621Y-42207379D01*
X111077625Y-42119139D01*
X111077624Y-42119138D01*
X111077622Y-42119137D01*
X110943709Y-42063670D01*
X110800000Y-42044749D01*
X110656290Y-42063670D01*
X110522377Y-42119137D01*
X110407379Y-42207379D01*
X110319137Y-42322377D01*
X110263670Y-42456290D01*
X110244749Y-42600000D01*
X110263670Y-42743709D01*
X110319137Y-42877622D01*
X110319138Y-42877624D01*
X110319139Y-42877625D01*
X110407378Y-42992620D01*
X110407381Y-42992623D01*
X110475987Y-43045267D01*
X110511712Y-43088798D01*
X110524500Y-43143642D01*
X110524500Y-53475816D01*
X110505688Y-53541478D01*
X110454960Y-53587216D01*
X110387709Y-53599154D01*
X110324338Y-53573670D01*
X110179514Y-53460949D01*
X109964526Y-53344603D01*
X109733334Y-53265233D01*
X109492222Y-53225000D01*
X109247778Y-53225000D01*
X109006665Y-53265233D01*
X108775473Y-53344603D01*
X108560485Y-53460949D01*
X108517758Y-53494205D01*
X109635871Y-54612318D01*
X109667965Y-54667905D01*
X109667965Y-54732093D01*
X109635871Y-54787680D01*
X108517757Y-55905793D01*
X108517758Y-55905794D01*
X108560484Y-55939050D01*
X108775473Y-56055396D01*
X109006665Y-56134766D01*
X109247778Y-56175000D01*
X109492222Y-56175000D01*
X109733334Y-56134766D01*
X109964528Y-56055396D01*
X110041923Y-56013511D01*
X110099446Y-55998574D01*
X110157312Y-56012118D01*
X110202230Y-56051033D01*
X110223881Y-56106379D01*
X110238670Y-56218709D01*
X110294137Y-56352622D01*
X110294138Y-56352624D01*
X110294139Y-56352625D01*
X110382379Y-56467621D01*
X110497375Y-56555861D01*
X110497376Y-56555861D01*
X110497377Y-56555862D01*
X110527715Y-56568428D01*
X110631291Y-56611330D01*
X110775000Y-56630250D01*
X110918709Y-56611330D01*
X111052625Y-56555861D01*
X111167621Y-56467621D01*
X111255861Y-56352625D01*
X111255861Y-56352623D01*
X111265799Y-56339673D01*
X111266252Y-56340021D01*
X111294088Y-56303743D01*
X111353389Y-56279178D01*
X111417028Y-56287555D01*
X111467952Y-56326629D01*
X111473113Y-56333355D01*
X111588109Y-56421595D01*
X111722025Y-56477064D01*
X111865734Y-56495984D01*
X112009443Y-56477064D01*
X112093782Y-56442129D01*
X112153389Y-56433288D01*
X112210125Y-56453589D01*
X112250592Y-56498238D01*
X112265234Y-56556691D01*
X112265234Y-56979143D01*
X112255795Y-57026596D01*
X112228915Y-57066824D01*
X109598955Y-59696783D01*
X109580170Y-59712201D01*
X109569400Y-59719398D01*
X109569399Y-59719399D01*
X109562406Y-59729864D01*
X109533948Y-59772452D01*
X109533943Y-59772460D01*
X109533942Y-59772463D01*
X109523953Y-59787412D01*
X109514032Y-59802261D01*
X109494591Y-59899999D01*
X109497117Y-59912693D01*
X109499500Y-59936885D01*
X109499500Y-59937176D01*
X109486712Y-59992020D01*
X109450987Y-60035550D01*
X109421873Y-60057890D01*
X109357380Y-60107377D01*
X109269137Y-60222377D01*
X109234205Y-60306713D01*
X109198309Y-60355114D01*
X109143835Y-60380878D01*
X109083649Y-60377922D01*
X109031963Y-60346942D01*
X108348216Y-59663195D01*
X108332794Y-59644404D01*
X108331028Y-59641761D01*
X108325601Y-59633638D01*
X108270429Y-59596774D01*
X108270429Y-59596773D01*
X108242740Y-59578272D01*
X108145000Y-59558830D01*
X108047260Y-59578272D01*
X107964399Y-59633638D01*
X107909033Y-59716499D01*
X107889592Y-59814238D01*
X107892117Y-59826932D01*
X107894500Y-59851124D01*
X107894500Y-60037761D01*
X107879473Y-60096929D01*
X107838035Y-60141756D01*
X107780229Y-60161379D01*
X107720064Y-60151041D01*
X107672124Y-60113247D01*
X107667621Y-60107378D01*
X107607479Y-60061230D01*
X107574012Y-60035550D01*
X107538288Y-59992020D01*
X107525500Y-59937176D01*
X107525500Y-54700000D01*
X107889944Y-54700000D01*
X107910130Y-54943604D01*
X107970139Y-55180574D01*
X108068330Y-55404428D01*
X108164626Y-55551820D01*
X109016447Y-54700001D01*
X109016447Y-54700000D01*
X108164625Y-53848178D01*
X108068329Y-53995571D01*
X107970139Y-54219424D01*
X107910130Y-54456395D01*
X107889944Y-54700000D01*
X107525500Y-54700000D01*
X107525500Y-46017874D01*
X107544199Y-45952393D01*
X107594656Y-45906662D01*
X107661655Y-45894471D01*
X107724987Y-45919499D01*
X107772374Y-45955861D01*
X107824911Y-45977622D01*
X107906291Y-46011330D01*
X108050000Y-46030250D01*
X108193709Y-46011330D01*
X108327625Y-45955861D01*
X108442621Y-45867621D01*
X108530861Y-45752625D01*
X108586330Y-45618709D01*
X108605250Y-45475000D01*
X108604996Y-45473074D01*
X108598322Y-45422377D01*
X108586330Y-45331291D01*
X108530861Y-45197375D01*
X108442621Y-45082379D01*
X108442619Y-45082378D01*
X108442619Y-45082377D01*
X108375015Y-45030503D01*
X108349012Y-45010550D01*
X108313288Y-44967020D01*
X108300500Y-44912176D01*
X108300500Y-43530602D01*
X108315142Y-43472149D01*
X108355609Y-43427500D01*
X108412345Y-43407199D01*
X108471952Y-43416041D01*
X108581291Y-43461330D01*
X108725000Y-43480250D01*
X108868709Y-43461330D01*
X109002625Y-43405861D01*
X109002624Y-43405861D01*
X109003048Y-43405686D01*
X109062655Y-43396844D01*
X109119391Y-43417145D01*
X109159858Y-43461794D01*
X109174500Y-43520247D01*
X109174500Y-45137176D01*
X109161712Y-45192020D01*
X109125987Y-45235550D01*
X109096873Y-45257890D01*
X109032380Y-45307377D01*
X108944137Y-45422377D01*
X108888670Y-45556290D01*
X108869749Y-45699999D01*
X108888670Y-45843709D01*
X108944137Y-45977622D01*
X108944138Y-45977624D01*
X108944139Y-45977625D01*
X109032379Y-46092621D01*
X109147375Y-46180861D01*
X109281291Y-46236330D01*
X109425000Y-46255250D01*
X109568709Y-46236330D01*
X109702625Y-46180861D01*
X109817621Y-46092621D01*
X109905861Y-45977625D01*
X109961330Y-45843709D01*
X109980250Y-45700000D01*
X109961330Y-45556291D01*
X109905861Y-45422375D01*
X109817621Y-45307379D01*
X109817619Y-45307378D01*
X109817619Y-45307377D01*
X109774989Y-45274666D01*
X109724012Y-45235550D01*
X109688288Y-45192020D01*
X109675500Y-45137176D01*
X109675500Y-32555122D01*
X109684939Y-32507669D01*
X109711819Y-32467441D01*
X109982477Y-32196783D01*
X110279155Y-31900104D01*
X110326976Y-31870367D01*
X110383015Y-31864848D01*
X110500000Y-31880250D01*
X110643709Y-31861330D01*
X110777625Y-31805861D01*
X110892621Y-31717621D01*
X110980861Y-31602625D01*
X111036330Y-31468709D01*
X111055250Y-31325000D01*
X111036330Y-31181291D01*
X110980861Y-31047375D01*
X110892621Y-30932379D01*
X110777625Y-30844139D01*
X110777624Y-30844138D01*
X110777622Y-30844137D01*
X110643709Y-30788670D01*
X110500000Y-30769749D01*
X110356290Y-30788670D01*
X110222377Y-30844137D01*
X110107379Y-30932379D01*
X110019137Y-31047377D01*
X109963670Y-31181290D01*
X109944749Y-31325000D01*
X109960150Y-31441979D01*
X109954630Y-31498023D01*
X109924892Y-31545845D01*
X109273955Y-32196783D01*
X109255169Y-32212201D01*
X109244401Y-32219396D01*
X109244398Y-32219399D01*
X109244399Y-32219399D01*
X109210991Y-32269399D01*
X109210988Y-32269402D01*
X109210989Y-32269402D01*
X109189033Y-32302259D01*
X109169592Y-32399999D01*
X109172117Y-32412693D01*
X109174500Y-32436885D01*
X109174500Y-39954753D01*
X109159858Y-40013206D01*
X109119391Y-40057855D01*
X109062655Y-40078156D01*
X109003048Y-40069314D01*
X108868709Y-40013670D01*
X108725000Y-39994749D01*
X108581290Y-40013670D01*
X108471952Y-40058959D01*
X108412345Y-40067801D01*
X108355609Y-40047500D01*
X108315142Y-40002851D01*
X108300500Y-39944398D01*
X108300500Y-33187824D01*
X108313288Y-33132980D01*
X108349012Y-33089449D01*
X108442621Y-33017621D01*
X108530861Y-32902625D01*
X108586330Y-32768709D01*
X108605250Y-32625000D01*
X108586330Y-32481291D01*
X108530861Y-32347375D01*
X108442621Y-32232379D01*
X108327625Y-32144139D01*
X108327624Y-32144138D01*
X108327622Y-32144137D01*
X108193709Y-32088670D01*
X108049999Y-32069749D01*
X107906290Y-32088670D01*
X107772377Y-32144137D01*
X107657379Y-32232379D01*
X107569137Y-32347377D01*
X107513670Y-32481290D01*
X107494749Y-32625000D01*
X107513670Y-32768709D01*
X107569137Y-32902622D01*
X107569138Y-32902624D01*
X107569139Y-32902625D01*
X107657379Y-33017621D01*
X107750987Y-33089449D01*
X107786712Y-33132980D01*
X107799500Y-33187824D01*
X107799500Y-34512942D01*
X107780801Y-34578422D01*
X107730344Y-34624154D01*
X107663346Y-34636345D01*
X107600014Y-34611318D01*
X107577625Y-34594138D01*
X107443709Y-34538670D01*
X107300000Y-34519749D01*
X107156290Y-34538670D01*
X107022377Y-34594137D01*
X106907379Y-34682379D01*
X106819137Y-34797377D01*
X106763670Y-34931290D01*
X106744749Y-35075000D01*
X106763670Y-35218709D01*
X106819137Y-35352622D01*
X106819138Y-35352624D01*
X106819139Y-35352625D01*
X106907379Y-35467621D01*
X107022375Y-35555861D01*
X107022376Y-35555861D01*
X107022377Y-35555862D01*
X107042961Y-35564388D01*
X107156291Y-35611330D01*
X107187515Y-35615440D01*
X107191686Y-35615990D01*
X107246624Y-35637355D01*
X107285490Y-35681673D01*
X107299500Y-35738929D01*
X107299500Y-42069877D01*
X107290061Y-42117330D01*
X107263181Y-42157558D01*
X106612181Y-42808558D01*
X106562818Y-42838808D01*
X106505102Y-42843350D01*
X106451615Y-42821195D01*
X106414015Y-42777172D01*
X106400500Y-42720877D01*
X106400500Y-37012824D01*
X106413288Y-36957980D01*
X106449012Y-36914449D01*
X106542621Y-36842621D01*
X106630861Y-36727625D01*
X106686330Y-36593709D01*
X106705250Y-36450000D01*
X106686330Y-36306291D01*
X106630861Y-36172375D01*
X106542621Y-36057379D01*
X106427625Y-35969139D01*
X106427624Y-35969138D01*
X106427622Y-35969137D01*
X106293709Y-35913670D01*
X106150000Y-35894749D01*
X106006290Y-35913670D01*
X105872377Y-35969137D01*
X105757379Y-36057379D01*
X105669137Y-36172377D01*
X105613670Y-36306290D01*
X105594749Y-36449999D01*
X105613670Y-36593709D01*
X105669137Y-36727622D01*
X105669138Y-36727624D01*
X105669139Y-36727625D01*
X105757379Y-36842621D01*
X105850987Y-36914449D01*
X105886712Y-36957980D01*
X105899500Y-37012824D01*
X105899500Y-38244398D01*
X105884858Y-38302851D01*
X105844391Y-38347500D01*
X105787655Y-38367801D01*
X105728048Y-38358959D01*
X105618709Y-38313670D01*
X105475000Y-38294749D01*
X105331290Y-38313670D01*
X105197377Y-38369137D01*
X105082379Y-38457379D01*
X104994137Y-38572377D01*
X104938670Y-38706290D01*
X104919749Y-38849999D01*
X104938670Y-38993709D01*
X104994137Y-39127622D01*
X104994138Y-39127624D01*
X104994139Y-39127625D01*
X105082379Y-39242621D01*
X105197375Y-39330861D01*
X105197951Y-39331099D01*
X105238179Y-39357978D01*
X105265061Y-39398207D01*
X105274500Y-39445661D01*
X105274500Y-61183089D01*
X105272117Y-61207279D01*
X105270846Y-61213670D01*
X105269221Y-61221838D01*
X105265704Y-61281470D01*
X105231944Y-61334207D01*
X105176720Y-61363725D01*
X105114114Y-61362495D01*
X105060092Y-61330832D01*
X102686819Y-58957559D01*
X102659939Y-58917331D01*
X102650500Y-58869878D01*
X102650500Y-35855122D01*
X102659939Y-35807669D01*
X102686819Y-35767441D01*
X103044995Y-35409265D01*
X103479155Y-34975104D01*
X103526976Y-34945367D01*
X103583015Y-34939848D01*
X103700000Y-34955250D01*
X103843709Y-34936330D01*
X103977625Y-34880861D01*
X104092621Y-34792621D01*
X104180861Y-34677625D01*
X104236330Y-34543709D01*
X104255250Y-34400000D01*
X104236330Y-34256291D01*
X104193428Y-34152715D01*
X104180862Y-34122377D01*
X104180861Y-34122376D01*
X104180861Y-34122375D01*
X104092621Y-34007379D01*
X103977625Y-33919139D01*
X103977624Y-33919138D01*
X103977622Y-33919137D01*
X103843709Y-33863670D01*
X103700000Y-33844749D01*
X103556290Y-33863670D01*
X103422377Y-33919137D01*
X103307379Y-34007379D01*
X103219137Y-34122377D01*
X103163670Y-34256290D01*
X103144749Y-34400000D01*
X103160150Y-34516979D01*
X103154630Y-34573023D01*
X103124892Y-34620845D01*
X102248955Y-35496783D01*
X102230171Y-35512200D01*
X102219400Y-35519397D01*
X102191625Y-35560966D01*
X102164033Y-35602259D01*
X102144592Y-35699999D01*
X102147117Y-35712693D01*
X102149500Y-35736885D01*
X102149500Y-58988115D01*
X102147117Y-59012307D01*
X102144592Y-59025000D01*
X100825500Y-59025000D01*
X100825500Y-30254067D01*
X100825765Y-30245958D01*
X100834416Y-30113965D01*
X100841433Y-30006895D01*
X100843548Y-29990836D01*
X100889493Y-29759859D01*
X100893682Y-29744224D01*
X100969386Y-29521206D01*
X100975581Y-29506251D01*
X101079742Y-29295033D01*
X101087849Y-29280993D01*
X101206699Y-29103121D01*
X101218678Y-29085192D01*
X101228540Y-29072339D01*
X101383819Y-28895277D01*
X101395277Y-28883819D01*
X101572339Y-28728540D01*
X101585192Y-28718678D01*
X101780991Y-28587849D01*
X101795033Y-28579742D01*
X102006251Y-28475581D01*
X102021206Y-28469386D01*
X102244224Y-28393682D01*
X102259859Y-28389493D01*
X102490836Y-28343548D01*
X102506895Y-28341433D01*
X102723904Y-28327210D01*
X102745958Y-28325765D01*
X102754067Y-28325500D01*
X117328301Y-28325500D01*
X117328340Y-28325493D01*
X117386988Y-28325493D01*
X117572312Y-28292817D01*
X117572315Y-28292816D01*
X117749154Y-28228453D01*
X117912130Y-28134360D01*
X118056291Y-28013396D01*
X118177256Y-27869236D01*
X118271350Y-27706261D01*
X118335714Y-27529423D01*
X118368393Y-27344094D01*
X118368393Y-27250992D01*
X118368400Y-27249687D01*
X118368659Y-27225114D01*
X118382144Y-25944348D01*
X118382607Y-25941535D01*
X118382607Y-25905404D01*
X118383079Y-25894596D01*
X118395706Y-25750272D01*
X118399459Y-25728987D01*
X118435553Y-25594281D01*
X118435554Y-25594280D01*
X118435554Y-25594276D01*
X118442941Y-25573979D01*
X118501887Y-25447572D01*
X118512685Y-25428870D01*
X118592679Y-25314627D01*
X118606562Y-25298081D01*
X118705186Y-25199458D01*
X118721732Y-25185575D01*
X118835973Y-25105583D01*
X118854679Y-25094783D01*
X118981086Y-25035839D01*
X119001387Y-25028451D01*
X119054956Y-25014098D01*
X119091805Y-25004225D01*
X119123897Y-25000000D01*
X122383231Y-25000000D01*
X122415324Y-25004225D01*
G37*
%TD.AperFunction*%
%TD*%
M02*
