M48
; DRILL file {KiCad 7.0.1} date Thu Apr 20 20:08:04 2023
; FORMAT={-:-/ absolute / metric / decimal}
; #@! TF.CreationDate,2023-04-20T20:08:04+02:00
; #@! TF.GenerationSoftware,Kicad,Pcbnew,7.0.1
; #@! TF.FileFunction,MixedPlating,1,2
FMAT,2
METRIC
; #@! TA.AperFunction,Plated,PTH,ViaDrill
T1C0.400
; #@! TA.AperFunction,Plated,PTH,ComponentDrill
T2C1.000
; #@! TA.AperFunction,Plated,PTH,ComponentDrill
T3C1.067
; #@! TA.AperFunction,Plated,PTH,ComponentDrill
T4C1.250
; #@! TA.AperFunction,Plated,PTH,ComponentDrill
T5C1.300
%
G90
G05
T1
X103.55Y-61.525
X103.7Y-34.4
X105.475Y-38.85
X106.075Y-63.8
X106.15Y-36.45
X107.275Y-44.0
X107.275Y-60.5
X107.3Y-35.075
X107.425Y-64.05
X108.05Y-32.625
X108.05Y-45.475
X108.475Y-63.75
X108.725Y-40.55
X108.725Y-42.925
X109.2Y-61.6
X109.35Y-63.2
X109.375Y-68.0
X109.425Y-45.7
X109.55Y-71.425
X109.75Y-60.5
X110.266Y-63.8
X110.275Y-67.425
X110.481Y-37.781
X110.481Y-39.875
X110.5Y-31.325
X110.525Y-61.6
X110.775Y-56.075
X110.8Y-42.6
X110.916Y-62.909
X111.575Y-68.35
X111.866Y-55.941
X112.4Y-64.287
X112.516Y-40.709
X112.8Y-71.2
X112.925Y-30.225
X113.166Y-39.891
X113.55Y-64.35
X113.596Y-58.661
X113.7Y-33.65
X113.975Y-62.45
X114.775Y-58.4
X115.3Y-67.1
X115.7Y-43.35
X116.165Y-59.4
X116.575Y-34.6
X116.65Y-62.725
X117.175Y-53.375
X118.6Y-29.1
X120.3Y-57.7
X120.3Y-63.55
X120.95Y-59.725
X120.95Y-65.6
X121.625Y-61.75
X121.7Y-66.35
X123.525Y-39.925
X123.6Y-28.71
X127.1Y-36.45
X127.275Y-45.8
X129.325Y-57.575
X131.071Y-46.504
X131.3Y-31.075
X134.885Y-29.36
X134.885Y-50.66
X136.925Y-30.2
X137.8Y-39.65
T2
X114.43Y-32.23
X114.43Y-42.39
X116.97Y-32.23
X116.97Y-42.39
X119.51Y-32.23
X119.51Y-42.39
X122.05Y-32.23
X122.05Y-42.39
X124.59Y-32.23
X124.59Y-42.39
X127.13Y-32.23
X127.13Y-42.39
T3
X106.82Y-68.649
X106.82Y-70.681
X111.9Y-69.665
T4
X126.07Y-62.5
X126.07Y-67.5
X138.57Y-62.5
X138.57Y-67.5
T5
X109.37Y-54.7
X129.37Y-54.7
T0
M30
