%TF.GenerationSoftware,KiCad,Pcbnew,7.0.1*%
%TF.CreationDate,2023-04-20T20:08:01+02:00*%
%TF.ProjectId,RHT device,52485420-6465-4766-9963-652e6b696361,rev?*%
%TF.SameCoordinates,Original*%
%TF.FileFunction,Paste,Top*%
%TF.FilePolarity,Positive*%
%FSLAX46Y46*%
G04 Gerber Fmt 4.6, Leading zero omitted, Abs format (unit mm)*
G04 Created by KiCad (PCBNEW 7.0.1) date 2023-04-20 20:08:01*
%MOMM*%
%LPD*%
G01*
G04 APERTURE LIST*
G04 Aperture macros list*
%AMRoundRect*
0 Rectangle with rounded corners*
0 $1 Rounding radius*
0 $2 $3 $4 $5 $6 $7 $8 $9 X,Y pos of 4 corners*
0 Add a 4 corners polygon primitive as box body*
4,1,4,$2,$3,$4,$5,$6,$7,$8,$9,$2,$3,0*
0 Add four circle primitives for the rounded corners*
1,1,$1+$1,$2,$3*
1,1,$1+$1,$4,$5*
1,1,$1+$1,$6,$7*
1,1,$1+$1,$8,$9*
0 Add four rect primitives between the rounded corners*
20,1,$1+$1,$2,$3,$4,$5,0*
20,1,$1+$1,$4,$5,$6,$7,0*
20,1,$1+$1,$6,$7,$8,$9,0*
20,1,$1+$1,$8,$9,$2,$3,0*%
G04 Aperture macros list end*
%ADD10R,1.470000X1.020000*%
%ADD11RoundRect,0.125000X-0.125000X0.825000X-0.125000X-0.825000X0.125000X-0.825000X0.125000X0.825000X0*%
%ADD12R,0.600000X1.250000*%
%ADD13R,1.450000X1.000000*%
%ADD14R,0.500000X1.075000*%
%ADD15C,0.889000*%
%ADD16R,1.020000X1.470000*%
%ADD17R,0.800000X0.450000*%
%ADD18R,1.600000X2.500000*%
G04 APERTURE END LIST*
D10*
%TO.C,C1*%
X114930000Y-64043668D03*
X114930000Y-65643668D03*
%TD*%
%TO.C,C3*%
X122882000Y-65643668D03*
X122882000Y-64043668D03*
%TD*%
D11*
%TO.C,IC1*%
X112451000Y-58786000D03*
X111801000Y-58786000D03*
X111151000Y-58786000D03*
X110501000Y-58786000D03*
X109851000Y-58786000D03*
X109201000Y-58786000D03*
X108551000Y-58786000D03*
X107901000Y-58786000D03*
X107251000Y-58786000D03*
X106601000Y-58786000D03*
X106601000Y-65786000D03*
X107251000Y-65786000D03*
X107901000Y-65786000D03*
X108551000Y-65786000D03*
X109201000Y-65786000D03*
X109851000Y-65786000D03*
X110501000Y-65786000D03*
X111151000Y-65786000D03*
X111801000Y-65786000D03*
X112451000Y-65786000D03*
%TD*%
D12*
%TO.C,Q1*%
X107133000Y-52314000D03*
X109043000Y-52314000D03*
X108088000Y-50214000D03*
%TD*%
%TO.C,Q2*%
X115594333Y-52314000D03*
X117504333Y-52314000D03*
X116549333Y-50214000D03*
%TD*%
%TO.C,Q3*%
X124055666Y-52314000D03*
X125965666Y-52314000D03*
X125010666Y-50214000D03*
%TD*%
%TO.C,Q4*%
X132517000Y-52314000D03*
X134427000Y-52314000D03*
X133472000Y-50214000D03*
%TD*%
D13*
%TO.C,R2*%
X107072000Y-56024000D03*
X107072000Y-54124000D03*
%TD*%
%TO.C,R1*%
X114890000Y-61348000D03*
X114890000Y-59448000D03*
%TD*%
%TO.C,R3*%
X108088000Y-48404000D03*
X108088000Y-46504000D03*
%TD*%
%TO.C,R4*%
X115533333Y-56024000D03*
X115533333Y-54124000D03*
%TD*%
%TO.C,R5*%
X116549333Y-48404000D03*
X116549333Y-46504000D03*
%TD*%
%TO.C,R6*%
X123994666Y-56024000D03*
X123994666Y-54124000D03*
%TD*%
%TO.C,R7*%
X125010666Y-48404000D03*
X125010666Y-46504000D03*
%TD*%
%TO.C,R8*%
X132456000Y-56024000D03*
X132456000Y-54124000D03*
%TD*%
%TO.C,R9*%
X133472000Y-48404000D03*
X133472000Y-46504000D03*
%TD*%
%TO.C,R12*%
X118906000Y-65793668D03*
X118906000Y-63893668D03*
%TD*%
%TO.C,R13*%
X122842000Y-59448000D03*
X122842000Y-61348000D03*
%TD*%
D14*
%TO.C,D1*%
X118866000Y-59236000D03*
X118866000Y-61560000D03*
%TD*%
D15*
%TO.C,J1*%
X110630000Y-69030000D03*
X110630000Y-70300000D03*
X109360000Y-69030000D03*
X109360000Y-70300000D03*
X108090000Y-69030000D03*
X108090000Y-70300000D03*
%TD*%
D16*
%TO.C,C2*%
X121550000Y-29360000D03*
X119950000Y-29360000D03*
%TD*%
D13*
%TO.C,R10*%
X103750000Y-36080000D03*
X103750000Y-37980000D03*
%TD*%
%TO.C,R11*%
X137750000Y-37980000D03*
X137750000Y-36080000D03*
%TD*%
D17*
%TO.C,IC2*%
X122200000Y-27650000D03*
X122200000Y-26650000D03*
X122200000Y-25650000D03*
X119300000Y-25650000D03*
X119300000Y-26650000D03*
X119300000Y-27650000D03*
D18*
X120750000Y-26650000D03*
%TD*%
M02*
