M48
; DRILL file {KiCad (5.1.10)-1} date 11/08/21 18:16:23
; FORMAT={-:-/ absolute / metric / decimal}
; #@! TF.CreationDate,2021-11-08T18:16:23+01:00
; #@! TF.GenerationSoftware,Kicad,Pcbnew,(5.1.10)-1
FMAT,2
METRIC
T1C0.400
T2C1.000
T3C1.067
T4C1.250
T5C1.300
%
G90
G05
T1
X102.6Y-34.7
X103.5Y-52.0
X103.7Y-39.8
X103.8Y-67.0
X106.2Y-64.3
X106.9Y-60.929
X107.2Y-57.2
X107.5Y-63.2
X107.8Y-60.4
X108.3Y-57.0
X108.5Y-63.2
X109.1Y-60.5
X109.2Y-56.3
X109.2Y-71.4
X109.626Y-40.884
X109.7Y-63.1
X109.8Y-64.2
X110.0Y-56.9
X110.6Y-60.4
X111.3Y-68.225
X112.435Y-63.927
X113.6Y-67.5
X116.3Y-59.5
X116.7Y-62.9
X117.6Y-29.4
X117.7Y-59.9
X118.4Y-57.1
X118.981Y-28.781
X119.0Y-52.5
X120.3Y-65.6
X123.2Y-29.481
X124.5Y-59.4
X124.7Y-30.1
X124.7Y-65.3
X127.1Y-52.4
X133.5Y-45.0
X136.2Y-52.3
X137.5Y-39.8
X137.8Y-34.5
T2
X114.43Y-32.23
X114.43Y-42.39
X116.97Y-32.23
X116.97Y-42.39
X119.51Y-32.23
X119.51Y-42.39
X122.05Y-32.23
X122.05Y-42.39
X124.59Y-32.23
X124.59Y-42.39
X127.13Y-32.23
X127.13Y-42.39
T3
X106.82Y-68.649
X106.82Y-70.681
X111.9Y-69.665
T4
X126.07Y-62.5
X126.07Y-67.5
X138.57Y-62.5
X138.57Y-67.5
T5
X109.37Y-54.7
X129.37Y-54.7
T0
M30
