%TF.GenerationSoftware,KiCad,Pcbnew,(5.1.10)-1*%
%TF.CreationDate,2021-11-08T18:16:21+01:00*%
%TF.ProjectId,RHT device,52485420-6465-4766-9963-652e6b696361,rev?*%
%TF.SameCoordinates,Original*%
%TF.FileFunction,Legend,Top*%
%TF.FilePolarity,Positive*%
%FSLAX46Y46*%
G04 Gerber Fmt 4.6, Leading zero omitted, Abs format (unit mm)*
G04 Created by KiCad (PCBNEW (5.1.10)-1) date 2021-11-08 18:16:21*
%MOMM*%
%LPD*%
G01*
G04 APERTURE LIST*
%ADD10C,0.275000*%
%ADD11C,0.300000*%
%ADD12C,0.250000*%
%ADD13C,0.010000*%
%ADD14C,0.100000*%
%ADD15C,0.200000*%
%ADD16C,0.120000*%
%ADD17C,0.254000*%
%ADD18C,1.950000*%
%ADD19C,1.850000*%
%ADD20R,1.450000X1.000000*%
%ADD21R,0.600000X1.250000*%
%ADD22R,1.400000X0.900000*%
%ADD23C,1.550000*%
%ADD24C,0.889000*%
%ADD25R,1.500000X2.400000*%
%ADD26R,0.360000X0.400000*%
%ADD27R,0.500000X1.075000*%
%ADD28R,1.020000X1.470000*%
%ADD29R,1.470000X1.020000*%
%ADD30C,1.500000*%
%ADD31R,1.500000X1.500000*%
G04 APERTURE END LIST*
D10*
X118052380Y-37747619D02*
X118052380Y-36647619D01*
X118314285Y-36647619D01*
X118471428Y-36700000D01*
X118576190Y-36804761D01*
X118628571Y-36909523D01*
X118680952Y-37119047D01*
X118680952Y-37276190D01*
X118628571Y-37485714D01*
X118576190Y-37590476D01*
X118471428Y-37695238D01*
X118314285Y-37747619D01*
X118052380Y-37747619D01*
X119152380Y-37747619D02*
X119152380Y-37014285D01*
X119152380Y-36647619D02*
X119100000Y-36700000D01*
X119152380Y-36752380D01*
X119204761Y-36700000D01*
X119152380Y-36647619D01*
X119152380Y-36752380D01*
X119623809Y-37695238D02*
X119728571Y-37747619D01*
X119938095Y-37747619D01*
X120042857Y-37695238D01*
X120095238Y-37590476D01*
X120095238Y-37538095D01*
X120042857Y-37433333D01*
X119938095Y-37380952D01*
X119780952Y-37380952D01*
X119676190Y-37328571D01*
X119623809Y-37223809D01*
X119623809Y-37171428D01*
X119676190Y-37066666D01*
X119780952Y-37014285D01*
X119938095Y-37014285D01*
X120042857Y-37066666D01*
X120566666Y-37014285D02*
X120566666Y-38114285D01*
X120566666Y-37066666D02*
X120671428Y-37014285D01*
X120880952Y-37014285D01*
X120985714Y-37066666D01*
X121038095Y-37119047D01*
X121090476Y-37223809D01*
X121090476Y-37538095D01*
X121038095Y-37642857D01*
X120985714Y-37695238D01*
X120880952Y-37747619D01*
X120671428Y-37747619D01*
X120566666Y-37695238D01*
X121719047Y-37747619D02*
X121614285Y-37695238D01*
X121561904Y-37590476D01*
X121561904Y-36647619D01*
X122609523Y-37747619D02*
X122609523Y-37171428D01*
X122557142Y-37066666D01*
X122452380Y-37014285D01*
X122242857Y-37014285D01*
X122138095Y-37066666D01*
X122609523Y-37695238D02*
X122504761Y-37747619D01*
X122242857Y-37747619D01*
X122138095Y-37695238D01*
X122085714Y-37590476D01*
X122085714Y-37485714D01*
X122138095Y-37380952D01*
X122242857Y-37328571D01*
X122504761Y-37328571D01*
X122609523Y-37276190D01*
X123028571Y-37014285D02*
X123290476Y-37747619D01*
X123552380Y-37014285D02*
X123290476Y-37747619D01*
X123185714Y-38009523D01*
X123133333Y-38061904D01*
X123028571Y-38114285D01*
D11*
D12*
X107462380Y-62807619D02*
X107462380Y-61707619D01*
X107881428Y-61707619D01*
X107986190Y-61760000D01*
X108038571Y-61812380D01*
X108090952Y-61917142D01*
X108090952Y-62074285D01*
X108038571Y-62179047D01*
X107986190Y-62231428D01*
X107881428Y-62283809D01*
X107462380Y-62283809D01*
X108562380Y-62807619D02*
X108562380Y-61707619D01*
X109714761Y-62702857D02*
X109662380Y-62755238D01*
X109505238Y-62807619D01*
X109400476Y-62807619D01*
X109243333Y-62755238D01*
X109138571Y-62650476D01*
X109086190Y-62545714D01*
X109033809Y-62336190D01*
X109033809Y-62179047D01*
X109086190Y-61969523D01*
X109138571Y-61864761D01*
X109243333Y-61760000D01*
X109400476Y-61707619D01*
X109505238Y-61707619D01*
X109662380Y-61760000D01*
X109714761Y-61812380D01*
X110762380Y-62807619D02*
X110133809Y-62807619D01*
X110448095Y-62807619D02*
X110448095Y-61707619D01*
X110343333Y-61864761D01*
X110238571Y-61969523D01*
X110133809Y-62021904D01*
X111390952Y-62179047D02*
X111286190Y-62126666D01*
X111233809Y-62074285D01*
X111181428Y-61969523D01*
X111181428Y-61917142D01*
X111233809Y-61812380D01*
X111286190Y-61760000D01*
X111390952Y-61707619D01*
X111600476Y-61707619D01*
X111705238Y-61760000D01*
X111757619Y-61812380D01*
X111810000Y-61917142D01*
X111810000Y-61969523D01*
X111757619Y-62074285D01*
X111705238Y-62126666D01*
X111600476Y-62179047D01*
X111390952Y-62179047D01*
X111286190Y-62231428D01*
X111233809Y-62283809D01*
X111181428Y-62388571D01*
X111181428Y-62598095D01*
X111233809Y-62702857D01*
X111286190Y-62755238D01*
X111390952Y-62807619D01*
X111600476Y-62807619D01*
X111705238Y-62755238D01*
X111757619Y-62702857D01*
X111810000Y-62598095D01*
X111810000Y-62388571D01*
X111757619Y-62283809D01*
X111705238Y-62231428D01*
X111600476Y-62179047D01*
D13*
%TO.C,G\u002A\u002A\u002A*%
G36*
X119872083Y-67976922D02*
G01*
X119997857Y-67977905D01*
X120092412Y-67980791D01*
X120166862Y-67987071D01*
X120232319Y-67998236D01*
X120299896Y-68015779D01*
X120380707Y-68041190D01*
X120401250Y-68047946D01*
X120505597Y-68085653D01*
X120609234Y-68128612D01*
X120696272Y-68170019D01*
X120729333Y-68188457D01*
X120781601Y-68224729D01*
X120850531Y-68278937D01*
X120929658Y-68345237D01*
X121012513Y-68417781D01*
X121092633Y-68490723D01*
X121163549Y-68558218D01*
X121218797Y-68614419D01*
X121251909Y-68653481D01*
X121258500Y-68666884D01*
X121269384Y-68693699D01*
X121297919Y-68744498D01*
X121337875Y-68808206D01*
X121394918Y-68895430D01*
X121433569Y-68955499D01*
X121458764Y-68996582D01*
X121475441Y-69026850D01*
X121488535Y-69054471D01*
X121493537Y-69065834D01*
X121519701Y-69125013D01*
X121545429Y-69182250D01*
X121593778Y-69301606D01*
X121645252Y-69451039D01*
X121696251Y-69618828D01*
X121743177Y-69793253D01*
X121776233Y-69933667D01*
X121803612Y-70054459D01*
X121834123Y-70181259D01*
X121865963Y-70307410D01*
X121897328Y-70426257D01*
X121926416Y-70531144D01*
X121951425Y-70615414D01*
X121970551Y-70672412D01*
X121981993Y-70695482D01*
X121982615Y-70695667D01*
X121997755Y-70678617D01*
X121999333Y-70666128D01*
X122004821Y-70640757D01*
X122020610Y-70578353D01*
X122045690Y-70482679D01*
X122079049Y-70357495D01*
X122119676Y-70206563D01*
X122166559Y-70033645D01*
X122218689Y-69842502D01*
X122275052Y-69636896D01*
X122316565Y-69486086D01*
X122387914Y-69228225D01*
X122449281Y-69008549D01*
X122501503Y-68824318D01*
X122545415Y-68672789D01*
X122581856Y-68551220D01*
X122611659Y-68456870D01*
X122635663Y-68386997D01*
X122654702Y-68338859D01*
X122669613Y-68309713D01*
X122678744Y-68298542D01*
X122694588Y-68288131D01*
X122717150Y-68279857D01*
X122751052Y-68273480D01*
X122800918Y-68268757D01*
X122871372Y-68265447D01*
X122967038Y-68263309D01*
X123092537Y-68262102D01*
X123252495Y-68261583D01*
X123388094Y-68261500D01*
X123573610Y-68261609D01*
X123721440Y-68262122D01*
X123836228Y-68263318D01*
X123922623Y-68265474D01*
X123985271Y-68268868D01*
X124028818Y-68273780D01*
X124057910Y-68280488D01*
X124077194Y-68289269D01*
X124091316Y-68300402D01*
X124094833Y-68303833D01*
X124129870Y-68367542D01*
X124137166Y-68425863D01*
X124130526Y-68454253D01*
X124111358Y-68519340D01*
X124080791Y-68617752D01*
X124039951Y-68746116D01*
X123989969Y-68901059D01*
X123931971Y-69079208D01*
X123867087Y-69277191D01*
X123796444Y-69491634D01*
X123721170Y-69719165D01*
X123642394Y-69956411D01*
X123561244Y-70199999D01*
X123478847Y-70446557D01*
X123396334Y-70692711D01*
X123314830Y-70935090D01*
X123235465Y-71170319D01*
X123159368Y-71395027D01*
X123087665Y-71605840D01*
X123021485Y-71799385D01*
X122961957Y-71972291D01*
X122910209Y-72121184D01*
X122867368Y-72242690D01*
X122834563Y-72333439D01*
X122812923Y-72390056D01*
X122805675Y-72406414D01*
X122772726Y-72445971D01*
X122749606Y-72460593D01*
X122721212Y-72463591D01*
X122655462Y-72466347D01*
X122557331Y-72468779D01*
X122431797Y-72470809D01*
X122283836Y-72472354D01*
X122118423Y-72473333D01*
X121944685Y-72473667D01*
X121743089Y-72473559D01*
X121579573Y-72473099D01*
X121449883Y-72472075D01*
X121349766Y-72470282D01*
X121274967Y-72467510D01*
X121221234Y-72463550D01*
X121184313Y-72458195D01*
X121159950Y-72451235D01*
X121143892Y-72442463D01*
X121134117Y-72433951D01*
X121110876Y-72397512D01*
X121080175Y-72331254D01*
X121046698Y-72245912D01*
X121025650Y-72185243D01*
X120995328Y-72096279D01*
X120968072Y-72022097D01*
X120947479Y-71972171D01*
X120938951Y-71956727D01*
X120908045Y-71951735D01*
X120854766Y-71969824D01*
X120851626Y-71971348D01*
X120677412Y-72053416D01*
X120527274Y-72115642D01*
X120390510Y-72162319D01*
X120337750Y-72177435D01*
X120241019Y-72206468D01*
X120144574Y-72239959D01*
X120067959Y-72271079D01*
X120062583Y-72273588D01*
X120014876Y-72292734D01*
X119939455Y-72319099D01*
X119845469Y-72349892D01*
X119742068Y-72382320D01*
X119638402Y-72413591D01*
X119543621Y-72440913D01*
X119466875Y-72461494D01*
X119417315Y-72472541D01*
X119406898Y-72473667D01*
X119390866Y-72456209D01*
X119368713Y-72413342D01*
X119365096Y-72404875D01*
X119312948Y-72277927D01*
X119266567Y-72162315D01*
X119228344Y-72064231D01*
X119200671Y-71989863D01*
X119185939Y-71945403D01*
X119184166Y-71936603D01*
X119176616Y-71903376D01*
X119156357Y-71843071D01*
X119126976Y-71764428D01*
X119092059Y-71676183D01*
X119055195Y-71587075D01*
X119019971Y-71505843D01*
X118989972Y-71441224D01*
X118968786Y-71401957D01*
X118961497Y-71394167D01*
X118932930Y-71401411D01*
X118875632Y-71420716D01*
X118800190Y-71448446D01*
X118770933Y-71459671D01*
X118668541Y-71498516D01*
X118558351Y-71538954D01*
X118463180Y-71572620D01*
X118458035Y-71574382D01*
X118313988Y-71623589D01*
X118293994Y-71572378D01*
X118269798Y-71510383D01*
X118253132Y-71467660D01*
X118243127Y-71426171D01*
X118261528Y-71403480D01*
X118279591Y-71395252D01*
X118316486Y-71380930D01*
X118384021Y-71355088D01*
X118473225Y-71321146D01*
X118575129Y-71282524D01*
X118596407Y-71274477D01*
X118865898Y-71172604D01*
X118816365Y-71129927D01*
X118786097Y-71102526D01*
X118730732Y-71051140D01*
X118655832Y-70980979D01*
X118566956Y-70897254D01*
X118469664Y-70805176D01*
X118454636Y-70790917D01*
X118358575Y-70700694D01*
X118271680Y-70620883D01*
X118199017Y-70555994D01*
X118145656Y-70510536D01*
X118116665Y-70489020D01*
X118114185Y-70487974D01*
X118091563Y-70499056D01*
X118088074Y-70519724D01*
X118082600Y-70549079D01*
X118066074Y-70613474D01*
X118040027Y-70707527D01*
X118005991Y-70825857D01*
X117965496Y-70963083D01*
X117920072Y-71113824D01*
X117905573Y-71161334D01*
X117828528Y-71412834D01*
X117762743Y-71626904D01*
X117707180Y-71806623D01*
X117660802Y-71955067D01*
X117622570Y-72075315D01*
X117591445Y-72170444D01*
X117566391Y-72243532D01*
X117546368Y-72297656D01*
X117530338Y-72335895D01*
X117517264Y-72361325D01*
X117506107Y-72377026D01*
X117495828Y-72386074D01*
X117491596Y-72388592D01*
X117457473Y-72395426D01*
X117385416Y-72401161D01*
X117279812Y-72405627D01*
X117145049Y-72408656D01*
X116985516Y-72410079D01*
X116931308Y-72410167D01*
X116760515Y-72410309D01*
X116626807Y-72409361D01*
X116524945Y-72405260D01*
X116449693Y-72395946D01*
X116395812Y-72379355D01*
X116358066Y-72353428D01*
X116331215Y-72316100D01*
X116310023Y-72265312D01*
X116289252Y-72199001D01*
X116275101Y-72151854D01*
X116256197Y-72089613D01*
X116226934Y-71992991D01*
X116189173Y-71868140D01*
X116144773Y-71721213D01*
X116095593Y-71558361D01*
X116043492Y-71385736D01*
X116004247Y-71255640D01*
X115786916Y-70535029D01*
X115793267Y-71429205D01*
X115794764Y-71647134D01*
X115795765Y-71826677D01*
X115796113Y-71971779D01*
X115795653Y-72086389D01*
X115794228Y-72174450D01*
X115791683Y-72239910D01*
X115787862Y-72286715D01*
X115782609Y-72318810D01*
X115775768Y-72340142D01*
X115767183Y-72354657D01*
X115756699Y-72366300D01*
X115756225Y-72366774D01*
X115741536Y-72379724D01*
X115723090Y-72389806D01*
X115695816Y-72397378D01*
X115654642Y-72402799D01*
X115594497Y-72406427D01*
X115510308Y-72408619D01*
X115397004Y-72409733D01*
X115249513Y-72410127D01*
X115141333Y-72410167D01*
X114970511Y-72410022D01*
X114836961Y-72409356D01*
X114735622Y-72407820D01*
X114661434Y-72405064D01*
X114609335Y-72400739D01*
X114574265Y-72394496D01*
X114551162Y-72385987D01*
X114534966Y-72374863D01*
X114527500Y-72367833D01*
X114520304Y-72359897D01*
X114513974Y-72349645D01*
X114508453Y-72334474D01*
X114503687Y-72311780D01*
X114499620Y-72278958D01*
X114496196Y-72233405D01*
X114495557Y-72219667D01*
X114675666Y-72219667D01*
X115609241Y-72219667D01*
X115605734Y-70870292D01*
X115605074Y-70597808D01*
X115604667Y-70364609D01*
X115604592Y-70167651D01*
X115604926Y-70003885D01*
X115605744Y-69870264D01*
X115607126Y-69763743D01*
X115609146Y-69681273D01*
X115611884Y-69619809D01*
X115615415Y-69576304D01*
X115619817Y-69547710D01*
X115625167Y-69530981D01*
X115631542Y-69523070D01*
X115639019Y-69520931D01*
X115639871Y-69520917D01*
X115649133Y-69526363D01*
X115661150Y-69544469D01*
X115676796Y-69577888D01*
X115696947Y-69629274D01*
X115722477Y-69701279D01*
X115754261Y-69796556D01*
X115793172Y-69917758D01*
X115840085Y-70067539D01*
X115895875Y-70248550D01*
X115961417Y-70463446D01*
X116037584Y-70714880D01*
X116082904Y-70865000D01*
X116488291Y-72209084D01*
X116935339Y-72214792D01*
X117382387Y-72220501D01*
X117456260Y-71981959D01*
X117518216Y-71781343D01*
X117580602Y-71578299D01*
X117642172Y-71376967D01*
X117701679Y-71181491D01*
X117757876Y-70996009D01*
X117809516Y-70824665D01*
X117855353Y-70671600D01*
X117894139Y-70540954D01*
X117924627Y-70436869D01*
X117945572Y-70363486D01*
X117955726Y-70324948D01*
X117956499Y-70320433D01*
X117940444Y-70288774D01*
X117927652Y-70278677D01*
X117862259Y-70233362D01*
X117798065Y-70177527D01*
X117744243Y-70120557D01*
X117735433Y-70108034D01*
X118066550Y-70108034D01*
X118239067Y-70271028D01*
X118318346Y-70345911D01*
X118417441Y-70439482D01*
X118525377Y-70541377D01*
X118631177Y-70641234D01*
X118663925Y-70672137D01*
X118768721Y-70769026D01*
X118846307Y-70836081D01*
X118898239Y-70874527D01*
X118926072Y-70885587D01*
X118930964Y-70882334D01*
X118939478Y-70848991D01*
X118948833Y-70785702D01*
X118957288Y-70704775D01*
X118958912Y-70685084D01*
X118967776Y-70581639D01*
X118979412Y-70459025D01*
X118991628Y-70340111D01*
X118994402Y-70314667D01*
X119015068Y-70120775D01*
X119029585Y-69968296D01*
X119037987Y-69856765D01*
X119040308Y-69785715D01*
X119036582Y-69754680D01*
X119035409Y-69753385D01*
X119012263Y-69757868D01*
X118956389Y-69775394D01*
X118874513Y-69803657D01*
X118773362Y-69840351D01*
X118685166Y-69873435D01*
X118560907Y-69920667D01*
X118438653Y-69967103D01*
X118328932Y-70008745D01*
X118242269Y-70041599D01*
X118207317Y-70054826D01*
X118066550Y-70108034D01*
X117735433Y-70108034D01*
X117709965Y-70071834D01*
X117702500Y-70048358D01*
X117707420Y-70025357D01*
X117726540Y-70003942D01*
X117766402Y-69980159D01*
X117833546Y-69950052D01*
X117927122Y-69912554D01*
X118029722Y-69873078D01*
X118129391Y-69835833D01*
X118212753Y-69805763D01*
X118255205Y-69791317D01*
X118313805Y-69769659D01*
X118351305Y-69750551D01*
X118358666Y-69742472D01*
X118351360Y-69714968D01*
X118332047Y-69658654D01*
X118304634Y-69583948D01*
X118273031Y-69501268D01*
X118241145Y-69421030D01*
X118212883Y-69353654D01*
X118212373Y-69352489D01*
X118182491Y-69282011D01*
X118155859Y-69215507D01*
X118151288Y-69203417D01*
X118091497Y-69044123D01*
X118043481Y-68920698D01*
X118005409Y-68828923D01*
X117975450Y-68764579D01*
X117951775Y-68723449D01*
X117933947Y-68702463D01*
X117915326Y-68677210D01*
X118226242Y-68677210D01*
X118228110Y-68704511D01*
X118243544Y-68763489D01*
X118270214Y-68846591D01*
X118305790Y-68946258D01*
X118324165Y-68994710D01*
X118371643Y-69117654D01*
X118420713Y-69244693D01*
X118466049Y-69362044D01*
X118502327Y-69455923D01*
X118506995Y-69468000D01*
X118538178Y-69547874D01*
X118563486Y-69611214D01*
X118579199Y-69648783D01*
X118582269Y-69654984D01*
X118604162Y-69652874D01*
X118652229Y-69638256D01*
X118714009Y-69615923D01*
X118777037Y-69590667D01*
X118828853Y-69567278D01*
X118856993Y-69550550D01*
X118858482Y-69548785D01*
X118860328Y-69518870D01*
X118852102Y-69463468D01*
X118843579Y-69426156D01*
X118831237Y-69367496D01*
X119018893Y-69367496D01*
X119039831Y-69427561D01*
X119060770Y-69487625D01*
X119169343Y-69446371D01*
X119239307Y-69424543D01*
X119285762Y-69419859D01*
X119297241Y-69424442D01*
X119303552Y-69454886D01*
X119303139Y-69526259D01*
X119296064Y-69637705D01*
X119282391Y-69788368D01*
X119262181Y-69977391D01*
X119247639Y-70103000D01*
X119233901Y-70224724D01*
X119220058Y-70357597D01*
X119206669Y-70495022D01*
X119194296Y-70630398D01*
X119183500Y-70757126D01*
X119174841Y-70868606D01*
X119168879Y-70958240D01*
X119166177Y-71019429D01*
X119167293Y-71045571D01*
X119167526Y-71045916D01*
X119191280Y-71044378D01*
X119243607Y-71029941D01*
X119313847Y-71005612D01*
X119324346Y-71001648D01*
X119397864Y-70974173D01*
X119483837Y-70942892D01*
X119572837Y-70911123D01*
X119655436Y-70882184D01*
X119722205Y-70859394D01*
X119763716Y-70846070D01*
X119772293Y-70843981D01*
X119783272Y-70861502D01*
X119804775Y-70906504D01*
X119820694Y-70942647D01*
X119844355Y-71004638D01*
X119845658Y-71043411D01*
X119818917Y-71068739D01*
X119758448Y-71090400D01*
X119730102Y-71098414D01*
X119675606Y-71118097D01*
X119640742Y-71139093D01*
X119637493Y-71143010D01*
X119639709Y-71157350D01*
X119663057Y-71153618D01*
X119702480Y-71141549D01*
X119768474Y-71121437D01*
X119847102Y-71097532D01*
X119850916Y-71096373D01*
X120011860Y-71030394D01*
X120143267Y-70940334D01*
X120241375Y-70829073D01*
X120273796Y-70772572D01*
X120303459Y-70706694D01*
X120318744Y-70651867D01*
X120322440Y-70590641D01*
X120317333Y-70505562D01*
X120317028Y-70501921D01*
X120303275Y-70369834D01*
X120285640Y-70247009D01*
X120265737Y-70142252D01*
X120245182Y-70064369D01*
X120230323Y-70028917D01*
X120206639Y-69976189D01*
X120190554Y-69923818D01*
X120145998Y-69786385D01*
X120078998Y-69647730D01*
X119995897Y-69517012D01*
X119903036Y-69403390D01*
X119806758Y-69316024D01*
X119741976Y-69275996D01*
X119663130Y-69249181D01*
X119570496Y-69240743D01*
X119457710Y-69251118D01*
X119318411Y-69280742D01*
X119202071Y-69313063D01*
X119018893Y-69367496D01*
X118831237Y-69367496D01*
X118829181Y-69357726D01*
X118830038Y-69315833D01*
X118843020Y-69291071D01*
X118872483Y-69272617D01*
X118933562Y-69245454D01*
X119017381Y-69213216D01*
X119115063Y-69179540D01*
X119116564Y-69179050D01*
X119233182Y-69142585D01*
X119324259Y-69118829D01*
X119403729Y-69105205D01*
X119485528Y-69099132D01*
X119554583Y-69097985D01*
X119688044Y-69104400D01*
X119793844Y-69127349D01*
X119884938Y-69171430D01*
X119974280Y-69241239D01*
X119984364Y-69250507D01*
X120046154Y-69320050D01*
X120114252Y-69415665D01*
X120180310Y-69523710D01*
X120235983Y-69630539D01*
X120272768Y-69722000D01*
X120296220Y-69794163D01*
X120317694Y-69855033D01*
X120327932Y-69880750D01*
X120345962Y-69928027D01*
X120369548Y-69998939D01*
X120395189Y-70081709D01*
X120419385Y-70164557D01*
X120438635Y-70235706D01*
X120449437Y-70283377D01*
X120450612Y-70293500D01*
X120452481Y-70328733D01*
X120457192Y-70393524D01*
X120463813Y-70475268D01*
X120465460Y-70494584D01*
X120465260Y-70653112D01*
X120432729Y-70794438D01*
X120364316Y-70932285D01*
X120344210Y-70963340D01*
X120268168Y-71044703D01*
X120150805Y-71124600D01*
X119993124Y-71202533D01*
X119796126Y-71278004D01*
X119572263Y-71347307D01*
X119550053Y-71334093D01*
X119525794Y-71292636D01*
X119520386Y-71278954D01*
X119497708Y-71230318D01*
X119475873Y-71204789D01*
X119471791Y-71203667D01*
X119438567Y-71210992D01*
X119384152Y-71229546D01*
X119321099Y-71254198D01*
X119261960Y-71279815D01*
X119219290Y-71301266D01*
X119205333Y-71312593D01*
X119212565Y-71336542D01*
X119232319Y-71391956D01*
X119261679Y-71470882D01*
X119297731Y-71565367D01*
X119302334Y-71577284D01*
X119346741Y-71693421D01*
X119392282Y-71814752D01*
X119433068Y-71925475D01*
X119458888Y-71997417D01*
X119488171Y-72080028D01*
X119513541Y-72150421D01*
X119530632Y-72196524D01*
X119533484Y-72203792D01*
X119563995Y-72237247D01*
X119605360Y-72232625D01*
X119619141Y-72222414D01*
X119648045Y-72207849D01*
X119706113Y-72186154D01*
X119781740Y-72161602D01*
X119795829Y-72157356D01*
X119877785Y-72131080D01*
X119948473Y-72105106D01*
X119993928Y-72084611D01*
X119996913Y-72082835D01*
X120035029Y-72065312D01*
X120103222Y-72039776D01*
X120190916Y-72010023D01*
X120263666Y-71987060D01*
X120387935Y-71947692D01*
X120493552Y-71910290D01*
X120597890Y-71868174D01*
X120718322Y-71814665D01*
X120750500Y-71799870D01*
X120784735Y-71780730D01*
X121108686Y-71780730D01*
X121186441Y-72016073D01*
X121217776Y-72109975D01*
X121244724Y-72188989D01*
X121264310Y-72244503D01*
X121273360Y-72267583D01*
X121295978Y-72271343D01*
X121355830Y-72274451D01*
X121447824Y-72276828D01*
X121566864Y-72278396D01*
X121707857Y-72279077D01*
X121865709Y-72278791D01*
X121961240Y-72278167D01*
X122639955Y-72272584D01*
X123282686Y-70378167D01*
X123374982Y-70105967D01*
X123463312Y-69845144D01*
X123546737Y-69598490D01*
X123624319Y-69368794D01*
X123695119Y-69158847D01*
X123758197Y-68971440D01*
X123812614Y-68809364D01*
X123857433Y-68675408D01*
X123891713Y-68572363D01*
X123914516Y-68503020D01*
X123924902Y-68470169D01*
X123925458Y-68467875D01*
X123905225Y-68463642D01*
X123848190Y-68459848D01*
X123759883Y-68456649D01*
X123645835Y-68454202D01*
X123511575Y-68452661D01*
X123369875Y-68452181D01*
X122814250Y-68452362D01*
X122550358Y-69409973D01*
X122490749Y-69627160D01*
X122429691Y-69851241D01*
X122369159Y-70074855D01*
X122311129Y-70290643D01*
X122257577Y-70491245D01*
X122210480Y-70669302D01*
X122171812Y-70817454D01*
X122156876Y-70875584D01*
X122109447Y-71058755D01*
X122069902Y-71201520D01*
X122036508Y-71304700D01*
X122007528Y-71369114D01*
X121981229Y-71395581D01*
X121955875Y-71384923D01*
X121929732Y-71337958D01*
X121901065Y-71255508D01*
X121868139Y-71138391D01*
X121838980Y-71025842D01*
X121758611Y-70710433D01*
X121729657Y-70856508D01*
X121676911Y-71044910D01*
X121593840Y-71223374D01*
X121477118Y-71397417D01*
X121323421Y-71572555D01*
X121260338Y-71635073D01*
X121108686Y-71780730D01*
X120784735Y-71780730D01*
X120908056Y-71711785D01*
X121063197Y-71597063D01*
X121207607Y-71463889D01*
X121332970Y-71320448D01*
X121430974Y-71174927D01*
X121474348Y-71087250D01*
X121525801Y-70960018D01*
X121561935Y-70857253D01*
X121585862Y-70765310D01*
X121600694Y-70670544D01*
X121609543Y-70559310D01*
X121613320Y-70477817D01*
X121615852Y-70319454D01*
X121611120Y-70173903D01*
X121599611Y-70054926D01*
X121597928Y-70043900D01*
X121584428Y-69979022D01*
X121561433Y-69888763D01*
X121531458Y-69781237D01*
X121497021Y-69664555D01*
X121460637Y-69546830D01*
X121424823Y-69436174D01*
X121392096Y-69340699D01*
X121364972Y-69268519D01*
X121345967Y-69227745D01*
X121343775Y-69224584D01*
X121325117Y-69189082D01*
X121310961Y-69150500D01*
X121286972Y-69097712D01*
X121249791Y-69038697D01*
X121244871Y-69032086D01*
X121212816Y-68986266D01*
X121195821Y-68954718D01*
X121195000Y-68950782D01*
X121181663Y-68920573D01*
X121146177Y-68867834D01*
X121095325Y-68800935D01*
X121035892Y-68728250D01*
X120974661Y-68658148D01*
X120918417Y-68599002D01*
X120884499Y-68567631D01*
X120817735Y-68511421D01*
X120753012Y-68456855D01*
X120720017Y-68428991D01*
X120625837Y-68364780D01*
X120500441Y-68302013D01*
X120354815Y-68245486D01*
X120199943Y-68199992D01*
X120189583Y-68197475D01*
X120112150Y-68185649D01*
X120005186Y-68178210D01*
X119881266Y-68175169D01*
X119752966Y-68176539D01*
X119632861Y-68182330D01*
X119533527Y-68192555D01*
X119507803Y-68196836D01*
X119445150Y-68211851D01*
X119355050Y-68237452D01*
X119249916Y-68269955D01*
X119149800Y-68303057D01*
X119035514Y-68342146D01*
X118896653Y-68389626D01*
X118748700Y-68440203D01*
X118607139Y-68488583D01*
X118570333Y-68501160D01*
X118460531Y-68539825D01*
X118366305Y-68575193D01*
X118294328Y-68604582D01*
X118251277Y-68625308D01*
X118241925Y-68633173D01*
X118231262Y-68668262D01*
X118226242Y-68677210D01*
X117915326Y-68677210D01*
X117899654Y-68655957D01*
X117879592Y-68601921D01*
X117865989Y-68558293D01*
X117839199Y-68540140D01*
X117789147Y-68536667D01*
X117711753Y-68536667D01*
X117432386Y-69515625D01*
X117373739Y-69721841D01*
X117316580Y-69924155D01*
X117262407Y-70117180D01*
X117212713Y-70295528D01*
X117168997Y-70453812D01*
X117132754Y-70586644D01*
X117105479Y-70688636D01*
X117090762Y-70745855D01*
X117056256Y-70877365D01*
X117026363Y-70969824D01*
X116999352Y-71022852D01*
X116973491Y-71036072D01*
X116947050Y-71009103D01*
X116918295Y-70941569D01*
X116885497Y-70833089D01*
X116849337Y-70693059D01*
X116825927Y-70601766D01*
X116792474Y-70476063D01*
X116750701Y-70322204D01*
X116702336Y-70146441D01*
X116649103Y-69955030D01*
X116592728Y-69754223D01*
X116534936Y-69550275D01*
X116508434Y-69457417D01*
X116248051Y-68547250D01*
X115461858Y-68541701D01*
X114675666Y-68536152D01*
X114675666Y-72219667D01*
X114495557Y-72219667D01*
X114493361Y-72172517D01*
X114491058Y-72093689D01*
X114489233Y-71994318D01*
X114487829Y-71871800D01*
X114486792Y-71723531D01*
X114486067Y-71546907D01*
X114485597Y-71339324D01*
X114485327Y-71098177D01*
X114485203Y-70820864D01*
X114485168Y-70504780D01*
X114485166Y-70378167D01*
X114485182Y-70047157D01*
X114485268Y-69755877D01*
X114485477Y-69501722D01*
X114485867Y-69282089D01*
X114486492Y-69094373D01*
X114487408Y-68935971D01*
X114488670Y-68804278D01*
X114490334Y-68696691D01*
X114492454Y-68610605D01*
X114495087Y-68543417D01*
X114498288Y-68492523D01*
X114502112Y-68455318D01*
X114506614Y-68429199D01*
X114511851Y-68411562D01*
X114517876Y-68399802D01*
X114524747Y-68391317D01*
X114527499Y-68388500D01*
X114539328Y-68378044D01*
X114554567Y-68369466D01*
X114577219Y-68362583D01*
X114611287Y-68357206D01*
X114660773Y-68353152D01*
X114729680Y-68350233D01*
X114822012Y-68348264D01*
X114941770Y-68347059D01*
X115092959Y-68346432D01*
X115279580Y-68346197D01*
X115439058Y-68346167D01*
X115650472Y-68346660D01*
X115840403Y-68348087D01*
X116005378Y-68350369D01*
X116141925Y-68353430D01*
X116246572Y-68357191D01*
X116315848Y-68361575D01*
X116346280Y-68366502D01*
X116346321Y-68366525D01*
X116381911Y-68400538D01*
X116408062Y-68445900D01*
X116420396Y-68482430D01*
X116442267Y-68553377D01*
X116472265Y-68653793D01*
X116508983Y-68778731D01*
X116551015Y-68923244D01*
X116596952Y-69082385D01*
X116645388Y-69251206D01*
X116694914Y-69424760D01*
X116744123Y-69598100D01*
X116791608Y-69766279D01*
X116835962Y-69924350D01*
X116875776Y-70067365D01*
X116909643Y-70190377D01*
X116936156Y-70288439D01*
X116953907Y-70356604D01*
X116961490Y-70389924D01*
X116961666Y-70391793D01*
X116966144Y-70417484D01*
X116971303Y-70417919D01*
X116978838Y-70396261D01*
X116996776Y-70337806D01*
X117023971Y-70246488D01*
X117059275Y-70126237D01*
X117101538Y-69980984D01*
X117149615Y-69814660D01*
X117202357Y-69631198D01*
X117258616Y-69434528D01*
X117267415Y-69403683D01*
X117344890Y-69134090D01*
X117411967Y-68905136D01*
X117468627Y-68716885D01*
X117514851Y-68569398D01*
X117550620Y-68462738D01*
X117575913Y-68396965D01*
X117589907Y-68372625D01*
X117621356Y-68361634D01*
X117683568Y-68353748D01*
X117779876Y-68348748D01*
X117913613Y-68346409D01*
X117987260Y-68346167D01*
X118124315Y-68345624D01*
X118228254Y-68343381D01*
X118308289Y-68338516D01*
X118373630Y-68330109D01*
X118433488Y-68317238D01*
X118497074Y-68298983D01*
X118514840Y-68293404D01*
X118606334Y-68264916D01*
X118694439Y-68238408D01*
X118761898Y-68219057D01*
X118768583Y-68217249D01*
X118848346Y-68191956D01*
X118929966Y-68160397D01*
X118940750Y-68155646D01*
X119001673Y-68132296D01*
X119087612Y-68104507D01*
X119182351Y-68077441D01*
X119205333Y-68071437D01*
X119299546Y-68046976D01*
X119389035Y-68023103D01*
X119457686Y-68004134D01*
X119469916Y-68000601D01*
X119525410Y-67990973D01*
X119614283Y-67983462D01*
X119727611Y-67978592D01*
X119856471Y-67976890D01*
X119872083Y-67976922D01*
G37*
X119872083Y-67976922D02*
X119997857Y-67977905D01*
X120092412Y-67980791D01*
X120166862Y-67987071D01*
X120232319Y-67998236D01*
X120299896Y-68015779D01*
X120380707Y-68041190D01*
X120401250Y-68047946D01*
X120505597Y-68085653D01*
X120609234Y-68128612D01*
X120696272Y-68170019D01*
X120729333Y-68188457D01*
X120781601Y-68224729D01*
X120850531Y-68278937D01*
X120929658Y-68345237D01*
X121012513Y-68417781D01*
X121092633Y-68490723D01*
X121163549Y-68558218D01*
X121218797Y-68614419D01*
X121251909Y-68653481D01*
X121258500Y-68666884D01*
X121269384Y-68693699D01*
X121297919Y-68744498D01*
X121337875Y-68808206D01*
X121394918Y-68895430D01*
X121433569Y-68955499D01*
X121458764Y-68996582D01*
X121475441Y-69026850D01*
X121488535Y-69054471D01*
X121493537Y-69065834D01*
X121519701Y-69125013D01*
X121545429Y-69182250D01*
X121593778Y-69301606D01*
X121645252Y-69451039D01*
X121696251Y-69618828D01*
X121743177Y-69793253D01*
X121776233Y-69933667D01*
X121803612Y-70054459D01*
X121834123Y-70181259D01*
X121865963Y-70307410D01*
X121897328Y-70426257D01*
X121926416Y-70531144D01*
X121951425Y-70615414D01*
X121970551Y-70672412D01*
X121981993Y-70695482D01*
X121982615Y-70695667D01*
X121997755Y-70678617D01*
X121999333Y-70666128D01*
X122004821Y-70640757D01*
X122020610Y-70578353D01*
X122045690Y-70482679D01*
X122079049Y-70357495D01*
X122119676Y-70206563D01*
X122166559Y-70033645D01*
X122218689Y-69842502D01*
X122275052Y-69636896D01*
X122316565Y-69486086D01*
X122387914Y-69228225D01*
X122449281Y-69008549D01*
X122501503Y-68824318D01*
X122545415Y-68672789D01*
X122581856Y-68551220D01*
X122611659Y-68456870D01*
X122635663Y-68386997D01*
X122654702Y-68338859D01*
X122669613Y-68309713D01*
X122678744Y-68298542D01*
X122694588Y-68288131D01*
X122717150Y-68279857D01*
X122751052Y-68273480D01*
X122800918Y-68268757D01*
X122871372Y-68265447D01*
X122967038Y-68263309D01*
X123092537Y-68262102D01*
X123252495Y-68261583D01*
X123388094Y-68261500D01*
X123573610Y-68261609D01*
X123721440Y-68262122D01*
X123836228Y-68263318D01*
X123922623Y-68265474D01*
X123985271Y-68268868D01*
X124028818Y-68273780D01*
X124057910Y-68280488D01*
X124077194Y-68289269D01*
X124091316Y-68300402D01*
X124094833Y-68303833D01*
X124129870Y-68367542D01*
X124137166Y-68425863D01*
X124130526Y-68454253D01*
X124111358Y-68519340D01*
X124080791Y-68617752D01*
X124039951Y-68746116D01*
X123989969Y-68901059D01*
X123931971Y-69079208D01*
X123867087Y-69277191D01*
X123796444Y-69491634D01*
X123721170Y-69719165D01*
X123642394Y-69956411D01*
X123561244Y-70199999D01*
X123478847Y-70446557D01*
X123396334Y-70692711D01*
X123314830Y-70935090D01*
X123235465Y-71170319D01*
X123159368Y-71395027D01*
X123087665Y-71605840D01*
X123021485Y-71799385D01*
X122961957Y-71972291D01*
X122910209Y-72121184D01*
X122867368Y-72242690D01*
X122834563Y-72333439D01*
X122812923Y-72390056D01*
X122805675Y-72406414D01*
X122772726Y-72445971D01*
X122749606Y-72460593D01*
X122721212Y-72463591D01*
X122655462Y-72466347D01*
X122557331Y-72468779D01*
X122431797Y-72470809D01*
X122283836Y-72472354D01*
X122118423Y-72473333D01*
X121944685Y-72473667D01*
X121743089Y-72473559D01*
X121579573Y-72473099D01*
X121449883Y-72472075D01*
X121349766Y-72470282D01*
X121274967Y-72467510D01*
X121221234Y-72463550D01*
X121184313Y-72458195D01*
X121159950Y-72451235D01*
X121143892Y-72442463D01*
X121134117Y-72433951D01*
X121110876Y-72397512D01*
X121080175Y-72331254D01*
X121046698Y-72245912D01*
X121025650Y-72185243D01*
X120995328Y-72096279D01*
X120968072Y-72022097D01*
X120947479Y-71972171D01*
X120938951Y-71956727D01*
X120908045Y-71951735D01*
X120854766Y-71969824D01*
X120851626Y-71971348D01*
X120677412Y-72053416D01*
X120527274Y-72115642D01*
X120390510Y-72162319D01*
X120337750Y-72177435D01*
X120241019Y-72206468D01*
X120144574Y-72239959D01*
X120067959Y-72271079D01*
X120062583Y-72273588D01*
X120014876Y-72292734D01*
X119939455Y-72319099D01*
X119845469Y-72349892D01*
X119742068Y-72382320D01*
X119638402Y-72413591D01*
X119543621Y-72440913D01*
X119466875Y-72461494D01*
X119417315Y-72472541D01*
X119406898Y-72473667D01*
X119390866Y-72456209D01*
X119368713Y-72413342D01*
X119365096Y-72404875D01*
X119312948Y-72277927D01*
X119266567Y-72162315D01*
X119228344Y-72064231D01*
X119200671Y-71989863D01*
X119185939Y-71945403D01*
X119184166Y-71936603D01*
X119176616Y-71903376D01*
X119156357Y-71843071D01*
X119126976Y-71764428D01*
X119092059Y-71676183D01*
X119055195Y-71587075D01*
X119019971Y-71505843D01*
X118989972Y-71441224D01*
X118968786Y-71401957D01*
X118961497Y-71394167D01*
X118932930Y-71401411D01*
X118875632Y-71420716D01*
X118800190Y-71448446D01*
X118770933Y-71459671D01*
X118668541Y-71498516D01*
X118558351Y-71538954D01*
X118463180Y-71572620D01*
X118458035Y-71574382D01*
X118313988Y-71623589D01*
X118293994Y-71572378D01*
X118269798Y-71510383D01*
X118253132Y-71467660D01*
X118243127Y-71426171D01*
X118261528Y-71403480D01*
X118279591Y-71395252D01*
X118316486Y-71380930D01*
X118384021Y-71355088D01*
X118473225Y-71321146D01*
X118575129Y-71282524D01*
X118596407Y-71274477D01*
X118865898Y-71172604D01*
X118816365Y-71129927D01*
X118786097Y-71102526D01*
X118730732Y-71051140D01*
X118655832Y-70980979D01*
X118566956Y-70897254D01*
X118469664Y-70805176D01*
X118454636Y-70790917D01*
X118358575Y-70700694D01*
X118271680Y-70620883D01*
X118199017Y-70555994D01*
X118145656Y-70510536D01*
X118116665Y-70489020D01*
X118114185Y-70487974D01*
X118091563Y-70499056D01*
X118088074Y-70519724D01*
X118082600Y-70549079D01*
X118066074Y-70613474D01*
X118040027Y-70707527D01*
X118005991Y-70825857D01*
X117965496Y-70963083D01*
X117920072Y-71113824D01*
X117905573Y-71161334D01*
X117828528Y-71412834D01*
X117762743Y-71626904D01*
X117707180Y-71806623D01*
X117660802Y-71955067D01*
X117622570Y-72075315D01*
X117591445Y-72170444D01*
X117566391Y-72243532D01*
X117546368Y-72297656D01*
X117530338Y-72335895D01*
X117517264Y-72361325D01*
X117506107Y-72377026D01*
X117495828Y-72386074D01*
X117491596Y-72388592D01*
X117457473Y-72395426D01*
X117385416Y-72401161D01*
X117279812Y-72405627D01*
X117145049Y-72408656D01*
X116985516Y-72410079D01*
X116931308Y-72410167D01*
X116760515Y-72410309D01*
X116626807Y-72409361D01*
X116524945Y-72405260D01*
X116449693Y-72395946D01*
X116395812Y-72379355D01*
X116358066Y-72353428D01*
X116331215Y-72316100D01*
X116310023Y-72265312D01*
X116289252Y-72199001D01*
X116275101Y-72151854D01*
X116256197Y-72089613D01*
X116226934Y-71992991D01*
X116189173Y-71868140D01*
X116144773Y-71721213D01*
X116095593Y-71558361D01*
X116043492Y-71385736D01*
X116004247Y-71255640D01*
X115786916Y-70535029D01*
X115793267Y-71429205D01*
X115794764Y-71647134D01*
X115795765Y-71826677D01*
X115796113Y-71971779D01*
X115795653Y-72086389D01*
X115794228Y-72174450D01*
X115791683Y-72239910D01*
X115787862Y-72286715D01*
X115782609Y-72318810D01*
X115775768Y-72340142D01*
X115767183Y-72354657D01*
X115756699Y-72366300D01*
X115756225Y-72366774D01*
X115741536Y-72379724D01*
X115723090Y-72389806D01*
X115695816Y-72397378D01*
X115654642Y-72402799D01*
X115594497Y-72406427D01*
X115510308Y-72408619D01*
X115397004Y-72409733D01*
X115249513Y-72410127D01*
X115141333Y-72410167D01*
X114970511Y-72410022D01*
X114836961Y-72409356D01*
X114735622Y-72407820D01*
X114661434Y-72405064D01*
X114609335Y-72400739D01*
X114574265Y-72394496D01*
X114551162Y-72385987D01*
X114534966Y-72374863D01*
X114527500Y-72367833D01*
X114520304Y-72359897D01*
X114513974Y-72349645D01*
X114508453Y-72334474D01*
X114503687Y-72311780D01*
X114499620Y-72278958D01*
X114496196Y-72233405D01*
X114495557Y-72219667D01*
X114675666Y-72219667D01*
X115609241Y-72219667D01*
X115605734Y-70870292D01*
X115605074Y-70597808D01*
X115604667Y-70364609D01*
X115604592Y-70167651D01*
X115604926Y-70003885D01*
X115605744Y-69870264D01*
X115607126Y-69763743D01*
X115609146Y-69681273D01*
X115611884Y-69619809D01*
X115615415Y-69576304D01*
X115619817Y-69547710D01*
X115625167Y-69530981D01*
X115631542Y-69523070D01*
X115639019Y-69520931D01*
X115639871Y-69520917D01*
X115649133Y-69526363D01*
X115661150Y-69544469D01*
X115676796Y-69577888D01*
X115696947Y-69629274D01*
X115722477Y-69701279D01*
X115754261Y-69796556D01*
X115793172Y-69917758D01*
X115840085Y-70067539D01*
X115895875Y-70248550D01*
X115961417Y-70463446D01*
X116037584Y-70714880D01*
X116082904Y-70865000D01*
X116488291Y-72209084D01*
X116935339Y-72214792D01*
X117382387Y-72220501D01*
X117456260Y-71981959D01*
X117518216Y-71781343D01*
X117580602Y-71578299D01*
X117642172Y-71376967D01*
X117701679Y-71181491D01*
X117757876Y-70996009D01*
X117809516Y-70824665D01*
X117855353Y-70671600D01*
X117894139Y-70540954D01*
X117924627Y-70436869D01*
X117945572Y-70363486D01*
X117955726Y-70324948D01*
X117956499Y-70320433D01*
X117940444Y-70288774D01*
X117927652Y-70278677D01*
X117862259Y-70233362D01*
X117798065Y-70177527D01*
X117744243Y-70120557D01*
X117735433Y-70108034D01*
X118066550Y-70108034D01*
X118239067Y-70271028D01*
X118318346Y-70345911D01*
X118417441Y-70439482D01*
X118525377Y-70541377D01*
X118631177Y-70641234D01*
X118663925Y-70672137D01*
X118768721Y-70769026D01*
X118846307Y-70836081D01*
X118898239Y-70874527D01*
X118926072Y-70885587D01*
X118930964Y-70882334D01*
X118939478Y-70848991D01*
X118948833Y-70785702D01*
X118957288Y-70704775D01*
X118958912Y-70685084D01*
X118967776Y-70581639D01*
X118979412Y-70459025D01*
X118991628Y-70340111D01*
X118994402Y-70314667D01*
X119015068Y-70120775D01*
X119029585Y-69968296D01*
X119037987Y-69856765D01*
X119040308Y-69785715D01*
X119036582Y-69754680D01*
X119035409Y-69753385D01*
X119012263Y-69757868D01*
X118956389Y-69775394D01*
X118874513Y-69803657D01*
X118773362Y-69840351D01*
X118685166Y-69873435D01*
X118560907Y-69920667D01*
X118438653Y-69967103D01*
X118328932Y-70008745D01*
X118242269Y-70041599D01*
X118207317Y-70054826D01*
X118066550Y-70108034D01*
X117735433Y-70108034D01*
X117709965Y-70071834D01*
X117702500Y-70048358D01*
X117707420Y-70025357D01*
X117726540Y-70003942D01*
X117766402Y-69980159D01*
X117833546Y-69950052D01*
X117927122Y-69912554D01*
X118029722Y-69873078D01*
X118129391Y-69835833D01*
X118212753Y-69805763D01*
X118255205Y-69791317D01*
X118313805Y-69769659D01*
X118351305Y-69750551D01*
X118358666Y-69742472D01*
X118351360Y-69714968D01*
X118332047Y-69658654D01*
X118304634Y-69583948D01*
X118273031Y-69501268D01*
X118241145Y-69421030D01*
X118212883Y-69353654D01*
X118212373Y-69352489D01*
X118182491Y-69282011D01*
X118155859Y-69215507D01*
X118151288Y-69203417D01*
X118091497Y-69044123D01*
X118043481Y-68920698D01*
X118005409Y-68828923D01*
X117975450Y-68764579D01*
X117951775Y-68723449D01*
X117933947Y-68702463D01*
X117915326Y-68677210D01*
X118226242Y-68677210D01*
X118228110Y-68704511D01*
X118243544Y-68763489D01*
X118270214Y-68846591D01*
X118305790Y-68946258D01*
X118324165Y-68994710D01*
X118371643Y-69117654D01*
X118420713Y-69244693D01*
X118466049Y-69362044D01*
X118502327Y-69455923D01*
X118506995Y-69468000D01*
X118538178Y-69547874D01*
X118563486Y-69611214D01*
X118579199Y-69648783D01*
X118582269Y-69654984D01*
X118604162Y-69652874D01*
X118652229Y-69638256D01*
X118714009Y-69615923D01*
X118777037Y-69590667D01*
X118828853Y-69567278D01*
X118856993Y-69550550D01*
X118858482Y-69548785D01*
X118860328Y-69518870D01*
X118852102Y-69463468D01*
X118843579Y-69426156D01*
X118831237Y-69367496D01*
X119018893Y-69367496D01*
X119039831Y-69427561D01*
X119060770Y-69487625D01*
X119169343Y-69446371D01*
X119239307Y-69424543D01*
X119285762Y-69419859D01*
X119297241Y-69424442D01*
X119303552Y-69454886D01*
X119303139Y-69526259D01*
X119296064Y-69637705D01*
X119282391Y-69788368D01*
X119262181Y-69977391D01*
X119247639Y-70103000D01*
X119233901Y-70224724D01*
X119220058Y-70357597D01*
X119206669Y-70495022D01*
X119194296Y-70630398D01*
X119183500Y-70757126D01*
X119174841Y-70868606D01*
X119168879Y-70958240D01*
X119166177Y-71019429D01*
X119167293Y-71045571D01*
X119167526Y-71045916D01*
X119191280Y-71044378D01*
X119243607Y-71029941D01*
X119313847Y-71005612D01*
X119324346Y-71001648D01*
X119397864Y-70974173D01*
X119483837Y-70942892D01*
X119572837Y-70911123D01*
X119655436Y-70882184D01*
X119722205Y-70859394D01*
X119763716Y-70846070D01*
X119772293Y-70843981D01*
X119783272Y-70861502D01*
X119804775Y-70906504D01*
X119820694Y-70942647D01*
X119844355Y-71004638D01*
X119845658Y-71043411D01*
X119818917Y-71068739D01*
X119758448Y-71090400D01*
X119730102Y-71098414D01*
X119675606Y-71118097D01*
X119640742Y-71139093D01*
X119637493Y-71143010D01*
X119639709Y-71157350D01*
X119663057Y-71153618D01*
X119702480Y-71141549D01*
X119768474Y-71121437D01*
X119847102Y-71097532D01*
X119850916Y-71096373D01*
X120011860Y-71030394D01*
X120143267Y-70940334D01*
X120241375Y-70829073D01*
X120273796Y-70772572D01*
X120303459Y-70706694D01*
X120318744Y-70651867D01*
X120322440Y-70590641D01*
X120317333Y-70505562D01*
X120317028Y-70501921D01*
X120303275Y-70369834D01*
X120285640Y-70247009D01*
X120265737Y-70142252D01*
X120245182Y-70064369D01*
X120230323Y-70028917D01*
X120206639Y-69976189D01*
X120190554Y-69923818D01*
X120145998Y-69786385D01*
X120078998Y-69647730D01*
X119995897Y-69517012D01*
X119903036Y-69403390D01*
X119806758Y-69316024D01*
X119741976Y-69275996D01*
X119663130Y-69249181D01*
X119570496Y-69240743D01*
X119457710Y-69251118D01*
X119318411Y-69280742D01*
X119202071Y-69313063D01*
X119018893Y-69367496D01*
X118831237Y-69367496D01*
X118829181Y-69357726D01*
X118830038Y-69315833D01*
X118843020Y-69291071D01*
X118872483Y-69272617D01*
X118933562Y-69245454D01*
X119017381Y-69213216D01*
X119115063Y-69179540D01*
X119116564Y-69179050D01*
X119233182Y-69142585D01*
X119324259Y-69118829D01*
X119403729Y-69105205D01*
X119485528Y-69099132D01*
X119554583Y-69097985D01*
X119688044Y-69104400D01*
X119793844Y-69127349D01*
X119884938Y-69171430D01*
X119974280Y-69241239D01*
X119984364Y-69250507D01*
X120046154Y-69320050D01*
X120114252Y-69415665D01*
X120180310Y-69523710D01*
X120235983Y-69630539D01*
X120272768Y-69722000D01*
X120296220Y-69794163D01*
X120317694Y-69855033D01*
X120327932Y-69880750D01*
X120345962Y-69928027D01*
X120369548Y-69998939D01*
X120395189Y-70081709D01*
X120419385Y-70164557D01*
X120438635Y-70235706D01*
X120449437Y-70283377D01*
X120450612Y-70293500D01*
X120452481Y-70328733D01*
X120457192Y-70393524D01*
X120463813Y-70475268D01*
X120465460Y-70494584D01*
X120465260Y-70653112D01*
X120432729Y-70794438D01*
X120364316Y-70932285D01*
X120344210Y-70963340D01*
X120268168Y-71044703D01*
X120150805Y-71124600D01*
X119993124Y-71202533D01*
X119796126Y-71278004D01*
X119572263Y-71347307D01*
X119550053Y-71334093D01*
X119525794Y-71292636D01*
X119520386Y-71278954D01*
X119497708Y-71230318D01*
X119475873Y-71204789D01*
X119471791Y-71203667D01*
X119438567Y-71210992D01*
X119384152Y-71229546D01*
X119321099Y-71254198D01*
X119261960Y-71279815D01*
X119219290Y-71301266D01*
X119205333Y-71312593D01*
X119212565Y-71336542D01*
X119232319Y-71391956D01*
X119261679Y-71470882D01*
X119297731Y-71565367D01*
X119302334Y-71577284D01*
X119346741Y-71693421D01*
X119392282Y-71814752D01*
X119433068Y-71925475D01*
X119458888Y-71997417D01*
X119488171Y-72080028D01*
X119513541Y-72150421D01*
X119530632Y-72196524D01*
X119533484Y-72203792D01*
X119563995Y-72237247D01*
X119605360Y-72232625D01*
X119619141Y-72222414D01*
X119648045Y-72207849D01*
X119706113Y-72186154D01*
X119781740Y-72161602D01*
X119795829Y-72157356D01*
X119877785Y-72131080D01*
X119948473Y-72105106D01*
X119993928Y-72084611D01*
X119996913Y-72082835D01*
X120035029Y-72065312D01*
X120103222Y-72039776D01*
X120190916Y-72010023D01*
X120263666Y-71987060D01*
X120387935Y-71947692D01*
X120493552Y-71910290D01*
X120597890Y-71868174D01*
X120718322Y-71814665D01*
X120750500Y-71799870D01*
X120784735Y-71780730D01*
X121108686Y-71780730D01*
X121186441Y-72016073D01*
X121217776Y-72109975D01*
X121244724Y-72188989D01*
X121264310Y-72244503D01*
X121273360Y-72267583D01*
X121295978Y-72271343D01*
X121355830Y-72274451D01*
X121447824Y-72276828D01*
X121566864Y-72278396D01*
X121707857Y-72279077D01*
X121865709Y-72278791D01*
X121961240Y-72278167D01*
X122639955Y-72272584D01*
X123282686Y-70378167D01*
X123374982Y-70105967D01*
X123463312Y-69845144D01*
X123546737Y-69598490D01*
X123624319Y-69368794D01*
X123695119Y-69158847D01*
X123758197Y-68971440D01*
X123812614Y-68809364D01*
X123857433Y-68675408D01*
X123891713Y-68572363D01*
X123914516Y-68503020D01*
X123924902Y-68470169D01*
X123925458Y-68467875D01*
X123905225Y-68463642D01*
X123848190Y-68459848D01*
X123759883Y-68456649D01*
X123645835Y-68454202D01*
X123511575Y-68452661D01*
X123369875Y-68452181D01*
X122814250Y-68452362D01*
X122550358Y-69409973D01*
X122490749Y-69627160D01*
X122429691Y-69851241D01*
X122369159Y-70074855D01*
X122311129Y-70290643D01*
X122257577Y-70491245D01*
X122210480Y-70669302D01*
X122171812Y-70817454D01*
X122156876Y-70875584D01*
X122109447Y-71058755D01*
X122069902Y-71201520D01*
X122036508Y-71304700D01*
X122007528Y-71369114D01*
X121981229Y-71395581D01*
X121955875Y-71384923D01*
X121929732Y-71337958D01*
X121901065Y-71255508D01*
X121868139Y-71138391D01*
X121838980Y-71025842D01*
X121758611Y-70710433D01*
X121729657Y-70856508D01*
X121676911Y-71044910D01*
X121593840Y-71223374D01*
X121477118Y-71397417D01*
X121323421Y-71572555D01*
X121260338Y-71635073D01*
X121108686Y-71780730D01*
X120784735Y-71780730D01*
X120908056Y-71711785D01*
X121063197Y-71597063D01*
X121207607Y-71463889D01*
X121332970Y-71320448D01*
X121430974Y-71174927D01*
X121474348Y-71087250D01*
X121525801Y-70960018D01*
X121561935Y-70857253D01*
X121585862Y-70765310D01*
X121600694Y-70670544D01*
X121609543Y-70559310D01*
X121613320Y-70477817D01*
X121615852Y-70319454D01*
X121611120Y-70173903D01*
X121599611Y-70054926D01*
X121597928Y-70043900D01*
X121584428Y-69979022D01*
X121561433Y-69888763D01*
X121531458Y-69781237D01*
X121497021Y-69664555D01*
X121460637Y-69546830D01*
X121424823Y-69436174D01*
X121392096Y-69340699D01*
X121364972Y-69268519D01*
X121345967Y-69227745D01*
X121343775Y-69224584D01*
X121325117Y-69189082D01*
X121310961Y-69150500D01*
X121286972Y-69097712D01*
X121249791Y-69038697D01*
X121244871Y-69032086D01*
X121212816Y-68986266D01*
X121195821Y-68954718D01*
X121195000Y-68950782D01*
X121181663Y-68920573D01*
X121146177Y-68867834D01*
X121095325Y-68800935D01*
X121035892Y-68728250D01*
X120974661Y-68658148D01*
X120918417Y-68599002D01*
X120884499Y-68567631D01*
X120817735Y-68511421D01*
X120753012Y-68456855D01*
X120720017Y-68428991D01*
X120625837Y-68364780D01*
X120500441Y-68302013D01*
X120354815Y-68245486D01*
X120199943Y-68199992D01*
X120189583Y-68197475D01*
X120112150Y-68185649D01*
X120005186Y-68178210D01*
X119881266Y-68175169D01*
X119752966Y-68176539D01*
X119632861Y-68182330D01*
X119533527Y-68192555D01*
X119507803Y-68196836D01*
X119445150Y-68211851D01*
X119355050Y-68237452D01*
X119249916Y-68269955D01*
X119149800Y-68303057D01*
X119035514Y-68342146D01*
X118896653Y-68389626D01*
X118748700Y-68440203D01*
X118607139Y-68488583D01*
X118570333Y-68501160D01*
X118460531Y-68539825D01*
X118366305Y-68575193D01*
X118294328Y-68604582D01*
X118251277Y-68625308D01*
X118241925Y-68633173D01*
X118231262Y-68668262D01*
X118226242Y-68677210D01*
X117915326Y-68677210D01*
X117899654Y-68655957D01*
X117879592Y-68601921D01*
X117865989Y-68558293D01*
X117839199Y-68540140D01*
X117789147Y-68536667D01*
X117711753Y-68536667D01*
X117432386Y-69515625D01*
X117373739Y-69721841D01*
X117316580Y-69924155D01*
X117262407Y-70117180D01*
X117212713Y-70295528D01*
X117168997Y-70453812D01*
X117132754Y-70586644D01*
X117105479Y-70688636D01*
X117090762Y-70745855D01*
X117056256Y-70877365D01*
X117026363Y-70969824D01*
X116999352Y-71022852D01*
X116973491Y-71036072D01*
X116947050Y-71009103D01*
X116918295Y-70941569D01*
X116885497Y-70833089D01*
X116849337Y-70693059D01*
X116825927Y-70601766D01*
X116792474Y-70476063D01*
X116750701Y-70322204D01*
X116702336Y-70146441D01*
X116649103Y-69955030D01*
X116592728Y-69754223D01*
X116534936Y-69550275D01*
X116508434Y-69457417D01*
X116248051Y-68547250D01*
X115461858Y-68541701D01*
X114675666Y-68536152D01*
X114675666Y-72219667D01*
X114495557Y-72219667D01*
X114493361Y-72172517D01*
X114491058Y-72093689D01*
X114489233Y-71994318D01*
X114487829Y-71871800D01*
X114486792Y-71723531D01*
X114486067Y-71546907D01*
X114485597Y-71339324D01*
X114485327Y-71098177D01*
X114485203Y-70820864D01*
X114485168Y-70504780D01*
X114485166Y-70378167D01*
X114485182Y-70047157D01*
X114485268Y-69755877D01*
X114485477Y-69501722D01*
X114485867Y-69282089D01*
X114486492Y-69094373D01*
X114487408Y-68935971D01*
X114488670Y-68804278D01*
X114490334Y-68696691D01*
X114492454Y-68610605D01*
X114495087Y-68543417D01*
X114498288Y-68492523D01*
X114502112Y-68455318D01*
X114506614Y-68429199D01*
X114511851Y-68411562D01*
X114517876Y-68399802D01*
X114524747Y-68391317D01*
X114527499Y-68388500D01*
X114539328Y-68378044D01*
X114554567Y-68369466D01*
X114577219Y-68362583D01*
X114611287Y-68357206D01*
X114660773Y-68353152D01*
X114729680Y-68350233D01*
X114822012Y-68348264D01*
X114941770Y-68347059D01*
X115092959Y-68346432D01*
X115279580Y-68346197D01*
X115439058Y-68346167D01*
X115650472Y-68346660D01*
X115840403Y-68348087D01*
X116005378Y-68350369D01*
X116141925Y-68353430D01*
X116246572Y-68357191D01*
X116315848Y-68361575D01*
X116346280Y-68366502D01*
X116346321Y-68366525D01*
X116381911Y-68400538D01*
X116408062Y-68445900D01*
X116420396Y-68482430D01*
X116442267Y-68553377D01*
X116472265Y-68653793D01*
X116508983Y-68778731D01*
X116551015Y-68923244D01*
X116596952Y-69082385D01*
X116645388Y-69251206D01*
X116694914Y-69424760D01*
X116744123Y-69598100D01*
X116791608Y-69766279D01*
X116835962Y-69924350D01*
X116875776Y-70067365D01*
X116909643Y-70190377D01*
X116936156Y-70288439D01*
X116953907Y-70356604D01*
X116961490Y-70389924D01*
X116961666Y-70391793D01*
X116966144Y-70417484D01*
X116971303Y-70417919D01*
X116978838Y-70396261D01*
X116996776Y-70337806D01*
X117023971Y-70246488D01*
X117059275Y-70126237D01*
X117101538Y-69980984D01*
X117149615Y-69814660D01*
X117202357Y-69631198D01*
X117258616Y-69434528D01*
X117267415Y-69403683D01*
X117344890Y-69134090D01*
X117411967Y-68905136D01*
X117468627Y-68716885D01*
X117514851Y-68569398D01*
X117550620Y-68462738D01*
X117575913Y-68396965D01*
X117589907Y-68372625D01*
X117621356Y-68361634D01*
X117683568Y-68353748D01*
X117779876Y-68348748D01*
X117913613Y-68346409D01*
X117987260Y-68346167D01*
X118124315Y-68345624D01*
X118228254Y-68343381D01*
X118308289Y-68338516D01*
X118373630Y-68330109D01*
X118433488Y-68317238D01*
X118497074Y-68298983D01*
X118514840Y-68293404D01*
X118606334Y-68264916D01*
X118694439Y-68238408D01*
X118761898Y-68219057D01*
X118768583Y-68217249D01*
X118848346Y-68191956D01*
X118929966Y-68160397D01*
X118940750Y-68155646D01*
X119001673Y-68132296D01*
X119087612Y-68104507D01*
X119182351Y-68077441D01*
X119205333Y-68071437D01*
X119299546Y-68046976D01*
X119389035Y-68023103D01*
X119457686Y-68004134D01*
X119469916Y-68000601D01*
X119525410Y-67990973D01*
X119614283Y-67983462D01*
X119727611Y-67978592D01*
X119856471Y-67976890D01*
X119872083Y-67976922D01*
G36*
X124639644Y-70245875D02*
G01*
X124644704Y-73002834D01*
X113956461Y-73002834D01*
X113961522Y-70245875D01*
X113966330Y-67626500D01*
X114104166Y-67626500D01*
X114104166Y-72812334D01*
X124497000Y-72812334D01*
X124497000Y-67626500D01*
X114104166Y-67626500D01*
X113966330Y-67626500D01*
X113966583Y-67488917D01*
X124634583Y-67488917D01*
X124639644Y-70245875D01*
G37*
X124639644Y-70245875D02*
X124644704Y-73002834D01*
X113956461Y-73002834D01*
X113961522Y-70245875D01*
X113966330Y-67626500D01*
X114104166Y-67626500D01*
X114104166Y-72812334D01*
X124497000Y-72812334D01*
X124497000Y-67626500D01*
X114104166Y-67626500D01*
X113966330Y-67626500D01*
X113966583Y-67488917D01*
X124634583Y-67488917D01*
X124639644Y-70245875D01*
D14*
%TO.C,S1*%
X140130000Y-67340000D02*
X140130000Y-67340000D01*
X140232000Y-67340000D02*
X140232000Y-67340000D01*
X126320000Y-59000000D02*
X138320000Y-59000000D01*
X138320000Y-71000000D02*
X126320000Y-71000000D01*
X126320000Y-63975000D02*
X126320000Y-66025000D01*
X138320000Y-63975000D02*
X138320000Y-66025000D01*
X126320000Y-59000000D02*
X126320000Y-61000000D01*
X138320000Y-59000000D02*
X138320000Y-61000000D01*
X126320000Y-71000000D02*
X126320000Y-69000000D01*
X138320000Y-71000000D02*
X138320000Y-69000000D01*
X140130000Y-67340000D02*
G75*
G02*
X140232000Y-67340000I51000J0D01*
G01*
X140232000Y-67340000D02*
G75*
G02*
X140130000Y-67340000I-51000J0D01*
G01*
D15*
%TO.C,R14*%
X137225000Y-37030000D02*
X138275000Y-37030000D01*
%TO.C,R13*%
X104275000Y-37030000D02*
X103225000Y-37030000D01*
%TO.C,R12*%
X123367000Y-60398000D02*
X122317000Y-60398000D01*
%TO.C,R11*%
X118381000Y-64843668D02*
X119431000Y-64843668D01*
%TO.C,R10*%
X104591000Y-60699000D02*
X103541000Y-60699000D01*
%TO.C,R9*%
X132947000Y-47454000D02*
X133997000Y-47454000D01*
%TO.C,R8*%
X131931000Y-55074000D02*
X132981000Y-55074000D01*
%TO.C,R7*%
X124485666Y-47454000D02*
X125535666Y-47454000D01*
%TO.C,R6*%
X123469666Y-55074000D02*
X124519666Y-55074000D01*
%TO.C,R5*%
X116024333Y-47454000D02*
X117074333Y-47454000D01*
%TO.C,R4*%
X115008333Y-55074000D02*
X116058333Y-55074000D01*
%TO.C,R3*%
X107563000Y-47454000D02*
X108613000Y-47454000D01*
%TO.C,R2*%
X106547000Y-55074000D02*
X107597000Y-55074000D01*
%TO.C,R1*%
X114365000Y-60398000D02*
X115415000Y-60398000D01*
%TO.C,Q4*%
X131967000Y-52939000D02*
X131967000Y-51689000D01*
X134932000Y-51339000D02*
X132012000Y-51339000D01*
X134932000Y-51189000D02*
X134932000Y-51339000D01*
X132012000Y-51189000D02*
X134932000Y-51189000D01*
X132012000Y-51339000D02*
X132012000Y-51189000D01*
%TO.C,Q3*%
X123505666Y-52939000D02*
X123505666Y-51689000D01*
X126470666Y-51339000D02*
X123550666Y-51339000D01*
X126470666Y-51189000D02*
X126470666Y-51339000D01*
X123550666Y-51189000D02*
X126470666Y-51189000D01*
X123550666Y-51339000D02*
X123550666Y-51189000D01*
%TO.C,Q2*%
X115044333Y-52939000D02*
X115044333Y-51689000D01*
X118009333Y-51339000D02*
X115089333Y-51339000D01*
X118009333Y-51189000D02*
X118009333Y-51339000D01*
X115089333Y-51189000D02*
X118009333Y-51189000D01*
X115089333Y-51339000D02*
X115089333Y-51189000D01*
%TO.C,Q1*%
X106583000Y-52939000D02*
X106583000Y-51689000D01*
X109548000Y-51339000D02*
X106628000Y-51339000D01*
X109548000Y-51189000D02*
X109548000Y-51339000D01*
X106628000Y-51189000D02*
X109548000Y-51189000D01*
X106628000Y-51339000D02*
X106628000Y-51189000D01*
%TO.C,LED1*%
X105082000Y-66382000D02*
X105082000Y-63682000D01*
X102982000Y-66382000D02*
X105082000Y-66382000D01*
X102982000Y-63682000D02*
X102982000Y-66382000D01*
%TO.C,ISCP*%
X110720000Y-68151000D02*
G75*
G03*
X110720000Y-68151000I-63000J0D01*
G01*
D12*
%TO.C,IC2*%
X121935000Y-28290000D02*
G75*
G03*
X121935000Y-28290000I-125000J0D01*
G01*
D15*
%TO.C,D1*%
X118216000Y-59548000D02*
X118216000Y-61248000D01*
X119516000Y-58698000D02*
X119516000Y-61248000D01*
D16*
%TO.C,U1*%
X134620000Y-30450000D02*
X106930000Y-30450000D01*
X134620000Y-44150000D02*
X134620000Y-30450000D01*
X106930000Y-44150000D02*
X134620000Y-44150000D01*
X106930000Y-44150000D02*
X106930000Y-30450000D01*
%TO.C,IC1*%
X112961000Y-59526000D02*
X112961000Y-57836000D01*
X113236000Y-59526000D02*
X112961000Y-59526000D01*
X113236000Y-62286000D02*
X113236000Y-59526000D01*
X113236000Y-65046000D02*
X112961000Y-65046000D01*
X113236000Y-62286000D02*
X113236000Y-65046000D01*
X105816000Y-59526000D02*
X106091000Y-59526000D01*
X105816000Y-62286000D02*
X105816000Y-59526000D01*
X105816000Y-65046000D02*
X106091000Y-65046000D01*
X105816000Y-62286000D02*
X105816000Y-65046000D01*
%TO.C,S1*%
D17*
X131721380Y-65514047D02*
X131902809Y-65574523D01*
X132205190Y-65574523D01*
X132326142Y-65514047D01*
X132386619Y-65453571D01*
X132447095Y-65332619D01*
X132447095Y-65211666D01*
X132386619Y-65090714D01*
X132326142Y-65030238D01*
X132205190Y-64969761D01*
X131963285Y-64909285D01*
X131842333Y-64848809D01*
X131781857Y-64788333D01*
X131721380Y-64667380D01*
X131721380Y-64546428D01*
X131781857Y-64425476D01*
X131842333Y-64365000D01*
X131963285Y-64304523D01*
X132265666Y-64304523D01*
X132447095Y-64365000D01*
X133656619Y-65574523D02*
X132930904Y-65574523D01*
X133293761Y-65574523D02*
X133293761Y-64304523D01*
X133172809Y-64485952D01*
X133051857Y-64606904D01*
X132930904Y-64667380D01*
%TO.C,R14*%
X136574523Y-37916428D02*
X135969761Y-38339761D01*
X136574523Y-38642142D02*
X135304523Y-38642142D01*
X135304523Y-38158333D01*
X135365000Y-38037380D01*
X135425476Y-37976904D01*
X135546428Y-37916428D01*
X135727857Y-37916428D01*
X135848809Y-37976904D01*
X135909285Y-38037380D01*
X135969761Y-38158333D01*
X135969761Y-38642142D01*
X136574523Y-36706904D02*
X136574523Y-37432619D01*
X136574523Y-37069761D02*
X135304523Y-37069761D01*
X135485952Y-37190714D01*
X135606904Y-37311666D01*
X135667380Y-37432619D01*
X135727857Y-35618333D02*
X136574523Y-35618333D01*
X135244047Y-35920714D02*
X136151190Y-36223095D01*
X136151190Y-35436904D01*
%TO.C,R13*%
X106274523Y-37916428D02*
X105669761Y-38339761D01*
X106274523Y-38642142D02*
X105004523Y-38642142D01*
X105004523Y-38158333D01*
X105065000Y-38037380D01*
X105125476Y-37976904D01*
X105246428Y-37916428D01*
X105427857Y-37916428D01*
X105548809Y-37976904D01*
X105609285Y-38037380D01*
X105669761Y-38158333D01*
X105669761Y-38642142D01*
X106274523Y-36706904D02*
X106274523Y-37432619D01*
X106274523Y-37069761D02*
X105004523Y-37069761D01*
X105185952Y-37190714D01*
X105306904Y-37311666D01*
X105367380Y-37432619D01*
X105004523Y-36283571D02*
X105004523Y-35497380D01*
X105488333Y-35920714D01*
X105488333Y-35739285D01*
X105548809Y-35618333D01*
X105609285Y-35557857D01*
X105730238Y-35497380D01*
X106032619Y-35497380D01*
X106153571Y-35557857D01*
X106214047Y-35618333D01*
X106274523Y-35739285D01*
X106274523Y-36102142D01*
X106214047Y-36223095D01*
X106153571Y-36283571D01*
%TO.C,R12*%
X125174523Y-61316428D02*
X124569761Y-61739761D01*
X125174523Y-62042142D02*
X123904523Y-62042142D01*
X123904523Y-61558333D01*
X123965000Y-61437380D01*
X124025476Y-61376904D01*
X124146428Y-61316428D01*
X124327857Y-61316428D01*
X124448809Y-61376904D01*
X124509285Y-61437380D01*
X124569761Y-61558333D01*
X124569761Y-62042142D01*
X125174523Y-60106904D02*
X125174523Y-60832619D01*
X125174523Y-60469761D02*
X123904523Y-60469761D01*
X124085952Y-60590714D01*
X124206904Y-60711666D01*
X124267380Y-60832619D01*
X124025476Y-59623095D02*
X123965000Y-59562619D01*
X123904523Y-59441666D01*
X123904523Y-59139285D01*
X123965000Y-59018333D01*
X124025476Y-58957857D01*
X124146428Y-58897380D01*
X124267380Y-58897380D01*
X124448809Y-58957857D01*
X125174523Y-59683571D01*
X125174523Y-58897380D01*
%TO.C,R11*%
X121274523Y-65716428D02*
X120669761Y-66139761D01*
X121274523Y-66442142D02*
X120004523Y-66442142D01*
X120004523Y-65958333D01*
X120065000Y-65837380D01*
X120125476Y-65776904D01*
X120246428Y-65716428D01*
X120427857Y-65716428D01*
X120548809Y-65776904D01*
X120609285Y-65837380D01*
X120669761Y-65958333D01*
X120669761Y-66442142D01*
X121274523Y-64506904D02*
X121274523Y-65232619D01*
X121274523Y-64869761D02*
X120004523Y-64869761D01*
X120185952Y-64990714D01*
X120306904Y-65111666D01*
X120367380Y-65232619D01*
X121274523Y-63297380D02*
X121274523Y-64023095D01*
X121274523Y-63660238D02*
X120004523Y-63660238D01*
X120185952Y-63781190D01*
X120306904Y-63902142D01*
X120367380Y-64023095D01*
%TO.C,R10*%
X102674523Y-61516428D02*
X102069761Y-61939761D01*
X102674523Y-62242142D02*
X101404523Y-62242142D01*
X101404523Y-61758333D01*
X101465000Y-61637380D01*
X101525476Y-61576904D01*
X101646428Y-61516428D01*
X101827857Y-61516428D01*
X101948809Y-61576904D01*
X102009285Y-61637380D01*
X102069761Y-61758333D01*
X102069761Y-62242142D01*
X102674523Y-60306904D02*
X102674523Y-61032619D01*
X102674523Y-60669761D02*
X101404523Y-60669761D01*
X101585952Y-60790714D01*
X101706904Y-60911666D01*
X101767380Y-61032619D01*
X101404523Y-59520714D02*
X101404523Y-59399761D01*
X101465000Y-59278809D01*
X101525476Y-59218333D01*
X101646428Y-59157857D01*
X101888333Y-59097380D01*
X102190714Y-59097380D01*
X102432619Y-59157857D01*
X102553571Y-59218333D01*
X102614047Y-59278809D01*
X102674523Y-59399761D01*
X102674523Y-59520714D01*
X102614047Y-59641666D01*
X102553571Y-59702142D01*
X102432619Y-59762619D01*
X102190714Y-59823095D01*
X101888333Y-59823095D01*
X101646428Y-59762619D01*
X101525476Y-59702142D01*
X101465000Y-59641666D01*
X101404523Y-59520714D01*
%TO.C,R9*%
X135874523Y-47665666D02*
X135269761Y-48089000D01*
X135874523Y-48391380D02*
X134604523Y-48391380D01*
X134604523Y-47907571D01*
X134665000Y-47786619D01*
X134725476Y-47726142D01*
X134846428Y-47665666D01*
X135027857Y-47665666D01*
X135148809Y-47726142D01*
X135209285Y-47786619D01*
X135269761Y-47907571D01*
X135269761Y-48391380D01*
X135874523Y-47060904D02*
X135874523Y-46819000D01*
X135814047Y-46698047D01*
X135753571Y-46637571D01*
X135572142Y-46516619D01*
X135330238Y-46456142D01*
X134846428Y-46456142D01*
X134725476Y-46516619D01*
X134665000Y-46577095D01*
X134604523Y-46698047D01*
X134604523Y-46939952D01*
X134665000Y-47060904D01*
X134725476Y-47121380D01*
X134846428Y-47181857D01*
X135148809Y-47181857D01*
X135269761Y-47121380D01*
X135330238Y-47060904D01*
X135390714Y-46939952D01*
X135390714Y-46698047D01*
X135330238Y-46577095D01*
X135269761Y-46516619D01*
X135148809Y-46456142D01*
%TO.C,R8*%
X134774523Y-55311666D02*
X134169761Y-55735000D01*
X134774523Y-56037380D02*
X133504523Y-56037380D01*
X133504523Y-55553571D01*
X133565000Y-55432619D01*
X133625476Y-55372142D01*
X133746428Y-55311666D01*
X133927857Y-55311666D01*
X134048809Y-55372142D01*
X134109285Y-55432619D01*
X134169761Y-55553571D01*
X134169761Y-56037380D01*
X134048809Y-54585952D02*
X133988333Y-54706904D01*
X133927857Y-54767380D01*
X133806904Y-54827857D01*
X133746428Y-54827857D01*
X133625476Y-54767380D01*
X133565000Y-54706904D01*
X133504523Y-54585952D01*
X133504523Y-54344047D01*
X133565000Y-54223095D01*
X133625476Y-54162619D01*
X133746428Y-54102142D01*
X133806904Y-54102142D01*
X133927857Y-54162619D01*
X133988333Y-54223095D01*
X134048809Y-54344047D01*
X134048809Y-54585952D01*
X134109285Y-54706904D01*
X134169761Y-54767380D01*
X134290714Y-54827857D01*
X134532619Y-54827857D01*
X134653571Y-54767380D01*
X134714047Y-54706904D01*
X134774523Y-54585952D01*
X134774523Y-54344047D01*
X134714047Y-54223095D01*
X134653571Y-54162619D01*
X134532619Y-54102142D01*
X134290714Y-54102142D01*
X134169761Y-54162619D01*
X134109285Y-54223095D01*
X134048809Y-54344047D01*
%TO.C,R7*%
X127374523Y-47711666D02*
X126769761Y-48135000D01*
X127374523Y-48437380D02*
X126104523Y-48437380D01*
X126104523Y-47953571D01*
X126165000Y-47832619D01*
X126225476Y-47772142D01*
X126346428Y-47711666D01*
X126527857Y-47711666D01*
X126648809Y-47772142D01*
X126709285Y-47832619D01*
X126769761Y-47953571D01*
X126769761Y-48437380D01*
X126104523Y-47288333D02*
X126104523Y-46441666D01*
X127374523Y-46985952D01*
%TO.C,R6*%
X126274523Y-55311666D02*
X125669761Y-55735000D01*
X126274523Y-56037380D02*
X125004523Y-56037380D01*
X125004523Y-55553571D01*
X125065000Y-55432619D01*
X125125476Y-55372142D01*
X125246428Y-55311666D01*
X125427857Y-55311666D01*
X125548809Y-55372142D01*
X125609285Y-55432619D01*
X125669761Y-55553571D01*
X125669761Y-56037380D01*
X125004523Y-54223095D02*
X125004523Y-54465000D01*
X125065000Y-54585952D01*
X125125476Y-54646428D01*
X125306904Y-54767380D01*
X125548809Y-54827857D01*
X126032619Y-54827857D01*
X126153571Y-54767380D01*
X126214047Y-54706904D01*
X126274523Y-54585952D01*
X126274523Y-54344047D01*
X126214047Y-54223095D01*
X126153571Y-54162619D01*
X126032619Y-54102142D01*
X125730238Y-54102142D01*
X125609285Y-54162619D01*
X125548809Y-54223095D01*
X125488333Y-54344047D01*
X125488333Y-54585952D01*
X125548809Y-54706904D01*
X125609285Y-54767380D01*
X125730238Y-54827857D01*
%TO.C,R5*%
X118974523Y-47711666D02*
X118369761Y-48135000D01*
X118974523Y-48437380D02*
X117704523Y-48437380D01*
X117704523Y-47953571D01*
X117765000Y-47832619D01*
X117825476Y-47772142D01*
X117946428Y-47711666D01*
X118127857Y-47711666D01*
X118248809Y-47772142D01*
X118309285Y-47832619D01*
X118369761Y-47953571D01*
X118369761Y-48437380D01*
X117704523Y-46562619D02*
X117704523Y-47167380D01*
X118309285Y-47227857D01*
X118248809Y-47167380D01*
X118188333Y-47046428D01*
X118188333Y-46744047D01*
X118248809Y-46623095D01*
X118309285Y-46562619D01*
X118430238Y-46502142D01*
X118732619Y-46502142D01*
X118853571Y-46562619D01*
X118914047Y-46623095D01*
X118974523Y-46744047D01*
X118974523Y-47046428D01*
X118914047Y-47167380D01*
X118853571Y-47227857D01*
%TO.C,R4*%
X117974523Y-55311666D02*
X117369761Y-55735000D01*
X117974523Y-56037380D02*
X116704523Y-56037380D01*
X116704523Y-55553571D01*
X116765000Y-55432619D01*
X116825476Y-55372142D01*
X116946428Y-55311666D01*
X117127857Y-55311666D01*
X117248809Y-55372142D01*
X117309285Y-55432619D01*
X117369761Y-55553571D01*
X117369761Y-56037380D01*
X117127857Y-54223095D02*
X117974523Y-54223095D01*
X116644047Y-54525476D02*
X117551190Y-54827857D01*
X117551190Y-54041666D01*
%TO.C,R3*%
X110574523Y-47711666D02*
X109969761Y-48135000D01*
X110574523Y-48437380D02*
X109304523Y-48437380D01*
X109304523Y-47953571D01*
X109365000Y-47832619D01*
X109425476Y-47772142D01*
X109546428Y-47711666D01*
X109727857Y-47711666D01*
X109848809Y-47772142D01*
X109909285Y-47832619D01*
X109969761Y-47953571D01*
X109969761Y-48437380D01*
X109304523Y-47288333D02*
X109304523Y-46502142D01*
X109788333Y-46925476D01*
X109788333Y-46744047D01*
X109848809Y-46623095D01*
X109909285Y-46562619D01*
X110030238Y-46502142D01*
X110332619Y-46502142D01*
X110453571Y-46562619D01*
X110514047Y-46623095D01*
X110574523Y-46744047D01*
X110574523Y-47106904D01*
X110514047Y-47227857D01*
X110453571Y-47288333D01*
%TO.C,R2*%
X105874523Y-55311666D02*
X105269761Y-55735000D01*
X105874523Y-56037380D02*
X104604523Y-56037380D01*
X104604523Y-55553571D01*
X104665000Y-55432619D01*
X104725476Y-55372142D01*
X104846428Y-55311666D01*
X105027857Y-55311666D01*
X105148809Y-55372142D01*
X105209285Y-55432619D01*
X105269761Y-55553571D01*
X105269761Y-56037380D01*
X104725476Y-54827857D02*
X104665000Y-54767380D01*
X104604523Y-54646428D01*
X104604523Y-54344047D01*
X104665000Y-54223095D01*
X104725476Y-54162619D01*
X104846428Y-54102142D01*
X104967380Y-54102142D01*
X105148809Y-54162619D01*
X105874523Y-54888333D01*
X105874523Y-54102142D01*
%TO.C,R1*%
X117274523Y-60611666D02*
X116669761Y-61035000D01*
X117274523Y-61337380D02*
X116004523Y-61337380D01*
X116004523Y-60853571D01*
X116065000Y-60732619D01*
X116125476Y-60672142D01*
X116246428Y-60611666D01*
X116427857Y-60611666D01*
X116548809Y-60672142D01*
X116609285Y-60732619D01*
X116669761Y-60853571D01*
X116669761Y-61337380D01*
X117274523Y-59402142D02*
X117274523Y-60127857D01*
X117274523Y-59765000D02*
X116004523Y-59765000D01*
X116185952Y-59885952D01*
X116306904Y-60006904D01*
X116367380Y-60127857D01*
%TO.C,Q4*%
X136595476Y-51384952D02*
X136535000Y-51505904D01*
X136414047Y-51626857D01*
X136232619Y-51808285D01*
X136172142Y-51929238D01*
X136172142Y-52050190D01*
X136474523Y-51989714D02*
X136414047Y-52110666D01*
X136293095Y-52231619D01*
X136051190Y-52292095D01*
X135627857Y-52292095D01*
X135385952Y-52231619D01*
X135265000Y-52110666D01*
X135204523Y-51989714D01*
X135204523Y-51747809D01*
X135265000Y-51626857D01*
X135385952Y-51505904D01*
X135627857Y-51445428D01*
X136051190Y-51445428D01*
X136293095Y-51505904D01*
X136414047Y-51626857D01*
X136474523Y-51747809D01*
X136474523Y-51989714D01*
X135627857Y-50356857D02*
X136474523Y-50356857D01*
X135144047Y-50659238D02*
X136051190Y-50961619D01*
X136051190Y-50175428D01*
%TO.C,Q3*%
X128195476Y-51420952D02*
X128135000Y-51541904D01*
X128014047Y-51662857D01*
X127832619Y-51844285D01*
X127772142Y-51965238D01*
X127772142Y-52086190D01*
X128074523Y-52025714D02*
X128014047Y-52146666D01*
X127893095Y-52267619D01*
X127651190Y-52328095D01*
X127227857Y-52328095D01*
X126985952Y-52267619D01*
X126865000Y-52146666D01*
X126804523Y-52025714D01*
X126804523Y-51783809D01*
X126865000Y-51662857D01*
X126985952Y-51541904D01*
X127227857Y-51481428D01*
X127651190Y-51481428D01*
X127893095Y-51541904D01*
X128014047Y-51662857D01*
X128074523Y-51783809D01*
X128074523Y-52025714D01*
X126804523Y-51058095D02*
X126804523Y-50271904D01*
X127288333Y-50695238D01*
X127288333Y-50513809D01*
X127348809Y-50392857D01*
X127409285Y-50332380D01*
X127530238Y-50271904D01*
X127832619Y-50271904D01*
X127953571Y-50332380D01*
X128014047Y-50392857D01*
X128074523Y-50513809D01*
X128074523Y-50876666D01*
X128014047Y-50997619D01*
X127953571Y-51058095D01*
%TO.C,Q2*%
X119895476Y-51420952D02*
X119835000Y-51541904D01*
X119714047Y-51662857D01*
X119532619Y-51844285D01*
X119472142Y-51965238D01*
X119472142Y-52086190D01*
X119774523Y-52025714D02*
X119714047Y-52146666D01*
X119593095Y-52267619D01*
X119351190Y-52328095D01*
X118927857Y-52328095D01*
X118685952Y-52267619D01*
X118565000Y-52146666D01*
X118504523Y-52025714D01*
X118504523Y-51783809D01*
X118565000Y-51662857D01*
X118685952Y-51541904D01*
X118927857Y-51481428D01*
X119351190Y-51481428D01*
X119593095Y-51541904D01*
X119714047Y-51662857D01*
X119774523Y-51783809D01*
X119774523Y-52025714D01*
X118625476Y-50997619D02*
X118565000Y-50937142D01*
X118504523Y-50816190D01*
X118504523Y-50513809D01*
X118565000Y-50392857D01*
X118625476Y-50332380D01*
X118746428Y-50271904D01*
X118867380Y-50271904D01*
X119048809Y-50332380D01*
X119774523Y-51058095D01*
X119774523Y-50271904D01*
%TO.C,Q1*%
X111395476Y-51420952D02*
X111335000Y-51541904D01*
X111214047Y-51662857D01*
X111032619Y-51844285D01*
X110972142Y-51965238D01*
X110972142Y-52086190D01*
X111274523Y-52025714D02*
X111214047Y-52146666D01*
X111093095Y-52267619D01*
X110851190Y-52328095D01*
X110427857Y-52328095D01*
X110185952Y-52267619D01*
X110065000Y-52146666D01*
X110004523Y-52025714D01*
X110004523Y-51783809D01*
X110065000Y-51662857D01*
X110185952Y-51541904D01*
X110427857Y-51481428D01*
X110851190Y-51481428D01*
X111093095Y-51541904D01*
X111214047Y-51662857D01*
X111274523Y-51783809D01*
X111274523Y-52025714D01*
X111274523Y-50271904D02*
X111274523Y-50997619D01*
X111274523Y-50634761D02*
X110004523Y-50634761D01*
X110185952Y-50755714D01*
X110306904Y-50876666D01*
X110367380Y-50997619D01*
%TO.C,LED1*%
X102674523Y-66121190D02*
X102674523Y-66725952D01*
X101404523Y-66725952D01*
X102009285Y-65697857D02*
X102009285Y-65274523D01*
X102674523Y-65093095D02*
X102674523Y-65697857D01*
X101404523Y-65697857D01*
X101404523Y-65093095D01*
X102674523Y-64548809D02*
X101404523Y-64548809D01*
X101404523Y-64246428D01*
X101465000Y-64065000D01*
X101585952Y-63944047D01*
X101706904Y-63883571D01*
X101948809Y-63823095D01*
X102130238Y-63823095D01*
X102372142Y-63883571D01*
X102493095Y-63944047D01*
X102614047Y-64065000D01*
X102674523Y-64246428D01*
X102674523Y-64548809D01*
X102674523Y-62613571D02*
X102674523Y-63339285D01*
X102674523Y-62976428D02*
X101404523Y-62976428D01*
X101585952Y-63097380D01*
X101706904Y-63218333D01*
X101767380Y-63339285D01*
%TO.C,ISCP*%
X107795238Y-72704523D02*
X107795238Y-71434523D01*
X108339523Y-72644047D02*
X108520952Y-72704523D01*
X108823333Y-72704523D01*
X108944285Y-72644047D01*
X109004761Y-72583571D01*
X109065238Y-72462619D01*
X109065238Y-72341666D01*
X109004761Y-72220714D01*
X108944285Y-72160238D01*
X108823333Y-72099761D01*
X108581428Y-72039285D01*
X108460476Y-71978809D01*
X108400000Y-71918333D01*
X108339523Y-71797380D01*
X108339523Y-71676428D01*
X108400000Y-71555476D01*
X108460476Y-71495000D01*
X108581428Y-71434523D01*
X108883809Y-71434523D01*
X109065238Y-71495000D01*
X110335238Y-72583571D02*
X110274761Y-72644047D01*
X110093333Y-72704523D01*
X109972380Y-72704523D01*
X109790952Y-72644047D01*
X109670000Y-72523095D01*
X109609523Y-72402142D01*
X109549047Y-72160238D01*
X109549047Y-71978809D01*
X109609523Y-71736904D01*
X109670000Y-71615952D01*
X109790952Y-71495000D01*
X109972380Y-71434523D01*
X110093333Y-71434523D01*
X110274761Y-71495000D01*
X110335238Y-71555476D01*
X110879523Y-72704523D02*
X110879523Y-71434523D01*
X111363333Y-71434523D01*
X111484285Y-71495000D01*
X111544761Y-71555476D01*
X111605238Y-71676428D01*
X111605238Y-71857857D01*
X111544761Y-71978809D01*
X111484285Y-72039285D01*
X111363333Y-72099761D01*
X110879523Y-72099761D01*
%TO.C,IC2*%
X122660238Y-29974523D02*
X122660238Y-28704523D01*
X123990714Y-29853571D02*
X123930238Y-29914047D01*
X123748809Y-29974523D01*
X123627857Y-29974523D01*
X123446428Y-29914047D01*
X123325476Y-29793095D01*
X123265000Y-29672142D01*
X123204523Y-29430238D01*
X123204523Y-29248809D01*
X123265000Y-29006904D01*
X123325476Y-28885952D01*
X123446428Y-28765000D01*
X123627857Y-28704523D01*
X123748809Y-28704523D01*
X123930238Y-28765000D01*
X123990714Y-28825476D01*
X124474523Y-28825476D02*
X124535000Y-28765000D01*
X124655952Y-28704523D01*
X124958333Y-28704523D01*
X125079285Y-28765000D01*
X125139761Y-28825476D01*
X125200238Y-28946428D01*
X125200238Y-29067380D01*
X125139761Y-29248809D01*
X124414047Y-29974523D01*
X125200238Y-29974523D01*
%TO.C,D1*%
X121174523Y-61337380D02*
X119904523Y-61337380D01*
X119904523Y-61035000D01*
X119965000Y-60853571D01*
X120085952Y-60732619D01*
X120206904Y-60672142D01*
X120448809Y-60611666D01*
X120630238Y-60611666D01*
X120872142Y-60672142D01*
X120993095Y-60732619D01*
X121114047Y-60853571D01*
X121174523Y-61035000D01*
X121174523Y-61337380D01*
X121174523Y-59402142D02*
X121174523Y-60127857D01*
X121174523Y-59765000D02*
X119904523Y-59765000D01*
X120085952Y-59885952D01*
X120206904Y-60006904D01*
X120267380Y-60127857D01*
%TO.C,C3*%
X118018333Y-29813571D02*
X117957857Y-29874047D01*
X117776428Y-29934523D01*
X117655476Y-29934523D01*
X117474047Y-29874047D01*
X117353095Y-29753095D01*
X117292619Y-29632142D01*
X117232142Y-29390238D01*
X117232142Y-29208809D01*
X117292619Y-28966904D01*
X117353095Y-28845952D01*
X117474047Y-28725000D01*
X117655476Y-28664523D01*
X117776428Y-28664523D01*
X117957857Y-28725000D01*
X118018333Y-28785476D01*
X118441666Y-28664523D02*
X119227857Y-28664523D01*
X118804523Y-29148333D01*
X118985952Y-29148333D01*
X119106904Y-29208809D01*
X119167380Y-29269285D01*
X119227857Y-29390238D01*
X119227857Y-29692619D01*
X119167380Y-29813571D01*
X119106904Y-29874047D01*
X118985952Y-29934523D01*
X118623095Y-29934523D01*
X118502142Y-29874047D01*
X118441666Y-29813571D01*
%TO.C,C2*%
X125153571Y-65011666D02*
X125214047Y-65072142D01*
X125274523Y-65253571D01*
X125274523Y-65374523D01*
X125214047Y-65555952D01*
X125093095Y-65676904D01*
X124972142Y-65737380D01*
X124730238Y-65797857D01*
X124548809Y-65797857D01*
X124306904Y-65737380D01*
X124185952Y-65676904D01*
X124065000Y-65555952D01*
X124004523Y-65374523D01*
X124004523Y-65253571D01*
X124065000Y-65072142D01*
X124125476Y-65011666D01*
X124125476Y-64527857D02*
X124065000Y-64467380D01*
X124004523Y-64346428D01*
X124004523Y-64044047D01*
X124065000Y-63923095D01*
X124125476Y-63862619D01*
X124246428Y-63802142D01*
X124367380Y-63802142D01*
X124548809Y-63862619D01*
X125274523Y-64588333D01*
X125274523Y-63802142D01*
%TO.C,C1*%
X117153571Y-65011666D02*
X117214047Y-65072142D01*
X117274523Y-65253571D01*
X117274523Y-65374523D01*
X117214047Y-65555952D01*
X117093095Y-65676904D01*
X116972142Y-65737380D01*
X116730238Y-65797857D01*
X116548809Y-65797857D01*
X116306904Y-65737380D01*
X116185952Y-65676904D01*
X116065000Y-65555952D01*
X116004523Y-65374523D01*
X116004523Y-65253571D01*
X116065000Y-65072142D01*
X116125476Y-65011666D01*
X117274523Y-63802142D02*
X117274523Y-64527857D01*
X117274523Y-64165000D02*
X116004523Y-64165000D01*
X116185952Y-64285952D01*
X116306904Y-64406904D01*
X116367380Y-64527857D01*
%TD*%
%LPC*%
D18*
%TO.C,U2*%
X109370000Y-54700000D03*
X129370000Y-54700000D03*
%TD*%
D19*
%TO.C,S1*%
X126070000Y-62500000D03*
X138570000Y-62500000D03*
X126070000Y-67500000D03*
X138570000Y-67500000D03*
%TD*%
D20*
%TO.C,R14*%
X137750000Y-36080000D03*
X137750000Y-37980000D03*
%TD*%
%TO.C,R13*%
X103750000Y-37980000D03*
X103750000Y-36080000D03*
%TD*%
%TO.C,R12*%
X122842000Y-61348000D03*
X122842000Y-59448000D03*
%TD*%
%TO.C,R11*%
X118906000Y-63893668D03*
X118906000Y-65793668D03*
%TD*%
%TO.C,R10*%
X104066000Y-61649000D03*
X104066000Y-59749000D03*
%TD*%
%TO.C,R9*%
X133472000Y-46504000D03*
X133472000Y-48404000D03*
%TD*%
%TO.C,R8*%
X132456000Y-54124000D03*
X132456000Y-56024000D03*
%TD*%
%TO.C,R7*%
X125010666Y-46504000D03*
X125010666Y-48404000D03*
%TD*%
%TO.C,R6*%
X123994666Y-54124000D03*
X123994666Y-56024000D03*
%TD*%
%TO.C,R5*%
X116549333Y-46504000D03*
X116549333Y-48404000D03*
%TD*%
%TO.C,R4*%
X115533333Y-54124000D03*
X115533333Y-56024000D03*
%TD*%
%TO.C,R3*%
X108088000Y-46504000D03*
X108088000Y-48404000D03*
%TD*%
%TO.C,R2*%
X107072000Y-54124000D03*
X107072000Y-56024000D03*
%TD*%
%TO.C,R1*%
X114890000Y-59448000D03*
X114890000Y-61348000D03*
%TD*%
D21*
%TO.C,Q4*%
X133472000Y-50214000D03*
X134427000Y-52314000D03*
X132517000Y-52314000D03*
%TD*%
%TO.C,Q3*%
X125010666Y-50214000D03*
X125965666Y-52314000D03*
X124055666Y-52314000D03*
%TD*%
%TO.C,Q2*%
X116549333Y-50214000D03*
X117504333Y-52314000D03*
X115594333Y-52314000D03*
%TD*%
%TO.C,Q1*%
X108088000Y-50214000D03*
X109043000Y-52314000D03*
X107133000Y-52314000D03*
%TD*%
D22*
%TO.C,LED1*%
X104032000Y-63682000D03*
X104032000Y-65582000D03*
%TD*%
D23*
%TO.C,ISCP*%
X106820000Y-68649000D03*
X106820000Y-70681000D03*
X111900000Y-69665000D03*
D24*
X108090000Y-70300000D03*
X108090000Y-69030000D03*
X109360000Y-70300000D03*
X109360000Y-69030000D03*
X110630000Y-70300000D03*
X110630000Y-69030000D03*
%TD*%
D25*
%TO.C,IC2*%
X120750000Y-26700000D03*
D26*
X119430000Y-27700000D03*
X119430000Y-26700000D03*
X119430000Y-25700000D03*
X122070000Y-25700000D03*
X122070000Y-26700000D03*
X122070000Y-27700000D03*
%TD*%
D27*
%TO.C,D1*%
X118866000Y-61560000D03*
X118866000Y-59236000D03*
%TD*%
D28*
%TO.C,C3*%
X120200000Y-29360000D03*
X121800000Y-29360000D03*
%TD*%
D29*
%TO.C,C2*%
X122882000Y-64043668D03*
X122882000Y-65643668D03*
%TD*%
%TO.C,C1*%
X114930000Y-65643668D03*
X114930000Y-64043668D03*
%TD*%
D30*
%TO.C,U1*%
X114430000Y-32230000D03*
X116970000Y-32230000D03*
X119510000Y-32230000D03*
X122050000Y-32230000D03*
X124590000Y-32230000D03*
X127130000Y-32230000D03*
X127130000Y-42390000D03*
X124590000Y-42390000D03*
X122050000Y-42390000D03*
X119510000Y-42390000D03*
X116970000Y-42390000D03*
D31*
X114430000Y-42390000D03*
%TD*%
%TO.C,IC1*%
G36*
G01*
X112326000Y-64836000D02*
X112576000Y-64836000D01*
G75*
G02*
X112701000Y-64961000I0J-125000D01*
G01*
X112701000Y-66611000D01*
G75*
G02*
X112576000Y-66736000I-125000J0D01*
G01*
X112326000Y-66736000D01*
G75*
G02*
X112201000Y-66611000I0J125000D01*
G01*
X112201000Y-64961000D01*
G75*
G02*
X112326000Y-64836000I125000J0D01*
G01*
G37*
G36*
G01*
X111676000Y-64836000D02*
X111926000Y-64836000D01*
G75*
G02*
X112051000Y-64961000I0J-125000D01*
G01*
X112051000Y-66611000D01*
G75*
G02*
X111926000Y-66736000I-125000J0D01*
G01*
X111676000Y-66736000D01*
G75*
G02*
X111551000Y-66611000I0J125000D01*
G01*
X111551000Y-64961000D01*
G75*
G02*
X111676000Y-64836000I125000J0D01*
G01*
G37*
G36*
G01*
X111026000Y-64836000D02*
X111276000Y-64836000D01*
G75*
G02*
X111401000Y-64961000I0J-125000D01*
G01*
X111401000Y-66611000D01*
G75*
G02*
X111276000Y-66736000I-125000J0D01*
G01*
X111026000Y-66736000D01*
G75*
G02*
X110901000Y-66611000I0J125000D01*
G01*
X110901000Y-64961000D01*
G75*
G02*
X111026000Y-64836000I125000J0D01*
G01*
G37*
G36*
G01*
X110376000Y-64836000D02*
X110626000Y-64836000D01*
G75*
G02*
X110751000Y-64961000I0J-125000D01*
G01*
X110751000Y-66611000D01*
G75*
G02*
X110626000Y-66736000I-125000J0D01*
G01*
X110376000Y-66736000D01*
G75*
G02*
X110251000Y-66611000I0J125000D01*
G01*
X110251000Y-64961000D01*
G75*
G02*
X110376000Y-64836000I125000J0D01*
G01*
G37*
G36*
G01*
X109726000Y-64836000D02*
X109976000Y-64836000D01*
G75*
G02*
X110101000Y-64961000I0J-125000D01*
G01*
X110101000Y-66611000D01*
G75*
G02*
X109976000Y-66736000I-125000J0D01*
G01*
X109726000Y-66736000D01*
G75*
G02*
X109601000Y-66611000I0J125000D01*
G01*
X109601000Y-64961000D01*
G75*
G02*
X109726000Y-64836000I125000J0D01*
G01*
G37*
G36*
G01*
X109076000Y-64836000D02*
X109326000Y-64836000D01*
G75*
G02*
X109451000Y-64961000I0J-125000D01*
G01*
X109451000Y-66611000D01*
G75*
G02*
X109326000Y-66736000I-125000J0D01*
G01*
X109076000Y-66736000D01*
G75*
G02*
X108951000Y-66611000I0J125000D01*
G01*
X108951000Y-64961000D01*
G75*
G02*
X109076000Y-64836000I125000J0D01*
G01*
G37*
G36*
G01*
X108426000Y-64836000D02*
X108676000Y-64836000D01*
G75*
G02*
X108801000Y-64961000I0J-125000D01*
G01*
X108801000Y-66611000D01*
G75*
G02*
X108676000Y-66736000I-125000J0D01*
G01*
X108426000Y-66736000D01*
G75*
G02*
X108301000Y-66611000I0J125000D01*
G01*
X108301000Y-64961000D01*
G75*
G02*
X108426000Y-64836000I125000J0D01*
G01*
G37*
G36*
G01*
X107776000Y-64836000D02*
X108026000Y-64836000D01*
G75*
G02*
X108151000Y-64961000I0J-125000D01*
G01*
X108151000Y-66611000D01*
G75*
G02*
X108026000Y-66736000I-125000J0D01*
G01*
X107776000Y-66736000D01*
G75*
G02*
X107651000Y-66611000I0J125000D01*
G01*
X107651000Y-64961000D01*
G75*
G02*
X107776000Y-64836000I125000J0D01*
G01*
G37*
G36*
G01*
X107126000Y-64836000D02*
X107376000Y-64836000D01*
G75*
G02*
X107501000Y-64961000I0J-125000D01*
G01*
X107501000Y-66611000D01*
G75*
G02*
X107376000Y-66736000I-125000J0D01*
G01*
X107126000Y-66736000D01*
G75*
G02*
X107001000Y-66611000I0J125000D01*
G01*
X107001000Y-64961000D01*
G75*
G02*
X107126000Y-64836000I125000J0D01*
G01*
G37*
G36*
G01*
X106476000Y-64836000D02*
X106726000Y-64836000D01*
G75*
G02*
X106851000Y-64961000I0J-125000D01*
G01*
X106851000Y-66611000D01*
G75*
G02*
X106726000Y-66736000I-125000J0D01*
G01*
X106476000Y-66736000D01*
G75*
G02*
X106351000Y-66611000I0J125000D01*
G01*
X106351000Y-64961000D01*
G75*
G02*
X106476000Y-64836000I125000J0D01*
G01*
G37*
G36*
G01*
X106476000Y-57836000D02*
X106726000Y-57836000D01*
G75*
G02*
X106851000Y-57961000I0J-125000D01*
G01*
X106851000Y-59611000D01*
G75*
G02*
X106726000Y-59736000I-125000J0D01*
G01*
X106476000Y-59736000D01*
G75*
G02*
X106351000Y-59611000I0J125000D01*
G01*
X106351000Y-57961000D01*
G75*
G02*
X106476000Y-57836000I125000J0D01*
G01*
G37*
G36*
G01*
X107126000Y-57836000D02*
X107376000Y-57836000D01*
G75*
G02*
X107501000Y-57961000I0J-125000D01*
G01*
X107501000Y-59611000D01*
G75*
G02*
X107376000Y-59736000I-125000J0D01*
G01*
X107126000Y-59736000D01*
G75*
G02*
X107001000Y-59611000I0J125000D01*
G01*
X107001000Y-57961000D01*
G75*
G02*
X107126000Y-57836000I125000J0D01*
G01*
G37*
G36*
G01*
X107776000Y-57836000D02*
X108026000Y-57836000D01*
G75*
G02*
X108151000Y-57961000I0J-125000D01*
G01*
X108151000Y-59611000D01*
G75*
G02*
X108026000Y-59736000I-125000J0D01*
G01*
X107776000Y-59736000D01*
G75*
G02*
X107651000Y-59611000I0J125000D01*
G01*
X107651000Y-57961000D01*
G75*
G02*
X107776000Y-57836000I125000J0D01*
G01*
G37*
G36*
G01*
X108426000Y-57836000D02*
X108676000Y-57836000D01*
G75*
G02*
X108801000Y-57961000I0J-125000D01*
G01*
X108801000Y-59611000D01*
G75*
G02*
X108676000Y-59736000I-125000J0D01*
G01*
X108426000Y-59736000D01*
G75*
G02*
X108301000Y-59611000I0J125000D01*
G01*
X108301000Y-57961000D01*
G75*
G02*
X108426000Y-57836000I125000J0D01*
G01*
G37*
G36*
G01*
X109076000Y-57836000D02*
X109326000Y-57836000D01*
G75*
G02*
X109451000Y-57961000I0J-125000D01*
G01*
X109451000Y-59611000D01*
G75*
G02*
X109326000Y-59736000I-125000J0D01*
G01*
X109076000Y-59736000D01*
G75*
G02*
X108951000Y-59611000I0J125000D01*
G01*
X108951000Y-57961000D01*
G75*
G02*
X109076000Y-57836000I125000J0D01*
G01*
G37*
G36*
G01*
X109726000Y-57836000D02*
X109976000Y-57836000D01*
G75*
G02*
X110101000Y-57961000I0J-125000D01*
G01*
X110101000Y-59611000D01*
G75*
G02*
X109976000Y-59736000I-125000J0D01*
G01*
X109726000Y-59736000D01*
G75*
G02*
X109601000Y-59611000I0J125000D01*
G01*
X109601000Y-57961000D01*
G75*
G02*
X109726000Y-57836000I125000J0D01*
G01*
G37*
G36*
G01*
X110376000Y-57836000D02*
X110626000Y-57836000D01*
G75*
G02*
X110751000Y-57961000I0J-125000D01*
G01*
X110751000Y-59611000D01*
G75*
G02*
X110626000Y-59736000I-125000J0D01*
G01*
X110376000Y-59736000D01*
G75*
G02*
X110251000Y-59611000I0J125000D01*
G01*
X110251000Y-57961000D01*
G75*
G02*
X110376000Y-57836000I125000J0D01*
G01*
G37*
G36*
G01*
X111026000Y-57836000D02*
X111276000Y-57836000D01*
G75*
G02*
X111401000Y-57961000I0J-125000D01*
G01*
X111401000Y-59611000D01*
G75*
G02*
X111276000Y-59736000I-125000J0D01*
G01*
X111026000Y-59736000D01*
G75*
G02*
X110901000Y-59611000I0J125000D01*
G01*
X110901000Y-57961000D01*
G75*
G02*
X111026000Y-57836000I125000J0D01*
G01*
G37*
G36*
G01*
X111676000Y-57836000D02*
X111926000Y-57836000D01*
G75*
G02*
X112051000Y-57961000I0J-125000D01*
G01*
X112051000Y-59611000D01*
G75*
G02*
X111926000Y-59736000I-125000J0D01*
G01*
X111676000Y-59736000D01*
G75*
G02*
X111551000Y-59611000I0J125000D01*
G01*
X111551000Y-57961000D01*
G75*
G02*
X111676000Y-57836000I125000J0D01*
G01*
G37*
G36*
G01*
X112326000Y-57836000D02*
X112576000Y-57836000D01*
G75*
G02*
X112701000Y-57961000I0J-125000D01*
G01*
X112701000Y-59611000D01*
G75*
G02*
X112576000Y-59736000I-125000J0D01*
G01*
X112326000Y-59736000D01*
G75*
G02*
X112201000Y-59611000I0J125000D01*
G01*
X112201000Y-57961000D01*
G75*
G02*
X112326000Y-57836000I125000J0D01*
G01*
G37*
%TD*%
D17*
X112573000Y-59603000D02*
X106477000Y-59603000D01*
X106477000Y-57967000D01*
X112573000Y-57967000D01*
X112573000Y-59603000D01*
D14*
G36*
X112573000Y-59603000D02*
G01*
X106477000Y-59603000D01*
X106477000Y-57967000D01*
X112573000Y-57967000D01*
X112573000Y-59603000D01*
G37*
D17*
X112573000Y-66603000D02*
X106477000Y-66603000D01*
X106477000Y-64967000D01*
X112573000Y-64967000D01*
X112573000Y-66603000D01*
D14*
G36*
X112573000Y-66603000D02*
G01*
X106477000Y-66603000D01*
X106477000Y-64967000D01*
X112573000Y-64967000D01*
X112573000Y-66603000D01*
G37*
M02*
