%TF.GenerationSoftware,KiCad,Pcbnew,(5.1.10)-1*%
%TF.CreationDate,2021-11-08T18:16:21+01:00*%
%TF.ProjectId,RHT device,52485420-6465-4766-9963-652e6b696361,rev?*%
%TF.SameCoordinates,Original*%
%TF.FileFunction,Copper,L3,Inr*%
%TF.FilePolarity,Positive*%
%FSLAX46Y46*%
G04 Gerber Fmt 4.6, Leading zero omitted, Abs format (unit mm)*
G04 Created by KiCad (PCBNEW (5.1.10)-1) date 2021-11-08 18:16:21*
%MOMM*%
%LPD*%
G01*
G04 APERTURE LIST*
%TA.AperFunction,ComponentPad*%
%ADD10C,1.950000*%
%TD*%
%TA.AperFunction,ComponentPad*%
%ADD11C,1.850000*%
%TD*%
%TA.AperFunction,ComponentPad*%
%ADD12C,1.550000*%
%TD*%
%TA.AperFunction,ComponentPad*%
%ADD13C,1.500000*%
%TD*%
%TA.AperFunction,ComponentPad*%
%ADD14R,1.500000X1.500000*%
%TD*%
%TA.AperFunction,ViaPad*%
%ADD15C,0.800000*%
%TD*%
%TA.AperFunction,Conductor*%
%ADD16C,0.250000*%
%TD*%
%TA.AperFunction,Conductor*%
%ADD17C,0.200000*%
%TD*%
%TA.AperFunction,Conductor*%
%ADD18C,0.254000*%
%TD*%
%TA.AperFunction,Conductor*%
%ADD19C,0.100000*%
%TD*%
G04 APERTURE END LIST*
D10*
%TO.N,gnd*%
%TO.C,U2*%
X109370000Y-54700000D03*
%TO.N,+3V*%
X129370000Y-54700000D03*
%TD*%
D11*
%TO.N,gnd*%
%TO.C,S1*%
X126070000Y-62500000D03*
%TO.N,Net-(R11-Pad1)*%
X138570000Y-62500000D03*
%TO.N,gnd*%
X126070000Y-67500000D03*
%TO.N,Net-(R11-Pad1)*%
X138570000Y-67500000D03*
%TD*%
D12*
%TO.N,N/C*%
%TO.C,ISCP*%
X106820000Y-68649000D03*
X106820000Y-70681000D03*
X111900000Y-69665000D03*
%TD*%
D13*
%TO.N,/CC_1*%
%TO.C,U1*%
X114430000Y-32230000D03*
%TO.N,/D_a*%
X116970000Y-32230000D03*
%TO.N,/D_f*%
X119510000Y-32230000D03*
%TO.N,/CC_2*%
X122050000Y-32230000D03*
%TO.N,/CC_3*%
X124590000Y-32230000D03*
%TO.N,/D_b*%
X127130000Y-32230000D03*
%TO.N,/CC_4*%
X127130000Y-42390000D03*
%TO.N,/D_g*%
X124590000Y-42390000D03*
%TO.N,/D_c*%
X122050000Y-42390000D03*
%TO.N,/D_dp*%
X119510000Y-42390000D03*
%TO.N,/D_d*%
X116970000Y-42390000D03*
D14*
%TO.N,/D_e*%
X114430000Y-42390000D03*
%TD*%
D15*
%TO.N,gnd*%
X113600000Y-67500000D03*
X103800000Y-67000000D03*
X136200000Y-52300000D03*
X127100000Y-52400000D03*
X119000000Y-52500000D03*
X124700000Y-30100000D03*
%TO.N,+3V*%
X116700000Y-62900000D03*
X137500000Y-39800000D03*
X103700000Y-39800000D03*
X117600000Y-29400000D03*
%TO.N,/B_1*%
X112434610Y-63926954D03*
X109200000Y-71400000D03*
X117700000Y-59900000D03*
%TO.N,/D_a*%
X109800000Y-64200000D03*
%TO.N,/D_b*%
X109700000Y-63100000D03*
X124700000Y-65300000D03*
%TO.N,/D_c*%
X109626385Y-40883665D03*
X108500000Y-63200000D03*
%TO.N,/C_4*%
X118400000Y-57100000D03*
X106900000Y-60928547D03*
%TO.N,/D_dp*%
X107200000Y-57200000D03*
%TO.N,/D_g*%
X110000000Y-56900000D03*
X107800000Y-60400000D03*
%TO.N,/D_d*%
X108300000Y-57000000D03*
%TO.N,/D_e*%
X109200000Y-56300000D03*
%TO.N,/D_f*%
X109100000Y-60500000D03*
X103500000Y-52000000D03*
%TO.N,/CC_4*%
X133500000Y-45000000D03*
%TO.N,Net-(R11-Pad1)*%
X120300000Y-65600000D03*
X124500000Y-59400000D03*
%TO.N,/MCLR*%
X111300000Y-68225000D03*
X110600000Y-60400000D03*
X116300000Y-59500000D03*
%TO.N,/I2C_DATA*%
X123200000Y-29480829D03*
X102600000Y-34700000D03*
X107500000Y-63200000D03*
%TO.N,/I2C_SCK*%
X118980829Y-28780829D03*
X137800000Y-34500000D03*
X106200000Y-64300000D03*
%TD*%
D16*
%TO.N,gnd*%
X126070000Y-67500000D02*
X126070000Y-62500000D01*
X126070000Y-67500000D02*
X113600000Y-67500000D01*
X113600000Y-67500000D02*
X104300000Y-67500000D01*
X104300000Y-67500000D02*
X103800000Y-67000000D01*
X118270000Y-54700000D02*
X109370000Y-54700000D01*
X126070000Y-62500000D02*
X118270000Y-54700000D01*
X130670001Y-57899999D02*
X131100001Y-57899999D01*
X126070000Y-62500000D02*
X130670001Y-57899999D01*
X136200000Y-52800000D02*
X136200000Y-52300000D01*
X131100001Y-57899999D02*
X136200000Y-52800000D01*
X130670001Y-57899999D02*
X130670001Y-57870001D01*
X130670001Y-57870001D02*
X129400000Y-56600000D01*
X129400000Y-56600000D02*
X128300000Y-56600000D01*
X128300000Y-56600000D02*
X127100000Y-55400000D01*
X127100000Y-55400000D02*
X127100000Y-52400000D01*
X118270000Y-54700000D02*
X118270000Y-54230000D01*
X118270000Y-54230000D02*
X119000000Y-53500000D01*
X119000000Y-53500000D02*
X119000000Y-52500000D01*
X138900000Y-49600000D02*
X136200000Y-52300000D01*
X138900000Y-33900000D02*
X138900000Y-49600000D01*
X135100000Y-30100000D02*
X138900000Y-33900000D01*
X124700000Y-30100000D02*
X135100000Y-30100000D01*
D17*
%TO.N,/D_b*%
X124299999Y-64899999D02*
X124700000Y-65300000D01*
X111499999Y-64899999D02*
X124299999Y-64899999D01*
X109700000Y-63100000D02*
X111499999Y-64899999D01*
%TO.N,/D_g*%
X110000000Y-56900000D02*
X107900000Y-59000000D01*
X107900000Y-60300000D02*
X107800000Y-60400000D01*
X107900000Y-59000000D02*
X107900000Y-60300000D01*
%TO.N,/I2C_DATA*%
X107500000Y-64036002D02*
X107300000Y-64236002D01*
X107500000Y-63200000D02*
X107500000Y-64036002D01*
X107300000Y-64236002D02*
X107300000Y-64300000D01*
X107300000Y-64300000D02*
X106500000Y-65100000D01*
X102600000Y-61736002D02*
X102600000Y-34700000D01*
X105963998Y-65100000D02*
X102600000Y-61736002D01*
X106500000Y-65100000D02*
X105963998Y-65100000D01*
%TO.N,/I2C_SCK*%
X106200000Y-55982998D02*
X112482998Y-49700000D01*
X106200000Y-64300000D02*
X106200000Y-55982998D01*
X112482998Y-49700000D02*
X135000000Y-49700000D01*
X135000000Y-49700000D02*
X136200000Y-48500000D01*
X136200000Y-36100000D02*
X137800000Y-34500000D01*
X136200000Y-48500000D02*
X136200000Y-36100000D01*
%TD*%
D18*
%TO.N,gnd*%
X122055665Y-25618863D02*
X122109214Y-25635030D01*
X122158597Y-25661288D01*
X122201945Y-25696641D01*
X122237600Y-25739740D01*
X122264201Y-25788937D01*
X122280742Y-25842375D01*
X122290000Y-25930455D01*
X122290000Y-27284876D01*
X122292989Y-27315221D01*
X122292946Y-27321332D01*
X122293914Y-27331198D01*
X122314315Y-27525295D01*
X122327250Y-27588310D01*
X122339312Y-27651540D01*
X122342177Y-27661030D01*
X122399889Y-27847468D01*
X122424829Y-27906797D01*
X122448932Y-27966455D01*
X122453586Y-27975208D01*
X122546411Y-28146885D01*
X122582371Y-28200198D01*
X122617633Y-28254083D01*
X122623898Y-28261765D01*
X122748302Y-28412143D01*
X122793957Y-28457480D01*
X122838987Y-28503463D01*
X122844324Y-28507879D01*
X122709744Y-28563624D01*
X122540226Y-28676892D01*
X122396063Y-28821055D01*
X122282795Y-28990573D01*
X122204774Y-29178931D01*
X122165000Y-29378890D01*
X122165000Y-29582768D01*
X122204774Y-29782727D01*
X122282795Y-29971085D01*
X122396063Y-30140603D01*
X122540226Y-30284766D01*
X122709744Y-30398034D01*
X122898102Y-30476055D01*
X123098061Y-30515829D01*
X123301939Y-30515829D01*
X123501898Y-30476055D01*
X123690256Y-30398034D01*
X123859774Y-30284766D01*
X124003937Y-30140603D01*
X124117205Y-29971085D01*
X124195226Y-29782727D01*
X124235000Y-29582768D01*
X124235000Y-29378890D01*
X124195226Y-29178931D01*
X124117205Y-28990573D01*
X124096777Y-28960000D01*
X138715279Y-28960000D01*
X138999899Y-28987907D01*
X139240285Y-29060484D01*
X139461991Y-29178368D01*
X139656577Y-29337068D01*
X139816635Y-29530545D01*
X139936064Y-29751424D01*
X140010317Y-29991297D01*
X140040000Y-30273716D01*
X140040001Y-61972420D01*
X139952454Y-61761063D01*
X139781731Y-61505558D01*
X139564442Y-61288269D01*
X139308937Y-61117546D01*
X139025035Y-60999950D01*
X138723647Y-60940000D01*
X138416353Y-60940000D01*
X138114965Y-60999950D01*
X137831063Y-61117546D01*
X137575558Y-61288269D01*
X137358269Y-61505558D01*
X137187546Y-61761063D01*
X137069950Y-62044965D01*
X137010000Y-62346353D01*
X137010000Y-62653647D01*
X137069950Y-62955035D01*
X137187546Y-63238937D01*
X137358269Y-63494442D01*
X137575558Y-63711731D01*
X137831063Y-63882454D01*
X138114965Y-64000050D01*
X138416353Y-64060000D01*
X138723647Y-64060000D01*
X139025035Y-64000050D01*
X139308937Y-63882454D01*
X139564442Y-63711731D01*
X139781731Y-63494442D01*
X139952454Y-63238937D01*
X140040001Y-63027580D01*
X140040001Y-66972420D01*
X139952454Y-66761063D01*
X139781731Y-66505558D01*
X139564442Y-66288269D01*
X139308937Y-66117546D01*
X139025035Y-65999950D01*
X138723647Y-65940000D01*
X138416353Y-65940000D01*
X138114965Y-65999950D01*
X137831063Y-66117546D01*
X137575558Y-66288269D01*
X137358269Y-66505558D01*
X137187546Y-66761063D01*
X137069950Y-67044965D01*
X137010000Y-67346353D01*
X137010000Y-67653647D01*
X137069950Y-67955035D01*
X137187546Y-68238937D01*
X137358269Y-68494442D01*
X137575558Y-68711731D01*
X137831063Y-68882454D01*
X138114965Y-69000050D01*
X138416353Y-69060000D01*
X138723647Y-69060000D01*
X139025035Y-69000050D01*
X139308937Y-68882454D01*
X139564442Y-68711731D01*
X139781731Y-68494442D01*
X139952454Y-68238937D01*
X140040001Y-68027580D01*
X140040001Y-71215269D01*
X140012093Y-71499899D01*
X139939517Y-71740282D01*
X139821633Y-71961989D01*
X139662929Y-72156580D01*
X139469455Y-72316635D01*
X139248576Y-72436064D01*
X139008701Y-72510317D01*
X138726291Y-72540000D01*
X102784721Y-72540000D01*
X102500101Y-72512093D01*
X102259718Y-72439517D01*
X102038011Y-72321633D01*
X101843420Y-72162929D01*
X101683365Y-71969455D01*
X101563936Y-71748576D01*
X101489683Y-71508701D01*
X101460000Y-71226291D01*
X101460000Y-68510127D01*
X105410000Y-68510127D01*
X105410000Y-68787873D01*
X105464186Y-69060282D01*
X105570475Y-69316885D01*
X105724782Y-69547822D01*
X105841960Y-69665000D01*
X105724782Y-69782178D01*
X105570475Y-70013115D01*
X105464186Y-70269718D01*
X105410000Y-70542127D01*
X105410000Y-70819873D01*
X105464186Y-71092282D01*
X105570475Y-71348885D01*
X105724782Y-71579822D01*
X105921178Y-71776218D01*
X106152115Y-71930525D01*
X106408718Y-72036814D01*
X106681127Y-72091000D01*
X106958873Y-72091000D01*
X107231282Y-72036814D01*
X107487885Y-71930525D01*
X107718822Y-71776218D01*
X107915218Y-71579822D01*
X108069525Y-71348885D01*
X108090577Y-71298061D01*
X108165000Y-71298061D01*
X108165000Y-71501939D01*
X108204774Y-71701898D01*
X108282795Y-71890256D01*
X108396063Y-72059774D01*
X108540226Y-72203937D01*
X108709744Y-72317205D01*
X108898102Y-72395226D01*
X109098061Y-72435000D01*
X109301939Y-72435000D01*
X109501898Y-72395226D01*
X109690256Y-72317205D01*
X109859774Y-72203937D01*
X110003937Y-72059774D01*
X110117205Y-71890256D01*
X110195226Y-71701898D01*
X110235000Y-71501939D01*
X110235000Y-71298061D01*
X110195226Y-71098102D01*
X110117205Y-70909744D01*
X110003937Y-70740226D01*
X109859774Y-70596063D01*
X109690256Y-70482795D01*
X109501898Y-70404774D01*
X109301939Y-70365000D01*
X109098061Y-70365000D01*
X108898102Y-70404774D01*
X108709744Y-70482795D01*
X108540226Y-70596063D01*
X108396063Y-70740226D01*
X108282795Y-70909744D01*
X108204774Y-71098102D01*
X108165000Y-71298061D01*
X108090577Y-71298061D01*
X108175814Y-71092282D01*
X108230000Y-70819873D01*
X108230000Y-70542127D01*
X108175814Y-70269718D01*
X108069525Y-70013115D01*
X107915218Y-69782178D01*
X107798040Y-69665000D01*
X107915218Y-69547822D01*
X108069525Y-69316885D01*
X108175814Y-69060282D01*
X108230000Y-68787873D01*
X108230000Y-68510127D01*
X108175814Y-68237718D01*
X108128322Y-68123061D01*
X110265000Y-68123061D01*
X110265000Y-68326939D01*
X110304774Y-68526898D01*
X110382795Y-68715256D01*
X110496063Y-68884774D01*
X110638153Y-69026864D01*
X110544186Y-69253718D01*
X110490000Y-69526127D01*
X110490000Y-69803873D01*
X110544186Y-70076282D01*
X110650475Y-70332885D01*
X110804782Y-70563822D01*
X111001178Y-70760218D01*
X111232115Y-70914525D01*
X111488718Y-71020814D01*
X111761127Y-71075000D01*
X112038873Y-71075000D01*
X112311282Y-71020814D01*
X112567885Y-70914525D01*
X112798822Y-70760218D01*
X112995218Y-70563822D01*
X113149525Y-70332885D01*
X113255814Y-70076282D01*
X113310000Y-69803873D01*
X113310000Y-69526127D01*
X113255814Y-69253718D01*
X113149525Y-68997115D01*
X112995218Y-68766178D01*
X112810957Y-68581917D01*
X125167688Y-68581917D01*
X125254393Y-68838653D01*
X125531223Y-68972048D01*
X125828757Y-69048873D01*
X126135562Y-69066176D01*
X126439848Y-69023292D01*
X126729921Y-68921868D01*
X126885607Y-68838653D01*
X126972312Y-68581917D01*
X126070000Y-67679605D01*
X125167688Y-68581917D01*
X112810957Y-68581917D01*
X112798822Y-68569782D01*
X112567885Y-68415475D01*
X112335000Y-68319010D01*
X112335000Y-68123061D01*
X112295226Y-67923102D01*
X112217205Y-67734744D01*
X112104162Y-67565562D01*
X124503824Y-67565562D01*
X124546708Y-67869848D01*
X124648132Y-68159921D01*
X124731347Y-68315607D01*
X124988083Y-68402312D01*
X125890395Y-67500000D01*
X126249605Y-67500000D01*
X127151917Y-68402312D01*
X127408653Y-68315607D01*
X127542048Y-68038777D01*
X127618873Y-67741243D01*
X127636176Y-67434438D01*
X127593292Y-67130152D01*
X127491868Y-66840079D01*
X127408653Y-66684393D01*
X127151917Y-66597688D01*
X126249605Y-67500000D01*
X125890395Y-67500000D01*
X124988083Y-66597688D01*
X124731347Y-66684393D01*
X124597952Y-66961223D01*
X124521127Y-67258757D01*
X124503824Y-67565562D01*
X112104162Y-67565562D01*
X112103937Y-67565226D01*
X111959774Y-67421063D01*
X111790256Y-67307795D01*
X111601898Y-67229774D01*
X111401939Y-67190000D01*
X111198061Y-67190000D01*
X110998102Y-67229774D01*
X110809744Y-67307795D01*
X110640226Y-67421063D01*
X110496063Y-67565226D01*
X110382795Y-67734744D01*
X110304774Y-67923102D01*
X110265000Y-68123061D01*
X108128322Y-68123061D01*
X108069525Y-67981115D01*
X107915218Y-67750178D01*
X107718822Y-67553782D01*
X107487885Y-67399475D01*
X107231282Y-67293186D01*
X106958873Y-67239000D01*
X106681127Y-67239000D01*
X106408718Y-67293186D01*
X106152115Y-67399475D01*
X105921178Y-67553782D01*
X105724782Y-67750178D01*
X105570475Y-67981115D01*
X105464186Y-68237718D01*
X105410000Y-68510127D01*
X101460000Y-68510127D01*
X101460000Y-34598061D01*
X101565000Y-34598061D01*
X101565000Y-34801939D01*
X101604774Y-35001898D01*
X101682795Y-35190256D01*
X101796063Y-35359774D01*
X101865001Y-35428712D01*
X101865000Y-61699897D01*
X101861444Y-61736002D01*
X101865000Y-61772106D01*
X101875635Y-61880086D01*
X101917663Y-62018634D01*
X101985913Y-62146321D01*
X102077762Y-62258239D01*
X102105808Y-62281256D01*
X105418744Y-65594193D01*
X105441760Y-65622238D01*
X105469804Y-65645253D01*
X105553678Y-65714087D01*
X105681364Y-65782337D01*
X105819913Y-65824365D01*
X105963998Y-65838556D01*
X106000103Y-65835000D01*
X106463895Y-65835000D01*
X106500000Y-65838556D01*
X106536105Y-65835000D01*
X106644085Y-65824365D01*
X106782633Y-65782337D01*
X106910320Y-65714087D01*
X107022238Y-65622238D01*
X107045258Y-65594188D01*
X107794193Y-64845254D01*
X107822238Y-64822238D01*
X107914087Y-64710319D01*
X107970304Y-64605144D01*
X107994187Y-64581261D01*
X108022238Y-64558240D01*
X108114087Y-64446322D01*
X108182337Y-64318635D01*
X108218539Y-64199291D01*
X108398061Y-64235000D01*
X108601939Y-64235000D01*
X108765000Y-64202565D01*
X108765000Y-64301939D01*
X108804774Y-64501898D01*
X108882795Y-64690256D01*
X108996063Y-64859774D01*
X109140226Y-65003937D01*
X109309744Y-65117205D01*
X109498102Y-65195226D01*
X109698061Y-65235000D01*
X109901939Y-65235000D01*
X110101898Y-65195226D01*
X110290256Y-65117205D01*
X110459774Y-65003937D01*
X110512132Y-64951579D01*
X110954745Y-65394192D01*
X110977761Y-65422237D01*
X111089679Y-65514086D01*
X111217366Y-65582336D01*
X111313885Y-65611615D01*
X111355913Y-65624364D01*
X111499999Y-65638555D01*
X111536104Y-65634999D01*
X119265000Y-65634999D01*
X119265000Y-65701939D01*
X119304774Y-65901898D01*
X119382795Y-66090256D01*
X119496063Y-66259774D01*
X119640226Y-66403937D01*
X119809744Y-66517205D01*
X119998102Y-66595226D01*
X120198061Y-66635000D01*
X120401939Y-66635000D01*
X120601898Y-66595226D01*
X120790256Y-66517205D01*
X120959774Y-66403937D01*
X121103937Y-66259774D01*
X121217205Y-66090256D01*
X121295226Y-65901898D01*
X121335000Y-65701939D01*
X121335000Y-65634999D01*
X123718485Y-65634999D01*
X123782795Y-65790256D01*
X123896063Y-65959774D01*
X124040226Y-66103937D01*
X124209744Y-66217205D01*
X124398102Y-66295226D01*
X124598061Y-66335000D01*
X124801939Y-66335000D01*
X125001898Y-66295226D01*
X125190256Y-66217205D01*
X125248722Y-66178139D01*
X125167688Y-66418083D01*
X126070000Y-67320395D01*
X126972312Y-66418083D01*
X126885607Y-66161347D01*
X126608777Y-66027952D01*
X126311243Y-65951127D01*
X126004438Y-65933824D01*
X125700152Y-65976708D01*
X125410079Y-66078132D01*
X125351670Y-66109352D01*
X125359774Y-66103937D01*
X125503937Y-65959774D01*
X125617205Y-65790256D01*
X125695226Y-65601898D01*
X125735000Y-65401939D01*
X125735000Y-65198061D01*
X125695226Y-64998102D01*
X125617205Y-64809744D01*
X125503937Y-64640226D01*
X125359774Y-64496063D01*
X125190256Y-64382795D01*
X125001898Y-64304774D01*
X124801939Y-64265000D01*
X124671195Y-64265000D01*
X124582632Y-64217662D01*
X124444084Y-64175634D01*
X124336104Y-64164999D01*
X124299999Y-64161443D01*
X124263894Y-64164999D01*
X113442537Y-64164999D01*
X113469610Y-64028893D01*
X113469610Y-63825015D01*
X113429836Y-63625056D01*
X113351815Y-63436698D01*
X113238547Y-63267180D01*
X113094384Y-63123017D01*
X112924866Y-63009749D01*
X112736508Y-62931728D01*
X112536549Y-62891954D01*
X112332671Y-62891954D01*
X112132712Y-62931728D01*
X111944354Y-63009749D01*
X111774836Y-63123017D01*
X111630673Y-63267180D01*
X111517405Y-63436698D01*
X111439384Y-63625056D01*
X111410370Y-63770923D01*
X110735000Y-63095554D01*
X110735000Y-62998061D01*
X110695226Y-62798102D01*
X110695210Y-62798061D01*
X115665000Y-62798061D01*
X115665000Y-63001939D01*
X115704774Y-63201898D01*
X115782795Y-63390256D01*
X115896063Y-63559774D01*
X116040226Y-63703937D01*
X116209744Y-63817205D01*
X116398102Y-63895226D01*
X116598061Y-63935000D01*
X116801939Y-63935000D01*
X117001898Y-63895226D01*
X117190256Y-63817205D01*
X117359774Y-63703937D01*
X117481794Y-63581917D01*
X125167688Y-63581917D01*
X125254393Y-63838653D01*
X125531223Y-63972048D01*
X125828757Y-64048873D01*
X126135562Y-64066176D01*
X126439848Y-64023292D01*
X126729921Y-63921868D01*
X126885607Y-63838653D01*
X126972312Y-63581917D01*
X126070000Y-62679605D01*
X125167688Y-63581917D01*
X117481794Y-63581917D01*
X117503937Y-63559774D01*
X117617205Y-63390256D01*
X117695226Y-63201898D01*
X117735000Y-63001939D01*
X117735000Y-62798061D01*
X117695226Y-62598102D01*
X117681748Y-62565562D01*
X124503824Y-62565562D01*
X124546708Y-62869848D01*
X124648132Y-63159921D01*
X124731347Y-63315607D01*
X124988083Y-63402312D01*
X125890395Y-62500000D01*
X126249605Y-62500000D01*
X127151917Y-63402312D01*
X127408653Y-63315607D01*
X127542048Y-63038777D01*
X127618873Y-62741243D01*
X127636176Y-62434438D01*
X127593292Y-62130152D01*
X127491868Y-61840079D01*
X127408653Y-61684393D01*
X127151917Y-61597688D01*
X126249605Y-62500000D01*
X125890395Y-62500000D01*
X124988083Y-61597688D01*
X124731347Y-61684393D01*
X124597952Y-61961223D01*
X124521127Y-62258757D01*
X124503824Y-62565562D01*
X117681748Y-62565562D01*
X117617205Y-62409744D01*
X117503937Y-62240226D01*
X117359774Y-62096063D01*
X117190256Y-61982795D01*
X117001898Y-61904774D01*
X116801939Y-61865000D01*
X116598061Y-61865000D01*
X116398102Y-61904774D01*
X116209744Y-61982795D01*
X116040226Y-62096063D01*
X115896063Y-62240226D01*
X115782795Y-62409744D01*
X115704774Y-62598102D01*
X115665000Y-62798061D01*
X110695210Y-62798061D01*
X110617205Y-62609744D01*
X110503937Y-62440226D01*
X110359774Y-62296063D01*
X110190256Y-62182795D01*
X110001898Y-62104774D01*
X109801939Y-62065000D01*
X109598061Y-62065000D01*
X109398102Y-62104774D01*
X109209744Y-62182795D01*
X109040226Y-62296063D01*
X109028164Y-62308125D01*
X108990256Y-62282795D01*
X108801898Y-62204774D01*
X108601939Y-62165000D01*
X108398061Y-62165000D01*
X108198102Y-62204774D01*
X108009744Y-62282795D01*
X108000000Y-62289306D01*
X107990256Y-62282795D01*
X107801898Y-62204774D01*
X107601939Y-62165000D01*
X107398061Y-62165000D01*
X107198102Y-62204774D01*
X107009744Y-62282795D01*
X106935000Y-62332737D01*
X106935000Y-61963547D01*
X107001939Y-61963547D01*
X107201898Y-61923773D01*
X107390256Y-61845752D01*
X107559774Y-61732484D01*
X107703937Y-61588321D01*
X107806383Y-61435000D01*
X107901939Y-61435000D01*
X108101898Y-61395226D01*
X108290256Y-61317205D01*
X108388110Y-61251821D01*
X108440226Y-61303937D01*
X108609744Y-61417205D01*
X108798102Y-61495226D01*
X108998061Y-61535000D01*
X109201939Y-61535000D01*
X109401898Y-61495226D01*
X109590256Y-61417205D01*
X109759774Y-61303937D01*
X109900000Y-61163711D01*
X109940226Y-61203937D01*
X110109744Y-61317205D01*
X110298102Y-61395226D01*
X110498061Y-61435000D01*
X110701939Y-61435000D01*
X110786987Y-61418083D01*
X125167688Y-61418083D01*
X126070000Y-62320395D01*
X126972312Y-61418083D01*
X126885607Y-61161347D01*
X126608777Y-61027952D01*
X126311243Y-60951127D01*
X126004438Y-60933824D01*
X125700152Y-60976708D01*
X125410079Y-61078132D01*
X125254393Y-61161347D01*
X125167688Y-61418083D01*
X110786987Y-61418083D01*
X110901898Y-61395226D01*
X111090256Y-61317205D01*
X111259774Y-61203937D01*
X111403937Y-61059774D01*
X111517205Y-60890256D01*
X111595226Y-60701898D01*
X111635000Y-60501939D01*
X111635000Y-60298061D01*
X111595226Y-60098102D01*
X111517205Y-59909744D01*
X111403937Y-59740226D01*
X111259774Y-59596063D01*
X111090256Y-59482795D01*
X110901898Y-59404774D01*
X110868150Y-59398061D01*
X115265000Y-59398061D01*
X115265000Y-59601939D01*
X115304774Y-59801898D01*
X115382795Y-59990256D01*
X115496063Y-60159774D01*
X115640226Y-60303937D01*
X115809744Y-60417205D01*
X115998102Y-60495226D01*
X116198061Y-60535000D01*
X116401939Y-60535000D01*
X116601898Y-60495226D01*
X116790256Y-60417205D01*
X116797547Y-60412334D01*
X116896063Y-60559774D01*
X117040226Y-60703937D01*
X117209744Y-60817205D01*
X117398102Y-60895226D01*
X117598061Y-60935000D01*
X117801939Y-60935000D01*
X118001898Y-60895226D01*
X118190256Y-60817205D01*
X118359774Y-60703937D01*
X118503937Y-60559774D01*
X118617205Y-60390256D01*
X118695226Y-60201898D01*
X118735000Y-60001939D01*
X118735000Y-59798061D01*
X118695226Y-59598102D01*
X118617205Y-59409744D01*
X118542582Y-59298061D01*
X123465000Y-59298061D01*
X123465000Y-59501939D01*
X123504774Y-59701898D01*
X123582795Y-59890256D01*
X123696063Y-60059774D01*
X123840226Y-60203937D01*
X124009744Y-60317205D01*
X124198102Y-60395226D01*
X124398061Y-60435000D01*
X124601939Y-60435000D01*
X124801898Y-60395226D01*
X124990256Y-60317205D01*
X125159774Y-60203937D01*
X125303937Y-60059774D01*
X125417205Y-59890256D01*
X125495226Y-59701898D01*
X125535000Y-59501939D01*
X125535000Y-59298061D01*
X125495226Y-59098102D01*
X125417205Y-58909744D01*
X125303937Y-58740226D01*
X125159774Y-58596063D01*
X124990256Y-58482795D01*
X124801898Y-58404774D01*
X124601939Y-58365000D01*
X124398061Y-58365000D01*
X124198102Y-58404774D01*
X124009744Y-58482795D01*
X123840226Y-58596063D01*
X123696063Y-58740226D01*
X123582795Y-58909744D01*
X123504774Y-59098102D01*
X123465000Y-59298061D01*
X118542582Y-59298061D01*
X118503937Y-59240226D01*
X118359774Y-59096063D01*
X118190256Y-58982795D01*
X118001898Y-58904774D01*
X117801939Y-58865000D01*
X117598061Y-58865000D01*
X117398102Y-58904774D01*
X117209744Y-58982795D01*
X117202453Y-58987666D01*
X117103937Y-58840226D01*
X116959774Y-58696063D01*
X116790256Y-58582795D01*
X116601898Y-58504774D01*
X116401939Y-58465000D01*
X116198061Y-58465000D01*
X115998102Y-58504774D01*
X115809744Y-58582795D01*
X115640226Y-58696063D01*
X115496063Y-58840226D01*
X115382795Y-59009744D01*
X115304774Y-59198102D01*
X115265000Y-59398061D01*
X110868150Y-59398061D01*
X110701939Y-59365000D01*
X110498061Y-59365000D01*
X110298102Y-59404774D01*
X110109744Y-59482795D01*
X109940226Y-59596063D01*
X109800000Y-59736289D01*
X109759774Y-59696063D01*
X109590256Y-59582795D01*
X109401898Y-59504774D01*
X109201939Y-59465000D01*
X108998061Y-59465000D01*
X108798102Y-59504774D01*
X108635000Y-59572334D01*
X108635000Y-59304446D01*
X110004447Y-57935000D01*
X110101939Y-57935000D01*
X110301898Y-57895226D01*
X110490256Y-57817205D01*
X110659774Y-57703937D01*
X110803937Y-57559774D01*
X110917205Y-57390256D01*
X110995226Y-57201898D01*
X111035000Y-57001939D01*
X111035000Y-56998061D01*
X117365000Y-56998061D01*
X117365000Y-57201939D01*
X117404774Y-57401898D01*
X117482795Y-57590256D01*
X117596063Y-57759774D01*
X117740226Y-57903937D01*
X117909744Y-58017205D01*
X118098102Y-58095226D01*
X118298061Y-58135000D01*
X118501939Y-58135000D01*
X118701898Y-58095226D01*
X118890256Y-58017205D01*
X119059774Y-57903937D01*
X119203937Y-57759774D01*
X119317205Y-57590256D01*
X119395226Y-57401898D01*
X119435000Y-57201939D01*
X119435000Y-56998061D01*
X119395226Y-56798102D01*
X119317205Y-56609744D01*
X119203937Y-56440226D01*
X119059774Y-56296063D01*
X118890256Y-56182795D01*
X118701898Y-56104774D01*
X118501939Y-56065000D01*
X118298061Y-56065000D01*
X118098102Y-56104774D01*
X117909744Y-56182795D01*
X117740226Y-56296063D01*
X117596063Y-56440226D01*
X117482795Y-56609744D01*
X117404774Y-56798102D01*
X117365000Y-56998061D01*
X111035000Y-56998061D01*
X111035000Y-56798061D01*
X110995226Y-56598102D01*
X110917205Y-56409744D01*
X110803937Y-56240226D01*
X110659774Y-56096063D01*
X110490256Y-55982795D01*
X110301898Y-55904774D01*
X110278729Y-55900165D01*
X110307979Y-55817584D01*
X109370000Y-54879605D01*
X108956434Y-55293171D01*
X108898102Y-55304774D01*
X108709744Y-55382795D01*
X108540226Y-55496063D01*
X108396063Y-55640226D01*
X108282795Y-55809744D01*
X108218485Y-55965000D01*
X108198061Y-55965000D01*
X107998102Y-56004774D01*
X107809744Y-56082795D01*
X107640226Y-56196063D01*
X107593551Y-56242738D01*
X107501898Y-56204774D01*
X107301939Y-56165000D01*
X107098061Y-56165000D01*
X107047359Y-56175085D01*
X107886484Y-55335961D01*
X107900844Y-55377367D01*
X107990571Y-55545234D01*
X108252416Y-55637979D01*
X109190395Y-54700000D01*
X109549605Y-54700000D01*
X110487584Y-55637979D01*
X110749429Y-55545234D01*
X110887820Y-55259880D01*
X110967883Y-54953010D01*
X110986540Y-54636416D01*
X110973398Y-54541429D01*
X127760000Y-54541429D01*
X127760000Y-54858571D01*
X127821871Y-55169620D01*
X127943237Y-55462621D01*
X128119431Y-55726315D01*
X128343685Y-55950569D01*
X128607379Y-56126763D01*
X128900380Y-56248129D01*
X129211429Y-56310000D01*
X129528571Y-56310000D01*
X129839620Y-56248129D01*
X130132621Y-56126763D01*
X130396315Y-55950569D01*
X130620569Y-55726315D01*
X130796763Y-55462621D01*
X130918129Y-55169620D01*
X130980000Y-54858571D01*
X130980000Y-54541429D01*
X130918129Y-54230380D01*
X130796763Y-53937379D01*
X130620569Y-53673685D01*
X130396315Y-53449431D01*
X130132621Y-53273237D01*
X129839620Y-53151871D01*
X129528571Y-53090000D01*
X129211429Y-53090000D01*
X128900380Y-53151871D01*
X128607379Y-53273237D01*
X128343685Y-53449431D01*
X128119431Y-53673685D01*
X127943237Y-53937379D01*
X127821871Y-54230380D01*
X127760000Y-54541429D01*
X110973398Y-54541429D01*
X110943074Y-54322267D01*
X110839156Y-54022633D01*
X110749429Y-53854766D01*
X110487584Y-53762021D01*
X109549605Y-54700000D01*
X109190395Y-54700000D01*
X109176253Y-54685858D01*
X109355858Y-54506253D01*
X109370000Y-54520395D01*
X110307979Y-53582416D01*
X110215234Y-53320571D01*
X110004214Y-53218231D01*
X112787445Y-50435000D01*
X134963895Y-50435000D01*
X135000000Y-50438556D01*
X135036105Y-50435000D01*
X135144085Y-50424365D01*
X135282633Y-50382337D01*
X135410320Y-50314087D01*
X135522238Y-50222238D01*
X135545258Y-50194188D01*
X136694197Y-49045250D01*
X136722237Y-49022238D01*
X136745250Y-48994197D01*
X136745253Y-48994194D01*
X136814086Y-48910321D01*
X136814087Y-48910320D01*
X136882337Y-48782633D01*
X136924365Y-48644085D01*
X136935000Y-48536105D01*
X136935000Y-48536096D01*
X136938555Y-48500001D01*
X136935000Y-48463906D01*
X136935000Y-40667263D01*
X137009744Y-40717205D01*
X137198102Y-40795226D01*
X137398061Y-40835000D01*
X137601939Y-40835000D01*
X137801898Y-40795226D01*
X137990256Y-40717205D01*
X138159774Y-40603937D01*
X138303937Y-40459774D01*
X138417205Y-40290256D01*
X138495226Y-40101898D01*
X138535000Y-39901939D01*
X138535000Y-39698061D01*
X138495226Y-39498102D01*
X138417205Y-39309744D01*
X138303937Y-39140226D01*
X138159774Y-38996063D01*
X137990256Y-38882795D01*
X137801898Y-38804774D01*
X137601939Y-38765000D01*
X137398061Y-38765000D01*
X137198102Y-38804774D01*
X137009744Y-38882795D01*
X136935000Y-38932737D01*
X136935000Y-36404446D01*
X137804447Y-35535000D01*
X137901939Y-35535000D01*
X138101898Y-35495226D01*
X138290256Y-35417205D01*
X138459774Y-35303937D01*
X138603937Y-35159774D01*
X138717205Y-34990256D01*
X138795226Y-34801898D01*
X138835000Y-34601939D01*
X138835000Y-34398061D01*
X138795226Y-34198102D01*
X138717205Y-34009744D01*
X138603937Y-33840226D01*
X138459774Y-33696063D01*
X138290256Y-33582795D01*
X138101898Y-33504774D01*
X137901939Y-33465000D01*
X137698061Y-33465000D01*
X137498102Y-33504774D01*
X137309744Y-33582795D01*
X137140226Y-33696063D01*
X136996063Y-33840226D01*
X136882795Y-34009744D01*
X136804774Y-34198102D01*
X136765000Y-34398061D01*
X136765000Y-34495553D01*
X135705808Y-35554746D01*
X135677763Y-35577762D01*
X135585914Y-35689680D01*
X135582950Y-35695226D01*
X135517664Y-35817367D01*
X135475635Y-35955915D01*
X135461444Y-36100000D01*
X135465001Y-36136115D01*
X135465000Y-48195553D01*
X134695554Y-48965000D01*
X112519103Y-48965000D01*
X112482998Y-48961444D01*
X112338912Y-48975635D01*
X112296884Y-48988384D01*
X112200365Y-49017663D01*
X112072678Y-49085913D01*
X111960760Y-49177762D01*
X111937744Y-49205807D01*
X105705808Y-55437744D01*
X105677763Y-55460760D01*
X105585914Y-55572678D01*
X105551010Y-55637979D01*
X105517664Y-55700365D01*
X105475635Y-55838913D01*
X105461444Y-55982998D01*
X105465001Y-56019113D01*
X105465000Y-63561555D01*
X103335000Y-61431556D01*
X103335000Y-53022456D01*
X103398061Y-53035000D01*
X103601939Y-53035000D01*
X103801898Y-52995226D01*
X103990256Y-52917205D01*
X104159774Y-52803937D01*
X104303937Y-52659774D01*
X104417205Y-52490256D01*
X104495226Y-52301898D01*
X104535000Y-52101939D01*
X104535000Y-51898061D01*
X104495226Y-51698102D01*
X104417205Y-51509744D01*
X104303937Y-51340226D01*
X104159774Y-51196063D01*
X103990256Y-51082795D01*
X103801898Y-51004774D01*
X103601939Y-50965000D01*
X103398061Y-50965000D01*
X103335000Y-50977544D01*
X103335000Y-44898061D01*
X132465000Y-44898061D01*
X132465000Y-45101939D01*
X132504774Y-45301898D01*
X132582795Y-45490256D01*
X132696063Y-45659774D01*
X132840226Y-45803937D01*
X133009744Y-45917205D01*
X133198102Y-45995226D01*
X133398061Y-46035000D01*
X133601939Y-46035000D01*
X133801898Y-45995226D01*
X133990256Y-45917205D01*
X134159774Y-45803937D01*
X134303937Y-45659774D01*
X134417205Y-45490256D01*
X134495226Y-45301898D01*
X134535000Y-45101939D01*
X134535000Y-44898061D01*
X134495226Y-44698102D01*
X134417205Y-44509744D01*
X134303937Y-44340226D01*
X134159774Y-44196063D01*
X133990256Y-44082795D01*
X133801898Y-44004774D01*
X133601939Y-43965000D01*
X133398061Y-43965000D01*
X133198102Y-44004774D01*
X133009744Y-44082795D01*
X132840226Y-44196063D01*
X132696063Y-44340226D01*
X132582795Y-44509744D01*
X132504774Y-44698102D01*
X132465000Y-44898061D01*
X103335000Y-44898061D01*
X103335000Y-40769088D01*
X103398102Y-40795226D01*
X103598061Y-40835000D01*
X103801939Y-40835000D01*
X104001898Y-40795226D01*
X104034489Y-40781726D01*
X108591385Y-40781726D01*
X108591385Y-40985604D01*
X108631159Y-41185563D01*
X108709180Y-41373921D01*
X108822448Y-41543439D01*
X108966611Y-41687602D01*
X109136129Y-41800870D01*
X109324487Y-41878891D01*
X109524446Y-41918665D01*
X109728324Y-41918665D01*
X109928283Y-41878891D01*
X110116641Y-41800870D01*
X110286159Y-41687602D01*
X110333761Y-41640000D01*
X113041928Y-41640000D01*
X113041928Y-43140000D01*
X113054188Y-43264482D01*
X113090498Y-43384180D01*
X113149463Y-43494494D01*
X113228815Y-43591185D01*
X113325506Y-43670537D01*
X113435820Y-43729502D01*
X113555518Y-43765812D01*
X113680000Y-43778072D01*
X115180000Y-43778072D01*
X115304482Y-43765812D01*
X115424180Y-43729502D01*
X115534494Y-43670537D01*
X115631185Y-43591185D01*
X115710537Y-43494494D01*
X115769502Y-43384180D01*
X115805812Y-43264482D01*
X115816445Y-43156517D01*
X115894201Y-43272886D01*
X116087114Y-43465799D01*
X116313957Y-43617371D01*
X116566011Y-43721775D01*
X116833589Y-43775000D01*
X117106411Y-43775000D01*
X117373989Y-43721775D01*
X117626043Y-43617371D01*
X117852886Y-43465799D01*
X118045799Y-43272886D01*
X118197371Y-43046043D01*
X118240000Y-42943127D01*
X118282629Y-43046043D01*
X118434201Y-43272886D01*
X118627114Y-43465799D01*
X118853957Y-43617371D01*
X119106011Y-43721775D01*
X119373589Y-43775000D01*
X119646411Y-43775000D01*
X119913989Y-43721775D01*
X120166043Y-43617371D01*
X120392886Y-43465799D01*
X120585799Y-43272886D01*
X120737371Y-43046043D01*
X120780000Y-42943127D01*
X120822629Y-43046043D01*
X120974201Y-43272886D01*
X121167114Y-43465799D01*
X121393957Y-43617371D01*
X121646011Y-43721775D01*
X121913589Y-43775000D01*
X122186411Y-43775000D01*
X122453989Y-43721775D01*
X122706043Y-43617371D01*
X122932886Y-43465799D01*
X123125799Y-43272886D01*
X123277371Y-43046043D01*
X123320000Y-42943127D01*
X123362629Y-43046043D01*
X123514201Y-43272886D01*
X123707114Y-43465799D01*
X123933957Y-43617371D01*
X124186011Y-43721775D01*
X124453589Y-43775000D01*
X124726411Y-43775000D01*
X124993989Y-43721775D01*
X125246043Y-43617371D01*
X125472886Y-43465799D01*
X125665799Y-43272886D01*
X125817371Y-43046043D01*
X125860000Y-42943127D01*
X125902629Y-43046043D01*
X126054201Y-43272886D01*
X126247114Y-43465799D01*
X126473957Y-43617371D01*
X126726011Y-43721775D01*
X126993589Y-43775000D01*
X127266411Y-43775000D01*
X127533989Y-43721775D01*
X127786043Y-43617371D01*
X128012886Y-43465799D01*
X128205799Y-43272886D01*
X128357371Y-43046043D01*
X128461775Y-42793989D01*
X128515000Y-42526411D01*
X128515000Y-42253589D01*
X128461775Y-41986011D01*
X128357371Y-41733957D01*
X128205799Y-41507114D01*
X128012886Y-41314201D01*
X127786043Y-41162629D01*
X127533989Y-41058225D01*
X127266411Y-41005000D01*
X126993589Y-41005000D01*
X126726011Y-41058225D01*
X126473957Y-41162629D01*
X126247114Y-41314201D01*
X126054201Y-41507114D01*
X125902629Y-41733957D01*
X125860000Y-41836873D01*
X125817371Y-41733957D01*
X125665799Y-41507114D01*
X125472886Y-41314201D01*
X125246043Y-41162629D01*
X124993989Y-41058225D01*
X124726411Y-41005000D01*
X124453589Y-41005000D01*
X124186011Y-41058225D01*
X123933957Y-41162629D01*
X123707114Y-41314201D01*
X123514201Y-41507114D01*
X123362629Y-41733957D01*
X123320000Y-41836873D01*
X123277371Y-41733957D01*
X123125799Y-41507114D01*
X122932886Y-41314201D01*
X122706043Y-41162629D01*
X122453989Y-41058225D01*
X122186411Y-41005000D01*
X121913589Y-41005000D01*
X121646011Y-41058225D01*
X121393957Y-41162629D01*
X121167114Y-41314201D01*
X120974201Y-41507114D01*
X120822629Y-41733957D01*
X120780000Y-41836873D01*
X120737371Y-41733957D01*
X120585799Y-41507114D01*
X120392886Y-41314201D01*
X120166043Y-41162629D01*
X119913989Y-41058225D01*
X119646411Y-41005000D01*
X119373589Y-41005000D01*
X119106011Y-41058225D01*
X118853957Y-41162629D01*
X118627114Y-41314201D01*
X118434201Y-41507114D01*
X118282629Y-41733957D01*
X118240000Y-41836873D01*
X118197371Y-41733957D01*
X118045799Y-41507114D01*
X117852886Y-41314201D01*
X117626043Y-41162629D01*
X117373989Y-41058225D01*
X117106411Y-41005000D01*
X116833589Y-41005000D01*
X116566011Y-41058225D01*
X116313957Y-41162629D01*
X116087114Y-41314201D01*
X115894201Y-41507114D01*
X115816445Y-41623483D01*
X115805812Y-41515518D01*
X115769502Y-41395820D01*
X115710537Y-41285506D01*
X115631185Y-41188815D01*
X115534494Y-41109463D01*
X115424180Y-41050498D01*
X115304482Y-41014188D01*
X115180000Y-41001928D01*
X113680000Y-41001928D01*
X113555518Y-41014188D01*
X113435820Y-41050498D01*
X113325506Y-41109463D01*
X113228815Y-41188815D01*
X113149463Y-41285506D01*
X113090498Y-41395820D01*
X113054188Y-41515518D01*
X113041928Y-41640000D01*
X110333761Y-41640000D01*
X110430322Y-41543439D01*
X110543590Y-41373921D01*
X110621611Y-41185563D01*
X110661385Y-40985604D01*
X110661385Y-40781726D01*
X110621611Y-40581767D01*
X110543590Y-40393409D01*
X110430322Y-40223891D01*
X110286159Y-40079728D01*
X110116641Y-39966460D01*
X109928283Y-39888439D01*
X109728324Y-39848665D01*
X109524446Y-39848665D01*
X109324487Y-39888439D01*
X109136129Y-39966460D01*
X108966611Y-40079728D01*
X108822448Y-40223891D01*
X108709180Y-40393409D01*
X108631159Y-40581767D01*
X108591385Y-40781726D01*
X104034489Y-40781726D01*
X104190256Y-40717205D01*
X104359774Y-40603937D01*
X104503937Y-40459774D01*
X104617205Y-40290256D01*
X104695226Y-40101898D01*
X104735000Y-39901939D01*
X104735000Y-39698061D01*
X104695226Y-39498102D01*
X104617205Y-39309744D01*
X104503937Y-39140226D01*
X104359774Y-38996063D01*
X104190256Y-38882795D01*
X104001898Y-38804774D01*
X103801939Y-38765000D01*
X103598061Y-38765000D01*
X103398102Y-38804774D01*
X103335000Y-38830912D01*
X103335000Y-35428711D01*
X103403937Y-35359774D01*
X103517205Y-35190256D01*
X103595226Y-35001898D01*
X103635000Y-34801939D01*
X103635000Y-34598061D01*
X103595226Y-34398102D01*
X103517205Y-34209744D01*
X103403937Y-34040226D01*
X103259774Y-33896063D01*
X103090256Y-33782795D01*
X102901898Y-33704774D01*
X102701939Y-33665000D01*
X102498061Y-33665000D01*
X102298102Y-33704774D01*
X102109744Y-33782795D01*
X101940226Y-33896063D01*
X101796063Y-34040226D01*
X101682795Y-34209744D01*
X101604774Y-34398102D01*
X101565000Y-34598061D01*
X101460000Y-34598061D01*
X101460000Y-32093589D01*
X113045000Y-32093589D01*
X113045000Y-32366411D01*
X113098225Y-32633989D01*
X113202629Y-32886043D01*
X113354201Y-33112886D01*
X113547114Y-33305799D01*
X113773957Y-33457371D01*
X114026011Y-33561775D01*
X114293589Y-33615000D01*
X114566411Y-33615000D01*
X114833989Y-33561775D01*
X115086043Y-33457371D01*
X115312886Y-33305799D01*
X115505799Y-33112886D01*
X115657371Y-32886043D01*
X115700000Y-32783127D01*
X115742629Y-32886043D01*
X115894201Y-33112886D01*
X116087114Y-33305799D01*
X116313957Y-33457371D01*
X116566011Y-33561775D01*
X116833589Y-33615000D01*
X117106411Y-33615000D01*
X117373989Y-33561775D01*
X117626043Y-33457371D01*
X117852886Y-33305799D01*
X118045799Y-33112886D01*
X118197371Y-32886043D01*
X118240000Y-32783127D01*
X118282629Y-32886043D01*
X118434201Y-33112886D01*
X118627114Y-33305799D01*
X118853957Y-33457371D01*
X119106011Y-33561775D01*
X119373589Y-33615000D01*
X119646411Y-33615000D01*
X119913989Y-33561775D01*
X120166043Y-33457371D01*
X120392886Y-33305799D01*
X120585799Y-33112886D01*
X120737371Y-32886043D01*
X120780000Y-32783127D01*
X120822629Y-32886043D01*
X120974201Y-33112886D01*
X121167114Y-33305799D01*
X121393957Y-33457371D01*
X121646011Y-33561775D01*
X121913589Y-33615000D01*
X122186411Y-33615000D01*
X122453989Y-33561775D01*
X122706043Y-33457371D01*
X122932886Y-33305799D01*
X123125799Y-33112886D01*
X123277371Y-32886043D01*
X123320000Y-32783127D01*
X123362629Y-32886043D01*
X123514201Y-33112886D01*
X123707114Y-33305799D01*
X123933957Y-33457371D01*
X124186011Y-33561775D01*
X124453589Y-33615000D01*
X124726411Y-33615000D01*
X124993989Y-33561775D01*
X125246043Y-33457371D01*
X125472886Y-33305799D01*
X125665799Y-33112886D01*
X125817371Y-32886043D01*
X125860000Y-32783127D01*
X125902629Y-32886043D01*
X126054201Y-33112886D01*
X126247114Y-33305799D01*
X126473957Y-33457371D01*
X126726011Y-33561775D01*
X126993589Y-33615000D01*
X127266411Y-33615000D01*
X127533989Y-33561775D01*
X127786043Y-33457371D01*
X128012886Y-33305799D01*
X128205799Y-33112886D01*
X128357371Y-32886043D01*
X128461775Y-32633989D01*
X128515000Y-32366411D01*
X128515000Y-32093589D01*
X128461775Y-31826011D01*
X128357371Y-31573957D01*
X128205799Y-31347114D01*
X128012886Y-31154201D01*
X127786043Y-31002629D01*
X127533989Y-30898225D01*
X127266411Y-30845000D01*
X126993589Y-30845000D01*
X126726011Y-30898225D01*
X126473957Y-31002629D01*
X126247114Y-31154201D01*
X126054201Y-31347114D01*
X125902629Y-31573957D01*
X125860000Y-31676873D01*
X125817371Y-31573957D01*
X125665799Y-31347114D01*
X125472886Y-31154201D01*
X125246043Y-31002629D01*
X124993989Y-30898225D01*
X124726411Y-30845000D01*
X124453589Y-30845000D01*
X124186011Y-30898225D01*
X123933957Y-31002629D01*
X123707114Y-31154201D01*
X123514201Y-31347114D01*
X123362629Y-31573957D01*
X123320000Y-31676873D01*
X123277371Y-31573957D01*
X123125799Y-31347114D01*
X122932886Y-31154201D01*
X122706043Y-31002629D01*
X122453989Y-30898225D01*
X122186411Y-30845000D01*
X121913589Y-30845000D01*
X121646011Y-30898225D01*
X121393957Y-31002629D01*
X121167114Y-31154201D01*
X120974201Y-31347114D01*
X120822629Y-31573957D01*
X120780000Y-31676873D01*
X120737371Y-31573957D01*
X120585799Y-31347114D01*
X120392886Y-31154201D01*
X120166043Y-31002629D01*
X119913989Y-30898225D01*
X119646411Y-30845000D01*
X119373589Y-30845000D01*
X119106011Y-30898225D01*
X118853957Y-31002629D01*
X118627114Y-31154201D01*
X118434201Y-31347114D01*
X118282629Y-31573957D01*
X118240000Y-31676873D01*
X118197371Y-31573957D01*
X118045799Y-31347114D01*
X117852886Y-31154201D01*
X117626043Y-31002629D01*
X117373989Y-30898225D01*
X117106411Y-30845000D01*
X116833589Y-30845000D01*
X116566011Y-30898225D01*
X116313957Y-31002629D01*
X116087114Y-31154201D01*
X115894201Y-31347114D01*
X115742629Y-31573957D01*
X115700000Y-31676873D01*
X115657371Y-31573957D01*
X115505799Y-31347114D01*
X115312886Y-31154201D01*
X115086043Y-31002629D01*
X114833989Y-30898225D01*
X114566411Y-30845000D01*
X114293589Y-30845000D01*
X114026011Y-30898225D01*
X113773957Y-31002629D01*
X113547114Y-31154201D01*
X113354201Y-31347114D01*
X113202629Y-31573957D01*
X113098225Y-31826011D01*
X113045000Y-32093589D01*
X101460000Y-32093589D01*
X101460000Y-30284721D01*
X101487907Y-30000101D01*
X101560484Y-29759715D01*
X101678368Y-29538009D01*
X101837068Y-29343423D01*
X102030545Y-29183365D01*
X102251424Y-29063936D01*
X102491297Y-28989683D01*
X102773716Y-28960000D01*
X116661978Y-28960000D01*
X116604774Y-29098102D01*
X116565000Y-29298061D01*
X116565000Y-29501939D01*
X116604774Y-29701898D01*
X116682795Y-29890256D01*
X116796063Y-30059774D01*
X116940226Y-30203937D01*
X117109744Y-30317205D01*
X117298102Y-30395226D01*
X117498061Y-30435000D01*
X117701939Y-30435000D01*
X117901898Y-30395226D01*
X118090256Y-30317205D01*
X118259774Y-30203937D01*
X118403937Y-30059774D01*
X118517205Y-29890256D01*
X118581266Y-29735600D01*
X118678931Y-29776055D01*
X118878890Y-29815829D01*
X119082768Y-29815829D01*
X119282727Y-29776055D01*
X119471085Y-29698034D01*
X119640603Y-29584766D01*
X119784766Y-29440603D01*
X119898034Y-29271085D01*
X119976055Y-29082727D01*
X120015829Y-28882768D01*
X120015829Y-28678890D01*
X119976055Y-28478931D01*
X119898034Y-28290573D01*
X119784766Y-28121055D01*
X119640603Y-27976892D01*
X119471085Y-27863624D01*
X119282727Y-27785603D01*
X119128789Y-27754983D01*
X119160652Y-27649446D01*
X119173152Y-27586316D01*
X119186530Y-27523377D01*
X119187566Y-27513519D01*
X119206611Y-27319285D01*
X119210000Y-27284877D01*
X119210000Y-25934722D01*
X119218863Y-25844335D01*
X119235030Y-25790786D01*
X119261288Y-25741403D01*
X119296641Y-25698055D01*
X119339740Y-25662400D01*
X119388937Y-25635799D01*
X119442375Y-25619258D01*
X119530455Y-25610000D01*
X121965278Y-25610000D01*
X122055665Y-25618863D01*
%TA.AperFunction,Conductor*%
D19*
G36*
X122055665Y-25618863D02*
G01*
X122109214Y-25635030D01*
X122158597Y-25661288D01*
X122201945Y-25696641D01*
X122237600Y-25739740D01*
X122264201Y-25788937D01*
X122280742Y-25842375D01*
X122290000Y-25930455D01*
X122290000Y-27284876D01*
X122292989Y-27315221D01*
X122292946Y-27321332D01*
X122293914Y-27331198D01*
X122314315Y-27525295D01*
X122327250Y-27588310D01*
X122339312Y-27651540D01*
X122342177Y-27661030D01*
X122399889Y-27847468D01*
X122424829Y-27906797D01*
X122448932Y-27966455D01*
X122453586Y-27975208D01*
X122546411Y-28146885D01*
X122582371Y-28200198D01*
X122617633Y-28254083D01*
X122623898Y-28261765D01*
X122748302Y-28412143D01*
X122793957Y-28457480D01*
X122838987Y-28503463D01*
X122844324Y-28507879D01*
X122709744Y-28563624D01*
X122540226Y-28676892D01*
X122396063Y-28821055D01*
X122282795Y-28990573D01*
X122204774Y-29178931D01*
X122165000Y-29378890D01*
X122165000Y-29582768D01*
X122204774Y-29782727D01*
X122282795Y-29971085D01*
X122396063Y-30140603D01*
X122540226Y-30284766D01*
X122709744Y-30398034D01*
X122898102Y-30476055D01*
X123098061Y-30515829D01*
X123301939Y-30515829D01*
X123501898Y-30476055D01*
X123690256Y-30398034D01*
X123859774Y-30284766D01*
X124003937Y-30140603D01*
X124117205Y-29971085D01*
X124195226Y-29782727D01*
X124235000Y-29582768D01*
X124235000Y-29378890D01*
X124195226Y-29178931D01*
X124117205Y-28990573D01*
X124096777Y-28960000D01*
X138715279Y-28960000D01*
X138999899Y-28987907D01*
X139240285Y-29060484D01*
X139461991Y-29178368D01*
X139656577Y-29337068D01*
X139816635Y-29530545D01*
X139936064Y-29751424D01*
X140010317Y-29991297D01*
X140040000Y-30273716D01*
X140040001Y-61972420D01*
X139952454Y-61761063D01*
X139781731Y-61505558D01*
X139564442Y-61288269D01*
X139308937Y-61117546D01*
X139025035Y-60999950D01*
X138723647Y-60940000D01*
X138416353Y-60940000D01*
X138114965Y-60999950D01*
X137831063Y-61117546D01*
X137575558Y-61288269D01*
X137358269Y-61505558D01*
X137187546Y-61761063D01*
X137069950Y-62044965D01*
X137010000Y-62346353D01*
X137010000Y-62653647D01*
X137069950Y-62955035D01*
X137187546Y-63238937D01*
X137358269Y-63494442D01*
X137575558Y-63711731D01*
X137831063Y-63882454D01*
X138114965Y-64000050D01*
X138416353Y-64060000D01*
X138723647Y-64060000D01*
X139025035Y-64000050D01*
X139308937Y-63882454D01*
X139564442Y-63711731D01*
X139781731Y-63494442D01*
X139952454Y-63238937D01*
X140040001Y-63027580D01*
X140040001Y-66972420D01*
X139952454Y-66761063D01*
X139781731Y-66505558D01*
X139564442Y-66288269D01*
X139308937Y-66117546D01*
X139025035Y-65999950D01*
X138723647Y-65940000D01*
X138416353Y-65940000D01*
X138114965Y-65999950D01*
X137831063Y-66117546D01*
X137575558Y-66288269D01*
X137358269Y-66505558D01*
X137187546Y-66761063D01*
X137069950Y-67044965D01*
X137010000Y-67346353D01*
X137010000Y-67653647D01*
X137069950Y-67955035D01*
X137187546Y-68238937D01*
X137358269Y-68494442D01*
X137575558Y-68711731D01*
X137831063Y-68882454D01*
X138114965Y-69000050D01*
X138416353Y-69060000D01*
X138723647Y-69060000D01*
X139025035Y-69000050D01*
X139308937Y-68882454D01*
X139564442Y-68711731D01*
X139781731Y-68494442D01*
X139952454Y-68238937D01*
X140040001Y-68027580D01*
X140040001Y-71215269D01*
X140012093Y-71499899D01*
X139939517Y-71740282D01*
X139821633Y-71961989D01*
X139662929Y-72156580D01*
X139469455Y-72316635D01*
X139248576Y-72436064D01*
X139008701Y-72510317D01*
X138726291Y-72540000D01*
X102784721Y-72540000D01*
X102500101Y-72512093D01*
X102259718Y-72439517D01*
X102038011Y-72321633D01*
X101843420Y-72162929D01*
X101683365Y-71969455D01*
X101563936Y-71748576D01*
X101489683Y-71508701D01*
X101460000Y-71226291D01*
X101460000Y-68510127D01*
X105410000Y-68510127D01*
X105410000Y-68787873D01*
X105464186Y-69060282D01*
X105570475Y-69316885D01*
X105724782Y-69547822D01*
X105841960Y-69665000D01*
X105724782Y-69782178D01*
X105570475Y-70013115D01*
X105464186Y-70269718D01*
X105410000Y-70542127D01*
X105410000Y-70819873D01*
X105464186Y-71092282D01*
X105570475Y-71348885D01*
X105724782Y-71579822D01*
X105921178Y-71776218D01*
X106152115Y-71930525D01*
X106408718Y-72036814D01*
X106681127Y-72091000D01*
X106958873Y-72091000D01*
X107231282Y-72036814D01*
X107487885Y-71930525D01*
X107718822Y-71776218D01*
X107915218Y-71579822D01*
X108069525Y-71348885D01*
X108090577Y-71298061D01*
X108165000Y-71298061D01*
X108165000Y-71501939D01*
X108204774Y-71701898D01*
X108282795Y-71890256D01*
X108396063Y-72059774D01*
X108540226Y-72203937D01*
X108709744Y-72317205D01*
X108898102Y-72395226D01*
X109098061Y-72435000D01*
X109301939Y-72435000D01*
X109501898Y-72395226D01*
X109690256Y-72317205D01*
X109859774Y-72203937D01*
X110003937Y-72059774D01*
X110117205Y-71890256D01*
X110195226Y-71701898D01*
X110235000Y-71501939D01*
X110235000Y-71298061D01*
X110195226Y-71098102D01*
X110117205Y-70909744D01*
X110003937Y-70740226D01*
X109859774Y-70596063D01*
X109690256Y-70482795D01*
X109501898Y-70404774D01*
X109301939Y-70365000D01*
X109098061Y-70365000D01*
X108898102Y-70404774D01*
X108709744Y-70482795D01*
X108540226Y-70596063D01*
X108396063Y-70740226D01*
X108282795Y-70909744D01*
X108204774Y-71098102D01*
X108165000Y-71298061D01*
X108090577Y-71298061D01*
X108175814Y-71092282D01*
X108230000Y-70819873D01*
X108230000Y-70542127D01*
X108175814Y-70269718D01*
X108069525Y-70013115D01*
X107915218Y-69782178D01*
X107798040Y-69665000D01*
X107915218Y-69547822D01*
X108069525Y-69316885D01*
X108175814Y-69060282D01*
X108230000Y-68787873D01*
X108230000Y-68510127D01*
X108175814Y-68237718D01*
X108128322Y-68123061D01*
X110265000Y-68123061D01*
X110265000Y-68326939D01*
X110304774Y-68526898D01*
X110382795Y-68715256D01*
X110496063Y-68884774D01*
X110638153Y-69026864D01*
X110544186Y-69253718D01*
X110490000Y-69526127D01*
X110490000Y-69803873D01*
X110544186Y-70076282D01*
X110650475Y-70332885D01*
X110804782Y-70563822D01*
X111001178Y-70760218D01*
X111232115Y-70914525D01*
X111488718Y-71020814D01*
X111761127Y-71075000D01*
X112038873Y-71075000D01*
X112311282Y-71020814D01*
X112567885Y-70914525D01*
X112798822Y-70760218D01*
X112995218Y-70563822D01*
X113149525Y-70332885D01*
X113255814Y-70076282D01*
X113310000Y-69803873D01*
X113310000Y-69526127D01*
X113255814Y-69253718D01*
X113149525Y-68997115D01*
X112995218Y-68766178D01*
X112810957Y-68581917D01*
X125167688Y-68581917D01*
X125254393Y-68838653D01*
X125531223Y-68972048D01*
X125828757Y-69048873D01*
X126135562Y-69066176D01*
X126439848Y-69023292D01*
X126729921Y-68921868D01*
X126885607Y-68838653D01*
X126972312Y-68581917D01*
X126070000Y-67679605D01*
X125167688Y-68581917D01*
X112810957Y-68581917D01*
X112798822Y-68569782D01*
X112567885Y-68415475D01*
X112335000Y-68319010D01*
X112335000Y-68123061D01*
X112295226Y-67923102D01*
X112217205Y-67734744D01*
X112104162Y-67565562D01*
X124503824Y-67565562D01*
X124546708Y-67869848D01*
X124648132Y-68159921D01*
X124731347Y-68315607D01*
X124988083Y-68402312D01*
X125890395Y-67500000D01*
X126249605Y-67500000D01*
X127151917Y-68402312D01*
X127408653Y-68315607D01*
X127542048Y-68038777D01*
X127618873Y-67741243D01*
X127636176Y-67434438D01*
X127593292Y-67130152D01*
X127491868Y-66840079D01*
X127408653Y-66684393D01*
X127151917Y-66597688D01*
X126249605Y-67500000D01*
X125890395Y-67500000D01*
X124988083Y-66597688D01*
X124731347Y-66684393D01*
X124597952Y-66961223D01*
X124521127Y-67258757D01*
X124503824Y-67565562D01*
X112104162Y-67565562D01*
X112103937Y-67565226D01*
X111959774Y-67421063D01*
X111790256Y-67307795D01*
X111601898Y-67229774D01*
X111401939Y-67190000D01*
X111198061Y-67190000D01*
X110998102Y-67229774D01*
X110809744Y-67307795D01*
X110640226Y-67421063D01*
X110496063Y-67565226D01*
X110382795Y-67734744D01*
X110304774Y-67923102D01*
X110265000Y-68123061D01*
X108128322Y-68123061D01*
X108069525Y-67981115D01*
X107915218Y-67750178D01*
X107718822Y-67553782D01*
X107487885Y-67399475D01*
X107231282Y-67293186D01*
X106958873Y-67239000D01*
X106681127Y-67239000D01*
X106408718Y-67293186D01*
X106152115Y-67399475D01*
X105921178Y-67553782D01*
X105724782Y-67750178D01*
X105570475Y-67981115D01*
X105464186Y-68237718D01*
X105410000Y-68510127D01*
X101460000Y-68510127D01*
X101460000Y-34598061D01*
X101565000Y-34598061D01*
X101565000Y-34801939D01*
X101604774Y-35001898D01*
X101682795Y-35190256D01*
X101796063Y-35359774D01*
X101865001Y-35428712D01*
X101865000Y-61699897D01*
X101861444Y-61736002D01*
X101865000Y-61772106D01*
X101875635Y-61880086D01*
X101917663Y-62018634D01*
X101985913Y-62146321D01*
X102077762Y-62258239D01*
X102105808Y-62281256D01*
X105418744Y-65594193D01*
X105441760Y-65622238D01*
X105469804Y-65645253D01*
X105553678Y-65714087D01*
X105681364Y-65782337D01*
X105819913Y-65824365D01*
X105963998Y-65838556D01*
X106000103Y-65835000D01*
X106463895Y-65835000D01*
X106500000Y-65838556D01*
X106536105Y-65835000D01*
X106644085Y-65824365D01*
X106782633Y-65782337D01*
X106910320Y-65714087D01*
X107022238Y-65622238D01*
X107045258Y-65594188D01*
X107794193Y-64845254D01*
X107822238Y-64822238D01*
X107914087Y-64710319D01*
X107970304Y-64605144D01*
X107994187Y-64581261D01*
X108022238Y-64558240D01*
X108114087Y-64446322D01*
X108182337Y-64318635D01*
X108218539Y-64199291D01*
X108398061Y-64235000D01*
X108601939Y-64235000D01*
X108765000Y-64202565D01*
X108765000Y-64301939D01*
X108804774Y-64501898D01*
X108882795Y-64690256D01*
X108996063Y-64859774D01*
X109140226Y-65003937D01*
X109309744Y-65117205D01*
X109498102Y-65195226D01*
X109698061Y-65235000D01*
X109901939Y-65235000D01*
X110101898Y-65195226D01*
X110290256Y-65117205D01*
X110459774Y-65003937D01*
X110512132Y-64951579D01*
X110954745Y-65394192D01*
X110977761Y-65422237D01*
X111089679Y-65514086D01*
X111217366Y-65582336D01*
X111313885Y-65611615D01*
X111355913Y-65624364D01*
X111499999Y-65638555D01*
X111536104Y-65634999D01*
X119265000Y-65634999D01*
X119265000Y-65701939D01*
X119304774Y-65901898D01*
X119382795Y-66090256D01*
X119496063Y-66259774D01*
X119640226Y-66403937D01*
X119809744Y-66517205D01*
X119998102Y-66595226D01*
X120198061Y-66635000D01*
X120401939Y-66635000D01*
X120601898Y-66595226D01*
X120790256Y-66517205D01*
X120959774Y-66403937D01*
X121103937Y-66259774D01*
X121217205Y-66090256D01*
X121295226Y-65901898D01*
X121335000Y-65701939D01*
X121335000Y-65634999D01*
X123718485Y-65634999D01*
X123782795Y-65790256D01*
X123896063Y-65959774D01*
X124040226Y-66103937D01*
X124209744Y-66217205D01*
X124398102Y-66295226D01*
X124598061Y-66335000D01*
X124801939Y-66335000D01*
X125001898Y-66295226D01*
X125190256Y-66217205D01*
X125248722Y-66178139D01*
X125167688Y-66418083D01*
X126070000Y-67320395D01*
X126972312Y-66418083D01*
X126885607Y-66161347D01*
X126608777Y-66027952D01*
X126311243Y-65951127D01*
X126004438Y-65933824D01*
X125700152Y-65976708D01*
X125410079Y-66078132D01*
X125351670Y-66109352D01*
X125359774Y-66103937D01*
X125503937Y-65959774D01*
X125617205Y-65790256D01*
X125695226Y-65601898D01*
X125735000Y-65401939D01*
X125735000Y-65198061D01*
X125695226Y-64998102D01*
X125617205Y-64809744D01*
X125503937Y-64640226D01*
X125359774Y-64496063D01*
X125190256Y-64382795D01*
X125001898Y-64304774D01*
X124801939Y-64265000D01*
X124671195Y-64265000D01*
X124582632Y-64217662D01*
X124444084Y-64175634D01*
X124336104Y-64164999D01*
X124299999Y-64161443D01*
X124263894Y-64164999D01*
X113442537Y-64164999D01*
X113469610Y-64028893D01*
X113469610Y-63825015D01*
X113429836Y-63625056D01*
X113351815Y-63436698D01*
X113238547Y-63267180D01*
X113094384Y-63123017D01*
X112924866Y-63009749D01*
X112736508Y-62931728D01*
X112536549Y-62891954D01*
X112332671Y-62891954D01*
X112132712Y-62931728D01*
X111944354Y-63009749D01*
X111774836Y-63123017D01*
X111630673Y-63267180D01*
X111517405Y-63436698D01*
X111439384Y-63625056D01*
X111410370Y-63770923D01*
X110735000Y-63095554D01*
X110735000Y-62998061D01*
X110695226Y-62798102D01*
X110695210Y-62798061D01*
X115665000Y-62798061D01*
X115665000Y-63001939D01*
X115704774Y-63201898D01*
X115782795Y-63390256D01*
X115896063Y-63559774D01*
X116040226Y-63703937D01*
X116209744Y-63817205D01*
X116398102Y-63895226D01*
X116598061Y-63935000D01*
X116801939Y-63935000D01*
X117001898Y-63895226D01*
X117190256Y-63817205D01*
X117359774Y-63703937D01*
X117481794Y-63581917D01*
X125167688Y-63581917D01*
X125254393Y-63838653D01*
X125531223Y-63972048D01*
X125828757Y-64048873D01*
X126135562Y-64066176D01*
X126439848Y-64023292D01*
X126729921Y-63921868D01*
X126885607Y-63838653D01*
X126972312Y-63581917D01*
X126070000Y-62679605D01*
X125167688Y-63581917D01*
X117481794Y-63581917D01*
X117503937Y-63559774D01*
X117617205Y-63390256D01*
X117695226Y-63201898D01*
X117735000Y-63001939D01*
X117735000Y-62798061D01*
X117695226Y-62598102D01*
X117681748Y-62565562D01*
X124503824Y-62565562D01*
X124546708Y-62869848D01*
X124648132Y-63159921D01*
X124731347Y-63315607D01*
X124988083Y-63402312D01*
X125890395Y-62500000D01*
X126249605Y-62500000D01*
X127151917Y-63402312D01*
X127408653Y-63315607D01*
X127542048Y-63038777D01*
X127618873Y-62741243D01*
X127636176Y-62434438D01*
X127593292Y-62130152D01*
X127491868Y-61840079D01*
X127408653Y-61684393D01*
X127151917Y-61597688D01*
X126249605Y-62500000D01*
X125890395Y-62500000D01*
X124988083Y-61597688D01*
X124731347Y-61684393D01*
X124597952Y-61961223D01*
X124521127Y-62258757D01*
X124503824Y-62565562D01*
X117681748Y-62565562D01*
X117617205Y-62409744D01*
X117503937Y-62240226D01*
X117359774Y-62096063D01*
X117190256Y-61982795D01*
X117001898Y-61904774D01*
X116801939Y-61865000D01*
X116598061Y-61865000D01*
X116398102Y-61904774D01*
X116209744Y-61982795D01*
X116040226Y-62096063D01*
X115896063Y-62240226D01*
X115782795Y-62409744D01*
X115704774Y-62598102D01*
X115665000Y-62798061D01*
X110695210Y-62798061D01*
X110617205Y-62609744D01*
X110503937Y-62440226D01*
X110359774Y-62296063D01*
X110190256Y-62182795D01*
X110001898Y-62104774D01*
X109801939Y-62065000D01*
X109598061Y-62065000D01*
X109398102Y-62104774D01*
X109209744Y-62182795D01*
X109040226Y-62296063D01*
X109028164Y-62308125D01*
X108990256Y-62282795D01*
X108801898Y-62204774D01*
X108601939Y-62165000D01*
X108398061Y-62165000D01*
X108198102Y-62204774D01*
X108009744Y-62282795D01*
X108000000Y-62289306D01*
X107990256Y-62282795D01*
X107801898Y-62204774D01*
X107601939Y-62165000D01*
X107398061Y-62165000D01*
X107198102Y-62204774D01*
X107009744Y-62282795D01*
X106935000Y-62332737D01*
X106935000Y-61963547D01*
X107001939Y-61963547D01*
X107201898Y-61923773D01*
X107390256Y-61845752D01*
X107559774Y-61732484D01*
X107703937Y-61588321D01*
X107806383Y-61435000D01*
X107901939Y-61435000D01*
X108101898Y-61395226D01*
X108290256Y-61317205D01*
X108388110Y-61251821D01*
X108440226Y-61303937D01*
X108609744Y-61417205D01*
X108798102Y-61495226D01*
X108998061Y-61535000D01*
X109201939Y-61535000D01*
X109401898Y-61495226D01*
X109590256Y-61417205D01*
X109759774Y-61303937D01*
X109900000Y-61163711D01*
X109940226Y-61203937D01*
X110109744Y-61317205D01*
X110298102Y-61395226D01*
X110498061Y-61435000D01*
X110701939Y-61435000D01*
X110786987Y-61418083D01*
X125167688Y-61418083D01*
X126070000Y-62320395D01*
X126972312Y-61418083D01*
X126885607Y-61161347D01*
X126608777Y-61027952D01*
X126311243Y-60951127D01*
X126004438Y-60933824D01*
X125700152Y-60976708D01*
X125410079Y-61078132D01*
X125254393Y-61161347D01*
X125167688Y-61418083D01*
X110786987Y-61418083D01*
X110901898Y-61395226D01*
X111090256Y-61317205D01*
X111259774Y-61203937D01*
X111403937Y-61059774D01*
X111517205Y-60890256D01*
X111595226Y-60701898D01*
X111635000Y-60501939D01*
X111635000Y-60298061D01*
X111595226Y-60098102D01*
X111517205Y-59909744D01*
X111403937Y-59740226D01*
X111259774Y-59596063D01*
X111090256Y-59482795D01*
X110901898Y-59404774D01*
X110868150Y-59398061D01*
X115265000Y-59398061D01*
X115265000Y-59601939D01*
X115304774Y-59801898D01*
X115382795Y-59990256D01*
X115496063Y-60159774D01*
X115640226Y-60303937D01*
X115809744Y-60417205D01*
X115998102Y-60495226D01*
X116198061Y-60535000D01*
X116401939Y-60535000D01*
X116601898Y-60495226D01*
X116790256Y-60417205D01*
X116797547Y-60412334D01*
X116896063Y-60559774D01*
X117040226Y-60703937D01*
X117209744Y-60817205D01*
X117398102Y-60895226D01*
X117598061Y-60935000D01*
X117801939Y-60935000D01*
X118001898Y-60895226D01*
X118190256Y-60817205D01*
X118359774Y-60703937D01*
X118503937Y-60559774D01*
X118617205Y-60390256D01*
X118695226Y-60201898D01*
X118735000Y-60001939D01*
X118735000Y-59798061D01*
X118695226Y-59598102D01*
X118617205Y-59409744D01*
X118542582Y-59298061D01*
X123465000Y-59298061D01*
X123465000Y-59501939D01*
X123504774Y-59701898D01*
X123582795Y-59890256D01*
X123696063Y-60059774D01*
X123840226Y-60203937D01*
X124009744Y-60317205D01*
X124198102Y-60395226D01*
X124398061Y-60435000D01*
X124601939Y-60435000D01*
X124801898Y-60395226D01*
X124990256Y-60317205D01*
X125159774Y-60203937D01*
X125303937Y-60059774D01*
X125417205Y-59890256D01*
X125495226Y-59701898D01*
X125535000Y-59501939D01*
X125535000Y-59298061D01*
X125495226Y-59098102D01*
X125417205Y-58909744D01*
X125303937Y-58740226D01*
X125159774Y-58596063D01*
X124990256Y-58482795D01*
X124801898Y-58404774D01*
X124601939Y-58365000D01*
X124398061Y-58365000D01*
X124198102Y-58404774D01*
X124009744Y-58482795D01*
X123840226Y-58596063D01*
X123696063Y-58740226D01*
X123582795Y-58909744D01*
X123504774Y-59098102D01*
X123465000Y-59298061D01*
X118542582Y-59298061D01*
X118503937Y-59240226D01*
X118359774Y-59096063D01*
X118190256Y-58982795D01*
X118001898Y-58904774D01*
X117801939Y-58865000D01*
X117598061Y-58865000D01*
X117398102Y-58904774D01*
X117209744Y-58982795D01*
X117202453Y-58987666D01*
X117103937Y-58840226D01*
X116959774Y-58696063D01*
X116790256Y-58582795D01*
X116601898Y-58504774D01*
X116401939Y-58465000D01*
X116198061Y-58465000D01*
X115998102Y-58504774D01*
X115809744Y-58582795D01*
X115640226Y-58696063D01*
X115496063Y-58840226D01*
X115382795Y-59009744D01*
X115304774Y-59198102D01*
X115265000Y-59398061D01*
X110868150Y-59398061D01*
X110701939Y-59365000D01*
X110498061Y-59365000D01*
X110298102Y-59404774D01*
X110109744Y-59482795D01*
X109940226Y-59596063D01*
X109800000Y-59736289D01*
X109759774Y-59696063D01*
X109590256Y-59582795D01*
X109401898Y-59504774D01*
X109201939Y-59465000D01*
X108998061Y-59465000D01*
X108798102Y-59504774D01*
X108635000Y-59572334D01*
X108635000Y-59304446D01*
X110004447Y-57935000D01*
X110101939Y-57935000D01*
X110301898Y-57895226D01*
X110490256Y-57817205D01*
X110659774Y-57703937D01*
X110803937Y-57559774D01*
X110917205Y-57390256D01*
X110995226Y-57201898D01*
X111035000Y-57001939D01*
X111035000Y-56998061D01*
X117365000Y-56998061D01*
X117365000Y-57201939D01*
X117404774Y-57401898D01*
X117482795Y-57590256D01*
X117596063Y-57759774D01*
X117740226Y-57903937D01*
X117909744Y-58017205D01*
X118098102Y-58095226D01*
X118298061Y-58135000D01*
X118501939Y-58135000D01*
X118701898Y-58095226D01*
X118890256Y-58017205D01*
X119059774Y-57903937D01*
X119203937Y-57759774D01*
X119317205Y-57590256D01*
X119395226Y-57401898D01*
X119435000Y-57201939D01*
X119435000Y-56998061D01*
X119395226Y-56798102D01*
X119317205Y-56609744D01*
X119203937Y-56440226D01*
X119059774Y-56296063D01*
X118890256Y-56182795D01*
X118701898Y-56104774D01*
X118501939Y-56065000D01*
X118298061Y-56065000D01*
X118098102Y-56104774D01*
X117909744Y-56182795D01*
X117740226Y-56296063D01*
X117596063Y-56440226D01*
X117482795Y-56609744D01*
X117404774Y-56798102D01*
X117365000Y-56998061D01*
X111035000Y-56998061D01*
X111035000Y-56798061D01*
X110995226Y-56598102D01*
X110917205Y-56409744D01*
X110803937Y-56240226D01*
X110659774Y-56096063D01*
X110490256Y-55982795D01*
X110301898Y-55904774D01*
X110278729Y-55900165D01*
X110307979Y-55817584D01*
X109370000Y-54879605D01*
X108956434Y-55293171D01*
X108898102Y-55304774D01*
X108709744Y-55382795D01*
X108540226Y-55496063D01*
X108396063Y-55640226D01*
X108282795Y-55809744D01*
X108218485Y-55965000D01*
X108198061Y-55965000D01*
X107998102Y-56004774D01*
X107809744Y-56082795D01*
X107640226Y-56196063D01*
X107593551Y-56242738D01*
X107501898Y-56204774D01*
X107301939Y-56165000D01*
X107098061Y-56165000D01*
X107047359Y-56175085D01*
X107886484Y-55335961D01*
X107900844Y-55377367D01*
X107990571Y-55545234D01*
X108252416Y-55637979D01*
X109190395Y-54700000D01*
X109549605Y-54700000D01*
X110487584Y-55637979D01*
X110749429Y-55545234D01*
X110887820Y-55259880D01*
X110967883Y-54953010D01*
X110986540Y-54636416D01*
X110973398Y-54541429D01*
X127760000Y-54541429D01*
X127760000Y-54858571D01*
X127821871Y-55169620D01*
X127943237Y-55462621D01*
X128119431Y-55726315D01*
X128343685Y-55950569D01*
X128607379Y-56126763D01*
X128900380Y-56248129D01*
X129211429Y-56310000D01*
X129528571Y-56310000D01*
X129839620Y-56248129D01*
X130132621Y-56126763D01*
X130396315Y-55950569D01*
X130620569Y-55726315D01*
X130796763Y-55462621D01*
X130918129Y-55169620D01*
X130980000Y-54858571D01*
X130980000Y-54541429D01*
X130918129Y-54230380D01*
X130796763Y-53937379D01*
X130620569Y-53673685D01*
X130396315Y-53449431D01*
X130132621Y-53273237D01*
X129839620Y-53151871D01*
X129528571Y-53090000D01*
X129211429Y-53090000D01*
X128900380Y-53151871D01*
X128607379Y-53273237D01*
X128343685Y-53449431D01*
X128119431Y-53673685D01*
X127943237Y-53937379D01*
X127821871Y-54230380D01*
X127760000Y-54541429D01*
X110973398Y-54541429D01*
X110943074Y-54322267D01*
X110839156Y-54022633D01*
X110749429Y-53854766D01*
X110487584Y-53762021D01*
X109549605Y-54700000D01*
X109190395Y-54700000D01*
X109176253Y-54685858D01*
X109355858Y-54506253D01*
X109370000Y-54520395D01*
X110307979Y-53582416D01*
X110215234Y-53320571D01*
X110004214Y-53218231D01*
X112787445Y-50435000D01*
X134963895Y-50435000D01*
X135000000Y-50438556D01*
X135036105Y-50435000D01*
X135144085Y-50424365D01*
X135282633Y-50382337D01*
X135410320Y-50314087D01*
X135522238Y-50222238D01*
X135545258Y-50194188D01*
X136694197Y-49045250D01*
X136722237Y-49022238D01*
X136745250Y-48994197D01*
X136745253Y-48994194D01*
X136814086Y-48910321D01*
X136814087Y-48910320D01*
X136882337Y-48782633D01*
X136924365Y-48644085D01*
X136935000Y-48536105D01*
X136935000Y-48536096D01*
X136938555Y-48500001D01*
X136935000Y-48463906D01*
X136935000Y-40667263D01*
X137009744Y-40717205D01*
X137198102Y-40795226D01*
X137398061Y-40835000D01*
X137601939Y-40835000D01*
X137801898Y-40795226D01*
X137990256Y-40717205D01*
X138159774Y-40603937D01*
X138303937Y-40459774D01*
X138417205Y-40290256D01*
X138495226Y-40101898D01*
X138535000Y-39901939D01*
X138535000Y-39698061D01*
X138495226Y-39498102D01*
X138417205Y-39309744D01*
X138303937Y-39140226D01*
X138159774Y-38996063D01*
X137990256Y-38882795D01*
X137801898Y-38804774D01*
X137601939Y-38765000D01*
X137398061Y-38765000D01*
X137198102Y-38804774D01*
X137009744Y-38882795D01*
X136935000Y-38932737D01*
X136935000Y-36404446D01*
X137804447Y-35535000D01*
X137901939Y-35535000D01*
X138101898Y-35495226D01*
X138290256Y-35417205D01*
X138459774Y-35303937D01*
X138603937Y-35159774D01*
X138717205Y-34990256D01*
X138795226Y-34801898D01*
X138835000Y-34601939D01*
X138835000Y-34398061D01*
X138795226Y-34198102D01*
X138717205Y-34009744D01*
X138603937Y-33840226D01*
X138459774Y-33696063D01*
X138290256Y-33582795D01*
X138101898Y-33504774D01*
X137901939Y-33465000D01*
X137698061Y-33465000D01*
X137498102Y-33504774D01*
X137309744Y-33582795D01*
X137140226Y-33696063D01*
X136996063Y-33840226D01*
X136882795Y-34009744D01*
X136804774Y-34198102D01*
X136765000Y-34398061D01*
X136765000Y-34495553D01*
X135705808Y-35554746D01*
X135677763Y-35577762D01*
X135585914Y-35689680D01*
X135582950Y-35695226D01*
X135517664Y-35817367D01*
X135475635Y-35955915D01*
X135461444Y-36100000D01*
X135465001Y-36136115D01*
X135465000Y-48195553D01*
X134695554Y-48965000D01*
X112519103Y-48965000D01*
X112482998Y-48961444D01*
X112338912Y-48975635D01*
X112296884Y-48988384D01*
X112200365Y-49017663D01*
X112072678Y-49085913D01*
X111960760Y-49177762D01*
X111937744Y-49205807D01*
X105705808Y-55437744D01*
X105677763Y-55460760D01*
X105585914Y-55572678D01*
X105551010Y-55637979D01*
X105517664Y-55700365D01*
X105475635Y-55838913D01*
X105461444Y-55982998D01*
X105465001Y-56019113D01*
X105465000Y-63561555D01*
X103335000Y-61431556D01*
X103335000Y-53022456D01*
X103398061Y-53035000D01*
X103601939Y-53035000D01*
X103801898Y-52995226D01*
X103990256Y-52917205D01*
X104159774Y-52803937D01*
X104303937Y-52659774D01*
X104417205Y-52490256D01*
X104495226Y-52301898D01*
X104535000Y-52101939D01*
X104535000Y-51898061D01*
X104495226Y-51698102D01*
X104417205Y-51509744D01*
X104303937Y-51340226D01*
X104159774Y-51196063D01*
X103990256Y-51082795D01*
X103801898Y-51004774D01*
X103601939Y-50965000D01*
X103398061Y-50965000D01*
X103335000Y-50977544D01*
X103335000Y-44898061D01*
X132465000Y-44898061D01*
X132465000Y-45101939D01*
X132504774Y-45301898D01*
X132582795Y-45490256D01*
X132696063Y-45659774D01*
X132840226Y-45803937D01*
X133009744Y-45917205D01*
X133198102Y-45995226D01*
X133398061Y-46035000D01*
X133601939Y-46035000D01*
X133801898Y-45995226D01*
X133990256Y-45917205D01*
X134159774Y-45803937D01*
X134303937Y-45659774D01*
X134417205Y-45490256D01*
X134495226Y-45301898D01*
X134535000Y-45101939D01*
X134535000Y-44898061D01*
X134495226Y-44698102D01*
X134417205Y-44509744D01*
X134303937Y-44340226D01*
X134159774Y-44196063D01*
X133990256Y-44082795D01*
X133801898Y-44004774D01*
X133601939Y-43965000D01*
X133398061Y-43965000D01*
X133198102Y-44004774D01*
X133009744Y-44082795D01*
X132840226Y-44196063D01*
X132696063Y-44340226D01*
X132582795Y-44509744D01*
X132504774Y-44698102D01*
X132465000Y-44898061D01*
X103335000Y-44898061D01*
X103335000Y-40769088D01*
X103398102Y-40795226D01*
X103598061Y-40835000D01*
X103801939Y-40835000D01*
X104001898Y-40795226D01*
X104034489Y-40781726D01*
X108591385Y-40781726D01*
X108591385Y-40985604D01*
X108631159Y-41185563D01*
X108709180Y-41373921D01*
X108822448Y-41543439D01*
X108966611Y-41687602D01*
X109136129Y-41800870D01*
X109324487Y-41878891D01*
X109524446Y-41918665D01*
X109728324Y-41918665D01*
X109928283Y-41878891D01*
X110116641Y-41800870D01*
X110286159Y-41687602D01*
X110333761Y-41640000D01*
X113041928Y-41640000D01*
X113041928Y-43140000D01*
X113054188Y-43264482D01*
X113090498Y-43384180D01*
X113149463Y-43494494D01*
X113228815Y-43591185D01*
X113325506Y-43670537D01*
X113435820Y-43729502D01*
X113555518Y-43765812D01*
X113680000Y-43778072D01*
X115180000Y-43778072D01*
X115304482Y-43765812D01*
X115424180Y-43729502D01*
X115534494Y-43670537D01*
X115631185Y-43591185D01*
X115710537Y-43494494D01*
X115769502Y-43384180D01*
X115805812Y-43264482D01*
X115816445Y-43156517D01*
X115894201Y-43272886D01*
X116087114Y-43465799D01*
X116313957Y-43617371D01*
X116566011Y-43721775D01*
X116833589Y-43775000D01*
X117106411Y-43775000D01*
X117373989Y-43721775D01*
X117626043Y-43617371D01*
X117852886Y-43465799D01*
X118045799Y-43272886D01*
X118197371Y-43046043D01*
X118240000Y-42943127D01*
X118282629Y-43046043D01*
X118434201Y-43272886D01*
X118627114Y-43465799D01*
X118853957Y-43617371D01*
X119106011Y-43721775D01*
X119373589Y-43775000D01*
X119646411Y-43775000D01*
X119913989Y-43721775D01*
X120166043Y-43617371D01*
X120392886Y-43465799D01*
X120585799Y-43272886D01*
X120737371Y-43046043D01*
X120780000Y-42943127D01*
X120822629Y-43046043D01*
X120974201Y-43272886D01*
X121167114Y-43465799D01*
X121393957Y-43617371D01*
X121646011Y-43721775D01*
X121913589Y-43775000D01*
X122186411Y-43775000D01*
X122453989Y-43721775D01*
X122706043Y-43617371D01*
X122932886Y-43465799D01*
X123125799Y-43272886D01*
X123277371Y-43046043D01*
X123320000Y-42943127D01*
X123362629Y-43046043D01*
X123514201Y-43272886D01*
X123707114Y-43465799D01*
X123933957Y-43617371D01*
X124186011Y-43721775D01*
X124453589Y-43775000D01*
X124726411Y-43775000D01*
X124993989Y-43721775D01*
X125246043Y-43617371D01*
X125472886Y-43465799D01*
X125665799Y-43272886D01*
X125817371Y-43046043D01*
X125860000Y-42943127D01*
X125902629Y-43046043D01*
X126054201Y-43272886D01*
X126247114Y-43465799D01*
X126473957Y-43617371D01*
X126726011Y-43721775D01*
X126993589Y-43775000D01*
X127266411Y-43775000D01*
X127533989Y-43721775D01*
X127786043Y-43617371D01*
X128012886Y-43465799D01*
X128205799Y-43272886D01*
X128357371Y-43046043D01*
X128461775Y-42793989D01*
X128515000Y-42526411D01*
X128515000Y-42253589D01*
X128461775Y-41986011D01*
X128357371Y-41733957D01*
X128205799Y-41507114D01*
X128012886Y-41314201D01*
X127786043Y-41162629D01*
X127533989Y-41058225D01*
X127266411Y-41005000D01*
X126993589Y-41005000D01*
X126726011Y-41058225D01*
X126473957Y-41162629D01*
X126247114Y-41314201D01*
X126054201Y-41507114D01*
X125902629Y-41733957D01*
X125860000Y-41836873D01*
X125817371Y-41733957D01*
X125665799Y-41507114D01*
X125472886Y-41314201D01*
X125246043Y-41162629D01*
X124993989Y-41058225D01*
X124726411Y-41005000D01*
X124453589Y-41005000D01*
X124186011Y-41058225D01*
X123933957Y-41162629D01*
X123707114Y-41314201D01*
X123514201Y-41507114D01*
X123362629Y-41733957D01*
X123320000Y-41836873D01*
X123277371Y-41733957D01*
X123125799Y-41507114D01*
X122932886Y-41314201D01*
X122706043Y-41162629D01*
X122453989Y-41058225D01*
X122186411Y-41005000D01*
X121913589Y-41005000D01*
X121646011Y-41058225D01*
X121393957Y-41162629D01*
X121167114Y-41314201D01*
X120974201Y-41507114D01*
X120822629Y-41733957D01*
X120780000Y-41836873D01*
X120737371Y-41733957D01*
X120585799Y-41507114D01*
X120392886Y-41314201D01*
X120166043Y-41162629D01*
X119913989Y-41058225D01*
X119646411Y-41005000D01*
X119373589Y-41005000D01*
X119106011Y-41058225D01*
X118853957Y-41162629D01*
X118627114Y-41314201D01*
X118434201Y-41507114D01*
X118282629Y-41733957D01*
X118240000Y-41836873D01*
X118197371Y-41733957D01*
X118045799Y-41507114D01*
X117852886Y-41314201D01*
X117626043Y-41162629D01*
X117373989Y-41058225D01*
X117106411Y-41005000D01*
X116833589Y-41005000D01*
X116566011Y-41058225D01*
X116313957Y-41162629D01*
X116087114Y-41314201D01*
X115894201Y-41507114D01*
X115816445Y-41623483D01*
X115805812Y-41515518D01*
X115769502Y-41395820D01*
X115710537Y-41285506D01*
X115631185Y-41188815D01*
X115534494Y-41109463D01*
X115424180Y-41050498D01*
X115304482Y-41014188D01*
X115180000Y-41001928D01*
X113680000Y-41001928D01*
X113555518Y-41014188D01*
X113435820Y-41050498D01*
X113325506Y-41109463D01*
X113228815Y-41188815D01*
X113149463Y-41285506D01*
X113090498Y-41395820D01*
X113054188Y-41515518D01*
X113041928Y-41640000D01*
X110333761Y-41640000D01*
X110430322Y-41543439D01*
X110543590Y-41373921D01*
X110621611Y-41185563D01*
X110661385Y-40985604D01*
X110661385Y-40781726D01*
X110621611Y-40581767D01*
X110543590Y-40393409D01*
X110430322Y-40223891D01*
X110286159Y-40079728D01*
X110116641Y-39966460D01*
X109928283Y-39888439D01*
X109728324Y-39848665D01*
X109524446Y-39848665D01*
X109324487Y-39888439D01*
X109136129Y-39966460D01*
X108966611Y-40079728D01*
X108822448Y-40223891D01*
X108709180Y-40393409D01*
X108631159Y-40581767D01*
X108591385Y-40781726D01*
X104034489Y-40781726D01*
X104190256Y-40717205D01*
X104359774Y-40603937D01*
X104503937Y-40459774D01*
X104617205Y-40290256D01*
X104695226Y-40101898D01*
X104735000Y-39901939D01*
X104735000Y-39698061D01*
X104695226Y-39498102D01*
X104617205Y-39309744D01*
X104503937Y-39140226D01*
X104359774Y-38996063D01*
X104190256Y-38882795D01*
X104001898Y-38804774D01*
X103801939Y-38765000D01*
X103598061Y-38765000D01*
X103398102Y-38804774D01*
X103335000Y-38830912D01*
X103335000Y-35428711D01*
X103403937Y-35359774D01*
X103517205Y-35190256D01*
X103595226Y-35001898D01*
X103635000Y-34801939D01*
X103635000Y-34598061D01*
X103595226Y-34398102D01*
X103517205Y-34209744D01*
X103403937Y-34040226D01*
X103259774Y-33896063D01*
X103090256Y-33782795D01*
X102901898Y-33704774D01*
X102701939Y-33665000D01*
X102498061Y-33665000D01*
X102298102Y-33704774D01*
X102109744Y-33782795D01*
X101940226Y-33896063D01*
X101796063Y-34040226D01*
X101682795Y-34209744D01*
X101604774Y-34398102D01*
X101565000Y-34598061D01*
X101460000Y-34598061D01*
X101460000Y-32093589D01*
X113045000Y-32093589D01*
X113045000Y-32366411D01*
X113098225Y-32633989D01*
X113202629Y-32886043D01*
X113354201Y-33112886D01*
X113547114Y-33305799D01*
X113773957Y-33457371D01*
X114026011Y-33561775D01*
X114293589Y-33615000D01*
X114566411Y-33615000D01*
X114833989Y-33561775D01*
X115086043Y-33457371D01*
X115312886Y-33305799D01*
X115505799Y-33112886D01*
X115657371Y-32886043D01*
X115700000Y-32783127D01*
X115742629Y-32886043D01*
X115894201Y-33112886D01*
X116087114Y-33305799D01*
X116313957Y-33457371D01*
X116566011Y-33561775D01*
X116833589Y-33615000D01*
X117106411Y-33615000D01*
X117373989Y-33561775D01*
X117626043Y-33457371D01*
X117852886Y-33305799D01*
X118045799Y-33112886D01*
X118197371Y-32886043D01*
X118240000Y-32783127D01*
X118282629Y-32886043D01*
X118434201Y-33112886D01*
X118627114Y-33305799D01*
X118853957Y-33457371D01*
X119106011Y-33561775D01*
X119373589Y-33615000D01*
X119646411Y-33615000D01*
X119913989Y-33561775D01*
X120166043Y-33457371D01*
X120392886Y-33305799D01*
X120585799Y-33112886D01*
X120737371Y-32886043D01*
X120780000Y-32783127D01*
X120822629Y-32886043D01*
X120974201Y-33112886D01*
X121167114Y-33305799D01*
X121393957Y-33457371D01*
X121646011Y-33561775D01*
X121913589Y-33615000D01*
X122186411Y-33615000D01*
X122453989Y-33561775D01*
X122706043Y-33457371D01*
X122932886Y-33305799D01*
X123125799Y-33112886D01*
X123277371Y-32886043D01*
X123320000Y-32783127D01*
X123362629Y-32886043D01*
X123514201Y-33112886D01*
X123707114Y-33305799D01*
X123933957Y-33457371D01*
X124186011Y-33561775D01*
X124453589Y-33615000D01*
X124726411Y-33615000D01*
X124993989Y-33561775D01*
X125246043Y-33457371D01*
X125472886Y-33305799D01*
X125665799Y-33112886D01*
X125817371Y-32886043D01*
X125860000Y-32783127D01*
X125902629Y-32886043D01*
X126054201Y-33112886D01*
X126247114Y-33305799D01*
X126473957Y-33457371D01*
X126726011Y-33561775D01*
X126993589Y-33615000D01*
X127266411Y-33615000D01*
X127533989Y-33561775D01*
X127786043Y-33457371D01*
X128012886Y-33305799D01*
X128205799Y-33112886D01*
X128357371Y-32886043D01*
X128461775Y-32633989D01*
X128515000Y-32366411D01*
X128515000Y-32093589D01*
X128461775Y-31826011D01*
X128357371Y-31573957D01*
X128205799Y-31347114D01*
X128012886Y-31154201D01*
X127786043Y-31002629D01*
X127533989Y-30898225D01*
X127266411Y-30845000D01*
X126993589Y-30845000D01*
X126726011Y-30898225D01*
X126473957Y-31002629D01*
X126247114Y-31154201D01*
X126054201Y-31347114D01*
X125902629Y-31573957D01*
X125860000Y-31676873D01*
X125817371Y-31573957D01*
X125665799Y-31347114D01*
X125472886Y-31154201D01*
X125246043Y-31002629D01*
X124993989Y-30898225D01*
X124726411Y-30845000D01*
X124453589Y-30845000D01*
X124186011Y-30898225D01*
X123933957Y-31002629D01*
X123707114Y-31154201D01*
X123514201Y-31347114D01*
X123362629Y-31573957D01*
X123320000Y-31676873D01*
X123277371Y-31573957D01*
X123125799Y-31347114D01*
X122932886Y-31154201D01*
X122706043Y-31002629D01*
X122453989Y-30898225D01*
X122186411Y-30845000D01*
X121913589Y-30845000D01*
X121646011Y-30898225D01*
X121393957Y-31002629D01*
X121167114Y-31154201D01*
X120974201Y-31347114D01*
X120822629Y-31573957D01*
X120780000Y-31676873D01*
X120737371Y-31573957D01*
X120585799Y-31347114D01*
X120392886Y-31154201D01*
X120166043Y-31002629D01*
X119913989Y-30898225D01*
X119646411Y-30845000D01*
X119373589Y-30845000D01*
X119106011Y-30898225D01*
X118853957Y-31002629D01*
X118627114Y-31154201D01*
X118434201Y-31347114D01*
X118282629Y-31573957D01*
X118240000Y-31676873D01*
X118197371Y-31573957D01*
X118045799Y-31347114D01*
X117852886Y-31154201D01*
X117626043Y-31002629D01*
X117373989Y-30898225D01*
X117106411Y-30845000D01*
X116833589Y-30845000D01*
X116566011Y-30898225D01*
X116313957Y-31002629D01*
X116087114Y-31154201D01*
X115894201Y-31347114D01*
X115742629Y-31573957D01*
X115700000Y-31676873D01*
X115657371Y-31573957D01*
X115505799Y-31347114D01*
X115312886Y-31154201D01*
X115086043Y-31002629D01*
X114833989Y-30898225D01*
X114566411Y-30845000D01*
X114293589Y-30845000D01*
X114026011Y-30898225D01*
X113773957Y-31002629D01*
X113547114Y-31154201D01*
X113354201Y-31347114D01*
X113202629Y-31573957D01*
X113098225Y-31826011D01*
X113045000Y-32093589D01*
X101460000Y-32093589D01*
X101460000Y-30284721D01*
X101487907Y-30000101D01*
X101560484Y-29759715D01*
X101678368Y-29538009D01*
X101837068Y-29343423D01*
X102030545Y-29183365D01*
X102251424Y-29063936D01*
X102491297Y-28989683D01*
X102773716Y-28960000D01*
X116661978Y-28960000D01*
X116604774Y-29098102D01*
X116565000Y-29298061D01*
X116565000Y-29501939D01*
X116604774Y-29701898D01*
X116682795Y-29890256D01*
X116796063Y-30059774D01*
X116940226Y-30203937D01*
X117109744Y-30317205D01*
X117298102Y-30395226D01*
X117498061Y-30435000D01*
X117701939Y-30435000D01*
X117901898Y-30395226D01*
X118090256Y-30317205D01*
X118259774Y-30203937D01*
X118403937Y-30059774D01*
X118517205Y-29890256D01*
X118581266Y-29735600D01*
X118678931Y-29776055D01*
X118878890Y-29815829D01*
X119082768Y-29815829D01*
X119282727Y-29776055D01*
X119471085Y-29698034D01*
X119640603Y-29584766D01*
X119784766Y-29440603D01*
X119898034Y-29271085D01*
X119976055Y-29082727D01*
X120015829Y-28882768D01*
X120015829Y-28678890D01*
X119976055Y-28478931D01*
X119898034Y-28290573D01*
X119784766Y-28121055D01*
X119640603Y-27976892D01*
X119471085Y-27863624D01*
X119282727Y-27785603D01*
X119128789Y-27754983D01*
X119160652Y-27649446D01*
X119173152Y-27586316D01*
X119186530Y-27523377D01*
X119187566Y-27513519D01*
X119206611Y-27319285D01*
X119210000Y-27284877D01*
X119210000Y-25934722D01*
X119218863Y-25844335D01*
X119235030Y-25790786D01*
X119261288Y-25741403D01*
X119296641Y-25698055D01*
X119339740Y-25662400D01*
X119388937Y-25635799D01*
X119442375Y-25619258D01*
X119530455Y-25610000D01*
X121965278Y-25610000D01*
X122055665Y-25618863D01*
G37*
%TD.AperFunction*%
%TD*%
M02*
