%TF.GenerationSoftware,KiCad,Pcbnew,(5.1.10)-1*%
%TF.CreationDate,2021-11-08T18:16:21+01:00*%
%TF.ProjectId,RHT device,52485420-6465-4766-9963-652e6b696361,rev?*%
%TF.SameCoordinates,Original*%
%TF.FileFunction,Copper,L1,Top*%
%TF.FilePolarity,Positive*%
%FSLAX46Y46*%
G04 Gerber Fmt 4.6, Leading zero omitted, Abs format (unit mm)*
G04 Created by KiCad (PCBNEW (5.1.10)-1) date 2021-11-08 18:16:21*
%MOMM*%
%LPD*%
G01*
G04 APERTURE LIST*
%TA.AperFunction,ComponentPad*%
%ADD10C,1.950000*%
%TD*%
%TA.AperFunction,ComponentPad*%
%ADD11C,1.850000*%
%TD*%
%TA.AperFunction,SMDPad,CuDef*%
%ADD12R,1.450000X1.000000*%
%TD*%
%TA.AperFunction,SMDPad,CuDef*%
%ADD13R,0.600000X1.250000*%
%TD*%
%TA.AperFunction,SMDPad,CuDef*%
%ADD14R,1.400000X0.900000*%
%TD*%
%TA.AperFunction,ComponentPad*%
%ADD15C,1.550000*%
%TD*%
%TA.AperFunction,SMDPad,CuDef*%
%ADD16C,0.889000*%
%TD*%
%TA.AperFunction,SMDPad,CuDef*%
%ADD17R,1.500000X2.400000*%
%TD*%
%TA.AperFunction,SMDPad,CuDef*%
%ADD18R,0.360000X0.400000*%
%TD*%
%TA.AperFunction,SMDPad,CuDef*%
%ADD19R,0.500000X1.075000*%
%TD*%
%TA.AperFunction,SMDPad,CuDef*%
%ADD20R,1.020000X1.470000*%
%TD*%
%TA.AperFunction,SMDPad,CuDef*%
%ADD21R,1.470000X1.020000*%
%TD*%
%TA.AperFunction,ComponentPad*%
%ADD22C,1.500000*%
%TD*%
%TA.AperFunction,ComponentPad*%
%ADD23R,1.500000X1.500000*%
%TD*%
%TA.AperFunction,ViaPad*%
%ADD24C,0.800000*%
%TD*%
%TA.AperFunction,Conductor*%
%ADD25C,0.250000*%
%TD*%
%TA.AperFunction,Conductor*%
%ADD26C,0.200000*%
%TD*%
%TA.AperFunction,Conductor*%
%ADD27C,0.254000*%
%TD*%
%TA.AperFunction,Conductor*%
%ADD28C,0.100000*%
%TD*%
G04 APERTURE END LIST*
D10*
%TO.P,U2,2*%
%TO.N,gnd*%
X109370000Y-54700000D03*
%TO.P,U2,1*%
%TO.N,+3V*%
X129370000Y-54700000D03*
%TD*%
D11*
%TO.P,S1,4*%
%TO.N,gnd*%
X126070000Y-62500000D03*
%TO.P,S1,3*%
%TO.N,Net-(R11-Pad1)*%
X138570000Y-62500000D03*
%TO.P,S1,2*%
%TO.N,gnd*%
X126070000Y-67500000D03*
%TO.P,S1,1*%
%TO.N,Net-(R11-Pad1)*%
X138570000Y-67500000D03*
%TD*%
D12*
%TO.P,R14,2*%
%TO.N,/I2C_SCK*%
X137750000Y-36080000D03*
%TO.P,R14,1*%
%TO.N,+3V*%
X137750000Y-37980000D03*
%TD*%
%TO.P,R13,2*%
%TO.N,+3V*%
X103750000Y-37980000D03*
%TO.P,R13,1*%
%TO.N,/I2C_DATA*%
X103750000Y-36080000D03*
%TD*%
%TO.P,R12,2*%
%TO.N,Net-(C2-Pad1)*%
X122842000Y-61348000D03*
%TO.P,R12,1*%
%TO.N,Net-(R11-Pad1)*%
X122842000Y-59448000D03*
%TD*%
%TO.P,R11,2*%
%TO.N,+3V*%
X118906000Y-63893668D03*
%TO.P,R11,1*%
%TO.N,Net-(R11-Pad1)*%
X118906000Y-65793668D03*
%TD*%
%TO.P,R10,2*%
%TO.N,Net-(LED1-Pad2)*%
X104066000Y-61649000D03*
%TO.P,R10,1*%
%TO.N,/PGC*%
X104066000Y-59749000D03*
%TD*%
%TO.P,R9,2*%
%TO.N,/CC_4*%
X133472000Y-46504000D03*
%TO.P,R9,1*%
%TO.N,Net-(Q4-Pad3)*%
X133472000Y-48404000D03*
%TD*%
%TO.P,R8,2*%
%TO.N,Net-(Q4-Pad1)*%
X132456000Y-54124000D03*
%TO.P,R8,1*%
%TO.N,/C_4*%
X132456000Y-56024000D03*
%TD*%
%TO.P,R7,2*%
%TO.N,/CC_3*%
X125010666Y-46504000D03*
%TO.P,R7,1*%
%TO.N,Net-(Q3-Pad3)*%
X125010666Y-48404000D03*
%TD*%
%TO.P,R6,2*%
%TO.N,Net-(Q3-Pad1)*%
X123994666Y-54124000D03*
%TO.P,R6,1*%
%TO.N,/C_3*%
X123994666Y-56024000D03*
%TD*%
%TO.P,R5,2*%
%TO.N,/CC_2*%
X116549333Y-46504000D03*
%TO.P,R5,1*%
%TO.N,Net-(Q2-Pad3)*%
X116549333Y-48404000D03*
%TD*%
%TO.P,R4,2*%
%TO.N,Net-(Q2-Pad1)*%
X115533333Y-54124000D03*
%TO.P,R4,1*%
%TO.N,/C_2*%
X115533333Y-56024000D03*
%TD*%
%TO.P,R3,2*%
%TO.N,/CC_1*%
X108088000Y-46504000D03*
%TO.P,R3,1*%
%TO.N,Net-(Q1-Pad3)*%
X108088000Y-48404000D03*
%TD*%
%TO.P,R2,2*%
%TO.N,Net-(Q1-Pad1)*%
X107072000Y-54124000D03*
%TO.P,R2,1*%
%TO.N,/C_1*%
X107072000Y-56024000D03*
%TD*%
%TO.P,R1,2*%
%TO.N,/MCLR*%
X114890000Y-59448000D03*
%TO.P,R1,1*%
%TO.N,+3V*%
X114890000Y-61348000D03*
%TD*%
D13*
%TO.P,Q4,3*%
%TO.N,Net-(Q4-Pad3)*%
X133472000Y-50214000D03*
%TO.P,Q4,2*%
%TO.N,gnd*%
X134427000Y-52314000D03*
%TO.P,Q4,1*%
%TO.N,Net-(Q4-Pad1)*%
X132517000Y-52314000D03*
%TD*%
%TO.P,Q3,3*%
%TO.N,Net-(Q3-Pad3)*%
X125010666Y-50214000D03*
%TO.P,Q3,2*%
%TO.N,gnd*%
X125965666Y-52314000D03*
%TO.P,Q3,1*%
%TO.N,Net-(Q3-Pad1)*%
X124055666Y-52314000D03*
%TD*%
%TO.P,Q2,3*%
%TO.N,Net-(Q2-Pad3)*%
X116549333Y-50214000D03*
%TO.P,Q2,2*%
%TO.N,gnd*%
X117504333Y-52314000D03*
%TO.P,Q2,1*%
%TO.N,Net-(Q2-Pad1)*%
X115594333Y-52314000D03*
%TD*%
%TO.P,Q1,3*%
%TO.N,Net-(Q1-Pad3)*%
X108088000Y-50214000D03*
%TO.P,Q1,2*%
%TO.N,gnd*%
X109043000Y-52314000D03*
%TO.P,Q1,1*%
%TO.N,Net-(Q1-Pad1)*%
X107133000Y-52314000D03*
%TD*%
D14*
%TO.P,LED1,2*%
%TO.N,Net-(LED1-Pad2)*%
X104032000Y-63682000D03*
%TO.P,LED1,1*%
%TO.N,gnd*%
X104032000Y-65582000D03*
%TD*%
D15*
%TO.P,ISCP,9*%
%TO.N,N/C*%
X106820000Y-68649000D03*
%TO.P,ISCP,8*%
X106820000Y-70681000D03*
%TO.P,ISCP,7*%
X111900000Y-69665000D03*
D16*
%TO.P,ISCP,6*%
%TO.N,Net-(J1-Pad6)*%
X108090000Y-70300000D03*
%TO.P,ISCP,5*%
%TO.N,/PGC*%
X108090000Y-69030000D03*
%TO.P,ISCP,4*%
%TO.N,/B_1*%
X109360000Y-70300000D03*
%TO.P,ISCP,3*%
%TO.N,gnd*%
X109360000Y-69030000D03*
%TO.P,ISCP,2*%
%TO.N,+3V*%
X110630000Y-70300000D03*
%TO.P,ISCP,1*%
%TO.N,/MCLR*%
X110630000Y-69030000D03*
%TD*%
D17*
%TO.P,IC2,7*%
%TO.N,gnd*%
X120750000Y-26700000D03*
D18*
%TO.P,IC2,6*%
%TO.N,/I2C_SCK*%
X119430000Y-27700000D03*
%TO.P,IC2,5*%
%TO.N,+3V*%
X119430000Y-26700000D03*
%TO.P,IC2,4*%
%TO.N,Net-(IC2-Pad4)*%
X119430000Y-25700000D03*
%TO.P,IC2,3*%
%TO.N,Net-(IC2-Pad3)*%
X122070000Y-25700000D03*
%TO.P,IC2,2*%
%TO.N,gnd*%
X122070000Y-26700000D03*
%TO.P,IC2,1*%
%TO.N,/I2C_DATA*%
X122070000Y-27700000D03*
%TD*%
D19*
%TO.P,D1,2*%
%TO.N,Net-(C2-Pad1)*%
X118866000Y-61560000D03*
%TO.P,D1,1*%
%TO.N,/B_1*%
X118866000Y-59236000D03*
%TD*%
D20*
%TO.P,C3,2*%
%TO.N,+3V*%
X120200000Y-29360000D03*
%TO.P,C3,1*%
%TO.N,gnd*%
X121800000Y-29360000D03*
%TD*%
D21*
%TO.P,C2,2*%
%TO.N,gnd*%
X122882000Y-64043668D03*
%TO.P,C2,1*%
%TO.N,Net-(C2-Pad1)*%
X122882000Y-65643668D03*
%TD*%
%TO.P,C1,2*%
%TO.N,gnd*%
X114930000Y-65643668D03*
%TO.P,C1,1*%
%TO.N,+3V*%
X114930000Y-64043668D03*
%TD*%
D22*
%TO.P,U1,12*%
%TO.N,/CC_1*%
X114430000Y-32230000D03*
%TO.P,U1,11*%
%TO.N,/D_a*%
X116970000Y-32230000D03*
%TO.P,U1,10*%
%TO.N,/D_f*%
X119510000Y-32230000D03*
%TO.P,U1,9*%
%TO.N,/CC_2*%
X122050000Y-32230000D03*
%TO.P,U1,8*%
%TO.N,/CC_3*%
X124590000Y-32230000D03*
%TO.P,U1,7*%
%TO.N,/D_b*%
X127130000Y-32230000D03*
%TO.P,U1,6*%
%TO.N,/CC_4*%
X127130000Y-42390000D03*
%TO.P,U1,5*%
%TO.N,/D_g*%
X124590000Y-42390000D03*
%TO.P,U1,4*%
%TO.N,/D_c*%
X122050000Y-42390000D03*
%TO.P,U1,3*%
%TO.N,/D_dp*%
X119510000Y-42390000D03*
%TO.P,U1,2*%
%TO.N,/D_d*%
X116970000Y-42390000D03*
D23*
%TO.P,U1,1*%
%TO.N,/D_e*%
X114430000Y-42390000D03*
%TD*%
%TO.P,IC1,20*%
%TO.N,gnd*%
%TA.AperFunction,SMDPad,CuDef*%
G36*
G01*
X112326000Y-64836000D02*
X112576000Y-64836000D01*
G75*
G02*
X112701000Y-64961000I0J-125000D01*
G01*
X112701000Y-66611000D01*
G75*
G02*
X112576000Y-66736000I-125000J0D01*
G01*
X112326000Y-66736000D01*
G75*
G02*
X112201000Y-66611000I0J125000D01*
G01*
X112201000Y-64961000D01*
G75*
G02*
X112326000Y-64836000I125000J0D01*
G01*
G37*
%TD.AperFunction*%
%TO.P,IC1,19*%
%TO.N,/B_1*%
%TA.AperFunction,SMDPad,CuDef*%
G36*
G01*
X111676000Y-64836000D02*
X111926000Y-64836000D01*
G75*
G02*
X112051000Y-64961000I0J-125000D01*
G01*
X112051000Y-66611000D01*
G75*
G02*
X111926000Y-66736000I-125000J0D01*
G01*
X111676000Y-66736000D01*
G75*
G02*
X111551000Y-66611000I0J125000D01*
G01*
X111551000Y-64961000D01*
G75*
G02*
X111676000Y-64836000I125000J0D01*
G01*
G37*
%TD.AperFunction*%
%TO.P,IC1,18*%
%TO.N,/PGC*%
%TA.AperFunction,SMDPad,CuDef*%
G36*
G01*
X111026000Y-64836000D02*
X111276000Y-64836000D01*
G75*
G02*
X111401000Y-64961000I0J-125000D01*
G01*
X111401000Y-66611000D01*
G75*
G02*
X111276000Y-66736000I-125000J0D01*
G01*
X111026000Y-66736000D01*
G75*
G02*
X110901000Y-66611000I0J125000D01*
G01*
X110901000Y-64961000D01*
G75*
G02*
X111026000Y-64836000I125000J0D01*
G01*
G37*
%TD.AperFunction*%
%TO.P,IC1,17*%
%TO.N,Net-(IC1-Pad17)*%
%TA.AperFunction,SMDPad,CuDef*%
G36*
G01*
X110376000Y-64836000D02*
X110626000Y-64836000D01*
G75*
G02*
X110751000Y-64961000I0J-125000D01*
G01*
X110751000Y-66611000D01*
G75*
G02*
X110626000Y-66736000I-125000J0D01*
G01*
X110376000Y-66736000D01*
G75*
G02*
X110251000Y-66611000I0J125000D01*
G01*
X110251000Y-64961000D01*
G75*
G02*
X110376000Y-64836000I125000J0D01*
G01*
G37*
%TD.AperFunction*%
%TO.P,IC1,16*%
%TO.N,/D_a*%
%TA.AperFunction,SMDPad,CuDef*%
G36*
G01*
X109726000Y-64836000D02*
X109976000Y-64836000D01*
G75*
G02*
X110101000Y-64961000I0J-125000D01*
G01*
X110101000Y-66611000D01*
G75*
G02*
X109976000Y-66736000I-125000J0D01*
G01*
X109726000Y-66736000D01*
G75*
G02*
X109601000Y-66611000I0J125000D01*
G01*
X109601000Y-64961000D01*
G75*
G02*
X109726000Y-64836000I125000J0D01*
G01*
G37*
%TD.AperFunction*%
%TO.P,IC1,15*%
%TO.N,/D_b*%
%TA.AperFunction,SMDPad,CuDef*%
G36*
G01*
X109076000Y-64836000D02*
X109326000Y-64836000D01*
G75*
G02*
X109451000Y-64961000I0J-125000D01*
G01*
X109451000Y-66611000D01*
G75*
G02*
X109326000Y-66736000I-125000J0D01*
G01*
X109076000Y-66736000D01*
G75*
G02*
X108951000Y-66611000I0J125000D01*
G01*
X108951000Y-64961000D01*
G75*
G02*
X109076000Y-64836000I125000J0D01*
G01*
G37*
%TD.AperFunction*%
%TO.P,IC1,14*%
%TO.N,/D_c*%
%TA.AperFunction,SMDPad,CuDef*%
G36*
G01*
X108426000Y-64836000D02*
X108676000Y-64836000D01*
G75*
G02*
X108801000Y-64961000I0J-125000D01*
G01*
X108801000Y-66611000D01*
G75*
G02*
X108676000Y-66736000I-125000J0D01*
G01*
X108426000Y-66736000D01*
G75*
G02*
X108301000Y-66611000I0J125000D01*
G01*
X108301000Y-64961000D01*
G75*
G02*
X108426000Y-64836000I125000J0D01*
G01*
G37*
%TD.AperFunction*%
%TO.P,IC1,13*%
%TO.N,/I2C_DATA*%
%TA.AperFunction,SMDPad,CuDef*%
G36*
G01*
X107776000Y-64836000D02*
X108026000Y-64836000D01*
G75*
G02*
X108151000Y-64961000I0J-125000D01*
G01*
X108151000Y-66611000D01*
G75*
G02*
X108026000Y-66736000I-125000J0D01*
G01*
X107776000Y-66736000D01*
G75*
G02*
X107651000Y-66611000I0J125000D01*
G01*
X107651000Y-64961000D01*
G75*
G02*
X107776000Y-64836000I125000J0D01*
G01*
G37*
%TD.AperFunction*%
%TO.P,IC1,12*%
%TO.N,/C_1*%
%TA.AperFunction,SMDPad,CuDef*%
G36*
G01*
X107126000Y-64836000D02*
X107376000Y-64836000D01*
G75*
G02*
X107501000Y-64961000I0J-125000D01*
G01*
X107501000Y-66611000D01*
G75*
G02*
X107376000Y-66736000I-125000J0D01*
G01*
X107126000Y-66736000D01*
G75*
G02*
X107001000Y-66611000I0J125000D01*
G01*
X107001000Y-64961000D01*
G75*
G02*
X107126000Y-64836000I125000J0D01*
G01*
G37*
%TD.AperFunction*%
%TO.P,IC1,11*%
%TO.N,/I2C_SCK*%
%TA.AperFunction,SMDPad,CuDef*%
G36*
G01*
X106476000Y-64836000D02*
X106726000Y-64836000D01*
G75*
G02*
X106851000Y-64961000I0J-125000D01*
G01*
X106851000Y-66611000D01*
G75*
G02*
X106726000Y-66736000I-125000J0D01*
G01*
X106476000Y-66736000D01*
G75*
G02*
X106351000Y-66611000I0J125000D01*
G01*
X106351000Y-64961000D01*
G75*
G02*
X106476000Y-64836000I125000J0D01*
G01*
G37*
%TD.AperFunction*%
%TO.P,IC1,10*%
%TO.N,/C_4*%
%TA.AperFunction,SMDPad,CuDef*%
G36*
G01*
X106476000Y-57836000D02*
X106726000Y-57836000D01*
G75*
G02*
X106851000Y-57961000I0J-125000D01*
G01*
X106851000Y-59611000D01*
G75*
G02*
X106726000Y-59736000I-125000J0D01*
G01*
X106476000Y-59736000D01*
G75*
G02*
X106351000Y-59611000I0J125000D01*
G01*
X106351000Y-57961000D01*
G75*
G02*
X106476000Y-57836000I125000J0D01*
G01*
G37*
%TD.AperFunction*%
%TO.P,IC1,9*%
%TO.N,/D_dp*%
%TA.AperFunction,SMDPad,CuDef*%
G36*
G01*
X107126000Y-57836000D02*
X107376000Y-57836000D01*
G75*
G02*
X107501000Y-57961000I0J-125000D01*
G01*
X107501000Y-59611000D01*
G75*
G02*
X107376000Y-59736000I-125000J0D01*
G01*
X107126000Y-59736000D01*
G75*
G02*
X107001000Y-59611000I0J125000D01*
G01*
X107001000Y-57961000D01*
G75*
G02*
X107126000Y-57836000I125000J0D01*
G01*
G37*
%TD.AperFunction*%
%TO.P,IC1,8*%
%TO.N,/D_g*%
%TA.AperFunction,SMDPad,CuDef*%
G36*
G01*
X107776000Y-57836000D02*
X108026000Y-57836000D01*
G75*
G02*
X108151000Y-57961000I0J-125000D01*
G01*
X108151000Y-59611000D01*
G75*
G02*
X108026000Y-59736000I-125000J0D01*
G01*
X107776000Y-59736000D01*
G75*
G02*
X107651000Y-59611000I0J125000D01*
G01*
X107651000Y-57961000D01*
G75*
G02*
X107776000Y-57836000I125000J0D01*
G01*
G37*
%TD.AperFunction*%
%TO.P,IC1,7*%
%TO.N,/D_d*%
%TA.AperFunction,SMDPad,CuDef*%
G36*
G01*
X108426000Y-57836000D02*
X108676000Y-57836000D01*
G75*
G02*
X108801000Y-57961000I0J-125000D01*
G01*
X108801000Y-59611000D01*
G75*
G02*
X108676000Y-59736000I-125000J0D01*
G01*
X108426000Y-59736000D01*
G75*
G02*
X108301000Y-59611000I0J125000D01*
G01*
X108301000Y-57961000D01*
G75*
G02*
X108426000Y-57836000I125000J0D01*
G01*
G37*
%TD.AperFunction*%
%TO.P,IC1,6*%
%TO.N,/D_e*%
%TA.AperFunction,SMDPad,CuDef*%
G36*
G01*
X109076000Y-57836000D02*
X109326000Y-57836000D01*
G75*
G02*
X109451000Y-57961000I0J-125000D01*
G01*
X109451000Y-59611000D01*
G75*
G02*
X109326000Y-59736000I-125000J0D01*
G01*
X109076000Y-59736000D01*
G75*
G02*
X108951000Y-59611000I0J125000D01*
G01*
X108951000Y-57961000D01*
G75*
G02*
X109076000Y-57836000I125000J0D01*
G01*
G37*
%TD.AperFunction*%
%TO.P,IC1,5*%
%TO.N,/D_f*%
%TA.AperFunction,SMDPad,CuDef*%
G36*
G01*
X109726000Y-57836000D02*
X109976000Y-57836000D01*
G75*
G02*
X110101000Y-57961000I0J-125000D01*
G01*
X110101000Y-59611000D01*
G75*
G02*
X109976000Y-59736000I-125000J0D01*
G01*
X109726000Y-59736000D01*
G75*
G02*
X109601000Y-59611000I0J125000D01*
G01*
X109601000Y-57961000D01*
G75*
G02*
X109726000Y-57836000I125000J0D01*
G01*
G37*
%TD.AperFunction*%
%TO.P,IC1,4*%
%TO.N,/MCLR*%
%TA.AperFunction,SMDPad,CuDef*%
G36*
G01*
X110376000Y-57836000D02*
X110626000Y-57836000D01*
G75*
G02*
X110751000Y-57961000I0J-125000D01*
G01*
X110751000Y-59611000D01*
G75*
G02*
X110626000Y-59736000I-125000J0D01*
G01*
X110376000Y-59736000D01*
G75*
G02*
X110251000Y-59611000I0J125000D01*
G01*
X110251000Y-57961000D01*
G75*
G02*
X110376000Y-57836000I125000J0D01*
G01*
G37*
%TD.AperFunction*%
%TO.P,IC1,3*%
%TO.N,/C_2*%
%TA.AperFunction,SMDPad,CuDef*%
G36*
G01*
X111026000Y-57836000D02*
X111276000Y-57836000D01*
G75*
G02*
X111401000Y-57961000I0J-125000D01*
G01*
X111401000Y-59611000D01*
G75*
G02*
X111276000Y-59736000I-125000J0D01*
G01*
X111026000Y-59736000D01*
G75*
G02*
X110901000Y-59611000I0J125000D01*
G01*
X110901000Y-57961000D01*
G75*
G02*
X111026000Y-57836000I125000J0D01*
G01*
G37*
%TD.AperFunction*%
%TO.P,IC1,2*%
%TO.N,/C_3*%
%TA.AperFunction,SMDPad,CuDef*%
G36*
G01*
X111676000Y-57836000D02*
X111926000Y-57836000D01*
G75*
G02*
X112051000Y-57961000I0J-125000D01*
G01*
X112051000Y-59611000D01*
G75*
G02*
X111926000Y-59736000I-125000J0D01*
G01*
X111676000Y-59736000D01*
G75*
G02*
X111551000Y-59611000I0J125000D01*
G01*
X111551000Y-57961000D01*
G75*
G02*
X111676000Y-57836000I125000J0D01*
G01*
G37*
%TD.AperFunction*%
%TO.P,IC1,1*%
%TO.N,+3V*%
%TA.AperFunction,SMDPad,CuDef*%
G36*
G01*
X112326000Y-57836000D02*
X112576000Y-57836000D01*
G75*
G02*
X112701000Y-57961000I0J-125000D01*
G01*
X112701000Y-59611000D01*
G75*
G02*
X112576000Y-59736000I-125000J0D01*
G01*
X112326000Y-59736000D01*
G75*
G02*
X112201000Y-59611000I0J125000D01*
G01*
X112201000Y-57961000D01*
G75*
G02*
X112326000Y-57836000I125000J0D01*
G01*
G37*
%TD.AperFunction*%
%TD*%
D24*
%TO.N,gnd*%
X113600000Y-67500000D03*
X103800000Y-67000000D03*
X136200000Y-52300000D03*
X127100000Y-52400000D03*
X119000000Y-52500000D03*
X124700000Y-30100000D03*
%TO.N,+3V*%
X116700000Y-62900000D03*
X137500000Y-39800000D03*
X103700000Y-39800000D03*
X117600000Y-29400000D03*
%TO.N,/B_1*%
X112434610Y-63926954D03*
X109200000Y-71400000D03*
X117700000Y-59900000D03*
%TO.N,/D_a*%
X109800000Y-64200000D03*
%TO.N,/D_b*%
X109700000Y-63100000D03*
X124700000Y-65300000D03*
%TO.N,/D_c*%
X109626385Y-40883665D03*
X108500000Y-63200000D03*
%TO.N,/C_4*%
X118400000Y-57100000D03*
X106900000Y-60928547D03*
%TO.N,/D_dp*%
X107200000Y-57200000D03*
%TO.N,/D_g*%
X110000000Y-56900000D03*
X107800000Y-60400000D03*
%TO.N,/D_d*%
X108300000Y-57000000D03*
%TO.N,/D_e*%
X109200000Y-56300000D03*
%TO.N,/D_f*%
X109100000Y-60500000D03*
X103500000Y-52000000D03*
%TO.N,/CC_4*%
X133500000Y-45000000D03*
%TO.N,Net-(R11-Pad1)*%
X120300000Y-65600000D03*
X124500000Y-59400000D03*
%TO.N,/MCLR*%
X111300000Y-68225000D03*
X110600000Y-60400000D03*
X116300000Y-59500000D03*
%TO.N,/I2C_DATA*%
X123200000Y-29480829D03*
X102600000Y-34700000D03*
X107500000Y-63200000D03*
%TO.N,/I2C_SCK*%
X118980829Y-28780829D03*
X137800000Y-34500000D03*
X106200000Y-64300000D03*
%TD*%
D25*
%TO.N,gnd*%
X124526332Y-64043668D02*
X126070000Y-62500000D01*
X122882000Y-64043668D02*
X124526332Y-64043668D01*
X110890000Y-67500000D02*
X113600000Y-67500000D01*
X109360000Y-69030000D02*
X110890000Y-67500000D01*
X114787668Y-65786000D02*
X114930000Y-65643668D01*
X112451000Y-65786000D02*
X114787668Y-65786000D01*
X113600000Y-67500000D02*
X114400000Y-66700000D01*
X114400000Y-66700000D02*
X114500000Y-66700000D01*
X114930000Y-66270000D02*
X114930000Y-65643668D01*
X114500000Y-66700000D02*
X114930000Y-66270000D01*
X103800000Y-65814000D02*
X104032000Y-65582000D01*
X103800000Y-67000000D02*
X103800000Y-65814000D01*
X134441000Y-52300000D02*
X134427000Y-52314000D01*
X136200000Y-52300000D02*
X134441000Y-52300000D01*
X126051666Y-52400000D02*
X125965666Y-52314000D01*
X127100000Y-52400000D02*
X126051666Y-52400000D01*
X117690333Y-52500000D02*
X117504333Y-52314000D01*
X119000000Y-52500000D02*
X117690333Y-52500000D01*
X109043000Y-54373000D02*
X109370000Y-54700000D01*
X109043000Y-52314000D02*
X109043000Y-54373000D01*
X122070000Y-26700000D02*
X120750000Y-26700000D01*
X120750000Y-27555000D02*
X120750000Y-26700000D01*
X120750000Y-27325000D02*
X120750000Y-26700000D01*
X121800000Y-28375000D02*
X120750000Y-27325000D01*
X121800000Y-29360000D02*
X121800000Y-28375000D01*
X124594170Y-30205830D02*
X124700000Y-30100000D01*
X122645830Y-30205830D02*
X124594170Y-30205830D01*
X121800000Y-29360000D02*
X122645830Y-30205830D01*
%TO.N,+3V*%
X112451000Y-59216685D02*
X112451000Y-58786000D01*
X116700000Y-62900000D02*
X116134315Y-62900000D01*
X114990647Y-64043668D02*
X116134315Y-62900000D01*
X114930000Y-64043668D02*
X114990647Y-64043668D01*
X117693668Y-63893668D02*
X116700000Y-62900000D01*
X118906000Y-63893668D02*
X117693668Y-63893668D01*
X112428001Y-70765001D02*
X117100000Y-66093002D01*
X111095001Y-70765001D02*
X112428001Y-70765001D01*
X110630000Y-70300000D02*
X111095001Y-70765001D01*
X117100000Y-64487336D02*
X117693668Y-63893668D01*
X117100000Y-66093002D02*
X117100000Y-64487336D01*
X137500000Y-38230000D02*
X137750000Y-37980000D01*
X137500000Y-39800000D02*
X137500000Y-38230000D01*
X103700000Y-38030000D02*
X103750000Y-37980000D01*
X103700000Y-39800000D02*
X103700000Y-38030000D01*
X118924999Y-27811353D02*
X117936352Y-28800000D01*
X118924999Y-27205001D02*
X118924999Y-27811353D01*
X119430000Y-26700000D02*
X118924999Y-27205001D01*
X117936352Y-29063648D02*
X117600000Y-29400000D01*
X117936352Y-28800000D02*
X117936352Y-29063648D01*
X119760001Y-29799999D02*
X120200000Y-29360000D01*
X117999999Y-29799999D02*
X119760001Y-29799999D01*
X117600000Y-29400000D02*
X117999999Y-29799999D01*
X114852000Y-61348000D02*
X114717158Y-61482842D01*
X114890000Y-61348000D02*
X114852000Y-61348000D01*
X114717158Y-61482842D02*
X112451000Y-59216685D01*
X116134315Y-62900000D02*
X114717158Y-61482842D01*
D26*
%TO.N,/B_1*%
X112434610Y-64202390D02*
X112434610Y-63926954D01*
X111801000Y-64836000D02*
X112434610Y-64202390D01*
X111801000Y-65786000D02*
X111801000Y-64836000D01*
X109200000Y-70460000D02*
X109360000Y-70300000D01*
X109200000Y-71400000D02*
X109200000Y-70460000D01*
X118364000Y-59236000D02*
X117700000Y-59900000D01*
X118866000Y-59236000D02*
X118364000Y-59236000D01*
%TO.N,/D_a*%
X109800000Y-65735000D02*
X109851000Y-65786000D01*
X109800000Y-64200000D02*
X109800000Y-65735000D01*
%TO.N,/D_b*%
X109099999Y-63700001D02*
X109700000Y-63100000D01*
X109099999Y-64536001D02*
X109099999Y-63700001D01*
X109201000Y-64637002D02*
X109099999Y-64536001D01*
X109201000Y-65786000D02*
X109201000Y-64637002D01*
X125265685Y-65300000D02*
X137100000Y-53465685D01*
X124700000Y-65300000D02*
X125265685Y-65300000D01*
X137100000Y-53465685D02*
X137100000Y-46400000D01*
X137100000Y-46400000D02*
X130500000Y-39800000D01*
X130500008Y-35600008D02*
X127130000Y-32230000D01*
X130500008Y-39799992D02*
X130500008Y-35600008D01*
X130500000Y-39800000D02*
X130500008Y-39799992D01*
%TO.N,/D_c*%
X120543665Y-40883665D02*
X109626385Y-40883665D01*
X122050000Y-42390000D02*
X120543665Y-40883665D01*
X108551000Y-63451000D02*
X108551000Y-65786000D01*
X108500000Y-63400000D02*
X108551000Y-63451000D01*
X108500000Y-63200000D02*
X108500000Y-63400000D01*
%TO.N,/C_1*%
X107251000Y-65786000D02*
X107251000Y-64051000D01*
X107251000Y-64051000D02*
X106500000Y-63300000D01*
X106500000Y-63300000D02*
X105700000Y-63300000D01*
X105700000Y-63300000D02*
X105300000Y-62900000D01*
X105300000Y-57796000D02*
X107072000Y-56024000D01*
X105300000Y-62900000D02*
X105300000Y-57796000D01*
%TO.N,/C_2*%
X115533333Y-56024000D02*
X111376000Y-56024000D01*
X111151000Y-56249000D02*
X111151000Y-58786000D01*
X111376000Y-56024000D02*
X111151000Y-56249000D01*
%TO.N,/C_3*%
X112437000Y-57200000D02*
X111801000Y-57836000D01*
X111801000Y-57836000D02*
X111801000Y-58786000D01*
X116900000Y-57200000D02*
X112437000Y-57200000D01*
X118076000Y-56024000D02*
X116900000Y-57200000D01*
X123994666Y-56024000D02*
X118076000Y-56024000D01*
%TO.N,/C_4*%
X132456000Y-56024000D02*
X131380000Y-57100000D01*
X131380000Y-57100000D02*
X118400000Y-57100000D01*
X106601000Y-60629547D02*
X106601000Y-58786000D01*
X106900000Y-60928547D02*
X106601000Y-60629547D01*
%TO.N,/D_dp*%
X107251000Y-57251000D02*
X107200000Y-57200000D01*
X107251000Y-58786000D02*
X107251000Y-57251000D01*
%TO.N,/D_g*%
X107901000Y-60299000D02*
X107901000Y-58786000D01*
X107800000Y-60400000D02*
X107901000Y-60299000D01*
%TO.N,/D_d*%
X108551000Y-57251000D02*
X108551000Y-58786000D01*
X108300000Y-57000000D02*
X108551000Y-57251000D01*
%TO.N,/D_e*%
X109200000Y-58785000D02*
X109201000Y-58786000D01*
X109200000Y-56300000D02*
X109200000Y-58785000D01*
%TO.N,/D_f*%
X109851000Y-59749000D02*
X109100000Y-60500000D01*
X109851000Y-58786000D02*
X109851000Y-59749000D01*
X103500000Y-52000000D02*
X103500000Y-43700000D01*
X103500000Y-43700000D02*
X106800000Y-40400000D01*
X106800000Y-34834302D02*
X111034302Y-30600000D01*
X106800000Y-40400000D02*
X106800000Y-34834302D01*
X117880000Y-30600000D02*
X119510000Y-32230000D01*
X111034302Y-30600000D02*
X117880000Y-30600000D01*
%TO.N,Net-(LED1-Pad2)*%
X104032000Y-61683000D02*
X104066000Y-61649000D01*
X104032000Y-63682000D02*
X104032000Y-61683000D01*
%TO.N,Net-(Q1-Pad3)*%
X108088000Y-50214000D02*
X108088000Y-48404000D01*
%TO.N,Net-(Q1-Pad1)*%
X107133000Y-54063000D02*
X107072000Y-54124000D01*
X107133000Y-52314000D02*
X107133000Y-54063000D01*
%TO.N,Net-(Q2-Pad3)*%
X116549333Y-50214000D02*
X116549333Y-48404000D01*
%TO.N,Net-(Q2-Pad1)*%
X115594333Y-54063000D02*
X115533333Y-54124000D01*
X115594333Y-52314000D02*
X115594333Y-54063000D01*
%TO.N,Net-(Q3-Pad3)*%
X125010666Y-50214000D02*
X125010666Y-48404000D01*
%TO.N,Net-(Q3-Pad1)*%
X124055666Y-54063000D02*
X123994666Y-54124000D01*
X124055666Y-52314000D02*
X124055666Y-54063000D01*
%TO.N,Net-(Q4-Pad3)*%
X133472000Y-50214000D02*
X133472000Y-48404000D01*
%TO.N,Net-(Q4-Pad1)*%
X132517000Y-54063000D02*
X132456000Y-54124000D01*
X132517000Y-52314000D02*
X132517000Y-54063000D01*
%TO.N,/CC_1*%
X108088000Y-46504000D02*
X108088000Y-34112000D01*
X109970000Y-32230000D02*
X114430000Y-32230000D01*
X108088000Y-34112000D02*
X109970000Y-32230000D01*
%TO.N,/CC_2*%
X122050000Y-32230000D02*
X122050000Y-34650000D01*
X122050000Y-34650000D02*
X121100000Y-35600000D01*
X110800000Y-35600000D02*
X108900000Y-37500000D01*
X121100000Y-35600000D02*
X110800000Y-35600000D01*
X108900000Y-37500000D02*
X108900000Y-43500000D01*
X111904000Y-46504000D02*
X116549333Y-46504000D01*
X108900000Y-43500000D02*
X111904000Y-46504000D01*
%TO.N,/CC_3*%
X125010666Y-46504000D02*
X127896000Y-46504000D01*
X127896000Y-46504000D02*
X130100000Y-44300000D01*
X130100000Y-44300000D02*
X130100000Y-37100000D01*
X130100000Y-37100000D02*
X128500000Y-35500000D01*
X128500000Y-35500000D02*
X125800000Y-35500000D01*
X124590000Y-34290000D02*
X124590000Y-32230000D01*
X125800000Y-35500000D02*
X124590000Y-34290000D01*
%TO.N,/CC_4*%
X133500000Y-46476000D02*
X133472000Y-46504000D01*
X133500000Y-45000000D02*
X133500000Y-46476000D01*
%TO.N,Net-(R11-Pad1)*%
X120106332Y-65793668D02*
X120300000Y-65600000D01*
X118906000Y-65793668D02*
X120106332Y-65793668D01*
X122890000Y-59400000D02*
X122842000Y-59448000D01*
X124500000Y-59400000D02*
X122890000Y-59400000D01*
%TO.N,/MCLR*%
X110630000Y-68895000D02*
X111300000Y-68225000D01*
X110630000Y-69030000D02*
X110630000Y-68895000D01*
X110600000Y-58885000D02*
X110501000Y-58786000D01*
X110600000Y-60400000D02*
X110600000Y-58885000D01*
X114942000Y-59500000D02*
X114890000Y-59448000D01*
X116300000Y-59500000D02*
X114942000Y-59500000D01*
%TO.N,Net-(C2-Pad1)*%
X122630000Y-61560000D02*
X122842000Y-61348000D01*
X118866000Y-61560000D02*
X122630000Y-61560000D01*
X122842000Y-61348000D02*
X122842000Y-62558000D01*
X122582666Y-62558000D02*
X121500000Y-63640666D01*
X122842000Y-62558000D02*
X122582666Y-62558000D01*
X121947000Y-65643668D02*
X122882000Y-65643668D01*
X121500000Y-65196668D02*
X121947000Y-65643668D01*
X121500000Y-63640666D02*
X121500000Y-65196668D01*
%TO.N,/PGC*%
X110045010Y-67074990D02*
X108090000Y-69030000D01*
X110812010Y-67074990D02*
X110045010Y-67074990D01*
X111151000Y-66736000D02*
X110812010Y-67074990D01*
X111151000Y-65786000D02*
X111151000Y-66736000D01*
X104066000Y-59749000D02*
X104066000Y-59834000D01*
X104066000Y-59834000D02*
X102700000Y-61200000D01*
X103463999Y-67700001D02*
X105299999Y-67700001D01*
X102700000Y-66936002D02*
X103463999Y-67700001D01*
X102700000Y-61200000D02*
X102700000Y-66936002D01*
X105426001Y-67573999D02*
X107473999Y-67573999D01*
X105299999Y-67700001D02*
X105426001Y-67573999D01*
X108090000Y-68190000D02*
X108090000Y-69030000D01*
X107473999Y-67573999D02*
X108090000Y-68190000D01*
%TO.N,/I2C_DATA*%
X122450000Y-27700000D02*
X123000000Y-28250000D01*
X122070000Y-27700000D02*
X122450000Y-27700000D01*
X123000000Y-29280829D02*
X123200000Y-29480829D01*
X123000000Y-28250000D02*
X123000000Y-29280829D01*
X102600000Y-34930000D02*
X103750000Y-36080000D01*
X102600000Y-34700000D02*
X102600000Y-34930000D01*
X107901000Y-63601000D02*
X107500000Y-63200000D01*
X107901000Y-65786000D02*
X107901000Y-63601000D01*
%TO.N,/I2C_SCK*%
X119430000Y-28331658D02*
X118980829Y-28780829D01*
X119430000Y-27700000D02*
X119430000Y-28331658D01*
X137800000Y-36030000D02*
X137750000Y-36080000D01*
X137800000Y-34500000D02*
X137800000Y-36030000D01*
X106601000Y-64701000D02*
X106200000Y-64300000D01*
X106601000Y-65786000D02*
X106601000Y-64701000D01*
%TD*%
D27*
%TO.N,gnd*%
X116604774Y-29098102D02*
X116565000Y-29298061D01*
X116565000Y-29501939D01*
X116604774Y-29701898D01*
X116672334Y-29865000D01*
X111070396Y-29865000D01*
X111034301Y-29861445D01*
X110998206Y-29865000D01*
X110998197Y-29865000D01*
X110890217Y-29875635D01*
X110751669Y-29917663D01*
X110623982Y-29985913D01*
X110512064Y-30077762D01*
X110489048Y-30105807D01*
X106305808Y-34289048D01*
X106277763Y-34312064D01*
X106185914Y-34423982D01*
X106180514Y-34434085D01*
X106117664Y-34551669D01*
X106075635Y-34690217D01*
X106061444Y-34834302D01*
X106065001Y-34870417D01*
X106065000Y-40095553D01*
X103005808Y-43154746D01*
X102977763Y-43177762D01*
X102885914Y-43289680D01*
X102850511Y-43355915D01*
X102817664Y-43417367D01*
X102775635Y-43555915D01*
X102761444Y-43700000D01*
X102765001Y-43736115D01*
X102765000Y-51271289D01*
X102696063Y-51340226D01*
X102582795Y-51509744D01*
X102504774Y-51698102D01*
X102465000Y-51898061D01*
X102465000Y-52101939D01*
X102504774Y-52301898D01*
X102582795Y-52490256D01*
X102696063Y-52659774D01*
X102840226Y-52803937D01*
X103009744Y-52917205D01*
X103198102Y-52995226D01*
X103398061Y-53035000D01*
X103601939Y-53035000D01*
X103801898Y-52995226D01*
X103990256Y-52917205D01*
X104159774Y-52803937D01*
X104303937Y-52659774D01*
X104417205Y-52490256D01*
X104495226Y-52301898D01*
X104535000Y-52101939D01*
X104535000Y-51898061D01*
X104495226Y-51698102D01*
X104417205Y-51509744D01*
X104303937Y-51340226D01*
X104235000Y-51271289D01*
X104235000Y-44004446D01*
X107294197Y-40945250D01*
X107322237Y-40922238D01*
X107345250Y-40894197D01*
X107345253Y-40894194D01*
X107353000Y-40884754D01*
X107353000Y-45366913D01*
X107238518Y-45378188D01*
X107118820Y-45414498D01*
X107008506Y-45473463D01*
X106911815Y-45552815D01*
X106832463Y-45649506D01*
X106773498Y-45759820D01*
X106737188Y-45879518D01*
X106724928Y-46004000D01*
X106724928Y-47004000D01*
X106737188Y-47128482D01*
X106773498Y-47248180D01*
X106832463Y-47358494D01*
X106910842Y-47454000D01*
X106832463Y-47549506D01*
X106773498Y-47659820D01*
X106737188Y-47779518D01*
X106724928Y-47904000D01*
X106724928Y-48904000D01*
X106737188Y-49028482D01*
X106773498Y-49148180D01*
X106832463Y-49258494D01*
X106911815Y-49355185D01*
X107008506Y-49434537D01*
X107118820Y-49493502D01*
X107158158Y-49505435D01*
X107149928Y-49589000D01*
X107149928Y-50839000D01*
X107162188Y-50963482D01*
X107188714Y-51050928D01*
X106833000Y-51050928D01*
X106708518Y-51063188D01*
X106588820Y-51099498D01*
X106478506Y-51158463D01*
X106381815Y-51237815D01*
X106302463Y-51334506D01*
X106243498Y-51444820D01*
X106207188Y-51564518D01*
X106194928Y-51689000D01*
X106194928Y-52939000D01*
X106201389Y-53004598D01*
X106102820Y-53034498D01*
X105992506Y-53093463D01*
X105895815Y-53172815D01*
X105816463Y-53269506D01*
X105757498Y-53379820D01*
X105721188Y-53499518D01*
X105708928Y-53624000D01*
X105708928Y-54624000D01*
X105721188Y-54748482D01*
X105757498Y-54868180D01*
X105816463Y-54978494D01*
X105894842Y-55074000D01*
X105816463Y-55169506D01*
X105757498Y-55279820D01*
X105721188Y-55399518D01*
X105708928Y-55524000D01*
X105708928Y-56347625D01*
X104805808Y-57250746D01*
X104777763Y-57273762D01*
X104685914Y-57385680D01*
X104666807Y-57421427D01*
X104617664Y-57513367D01*
X104575635Y-57651915D01*
X104561444Y-57796000D01*
X104565001Y-57832115D01*
X104565001Y-58610928D01*
X103341000Y-58610928D01*
X103216518Y-58623188D01*
X103096820Y-58659498D01*
X102986506Y-58718463D01*
X102889815Y-58797815D01*
X102810463Y-58894506D01*
X102751498Y-59004820D01*
X102715188Y-59124518D01*
X102702928Y-59249000D01*
X102702928Y-60157626D01*
X102205808Y-60654746D01*
X102177762Y-60677763D01*
X102085913Y-60789681D01*
X102017663Y-60917368D01*
X101998258Y-60981337D01*
X101975635Y-61055915D01*
X101961444Y-61200000D01*
X101965000Y-61236105D01*
X101965001Y-66899887D01*
X101961444Y-66936002D01*
X101975635Y-67080087D01*
X102013773Y-67205807D01*
X102017664Y-67218635D01*
X102085914Y-67346322D01*
X102177763Y-67458240D01*
X102205808Y-67481256D01*
X102918745Y-68194194D01*
X102941761Y-68222239D01*
X102969805Y-68245254D01*
X103053679Y-68314088D01*
X103181365Y-68382338D01*
X103319914Y-68424366D01*
X103463999Y-68438557D01*
X103500104Y-68435001D01*
X105263894Y-68435001D01*
X105299999Y-68438557D01*
X105336104Y-68435001D01*
X105426719Y-68426076D01*
X105410000Y-68510127D01*
X105410000Y-68787873D01*
X105464186Y-69060282D01*
X105570475Y-69316885D01*
X105724782Y-69547822D01*
X105841960Y-69665000D01*
X105724782Y-69782178D01*
X105570475Y-70013115D01*
X105464186Y-70269718D01*
X105410000Y-70542127D01*
X105410000Y-70819873D01*
X105464186Y-71092282D01*
X105570475Y-71348885D01*
X105724782Y-71579822D01*
X105921178Y-71776218D01*
X106152115Y-71930525D01*
X106408718Y-72036814D01*
X106681127Y-72091000D01*
X106958873Y-72091000D01*
X107231282Y-72036814D01*
X107487885Y-71930525D01*
X107718822Y-71776218D01*
X107915218Y-71579822D01*
X108049069Y-71379500D01*
X108165000Y-71379500D01*
X108165000Y-71501939D01*
X108204774Y-71701898D01*
X108282795Y-71890256D01*
X108396063Y-72059774D01*
X108540226Y-72203937D01*
X108709744Y-72317205D01*
X108898102Y-72395226D01*
X109098061Y-72435000D01*
X109301939Y-72435000D01*
X109501898Y-72395226D01*
X109690256Y-72317205D01*
X109859774Y-72203937D01*
X110003937Y-72059774D01*
X110117205Y-71890256D01*
X110195226Y-71701898D01*
X110235000Y-71501939D01*
X110235000Y-71304827D01*
X110315122Y-71338015D01*
X110523679Y-71379500D01*
X110645776Y-71379500D01*
X110670725Y-71399975D01*
X110802754Y-71470547D01*
X110946015Y-71514004D01*
X111057668Y-71525001D01*
X111057676Y-71525001D01*
X111095001Y-71528677D01*
X111132326Y-71525001D01*
X112390679Y-71525001D01*
X112428001Y-71528677D01*
X112465323Y-71525001D01*
X112465334Y-71525001D01*
X112576987Y-71514004D01*
X112720248Y-71470547D01*
X112852277Y-71399975D01*
X112968002Y-71305002D01*
X112991805Y-71275998D01*
X115685886Y-68581917D01*
X125167688Y-68581917D01*
X125254393Y-68838653D01*
X125531223Y-68972048D01*
X125828757Y-69048873D01*
X126135562Y-69066176D01*
X126439848Y-69023292D01*
X126729921Y-68921868D01*
X126885607Y-68838653D01*
X126972312Y-68581917D01*
X126070000Y-67679605D01*
X125167688Y-68581917D01*
X115685886Y-68581917D01*
X116702241Y-67565562D01*
X124503824Y-67565562D01*
X124546708Y-67869848D01*
X124648132Y-68159921D01*
X124731347Y-68315607D01*
X124988083Y-68402312D01*
X125890395Y-67500000D01*
X126249605Y-67500000D01*
X127151917Y-68402312D01*
X127408653Y-68315607D01*
X127542048Y-68038777D01*
X127618873Y-67741243D01*
X127636176Y-67434438D01*
X127593292Y-67130152D01*
X127491868Y-66840079D01*
X127408653Y-66684393D01*
X127151917Y-66597688D01*
X126249605Y-67500000D01*
X125890395Y-67500000D01*
X124988083Y-66597688D01*
X124731347Y-66684393D01*
X124597952Y-66961223D01*
X124521127Y-67258757D01*
X124503824Y-67565562D01*
X116702241Y-67565562D01*
X117611004Y-66656800D01*
X117640001Y-66633003D01*
X117641430Y-66631262D01*
X117650463Y-66648162D01*
X117729815Y-66744853D01*
X117826506Y-66824205D01*
X117936820Y-66883170D01*
X118056518Y-66919480D01*
X118181000Y-66931740D01*
X119631000Y-66931740D01*
X119755482Y-66919480D01*
X119875180Y-66883170D01*
X119985494Y-66824205D01*
X120082185Y-66744853D01*
X120161537Y-66648162D01*
X120171406Y-66629698D01*
X120198061Y-66635000D01*
X120401939Y-66635000D01*
X120601898Y-66595226D01*
X120790256Y-66517205D01*
X120959774Y-66403937D01*
X121103937Y-66259774D01*
X121217205Y-66090256D01*
X121257313Y-65993427D01*
X121401741Y-66137855D01*
X121424762Y-66165906D01*
X121517640Y-66242130D01*
X121521188Y-66278150D01*
X121557498Y-66397848D01*
X121616463Y-66508162D01*
X121695815Y-66604853D01*
X121792506Y-66684205D01*
X121902820Y-66743170D01*
X122022518Y-66779480D01*
X122147000Y-66791740D01*
X123617000Y-66791740D01*
X123741482Y-66779480D01*
X123861180Y-66743170D01*
X123971494Y-66684205D01*
X124068185Y-66604853D01*
X124147537Y-66508162D01*
X124206502Y-66397848D01*
X124242812Y-66278150D01*
X124247283Y-66232754D01*
X124398102Y-66295226D01*
X124598061Y-66335000D01*
X124801939Y-66335000D01*
X125001898Y-66295226D01*
X125190256Y-66217205D01*
X125248722Y-66178139D01*
X125167688Y-66418083D01*
X126070000Y-67320395D01*
X126972312Y-66418083D01*
X126885607Y-66161347D01*
X126608777Y-66027952D01*
X126311243Y-65951127D01*
X126004438Y-65933824D01*
X125700152Y-65976708D01*
X125410079Y-66078132D01*
X125351670Y-66109352D01*
X125359774Y-66103937D01*
X125452224Y-66011487D01*
X125548318Y-65982337D01*
X125676005Y-65914087D01*
X125787923Y-65822238D01*
X125810944Y-65794187D01*
X137594198Y-54010934D01*
X137622237Y-53987923D01*
X137645250Y-53959882D01*
X137645253Y-53959879D01*
X137714087Y-53876005D01*
X137765206Y-53780367D01*
X137782337Y-53748318D01*
X137824365Y-53609770D01*
X137835000Y-53501790D01*
X137835000Y-53501789D01*
X137838556Y-53465685D01*
X137835000Y-53429580D01*
X137835000Y-46436105D01*
X137838556Y-46400000D01*
X137824365Y-46255915D01*
X137782337Y-46117366D01*
X137714087Y-45989680D01*
X137645253Y-45905806D01*
X137622238Y-45877762D01*
X137594193Y-45854746D01*
X131235008Y-39495562D01*
X131235008Y-35636112D01*
X131238564Y-35600007D01*
X131236594Y-35580000D01*
X136386928Y-35580000D01*
X136386928Y-36580000D01*
X136399188Y-36704482D01*
X136435498Y-36824180D01*
X136494463Y-36934494D01*
X136572842Y-37030000D01*
X136494463Y-37125506D01*
X136435498Y-37235820D01*
X136399188Y-37355518D01*
X136386928Y-37480000D01*
X136386928Y-38480000D01*
X136399188Y-38604482D01*
X136435498Y-38724180D01*
X136494463Y-38834494D01*
X136573815Y-38931185D01*
X136670506Y-39010537D01*
X136740000Y-39047683D01*
X136740000Y-39096289D01*
X136696063Y-39140226D01*
X136582795Y-39309744D01*
X136504774Y-39498102D01*
X136465000Y-39698061D01*
X136465000Y-39901939D01*
X136504774Y-40101898D01*
X136582795Y-40290256D01*
X136696063Y-40459774D01*
X136840226Y-40603937D01*
X137009744Y-40717205D01*
X137198102Y-40795226D01*
X137398061Y-40835000D01*
X137601939Y-40835000D01*
X137801898Y-40795226D01*
X137990256Y-40717205D01*
X138159774Y-40603937D01*
X138303937Y-40459774D01*
X138417205Y-40290256D01*
X138495226Y-40101898D01*
X138535000Y-39901939D01*
X138535000Y-39698061D01*
X138495226Y-39498102D01*
X138417205Y-39309744D01*
X138303937Y-39140226D01*
X138281783Y-39118072D01*
X138475000Y-39118072D01*
X138599482Y-39105812D01*
X138719180Y-39069502D01*
X138829494Y-39010537D01*
X138926185Y-38931185D01*
X139005537Y-38834494D01*
X139064502Y-38724180D01*
X139100812Y-38604482D01*
X139113072Y-38480000D01*
X139113072Y-37480000D01*
X139100812Y-37355518D01*
X139064502Y-37235820D01*
X139005537Y-37125506D01*
X138927158Y-37030000D01*
X139005537Y-36934494D01*
X139064502Y-36824180D01*
X139100812Y-36704482D01*
X139113072Y-36580000D01*
X139113072Y-35580000D01*
X139100812Y-35455518D01*
X139064502Y-35335820D01*
X139005537Y-35225506D01*
X138926185Y-35128815D01*
X138829494Y-35049463D01*
X138719180Y-34990498D01*
X138717336Y-34989939D01*
X138795226Y-34801898D01*
X138835000Y-34601939D01*
X138835000Y-34398061D01*
X138795226Y-34198102D01*
X138717205Y-34009744D01*
X138603937Y-33840226D01*
X138459774Y-33696063D01*
X138290256Y-33582795D01*
X138101898Y-33504774D01*
X137901939Y-33465000D01*
X137698061Y-33465000D01*
X137498102Y-33504774D01*
X137309744Y-33582795D01*
X137140226Y-33696063D01*
X136996063Y-33840226D01*
X136882795Y-34009744D01*
X136804774Y-34198102D01*
X136765000Y-34398061D01*
X136765000Y-34601939D01*
X136804774Y-34801898D01*
X136871501Y-34962990D01*
X136780820Y-34990498D01*
X136670506Y-35049463D01*
X136573815Y-35128815D01*
X136494463Y-35225506D01*
X136435498Y-35335820D01*
X136399188Y-35455518D01*
X136386928Y-35580000D01*
X131236594Y-35580000D01*
X131224373Y-35455922D01*
X131201207Y-35379555D01*
X131182345Y-35317375D01*
X131114095Y-35189688D01*
X131022246Y-35077770D01*
X130994201Y-35054754D01*
X128480301Y-32540855D01*
X128515000Y-32366411D01*
X128515000Y-32093589D01*
X128461775Y-31826011D01*
X128357371Y-31573957D01*
X128205799Y-31347114D01*
X128012886Y-31154201D01*
X127786043Y-31002629D01*
X127533989Y-30898225D01*
X127266411Y-30845000D01*
X126993589Y-30845000D01*
X126726011Y-30898225D01*
X126473957Y-31002629D01*
X126247114Y-31154201D01*
X126054201Y-31347114D01*
X125902629Y-31573957D01*
X125860000Y-31676873D01*
X125817371Y-31573957D01*
X125665799Y-31347114D01*
X125472886Y-31154201D01*
X125246043Y-31002629D01*
X124993989Y-30898225D01*
X124726411Y-30845000D01*
X124453589Y-30845000D01*
X124186011Y-30898225D01*
X123933957Y-31002629D01*
X123707114Y-31154201D01*
X123514201Y-31347114D01*
X123362629Y-31573957D01*
X123320000Y-31676873D01*
X123277371Y-31573957D01*
X123125799Y-31347114D01*
X122932886Y-31154201D01*
X122706043Y-31002629D01*
X122453989Y-30898225D01*
X122186411Y-30845000D01*
X121913589Y-30845000D01*
X121646011Y-30898225D01*
X121393957Y-31002629D01*
X121167114Y-31154201D01*
X120974201Y-31347114D01*
X120822629Y-31573957D01*
X120780000Y-31676873D01*
X120737371Y-31573957D01*
X120585799Y-31347114D01*
X120392886Y-31154201D01*
X120166043Y-31002629D01*
X119913989Y-30898225D01*
X119646411Y-30845000D01*
X119373589Y-30845000D01*
X119199146Y-30879699D01*
X118879445Y-30559999D01*
X119255647Y-30559999D01*
X119335506Y-30625537D01*
X119445820Y-30684502D01*
X119565518Y-30720812D01*
X119690000Y-30733072D01*
X120710000Y-30733072D01*
X120834482Y-30720812D01*
X120954180Y-30684502D01*
X121000000Y-30660010D01*
X121045820Y-30684502D01*
X121165518Y-30720812D01*
X121290000Y-30733072D01*
X121514250Y-30730000D01*
X121673000Y-30571250D01*
X121673000Y-29487000D01*
X121653000Y-29487000D01*
X121653000Y-29233000D01*
X121673000Y-29233000D01*
X121673000Y-29213000D01*
X121927000Y-29213000D01*
X121927000Y-29233000D01*
X121947000Y-29233000D01*
X121947000Y-29487000D01*
X121927000Y-29487000D01*
X121927000Y-30571250D01*
X122085750Y-30730000D01*
X122310000Y-30733072D01*
X122434482Y-30720812D01*
X122554180Y-30684502D01*
X122664494Y-30625537D01*
X122761185Y-30546185D01*
X122838873Y-30451521D01*
X122898102Y-30476055D01*
X123098061Y-30515829D01*
X123301939Y-30515829D01*
X123501898Y-30476055D01*
X123690256Y-30398034D01*
X123859774Y-30284766D01*
X124003937Y-30140603D01*
X124117205Y-29971085D01*
X124195226Y-29782727D01*
X124235000Y-29582768D01*
X124235000Y-29378890D01*
X124195226Y-29178931D01*
X124117205Y-28990573D01*
X124096777Y-28960000D01*
X138715279Y-28960000D01*
X138999899Y-28987907D01*
X139240285Y-29060484D01*
X139461991Y-29178368D01*
X139656577Y-29337068D01*
X139816635Y-29530545D01*
X139936064Y-29751424D01*
X140010317Y-29991297D01*
X140040000Y-30273716D01*
X140040001Y-61972420D01*
X139952454Y-61761063D01*
X139781731Y-61505558D01*
X139564442Y-61288269D01*
X139308937Y-61117546D01*
X139025035Y-60999950D01*
X138723647Y-60940000D01*
X138416353Y-60940000D01*
X138114965Y-60999950D01*
X137831063Y-61117546D01*
X137575558Y-61288269D01*
X137358269Y-61505558D01*
X137187546Y-61761063D01*
X137069950Y-62044965D01*
X137010000Y-62346353D01*
X137010000Y-62653647D01*
X137069950Y-62955035D01*
X137187546Y-63238937D01*
X137358269Y-63494442D01*
X137575558Y-63711731D01*
X137831063Y-63882454D01*
X138114965Y-64000050D01*
X138416353Y-64060000D01*
X138723647Y-64060000D01*
X139025035Y-64000050D01*
X139308937Y-63882454D01*
X139564442Y-63711731D01*
X139781731Y-63494442D01*
X139952454Y-63238937D01*
X140040001Y-63027580D01*
X140040001Y-66972420D01*
X139952454Y-66761063D01*
X139781731Y-66505558D01*
X139564442Y-66288269D01*
X139308937Y-66117546D01*
X139025035Y-65999950D01*
X138723647Y-65940000D01*
X138416353Y-65940000D01*
X138114965Y-65999950D01*
X137831063Y-66117546D01*
X137575558Y-66288269D01*
X137358269Y-66505558D01*
X137187546Y-66761063D01*
X137069950Y-67044965D01*
X137010000Y-67346353D01*
X137010000Y-67653647D01*
X137069950Y-67955035D01*
X137187546Y-68238937D01*
X137358269Y-68494442D01*
X137575558Y-68711731D01*
X137831063Y-68882454D01*
X138114965Y-69000050D01*
X138416353Y-69060000D01*
X138723647Y-69060000D01*
X139025035Y-69000050D01*
X139308937Y-68882454D01*
X139564442Y-68711731D01*
X139781731Y-68494442D01*
X139952454Y-68238937D01*
X140040001Y-68027580D01*
X140040001Y-71215269D01*
X140012093Y-71499899D01*
X139939517Y-71740282D01*
X139821633Y-71961989D01*
X139662929Y-72156580D01*
X139469455Y-72316635D01*
X139248576Y-72436064D01*
X139008701Y-72510317D01*
X138726291Y-72540000D01*
X102784721Y-72540000D01*
X102500101Y-72512093D01*
X102259718Y-72439517D01*
X102038011Y-72321633D01*
X101843420Y-72162929D01*
X101683365Y-71969455D01*
X101563936Y-71748576D01*
X101489683Y-71508701D01*
X101460000Y-71226291D01*
X101460000Y-34598061D01*
X101565000Y-34598061D01*
X101565000Y-34801939D01*
X101604774Y-35001898D01*
X101682795Y-35190256D01*
X101796063Y-35359774D01*
X101940226Y-35503937D01*
X102109744Y-35617205D01*
X102298102Y-35695226D01*
X102332652Y-35702098D01*
X102386928Y-35756374D01*
X102386928Y-36580000D01*
X102399188Y-36704482D01*
X102435498Y-36824180D01*
X102494463Y-36934494D01*
X102572842Y-37030000D01*
X102494463Y-37125506D01*
X102435498Y-37235820D01*
X102399188Y-37355518D01*
X102386928Y-37480000D01*
X102386928Y-38480000D01*
X102399188Y-38604482D01*
X102435498Y-38724180D01*
X102494463Y-38834494D01*
X102573815Y-38931185D01*
X102670506Y-39010537D01*
X102780820Y-39069502D01*
X102900518Y-39105812D01*
X102927791Y-39108498D01*
X102896063Y-39140226D01*
X102782795Y-39309744D01*
X102704774Y-39498102D01*
X102665000Y-39698061D01*
X102665000Y-39901939D01*
X102704774Y-40101898D01*
X102782795Y-40290256D01*
X102896063Y-40459774D01*
X103040226Y-40603937D01*
X103209744Y-40717205D01*
X103398102Y-40795226D01*
X103598061Y-40835000D01*
X103801939Y-40835000D01*
X104001898Y-40795226D01*
X104190256Y-40717205D01*
X104359774Y-40603937D01*
X104503937Y-40459774D01*
X104617205Y-40290256D01*
X104695226Y-40101898D01*
X104735000Y-39901939D01*
X104735000Y-39698061D01*
X104695226Y-39498102D01*
X104617205Y-39309744D01*
X104503937Y-39140226D01*
X104481175Y-39117464D01*
X104599482Y-39105812D01*
X104719180Y-39069502D01*
X104829494Y-39010537D01*
X104926185Y-38931185D01*
X105005537Y-38834494D01*
X105064502Y-38724180D01*
X105100812Y-38604482D01*
X105113072Y-38480000D01*
X105113072Y-37480000D01*
X105100812Y-37355518D01*
X105064502Y-37235820D01*
X105005537Y-37125506D01*
X104927158Y-37030000D01*
X105005537Y-36934494D01*
X105064502Y-36824180D01*
X105100812Y-36704482D01*
X105113072Y-36580000D01*
X105113072Y-35580000D01*
X105100812Y-35455518D01*
X105064502Y-35335820D01*
X105005537Y-35225506D01*
X104926185Y-35128815D01*
X104829494Y-35049463D01*
X104719180Y-34990498D01*
X104599482Y-34954188D01*
X104475000Y-34941928D01*
X103651374Y-34941928D01*
X103614491Y-34905045D01*
X103635000Y-34801939D01*
X103635000Y-34598061D01*
X103595226Y-34398102D01*
X103517205Y-34209744D01*
X103403937Y-34040226D01*
X103259774Y-33896063D01*
X103090256Y-33782795D01*
X102901898Y-33704774D01*
X102701939Y-33665000D01*
X102498061Y-33665000D01*
X102298102Y-33704774D01*
X102109744Y-33782795D01*
X101940226Y-33896063D01*
X101796063Y-34040226D01*
X101682795Y-34209744D01*
X101604774Y-34398102D01*
X101565000Y-34598061D01*
X101460000Y-34598061D01*
X101460000Y-30284721D01*
X101487907Y-30000101D01*
X101560484Y-29759715D01*
X101678368Y-29538009D01*
X101837068Y-29343423D01*
X102030545Y-29183365D01*
X102251424Y-29063936D01*
X102491297Y-28989683D01*
X102773716Y-28960000D01*
X116661978Y-28960000D01*
X116604774Y-29098102D01*
%TA.AperFunction,Conductor*%
D28*
G36*
X116604774Y-29098102D02*
G01*
X116565000Y-29298061D01*
X116565000Y-29501939D01*
X116604774Y-29701898D01*
X116672334Y-29865000D01*
X111070396Y-29865000D01*
X111034301Y-29861445D01*
X110998206Y-29865000D01*
X110998197Y-29865000D01*
X110890217Y-29875635D01*
X110751669Y-29917663D01*
X110623982Y-29985913D01*
X110512064Y-30077762D01*
X110489048Y-30105807D01*
X106305808Y-34289048D01*
X106277763Y-34312064D01*
X106185914Y-34423982D01*
X106180514Y-34434085D01*
X106117664Y-34551669D01*
X106075635Y-34690217D01*
X106061444Y-34834302D01*
X106065001Y-34870417D01*
X106065000Y-40095553D01*
X103005808Y-43154746D01*
X102977763Y-43177762D01*
X102885914Y-43289680D01*
X102850511Y-43355915D01*
X102817664Y-43417367D01*
X102775635Y-43555915D01*
X102761444Y-43700000D01*
X102765001Y-43736115D01*
X102765000Y-51271289D01*
X102696063Y-51340226D01*
X102582795Y-51509744D01*
X102504774Y-51698102D01*
X102465000Y-51898061D01*
X102465000Y-52101939D01*
X102504774Y-52301898D01*
X102582795Y-52490256D01*
X102696063Y-52659774D01*
X102840226Y-52803937D01*
X103009744Y-52917205D01*
X103198102Y-52995226D01*
X103398061Y-53035000D01*
X103601939Y-53035000D01*
X103801898Y-52995226D01*
X103990256Y-52917205D01*
X104159774Y-52803937D01*
X104303937Y-52659774D01*
X104417205Y-52490256D01*
X104495226Y-52301898D01*
X104535000Y-52101939D01*
X104535000Y-51898061D01*
X104495226Y-51698102D01*
X104417205Y-51509744D01*
X104303937Y-51340226D01*
X104235000Y-51271289D01*
X104235000Y-44004446D01*
X107294197Y-40945250D01*
X107322237Y-40922238D01*
X107345250Y-40894197D01*
X107345253Y-40894194D01*
X107353000Y-40884754D01*
X107353000Y-45366913D01*
X107238518Y-45378188D01*
X107118820Y-45414498D01*
X107008506Y-45473463D01*
X106911815Y-45552815D01*
X106832463Y-45649506D01*
X106773498Y-45759820D01*
X106737188Y-45879518D01*
X106724928Y-46004000D01*
X106724928Y-47004000D01*
X106737188Y-47128482D01*
X106773498Y-47248180D01*
X106832463Y-47358494D01*
X106910842Y-47454000D01*
X106832463Y-47549506D01*
X106773498Y-47659820D01*
X106737188Y-47779518D01*
X106724928Y-47904000D01*
X106724928Y-48904000D01*
X106737188Y-49028482D01*
X106773498Y-49148180D01*
X106832463Y-49258494D01*
X106911815Y-49355185D01*
X107008506Y-49434537D01*
X107118820Y-49493502D01*
X107158158Y-49505435D01*
X107149928Y-49589000D01*
X107149928Y-50839000D01*
X107162188Y-50963482D01*
X107188714Y-51050928D01*
X106833000Y-51050928D01*
X106708518Y-51063188D01*
X106588820Y-51099498D01*
X106478506Y-51158463D01*
X106381815Y-51237815D01*
X106302463Y-51334506D01*
X106243498Y-51444820D01*
X106207188Y-51564518D01*
X106194928Y-51689000D01*
X106194928Y-52939000D01*
X106201389Y-53004598D01*
X106102820Y-53034498D01*
X105992506Y-53093463D01*
X105895815Y-53172815D01*
X105816463Y-53269506D01*
X105757498Y-53379820D01*
X105721188Y-53499518D01*
X105708928Y-53624000D01*
X105708928Y-54624000D01*
X105721188Y-54748482D01*
X105757498Y-54868180D01*
X105816463Y-54978494D01*
X105894842Y-55074000D01*
X105816463Y-55169506D01*
X105757498Y-55279820D01*
X105721188Y-55399518D01*
X105708928Y-55524000D01*
X105708928Y-56347625D01*
X104805808Y-57250746D01*
X104777763Y-57273762D01*
X104685914Y-57385680D01*
X104666807Y-57421427D01*
X104617664Y-57513367D01*
X104575635Y-57651915D01*
X104561444Y-57796000D01*
X104565001Y-57832115D01*
X104565001Y-58610928D01*
X103341000Y-58610928D01*
X103216518Y-58623188D01*
X103096820Y-58659498D01*
X102986506Y-58718463D01*
X102889815Y-58797815D01*
X102810463Y-58894506D01*
X102751498Y-59004820D01*
X102715188Y-59124518D01*
X102702928Y-59249000D01*
X102702928Y-60157626D01*
X102205808Y-60654746D01*
X102177762Y-60677763D01*
X102085913Y-60789681D01*
X102017663Y-60917368D01*
X101998258Y-60981337D01*
X101975635Y-61055915D01*
X101961444Y-61200000D01*
X101965000Y-61236105D01*
X101965001Y-66899887D01*
X101961444Y-66936002D01*
X101975635Y-67080087D01*
X102013773Y-67205807D01*
X102017664Y-67218635D01*
X102085914Y-67346322D01*
X102177763Y-67458240D01*
X102205808Y-67481256D01*
X102918745Y-68194194D01*
X102941761Y-68222239D01*
X102969805Y-68245254D01*
X103053679Y-68314088D01*
X103181365Y-68382338D01*
X103319914Y-68424366D01*
X103463999Y-68438557D01*
X103500104Y-68435001D01*
X105263894Y-68435001D01*
X105299999Y-68438557D01*
X105336104Y-68435001D01*
X105426719Y-68426076D01*
X105410000Y-68510127D01*
X105410000Y-68787873D01*
X105464186Y-69060282D01*
X105570475Y-69316885D01*
X105724782Y-69547822D01*
X105841960Y-69665000D01*
X105724782Y-69782178D01*
X105570475Y-70013115D01*
X105464186Y-70269718D01*
X105410000Y-70542127D01*
X105410000Y-70819873D01*
X105464186Y-71092282D01*
X105570475Y-71348885D01*
X105724782Y-71579822D01*
X105921178Y-71776218D01*
X106152115Y-71930525D01*
X106408718Y-72036814D01*
X106681127Y-72091000D01*
X106958873Y-72091000D01*
X107231282Y-72036814D01*
X107487885Y-71930525D01*
X107718822Y-71776218D01*
X107915218Y-71579822D01*
X108049069Y-71379500D01*
X108165000Y-71379500D01*
X108165000Y-71501939D01*
X108204774Y-71701898D01*
X108282795Y-71890256D01*
X108396063Y-72059774D01*
X108540226Y-72203937D01*
X108709744Y-72317205D01*
X108898102Y-72395226D01*
X109098061Y-72435000D01*
X109301939Y-72435000D01*
X109501898Y-72395226D01*
X109690256Y-72317205D01*
X109859774Y-72203937D01*
X110003937Y-72059774D01*
X110117205Y-71890256D01*
X110195226Y-71701898D01*
X110235000Y-71501939D01*
X110235000Y-71304827D01*
X110315122Y-71338015D01*
X110523679Y-71379500D01*
X110645776Y-71379500D01*
X110670725Y-71399975D01*
X110802754Y-71470547D01*
X110946015Y-71514004D01*
X111057668Y-71525001D01*
X111057676Y-71525001D01*
X111095001Y-71528677D01*
X111132326Y-71525001D01*
X112390679Y-71525001D01*
X112428001Y-71528677D01*
X112465323Y-71525001D01*
X112465334Y-71525001D01*
X112576987Y-71514004D01*
X112720248Y-71470547D01*
X112852277Y-71399975D01*
X112968002Y-71305002D01*
X112991805Y-71275998D01*
X115685886Y-68581917D01*
X125167688Y-68581917D01*
X125254393Y-68838653D01*
X125531223Y-68972048D01*
X125828757Y-69048873D01*
X126135562Y-69066176D01*
X126439848Y-69023292D01*
X126729921Y-68921868D01*
X126885607Y-68838653D01*
X126972312Y-68581917D01*
X126070000Y-67679605D01*
X125167688Y-68581917D01*
X115685886Y-68581917D01*
X116702241Y-67565562D01*
X124503824Y-67565562D01*
X124546708Y-67869848D01*
X124648132Y-68159921D01*
X124731347Y-68315607D01*
X124988083Y-68402312D01*
X125890395Y-67500000D01*
X126249605Y-67500000D01*
X127151917Y-68402312D01*
X127408653Y-68315607D01*
X127542048Y-68038777D01*
X127618873Y-67741243D01*
X127636176Y-67434438D01*
X127593292Y-67130152D01*
X127491868Y-66840079D01*
X127408653Y-66684393D01*
X127151917Y-66597688D01*
X126249605Y-67500000D01*
X125890395Y-67500000D01*
X124988083Y-66597688D01*
X124731347Y-66684393D01*
X124597952Y-66961223D01*
X124521127Y-67258757D01*
X124503824Y-67565562D01*
X116702241Y-67565562D01*
X117611004Y-66656800D01*
X117640001Y-66633003D01*
X117641430Y-66631262D01*
X117650463Y-66648162D01*
X117729815Y-66744853D01*
X117826506Y-66824205D01*
X117936820Y-66883170D01*
X118056518Y-66919480D01*
X118181000Y-66931740D01*
X119631000Y-66931740D01*
X119755482Y-66919480D01*
X119875180Y-66883170D01*
X119985494Y-66824205D01*
X120082185Y-66744853D01*
X120161537Y-66648162D01*
X120171406Y-66629698D01*
X120198061Y-66635000D01*
X120401939Y-66635000D01*
X120601898Y-66595226D01*
X120790256Y-66517205D01*
X120959774Y-66403937D01*
X121103937Y-66259774D01*
X121217205Y-66090256D01*
X121257313Y-65993427D01*
X121401741Y-66137855D01*
X121424762Y-66165906D01*
X121517640Y-66242130D01*
X121521188Y-66278150D01*
X121557498Y-66397848D01*
X121616463Y-66508162D01*
X121695815Y-66604853D01*
X121792506Y-66684205D01*
X121902820Y-66743170D01*
X122022518Y-66779480D01*
X122147000Y-66791740D01*
X123617000Y-66791740D01*
X123741482Y-66779480D01*
X123861180Y-66743170D01*
X123971494Y-66684205D01*
X124068185Y-66604853D01*
X124147537Y-66508162D01*
X124206502Y-66397848D01*
X124242812Y-66278150D01*
X124247283Y-66232754D01*
X124398102Y-66295226D01*
X124598061Y-66335000D01*
X124801939Y-66335000D01*
X125001898Y-66295226D01*
X125190256Y-66217205D01*
X125248722Y-66178139D01*
X125167688Y-66418083D01*
X126070000Y-67320395D01*
X126972312Y-66418083D01*
X126885607Y-66161347D01*
X126608777Y-66027952D01*
X126311243Y-65951127D01*
X126004438Y-65933824D01*
X125700152Y-65976708D01*
X125410079Y-66078132D01*
X125351670Y-66109352D01*
X125359774Y-66103937D01*
X125452224Y-66011487D01*
X125548318Y-65982337D01*
X125676005Y-65914087D01*
X125787923Y-65822238D01*
X125810944Y-65794187D01*
X137594198Y-54010934D01*
X137622237Y-53987923D01*
X137645250Y-53959882D01*
X137645253Y-53959879D01*
X137714087Y-53876005D01*
X137765206Y-53780367D01*
X137782337Y-53748318D01*
X137824365Y-53609770D01*
X137835000Y-53501790D01*
X137835000Y-53501789D01*
X137838556Y-53465685D01*
X137835000Y-53429580D01*
X137835000Y-46436105D01*
X137838556Y-46400000D01*
X137824365Y-46255915D01*
X137782337Y-46117366D01*
X137714087Y-45989680D01*
X137645253Y-45905806D01*
X137622238Y-45877762D01*
X137594193Y-45854746D01*
X131235008Y-39495562D01*
X131235008Y-35636112D01*
X131238564Y-35600007D01*
X131236594Y-35580000D01*
X136386928Y-35580000D01*
X136386928Y-36580000D01*
X136399188Y-36704482D01*
X136435498Y-36824180D01*
X136494463Y-36934494D01*
X136572842Y-37030000D01*
X136494463Y-37125506D01*
X136435498Y-37235820D01*
X136399188Y-37355518D01*
X136386928Y-37480000D01*
X136386928Y-38480000D01*
X136399188Y-38604482D01*
X136435498Y-38724180D01*
X136494463Y-38834494D01*
X136573815Y-38931185D01*
X136670506Y-39010537D01*
X136740000Y-39047683D01*
X136740000Y-39096289D01*
X136696063Y-39140226D01*
X136582795Y-39309744D01*
X136504774Y-39498102D01*
X136465000Y-39698061D01*
X136465000Y-39901939D01*
X136504774Y-40101898D01*
X136582795Y-40290256D01*
X136696063Y-40459774D01*
X136840226Y-40603937D01*
X137009744Y-40717205D01*
X137198102Y-40795226D01*
X137398061Y-40835000D01*
X137601939Y-40835000D01*
X137801898Y-40795226D01*
X137990256Y-40717205D01*
X138159774Y-40603937D01*
X138303937Y-40459774D01*
X138417205Y-40290256D01*
X138495226Y-40101898D01*
X138535000Y-39901939D01*
X138535000Y-39698061D01*
X138495226Y-39498102D01*
X138417205Y-39309744D01*
X138303937Y-39140226D01*
X138281783Y-39118072D01*
X138475000Y-39118072D01*
X138599482Y-39105812D01*
X138719180Y-39069502D01*
X138829494Y-39010537D01*
X138926185Y-38931185D01*
X139005537Y-38834494D01*
X139064502Y-38724180D01*
X139100812Y-38604482D01*
X139113072Y-38480000D01*
X139113072Y-37480000D01*
X139100812Y-37355518D01*
X139064502Y-37235820D01*
X139005537Y-37125506D01*
X138927158Y-37030000D01*
X139005537Y-36934494D01*
X139064502Y-36824180D01*
X139100812Y-36704482D01*
X139113072Y-36580000D01*
X139113072Y-35580000D01*
X139100812Y-35455518D01*
X139064502Y-35335820D01*
X139005537Y-35225506D01*
X138926185Y-35128815D01*
X138829494Y-35049463D01*
X138719180Y-34990498D01*
X138717336Y-34989939D01*
X138795226Y-34801898D01*
X138835000Y-34601939D01*
X138835000Y-34398061D01*
X138795226Y-34198102D01*
X138717205Y-34009744D01*
X138603937Y-33840226D01*
X138459774Y-33696063D01*
X138290256Y-33582795D01*
X138101898Y-33504774D01*
X137901939Y-33465000D01*
X137698061Y-33465000D01*
X137498102Y-33504774D01*
X137309744Y-33582795D01*
X137140226Y-33696063D01*
X136996063Y-33840226D01*
X136882795Y-34009744D01*
X136804774Y-34198102D01*
X136765000Y-34398061D01*
X136765000Y-34601939D01*
X136804774Y-34801898D01*
X136871501Y-34962990D01*
X136780820Y-34990498D01*
X136670506Y-35049463D01*
X136573815Y-35128815D01*
X136494463Y-35225506D01*
X136435498Y-35335820D01*
X136399188Y-35455518D01*
X136386928Y-35580000D01*
X131236594Y-35580000D01*
X131224373Y-35455922D01*
X131201207Y-35379555D01*
X131182345Y-35317375D01*
X131114095Y-35189688D01*
X131022246Y-35077770D01*
X130994201Y-35054754D01*
X128480301Y-32540855D01*
X128515000Y-32366411D01*
X128515000Y-32093589D01*
X128461775Y-31826011D01*
X128357371Y-31573957D01*
X128205799Y-31347114D01*
X128012886Y-31154201D01*
X127786043Y-31002629D01*
X127533989Y-30898225D01*
X127266411Y-30845000D01*
X126993589Y-30845000D01*
X126726011Y-30898225D01*
X126473957Y-31002629D01*
X126247114Y-31154201D01*
X126054201Y-31347114D01*
X125902629Y-31573957D01*
X125860000Y-31676873D01*
X125817371Y-31573957D01*
X125665799Y-31347114D01*
X125472886Y-31154201D01*
X125246043Y-31002629D01*
X124993989Y-30898225D01*
X124726411Y-30845000D01*
X124453589Y-30845000D01*
X124186011Y-30898225D01*
X123933957Y-31002629D01*
X123707114Y-31154201D01*
X123514201Y-31347114D01*
X123362629Y-31573957D01*
X123320000Y-31676873D01*
X123277371Y-31573957D01*
X123125799Y-31347114D01*
X122932886Y-31154201D01*
X122706043Y-31002629D01*
X122453989Y-30898225D01*
X122186411Y-30845000D01*
X121913589Y-30845000D01*
X121646011Y-30898225D01*
X121393957Y-31002629D01*
X121167114Y-31154201D01*
X120974201Y-31347114D01*
X120822629Y-31573957D01*
X120780000Y-31676873D01*
X120737371Y-31573957D01*
X120585799Y-31347114D01*
X120392886Y-31154201D01*
X120166043Y-31002629D01*
X119913989Y-30898225D01*
X119646411Y-30845000D01*
X119373589Y-30845000D01*
X119199146Y-30879699D01*
X118879445Y-30559999D01*
X119255647Y-30559999D01*
X119335506Y-30625537D01*
X119445820Y-30684502D01*
X119565518Y-30720812D01*
X119690000Y-30733072D01*
X120710000Y-30733072D01*
X120834482Y-30720812D01*
X120954180Y-30684502D01*
X121000000Y-30660010D01*
X121045820Y-30684502D01*
X121165518Y-30720812D01*
X121290000Y-30733072D01*
X121514250Y-30730000D01*
X121673000Y-30571250D01*
X121673000Y-29487000D01*
X121653000Y-29487000D01*
X121653000Y-29233000D01*
X121673000Y-29233000D01*
X121673000Y-29213000D01*
X121927000Y-29213000D01*
X121927000Y-29233000D01*
X121947000Y-29233000D01*
X121947000Y-29487000D01*
X121927000Y-29487000D01*
X121927000Y-30571250D01*
X122085750Y-30730000D01*
X122310000Y-30733072D01*
X122434482Y-30720812D01*
X122554180Y-30684502D01*
X122664494Y-30625537D01*
X122761185Y-30546185D01*
X122838873Y-30451521D01*
X122898102Y-30476055D01*
X123098061Y-30515829D01*
X123301939Y-30515829D01*
X123501898Y-30476055D01*
X123690256Y-30398034D01*
X123859774Y-30284766D01*
X124003937Y-30140603D01*
X124117205Y-29971085D01*
X124195226Y-29782727D01*
X124235000Y-29582768D01*
X124235000Y-29378890D01*
X124195226Y-29178931D01*
X124117205Y-28990573D01*
X124096777Y-28960000D01*
X138715279Y-28960000D01*
X138999899Y-28987907D01*
X139240285Y-29060484D01*
X139461991Y-29178368D01*
X139656577Y-29337068D01*
X139816635Y-29530545D01*
X139936064Y-29751424D01*
X140010317Y-29991297D01*
X140040000Y-30273716D01*
X140040001Y-61972420D01*
X139952454Y-61761063D01*
X139781731Y-61505558D01*
X139564442Y-61288269D01*
X139308937Y-61117546D01*
X139025035Y-60999950D01*
X138723647Y-60940000D01*
X138416353Y-60940000D01*
X138114965Y-60999950D01*
X137831063Y-61117546D01*
X137575558Y-61288269D01*
X137358269Y-61505558D01*
X137187546Y-61761063D01*
X137069950Y-62044965D01*
X137010000Y-62346353D01*
X137010000Y-62653647D01*
X137069950Y-62955035D01*
X137187546Y-63238937D01*
X137358269Y-63494442D01*
X137575558Y-63711731D01*
X137831063Y-63882454D01*
X138114965Y-64000050D01*
X138416353Y-64060000D01*
X138723647Y-64060000D01*
X139025035Y-64000050D01*
X139308937Y-63882454D01*
X139564442Y-63711731D01*
X139781731Y-63494442D01*
X139952454Y-63238937D01*
X140040001Y-63027580D01*
X140040001Y-66972420D01*
X139952454Y-66761063D01*
X139781731Y-66505558D01*
X139564442Y-66288269D01*
X139308937Y-66117546D01*
X139025035Y-65999950D01*
X138723647Y-65940000D01*
X138416353Y-65940000D01*
X138114965Y-65999950D01*
X137831063Y-66117546D01*
X137575558Y-66288269D01*
X137358269Y-66505558D01*
X137187546Y-66761063D01*
X137069950Y-67044965D01*
X137010000Y-67346353D01*
X137010000Y-67653647D01*
X137069950Y-67955035D01*
X137187546Y-68238937D01*
X137358269Y-68494442D01*
X137575558Y-68711731D01*
X137831063Y-68882454D01*
X138114965Y-69000050D01*
X138416353Y-69060000D01*
X138723647Y-69060000D01*
X139025035Y-69000050D01*
X139308937Y-68882454D01*
X139564442Y-68711731D01*
X139781731Y-68494442D01*
X139952454Y-68238937D01*
X140040001Y-68027580D01*
X140040001Y-71215269D01*
X140012093Y-71499899D01*
X139939517Y-71740282D01*
X139821633Y-71961989D01*
X139662929Y-72156580D01*
X139469455Y-72316635D01*
X139248576Y-72436064D01*
X139008701Y-72510317D01*
X138726291Y-72540000D01*
X102784721Y-72540000D01*
X102500101Y-72512093D01*
X102259718Y-72439517D01*
X102038011Y-72321633D01*
X101843420Y-72162929D01*
X101683365Y-71969455D01*
X101563936Y-71748576D01*
X101489683Y-71508701D01*
X101460000Y-71226291D01*
X101460000Y-34598061D01*
X101565000Y-34598061D01*
X101565000Y-34801939D01*
X101604774Y-35001898D01*
X101682795Y-35190256D01*
X101796063Y-35359774D01*
X101940226Y-35503937D01*
X102109744Y-35617205D01*
X102298102Y-35695226D01*
X102332652Y-35702098D01*
X102386928Y-35756374D01*
X102386928Y-36580000D01*
X102399188Y-36704482D01*
X102435498Y-36824180D01*
X102494463Y-36934494D01*
X102572842Y-37030000D01*
X102494463Y-37125506D01*
X102435498Y-37235820D01*
X102399188Y-37355518D01*
X102386928Y-37480000D01*
X102386928Y-38480000D01*
X102399188Y-38604482D01*
X102435498Y-38724180D01*
X102494463Y-38834494D01*
X102573815Y-38931185D01*
X102670506Y-39010537D01*
X102780820Y-39069502D01*
X102900518Y-39105812D01*
X102927791Y-39108498D01*
X102896063Y-39140226D01*
X102782795Y-39309744D01*
X102704774Y-39498102D01*
X102665000Y-39698061D01*
X102665000Y-39901939D01*
X102704774Y-40101898D01*
X102782795Y-40290256D01*
X102896063Y-40459774D01*
X103040226Y-40603937D01*
X103209744Y-40717205D01*
X103398102Y-40795226D01*
X103598061Y-40835000D01*
X103801939Y-40835000D01*
X104001898Y-40795226D01*
X104190256Y-40717205D01*
X104359774Y-40603937D01*
X104503937Y-40459774D01*
X104617205Y-40290256D01*
X104695226Y-40101898D01*
X104735000Y-39901939D01*
X104735000Y-39698061D01*
X104695226Y-39498102D01*
X104617205Y-39309744D01*
X104503937Y-39140226D01*
X104481175Y-39117464D01*
X104599482Y-39105812D01*
X104719180Y-39069502D01*
X104829494Y-39010537D01*
X104926185Y-38931185D01*
X105005537Y-38834494D01*
X105064502Y-38724180D01*
X105100812Y-38604482D01*
X105113072Y-38480000D01*
X105113072Y-37480000D01*
X105100812Y-37355518D01*
X105064502Y-37235820D01*
X105005537Y-37125506D01*
X104927158Y-37030000D01*
X105005537Y-36934494D01*
X105064502Y-36824180D01*
X105100812Y-36704482D01*
X105113072Y-36580000D01*
X105113072Y-35580000D01*
X105100812Y-35455518D01*
X105064502Y-35335820D01*
X105005537Y-35225506D01*
X104926185Y-35128815D01*
X104829494Y-35049463D01*
X104719180Y-34990498D01*
X104599482Y-34954188D01*
X104475000Y-34941928D01*
X103651374Y-34941928D01*
X103614491Y-34905045D01*
X103635000Y-34801939D01*
X103635000Y-34598061D01*
X103595226Y-34398102D01*
X103517205Y-34209744D01*
X103403937Y-34040226D01*
X103259774Y-33896063D01*
X103090256Y-33782795D01*
X102901898Y-33704774D01*
X102701939Y-33665000D01*
X102498061Y-33665000D01*
X102298102Y-33704774D01*
X102109744Y-33782795D01*
X101940226Y-33896063D01*
X101796063Y-34040226D01*
X101682795Y-34209744D01*
X101604774Y-34398102D01*
X101565000Y-34598061D01*
X101460000Y-34598061D01*
X101460000Y-30284721D01*
X101487907Y-30000101D01*
X101560484Y-29759715D01*
X101678368Y-29538009D01*
X101837068Y-29343423D01*
X102030545Y-29183365D01*
X102251424Y-29063936D01*
X102491297Y-28989683D01*
X102773716Y-28960000D01*
X116661978Y-28960000D01*
X116604774Y-29098102D01*
G37*
%TD.AperFunction*%
D27*
X109550500Y-69012610D02*
X109550500Y-69019105D01*
X109539605Y-69030000D01*
X109550500Y-69040895D01*
X109550500Y-69047390D01*
X109377390Y-69220500D01*
X109370895Y-69220500D01*
X109360000Y-69209605D01*
X109349105Y-69220500D01*
X109342610Y-69220500D01*
X109169500Y-69047390D01*
X109169500Y-69040895D01*
X109180395Y-69030000D01*
X109169500Y-69019105D01*
X109169500Y-69012610D01*
X109345858Y-68836253D01*
X109360000Y-68850395D01*
X109374143Y-68836253D01*
X109550500Y-69012610D01*
%TA.AperFunction,Conductor*%
D28*
G36*
X109550500Y-69012610D02*
G01*
X109550500Y-69019105D01*
X109539605Y-69030000D01*
X109550500Y-69040895D01*
X109550500Y-69047390D01*
X109377390Y-69220500D01*
X109370895Y-69220500D01*
X109360000Y-69209605D01*
X109349105Y-69220500D01*
X109342610Y-69220500D01*
X109169500Y-69047390D01*
X109169500Y-69040895D01*
X109180395Y-69030000D01*
X109169500Y-69019105D01*
X109169500Y-69012610D01*
X109345858Y-68836253D01*
X109360000Y-68850395D01*
X109374143Y-68836253D01*
X109550500Y-69012610D01*
G37*
%TD.AperFunction*%
D27*
X112177132Y-60359410D02*
X112326000Y-60374072D01*
X112533586Y-60374072D01*
X113526928Y-61367414D01*
X113526928Y-61848000D01*
X113539188Y-61972482D01*
X113575498Y-62092180D01*
X113634463Y-62202494D01*
X113713815Y-62299185D01*
X113810506Y-62378537D01*
X113920820Y-62437502D01*
X114040518Y-62473812D01*
X114165000Y-62486072D01*
X114645586Y-62486072D01*
X115055109Y-62895596D01*
X114195000Y-62895596D01*
X114070518Y-62907856D01*
X113950820Y-62944166D01*
X113840506Y-63003131D01*
X113743815Y-63082483D01*
X113664463Y-63179174D01*
X113605498Y-63289488D01*
X113569188Y-63409186D01*
X113556928Y-63533668D01*
X113556928Y-64553668D01*
X113569188Y-64678150D01*
X113605498Y-64797848D01*
X113629990Y-64843668D01*
X113605498Y-64889488D01*
X113569188Y-65009186D01*
X113556928Y-65133668D01*
X113560000Y-65357918D01*
X113718750Y-65516668D01*
X114803000Y-65516668D01*
X114803000Y-65496668D01*
X115057000Y-65496668D01*
X115057000Y-65516668D01*
X116141250Y-65516668D01*
X116300000Y-65357918D01*
X116303072Y-65133668D01*
X116290812Y-65009186D01*
X116254502Y-64889488D01*
X116230010Y-64843668D01*
X116254502Y-64797848D01*
X116290812Y-64678150D01*
X116303072Y-64553668D01*
X116303072Y-63855863D01*
X116398102Y-63895226D01*
X116579523Y-63931313D01*
X116560000Y-63947335D01*
X116536202Y-63976333D01*
X116536201Y-63976334D01*
X116465026Y-64063060D01*
X116394454Y-64195090D01*
X116375974Y-64256013D01*
X116350998Y-64338350D01*
X116345862Y-64390501D01*
X116336324Y-64487336D01*
X116340001Y-64524668D01*
X116340000Y-65778200D01*
X116244391Y-65873809D01*
X116141250Y-65770668D01*
X115057000Y-65770668D01*
X115057000Y-66629918D01*
X115215750Y-66788668D01*
X115328760Y-66789441D01*
X113138134Y-68980067D01*
X112995218Y-68766178D01*
X112798822Y-68569782D01*
X112567885Y-68415475D01*
X112335000Y-68319010D01*
X112335000Y-68123061D01*
X112295226Y-67923102D01*
X112217205Y-67734744D01*
X112103937Y-67565226D01*
X111959774Y-67421063D01*
X111889447Y-67374072D01*
X111926000Y-67374072D01*
X112068244Y-67360062D01*
X112068691Y-67360204D01*
X112169250Y-67371000D01*
X112231438Y-67308812D01*
X112349940Y-67245471D01*
X112465573Y-67150573D01*
X112560471Y-67034940D01*
X112574000Y-67009629D01*
X112574000Y-67212250D01*
X112732750Y-67371000D01*
X112833309Y-67360204D01*
X112952543Y-67322397D01*
X113062110Y-67262056D01*
X113157800Y-67181499D01*
X113235935Y-67083822D01*
X113293513Y-66972778D01*
X113328322Y-66852634D01*
X113339022Y-66728009D01*
X113336378Y-66153668D01*
X113556928Y-66153668D01*
X113569188Y-66278150D01*
X113605498Y-66397848D01*
X113664463Y-66508162D01*
X113743815Y-66604853D01*
X113840506Y-66684205D01*
X113950820Y-66743170D01*
X114070518Y-66779480D01*
X114195000Y-66791740D01*
X114644250Y-66788668D01*
X114803000Y-66629918D01*
X114803000Y-65770668D01*
X113718750Y-65770668D01*
X113560000Y-65929418D01*
X113556928Y-66153668D01*
X113336378Y-66153668D01*
X113336000Y-66071750D01*
X113177250Y-65913000D01*
X112689072Y-65913000D01*
X112689072Y-65659000D01*
X113177250Y-65659000D01*
X113336000Y-65500250D01*
X113339022Y-64843991D01*
X113328322Y-64719366D01*
X113293513Y-64599222D01*
X113265848Y-64545868D01*
X113351815Y-64417210D01*
X113429836Y-64228852D01*
X113469610Y-64028893D01*
X113469610Y-63825015D01*
X113429836Y-63625056D01*
X113351815Y-63436698D01*
X113238547Y-63267180D01*
X113094384Y-63123017D01*
X112924866Y-63009749D01*
X112736508Y-62931728D01*
X112536549Y-62891954D01*
X112332671Y-62891954D01*
X112132712Y-62931728D01*
X111944354Y-63009749D01*
X111774836Y-63123017D01*
X111630673Y-63267180D01*
X111517405Y-63436698D01*
X111439384Y-63625056D01*
X111399610Y-63825015D01*
X111399610Y-64028893D01*
X111427657Y-64169897D01*
X111388542Y-64209012D01*
X111276000Y-64197928D01*
X111026000Y-64197928D01*
X110877132Y-64212590D01*
X110835000Y-64225371D01*
X110835000Y-64098061D01*
X110795226Y-63898102D01*
X110717205Y-63709744D01*
X110624920Y-63571630D01*
X110695226Y-63401898D01*
X110735000Y-63201939D01*
X110735000Y-62998061D01*
X110695226Y-62798102D01*
X110617205Y-62609744D01*
X110503937Y-62440226D01*
X110359774Y-62296063D01*
X110190256Y-62182795D01*
X110001898Y-62104774D01*
X109801939Y-62065000D01*
X109598061Y-62065000D01*
X109398102Y-62104774D01*
X109209744Y-62182795D01*
X109040226Y-62296063D01*
X109028164Y-62308125D01*
X108990256Y-62282795D01*
X108801898Y-62204774D01*
X108601939Y-62165000D01*
X108398061Y-62165000D01*
X108198102Y-62204774D01*
X108009744Y-62282795D01*
X108000000Y-62289306D01*
X107990256Y-62282795D01*
X107801898Y-62204774D01*
X107601939Y-62165000D01*
X107398061Y-62165000D01*
X107198102Y-62204774D01*
X107009744Y-62282795D01*
X106840226Y-62396063D01*
X106696063Y-62540226D01*
X106667631Y-62582778D01*
X106644085Y-62575635D01*
X106536105Y-62565000D01*
X106500000Y-62561444D01*
X106463895Y-62565000D01*
X106035000Y-62565000D01*
X106035000Y-61496934D01*
X106096063Y-61588321D01*
X106240226Y-61732484D01*
X106409744Y-61845752D01*
X106598102Y-61923773D01*
X106798061Y-61963547D01*
X107001939Y-61963547D01*
X107201898Y-61923773D01*
X107390256Y-61845752D01*
X107559774Y-61732484D01*
X107703937Y-61588321D01*
X107806383Y-61435000D01*
X107901939Y-61435000D01*
X108101898Y-61395226D01*
X108290256Y-61317205D01*
X108388110Y-61251821D01*
X108440226Y-61303937D01*
X108609744Y-61417205D01*
X108798102Y-61495226D01*
X108998061Y-61535000D01*
X109201939Y-61535000D01*
X109401898Y-61495226D01*
X109590256Y-61417205D01*
X109759774Y-61303937D01*
X109900000Y-61163711D01*
X109940226Y-61203937D01*
X110109744Y-61317205D01*
X110298102Y-61395226D01*
X110498061Y-61435000D01*
X110701939Y-61435000D01*
X110901898Y-61395226D01*
X111090256Y-61317205D01*
X111259774Y-61203937D01*
X111403937Y-61059774D01*
X111517205Y-60890256D01*
X111595226Y-60701898D01*
X111635000Y-60501939D01*
X111635000Y-60370034D01*
X111676000Y-60374072D01*
X111926000Y-60374072D01*
X112074868Y-60359410D01*
X112126000Y-60343899D01*
X112177132Y-60359410D01*
%TA.AperFunction,Conductor*%
D28*
G36*
X112177132Y-60359410D02*
G01*
X112326000Y-60374072D01*
X112533586Y-60374072D01*
X113526928Y-61367414D01*
X113526928Y-61848000D01*
X113539188Y-61972482D01*
X113575498Y-62092180D01*
X113634463Y-62202494D01*
X113713815Y-62299185D01*
X113810506Y-62378537D01*
X113920820Y-62437502D01*
X114040518Y-62473812D01*
X114165000Y-62486072D01*
X114645586Y-62486072D01*
X115055109Y-62895596D01*
X114195000Y-62895596D01*
X114070518Y-62907856D01*
X113950820Y-62944166D01*
X113840506Y-63003131D01*
X113743815Y-63082483D01*
X113664463Y-63179174D01*
X113605498Y-63289488D01*
X113569188Y-63409186D01*
X113556928Y-63533668D01*
X113556928Y-64553668D01*
X113569188Y-64678150D01*
X113605498Y-64797848D01*
X113629990Y-64843668D01*
X113605498Y-64889488D01*
X113569188Y-65009186D01*
X113556928Y-65133668D01*
X113560000Y-65357918D01*
X113718750Y-65516668D01*
X114803000Y-65516668D01*
X114803000Y-65496668D01*
X115057000Y-65496668D01*
X115057000Y-65516668D01*
X116141250Y-65516668D01*
X116300000Y-65357918D01*
X116303072Y-65133668D01*
X116290812Y-65009186D01*
X116254502Y-64889488D01*
X116230010Y-64843668D01*
X116254502Y-64797848D01*
X116290812Y-64678150D01*
X116303072Y-64553668D01*
X116303072Y-63855863D01*
X116398102Y-63895226D01*
X116579523Y-63931313D01*
X116560000Y-63947335D01*
X116536202Y-63976333D01*
X116536201Y-63976334D01*
X116465026Y-64063060D01*
X116394454Y-64195090D01*
X116375974Y-64256013D01*
X116350998Y-64338350D01*
X116345862Y-64390501D01*
X116336324Y-64487336D01*
X116340001Y-64524668D01*
X116340000Y-65778200D01*
X116244391Y-65873809D01*
X116141250Y-65770668D01*
X115057000Y-65770668D01*
X115057000Y-66629918D01*
X115215750Y-66788668D01*
X115328760Y-66789441D01*
X113138134Y-68980067D01*
X112995218Y-68766178D01*
X112798822Y-68569782D01*
X112567885Y-68415475D01*
X112335000Y-68319010D01*
X112335000Y-68123061D01*
X112295226Y-67923102D01*
X112217205Y-67734744D01*
X112103937Y-67565226D01*
X111959774Y-67421063D01*
X111889447Y-67374072D01*
X111926000Y-67374072D01*
X112068244Y-67360062D01*
X112068691Y-67360204D01*
X112169250Y-67371000D01*
X112231438Y-67308812D01*
X112349940Y-67245471D01*
X112465573Y-67150573D01*
X112560471Y-67034940D01*
X112574000Y-67009629D01*
X112574000Y-67212250D01*
X112732750Y-67371000D01*
X112833309Y-67360204D01*
X112952543Y-67322397D01*
X113062110Y-67262056D01*
X113157800Y-67181499D01*
X113235935Y-67083822D01*
X113293513Y-66972778D01*
X113328322Y-66852634D01*
X113339022Y-66728009D01*
X113336378Y-66153668D01*
X113556928Y-66153668D01*
X113569188Y-66278150D01*
X113605498Y-66397848D01*
X113664463Y-66508162D01*
X113743815Y-66604853D01*
X113840506Y-66684205D01*
X113950820Y-66743170D01*
X114070518Y-66779480D01*
X114195000Y-66791740D01*
X114644250Y-66788668D01*
X114803000Y-66629918D01*
X114803000Y-65770668D01*
X113718750Y-65770668D01*
X113560000Y-65929418D01*
X113556928Y-66153668D01*
X113336378Y-66153668D01*
X113336000Y-66071750D01*
X113177250Y-65913000D01*
X112689072Y-65913000D01*
X112689072Y-65659000D01*
X113177250Y-65659000D01*
X113336000Y-65500250D01*
X113339022Y-64843991D01*
X113328322Y-64719366D01*
X113293513Y-64599222D01*
X113265848Y-64545868D01*
X113351815Y-64417210D01*
X113429836Y-64228852D01*
X113469610Y-64028893D01*
X113469610Y-63825015D01*
X113429836Y-63625056D01*
X113351815Y-63436698D01*
X113238547Y-63267180D01*
X113094384Y-63123017D01*
X112924866Y-63009749D01*
X112736508Y-62931728D01*
X112536549Y-62891954D01*
X112332671Y-62891954D01*
X112132712Y-62931728D01*
X111944354Y-63009749D01*
X111774836Y-63123017D01*
X111630673Y-63267180D01*
X111517405Y-63436698D01*
X111439384Y-63625056D01*
X111399610Y-63825015D01*
X111399610Y-64028893D01*
X111427657Y-64169897D01*
X111388542Y-64209012D01*
X111276000Y-64197928D01*
X111026000Y-64197928D01*
X110877132Y-64212590D01*
X110835000Y-64225371D01*
X110835000Y-64098061D01*
X110795226Y-63898102D01*
X110717205Y-63709744D01*
X110624920Y-63571630D01*
X110695226Y-63401898D01*
X110735000Y-63201939D01*
X110735000Y-62998061D01*
X110695226Y-62798102D01*
X110617205Y-62609744D01*
X110503937Y-62440226D01*
X110359774Y-62296063D01*
X110190256Y-62182795D01*
X110001898Y-62104774D01*
X109801939Y-62065000D01*
X109598061Y-62065000D01*
X109398102Y-62104774D01*
X109209744Y-62182795D01*
X109040226Y-62296063D01*
X109028164Y-62308125D01*
X108990256Y-62282795D01*
X108801898Y-62204774D01*
X108601939Y-62165000D01*
X108398061Y-62165000D01*
X108198102Y-62204774D01*
X108009744Y-62282795D01*
X108000000Y-62289306D01*
X107990256Y-62282795D01*
X107801898Y-62204774D01*
X107601939Y-62165000D01*
X107398061Y-62165000D01*
X107198102Y-62204774D01*
X107009744Y-62282795D01*
X106840226Y-62396063D01*
X106696063Y-62540226D01*
X106667631Y-62582778D01*
X106644085Y-62575635D01*
X106536105Y-62565000D01*
X106500000Y-62561444D01*
X106463895Y-62565000D01*
X106035000Y-62565000D01*
X106035000Y-61496934D01*
X106096063Y-61588321D01*
X106240226Y-61732484D01*
X106409744Y-61845752D01*
X106598102Y-61923773D01*
X106798061Y-61963547D01*
X107001939Y-61963547D01*
X107201898Y-61923773D01*
X107390256Y-61845752D01*
X107559774Y-61732484D01*
X107703937Y-61588321D01*
X107806383Y-61435000D01*
X107901939Y-61435000D01*
X108101898Y-61395226D01*
X108290256Y-61317205D01*
X108388110Y-61251821D01*
X108440226Y-61303937D01*
X108609744Y-61417205D01*
X108798102Y-61495226D01*
X108998061Y-61535000D01*
X109201939Y-61535000D01*
X109401898Y-61495226D01*
X109590256Y-61417205D01*
X109759774Y-61303937D01*
X109900000Y-61163711D01*
X109940226Y-61203937D01*
X110109744Y-61317205D01*
X110298102Y-61395226D01*
X110498061Y-61435000D01*
X110701939Y-61435000D01*
X110901898Y-61395226D01*
X111090256Y-61317205D01*
X111259774Y-61203937D01*
X111403937Y-61059774D01*
X111517205Y-60890256D01*
X111595226Y-60701898D01*
X111635000Y-60501939D01*
X111635000Y-60370034D01*
X111676000Y-60374072D01*
X111926000Y-60374072D01*
X112074868Y-60359410D01*
X112126000Y-60343899D01*
X112177132Y-60359410D01*
G37*
%TD.AperFunction*%
D27*
X105204774Y-64601898D02*
X105282795Y-64790256D01*
X105396063Y-64959774D01*
X105540226Y-65103937D01*
X105709744Y-65217205D01*
X105712928Y-65218524D01*
X105712928Y-66611000D01*
X105727590Y-66759868D01*
X105751594Y-66838999D01*
X105462106Y-66838999D01*
X105426001Y-66835443D01*
X105389896Y-66838999D01*
X105281916Y-66849634D01*
X105143368Y-66891662D01*
X105015681Y-66959912D01*
X105009480Y-66965001D01*
X103768446Y-66965001D01*
X103472475Y-66669030D01*
X103746250Y-66667000D01*
X103905000Y-66508250D01*
X103905000Y-65709000D01*
X104159000Y-65709000D01*
X104159000Y-66508250D01*
X104317750Y-66667000D01*
X104732000Y-66670072D01*
X104856482Y-66657812D01*
X104976180Y-66621502D01*
X105086494Y-66562537D01*
X105183185Y-66483185D01*
X105262537Y-66386494D01*
X105321502Y-66276180D01*
X105357812Y-66156482D01*
X105370072Y-66032000D01*
X105367000Y-65867750D01*
X105208250Y-65709000D01*
X104159000Y-65709000D01*
X103905000Y-65709000D01*
X103885000Y-65709000D01*
X103885000Y-65455000D01*
X103905000Y-65455000D01*
X103905000Y-65435000D01*
X104159000Y-65435000D01*
X104159000Y-65455000D01*
X105208250Y-65455000D01*
X105367000Y-65296250D01*
X105370072Y-65132000D01*
X105357812Y-65007518D01*
X105321502Y-64887820D01*
X105262537Y-64777506D01*
X105183185Y-64680815D01*
X105123704Y-64632000D01*
X105183185Y-64583185D01*
X105197566Y-64565661D01*
X105204774Y-64601898D01*
%TA.AperFunction,Conductor*%
D28*
G36*
X105204774Y-64601898D02*
G01*
X105282795Y-64790256D01*
X105396063Y-64959774D01*
X105540226Y-65103937D01*
X105709744Y-65217205D01*
X105712928Y-65218524D01*
X105712928Y-66611000D01*
X105727590Y-66759868D01*
X105751594Y-66838999D01*
X105462106Y-66838999D01*
X105426001Y-66835443D01*
X105389896Y-66838999D01*
X105281916Y-66849634D01*
X105143368Y-66891662D01*
X105015681Y-66959912D01*
X105009480Y-66965001D01*
X103768446Y-66965001D01*
X103472475Y-66669030D01*
X103746250Y-66667000D01*
X103905000Y-66508250D01*
X103905000Y-65709000D01*
X104159000Y-65709000D01*
X104159000Y-66508250D01*
X104317750Y-66667000D01*
X104732000Y-66670072D01*
X104856482Y-66657812D01*
X104976180Y-66621502D01*
X105086494Y-66562537D01*
X105183185Y-66483185D01*
X105262537Y-66386494D01*
X105321502Y-66276180D01*
X105357812Y-66156482D01*
X105370072Y-66032000D01*
X105367000Y-65867750D01*
X105208250Y-65709000D01*
X104159000Y-65709000D01*
X103905000Y-65709000D01*
X103885000Y-65709000D01*
X103885000Y-65455000D01*
X103905000Y-65455000D01*
X103905000Y-65435000D01*
X104159000Y-65435000D01*
X104159000Y-65455000D01*
X105208250Y-65455000D01*
X105367000Y-65296250D01*
X105370072Y-65132000D01*
X105357812Y-65007518D01*
X105321502Y-64887820D01*
X105262537Y-64777506D01*
X105183185Y-64680815D01*
X105123704Y-64632000D01*
X105183185Y-64583185D01*
X105197566Y-64565661D01*
X105204774Y-64601898D01*
G37*
%TD.AperFunction*%
D27*
X127542203Y-61984036D02*
X127491868Y-61840079D01*
X127408653Y-61684393D01*
X127151917Y-61597688D01*
X126249605Y-62500000D01*
X126263748Y-62514143D01*
X126084143Y-62693748D01*
X126070000Y-62679605D01*
X125167688Y-63581917D01*
X125254393Y-63838653D01*
X125531223Y-63972048D01*
X125549478Y-63976761D01*
X125157155Y-64369084D01*
X125001898Y-64304774D01*
X124801939Y-64265000D01*
X124598061Y-64265000D01*
X124398102Y-64304774D01*
X124252489Y-64365089D01*
X124252000Y-64329418D01*
X124093250Y-64170668D01*
X123009000Y-64170668D01*
X123009000Y-64190668D01*
X122755000Y-64190668D01*
X122755000Y-64170668D01*
X122735000Y-64170668D01*
X122735000Y-63916668D01*
X122755000Y-63916668D01*
X122755000Y-63896668D01*
X123009000Y-63896668D01*
X123009000Y-63916668D01*
X124093250Y-63916668D01*
X124252000Y-63757918D01*
X124255072Y-63533668D01*
X124242812Y-63409186D01*
X124206502Y-63289488D01*
X124147537Y-63179174D01*
X124068185Y-63082483D01*
X123971494Y-63003131D01*
X123861180Y-62944166D01*
X123741482Y-62907856D01*
X123617000Y-62895596D01*
X123494511Y-62896434D01*
X123524337Y-62840633D01*
X123566365Y-62702085D01*
X123579811Y-62565562D01*
X124503824Y-62565562D01*
X124546708Y-62869848D01*
X124648132Y-63159921D01*
X124731347Y-63315607D01*
X124988083Y-63402312D01*
X125890395Y-62500000D01*
X124988083Y-61597688D01*
X124731347Y-61684393D01*
X124597952Y-61961223D01*
X124521127Y-62258757D01*
X124503824Y-62565562D01*
X123579811Y-62565562D01*
X123580556Y-62558000D01*
X123577000Y-62521895D01*
X123577000Y-62485087D01*
X123691482Y-62473812D01*
X123811180Y-62437502D01*
X123921494Y-62378537D01*
X124018185Y-62299185D01*
X124097537Y-62202494D01*
X124156502Y-62092180D01*
X124192812Y-61972482D01*
X124205072Y-61848000D01*
X124205072Y-61418083D01*
X125167688Y-61418083D01*
X126070000Y-62320395D01*
X126972312Y-61418083D01*
X126885607Y-61161347D01*
X126608777Y-61027952D01*
X126311243Y-60951127D01*
X126004438Y-60933824D01*
X125700152Y-60976708D01*
X125410079Y-61078132D01*
X125254393Y-61161347D01*
X125167688Y-61418083D01*
X124205072Y-61418083D01*
X124205072Y-60848000D01*
X124192812Y-60723518D01*
X124156502Y-60603820D01*
X124097537Y-60493506D01*
X124019158Y-60398000D01*
X124066254Y-60340612D01*
X124198102Y-60395226D01*
X124398061Y-60435000D01*
X124601939Y-60435000D01*
X124801898Y-60395226D01*
X124990256Y-60317205D01*
X125159774Y-60203937D01*
X125303937Y-60059774D01*
X125417205Y-59890256D01*
X125495226Y-59701898D01*
X125535000Y-59501939D01*
X125535000Y-59298061D01*
X125495226Y-59098102D01*
X125417205Y-58909744D01*
X125303937Y-58740226D01*
X125159774Y-58596063D01*
X124990256Y-58482795D01*
X124801898Y-58404774D01*
X124601939Y-58365000D01*
X124398061Y-58365000D01*
X124198102Y-58404774D01*
X124009744Y-58482795D01*
X124004980Y-58485978D01*
X123921494Y-58417463D01*
X123811180Y-58358498D01*
X123691482Y-58322188D01*
X123567000Y-58309928D01*
X122117000Y-58309928D01*
X121992518Y-58322188D01*
X121872820Y-58358498D01*
X121762506Y-58417463D01*
X121665815Y-58496815D01*
X121586463Y-58593506D01*
X121527498Y-58703820D01*
X121491188Y-58823518D01*
X121478928Y-58948000D01*
X121478928Y-59948000D01*
X121491188Y-60072482D01*
X121527498Y-60192180D01*
X121586463Y-60302494D01*
X121664842Y-60398000D01*
X121586463Y-60493506D01*
X121527498Y-60603820D01*
X121491188Y-60723518D01*
X121481193Y-60825000D01*
X119719662Y-60825000D01*
X119705502Y-60778320D01*
X119646537Y-60668006D01*
X119567185Y-60571315D01*
X119470494Y-60491963D01*
X119360180Y-60432998D01*
X119244807Y-60398000D01*
X119360180Y-60363002D01*
X119470494Y-60304037D01*
X119567185Y-60224685D01*
X119646537Y-60127994D01*
X119705502Y-60017680D01*
X119741812Y-59897982D01*
X119754072Y-59773500D01*
X119754072Y-58698500D01*
X119741812Y-58574018D01*
X119705502Y-58454320D01*
X119646537Y-58344006D01*
X119567185Y-58247315D01*
X119470494Y-58167963D01*
X119360180Y-58108998D01*
X119240482Y-58072688D01*
X119116000Y-58060428D01*
X118785907Y-58060428D01*
X118890256Y-58017205D01*
X119059774Y-57903937D01*
X119128711Y-57835000D01*
X131343895Y-57835000D01*
X131380000Y-57838556D01*
X131416105Y-57835000D01*
X131524085Y-57824365D01*
X131662633Y-57782337D01*
X131790320Y-57714087D01*
X131902238Y-57622238D01*
X131925258Y-57594188D01*
X132357374Y-57162072D01*
X132364166Y-57162072D01*
X127542203Y-61984036D01*
%TA.AperFunction,Conductor*%
D28*
G36*
X127542203Y-61984036D02*
G01*
X127491868Y-61840079D01*
X127408653Y-61684393D01*
X127151917Y-61597688D01*
X126249605Y-62500000D01*
X126263748Y-62514143D01*
X126084143Y-62693748D01*
X126070000Y-62679605D01*
X125167688Y-63581917D01*
X125254393Y-63838653D01*
X125531223Y-63972048D01*
X125549478Y-63976761D01*
X125157155Y-64369084D01*
X125001898Y-64304774D01*
X124801939Y-64265000D01*
X124598061Y-64265000D01*
X124398102Y-64304774D01*
X124252489Y-64365089D01*
X124252000Y-64329418D01*
X124093250Y-64170668D01*
X123009000Y-64170668D01*
X123009000Y-64190668D01*
X122755000Y-64190668D01*
X122755000Y-64170668D01*
X122735000Y-64170668D01*
X122735000Y-63916668D01*
X122755000Y-63916668D01*
X122755000Y-63896668D01*
X123009000Y-63896668D01*
X123009000Y-63916668D01*
X124093250Y-63916668D01*
X124252000Y-63757918D01*
X124255072Y-63533668D01*
X124242812Y-63409186D01*
X124206502Y-63289488D01*
X124147537Y-63179174D01*
X124068185Y-63082483D01*
X123971494Y-63003131D01*
X123861180Y-62944166D01*
X123741482Y-62907856D01*
X123617000Y-62895596D01*
X123494511Y-62896434D01*
X123524337Y-62840633D01*
X123566365Y-62702085D01*
X123579811Y-62565562D01*
X124503824Y-62565562D01*
X124546708Y-62869848D01*
X124648132Y-63159921D01*
X124731347Y-63315607D01*
X124988083Y-63402312D01*
X125890395Y-62500000D01*
X124988083Y-61597688D01*
X124731347Y-61684393D01*
X124597952Y-61961223D01*
X124521127Y-62258757D01*
X124503824Y-62565562D01*
X123579811Y-62565562D01*
X123580556Y-62558000D01*
X123577000Y-62521895D01*
X123577000Y-62485087D01*
X123691482Y-62473812D01*
X123811180Y-62437502D01*
X123921494Y-62378537D01*
X124018185Y-62299185D01*
X124097537Y-62202494D01*
X124156502Y-62092180D01*
X124192812Y-61972482D01*
X124205072Y-61848000D01*
X124205072Y-61418083D01*
X125167688Y-61418083D01*
X126070000Y-62320395D01*
X126972312Y-61418083D01*
X126885607Y-61161347D01*
X126608777Y-61027952D01*
X126311243Y-60951127D01*
X126004438Y-60933824D01*
X125700152Y-60976708D01*
X125410079Y-61078132D01*
X125254393Y-61161347D01*
X125167688Y-61418083D01*
X124205072Y-61418083D01*
X124205072Y-60848000D01*
X124192812Y-60723518D01*
X124156502Y-60603820D01*
X124097537Y-60493506D01*
X124019158Y-60398000D01*
X124066254Y-60340612D01*
X124198102Y-60395226D01*
X124398061Y-60435000D01*
X124601939Y-60435000D01*
X124801898Y-60395226D01*
X124990256Y-60317205D01*
X125159774Y-60203937D01*
X125303937Y-60059774D01*
X125417205Y-59890256D01*
X125495226Y-59701898D01*
X125535000Y-59501939D01*
X125535000Y-59298061D01*
X125495226Y-59098102D01*
X125417205Y-58909744D01*
X125303937Y-58740226D01*
X125159774Y-58596063D01*
X124990256Y-58482795D01*
X124801898Y-58404774D01*
X124601939Y-58365000D01*
X124398061Y-58365000D01*
X124198102Y-58404774D01*
X124009744Y-58482795D01*
X124004980Y-58485978D01*
X123921494Y-58417463D01*
X123811180Y-58358498D01*
X123691482Y-58322188D01*
X123567000Y-58309928D01*
X122117000Y-58309928D01*
X121992518Y-58322188D01*
X121872820Y-58358498D01*
X121762506Y-58417463D01*
X121665815Y-58496815D01*
X121586463Y-58593506D01*
X121527498Y-58703820D01*
X121491188Y-58823518D01*
X121478928Y-58948000D01*
X121478928Y-59948000D01*
X121491188Y-60072482D01*
X121527498Y-60192180D01*
X121586463Y-60302494D01*
X121664842Y-60398000D01*
X121586463Y-60493506D01*
X121527498Y-60603820D01*
X121491188Y-60723518D01*
X121481193Y-60825000D01*
X119719662Y-60825000D01*
X119705502Y-60778320D01*
X119646537Y-60668006D01*
X119567185Y-60571315D01*
X119470494Y-60491963D01*
X119360180Y-60432998D01*
X119244807Y-60398000D01*
X119360180Y-60363002D01*
X119470494Y-60304037D01*
X119567185Y-60224685D01*
X119646537Y-60127994D01*
X119705502Y-60017680D01*
X119741812Y-59897982D01*
X119754072Y-59773500D01*
X119754072Y-58698500D01*
X119741812Y-58574018D01*
X119705502Y-58454320D01*
X119646537Y-58344006D01*
X119567185Y-58247315D01*
X119470494Y-58167963D01*
X119360180Y-58108998D01*
X119240482Y-58072688D01*
X119116000Y-58060428D01*
X118785907Y-58060428D01*
X118890256Y-58017205D01*
X119059774Y-57903937D01*
X119128711Y-57835000D01*
X131343895Y-57835000D01*
X131380000Y-57838556D01*
X131416105Y-57835000D01*
X131524085Y-57824365D01*
X131662633Y-57782337D01*
X131790320Y-57714087D01*
X131902238Y-57622238D01*
X131925258Y-57594188D01*
X132357374Y-57162072D01*
X132364166Y-57162072D01*
X127542203Y-61984036D01*
G37*
%TD.AperFunction*%
D27*
X133631417Y-43970863D02*
X133601939Y-43965000D01*
X133398061Y-43965000D01*
X133198102Y-44004774D01*
X133009744Y-44082795D01*
X132840226Y-44196063D01*
X132696063Y-44340226D01*
X132582795Y-44509744D01*
X132504774Y-44698102D01*
X132465000Y-44898061D01*
X132465000Y-45101939D01*
X132504774Y-45301898D01*
X132545990Y-45401402D01*
X132502820Y-45414498D01*
X132392506Y-45473463D01*
X132295815Y-45552815D01*
X132216463Y-45649506D01*
X132157498Y-45759820D01*
X132121188Y-45879518D01*
X132108928Y-46004000D01*
X132108928Y-47004000D01*
X132121188Y-47128482D01*
X132157498Y-47248180D01*
X132216463Y-47358494D01*
X132294842Y-47454000D01*
X132216463Y-47549506D01*
X132157498Y-47659820D01*
X132121188Y-47779518D01*
X132108928Y-47904000D01*
X132108928Y-48904000D01*
X132121188Y-49028482D01*
X132157498Y-49148180D01*
X132216463Y-49258494D01*
X132295815Y-49355185D01*
X132392506Y-49434537D01*
X132502820Y-49493502D01*
X132542158Y-49505435D01*
X132533928Y-49589000D01*
X132533928Y-50839000D01*
X132546188Y-50963482D01*
X132572714Y-51050928D01*
X132217000Y-51050928D01*
X132092518Y-51063188D01*
X131972820Y-51099498D01*
X131862506Y-51158463D01*
X131765815Y-51237815D01*
X131686463Y-51334506D01*
X131627498Y-51444820D01*
X131591188Y-51564518D01*
X131578928Y-51689000D01*
X131578928Y-52939000D01*
X131585389Y-53004598D01*
X131486820Y-53034498D01*
X131376506Y-53093463D01*
X131279815Y-53172815D01*
X131200463Y-53269506D01*
X131141498Y-53379820D01*
X131105188Y-53499518D01*
X131092928Y-53624000D01*
X131092928Y-54624000D01*
X131105188Y-54748482D01*
X131141498Y-54868180D01*
X131200463Y-54978494D01*
X131278842Y-55074000D01*
X131200463Y-55169506D01*
X131141498Y-55279820D01*
X131105188Y-55399518D01*
X131092928Y-55524000D01*
X131092928Y-56347626D01*
X131075554Y-56365000D01*
X125357738Y-56365000D01*
X125357738Y-55524000D01*
X125345478Y-55399518D01*
X125309168Y-55279820D01*
X125250203Y-55169506D01*
X125171824Y-55074000D01*
X125250203Y-54978494D01*
X125309168Y-54868180D01*
X125345478Y-54748482D01*
X125357738Y-54624000D01*
X125357738Y-54541429D01*
X127760000Y-54541429D01*
X127760000Y-54858571D01*
X127821871Y-55169620D01*
X127943237Y-55462621D01*
X128119431Y-55726315D01*
X128343685Y-55950569D01*
X128607379Y-56126763D01*
X128900380Y-56248129D01*
X129211429Y-56310000D01*
X129528571Y-56310000D01*
X129839620Y-56248129D01*
X130132621Y-56126763D01*
X130396315Y-55950569D01*
X130620569Y-55726315D01*
X130796763Y-55462621D01*
X130918129Y-55169620D01*
X130980000Y-54858571D01*
X130980000Y-54541429D01*
X130918129Y-54230380D01*
X130796763Y-53937379D01*
X130620569Y-53673685D01*
X130396315Y-53449431D01*
X130132621Y-53273237D01*
X129839620Y-53151871D01*
X129528571Y-53090000D01*
X129211429Y-53090000D01*
X128900380Y-53151871D01*
X128607379Y-53273237D01*
X128343685Y-53449431D01*
X128119431Y-53673685D01*
X127943237Y-53937379D01*
X127821871Y-54230380D01*
X127760000Y-54541429D01*
X125357738Y-54541429D01*
X125357738Y-53624000D01*
X125345478Y-53499518D01*
X125341262Y-53485621D01*
X125421486Y-53528502D01*
X125541184Y-53564812D01*
X125665666Y-53577072D01*
X125679916Y-53574000D01*
X125838666Y-53415250D01*
X125838666Y-52441000D01*
X126092666Y-52441000D01*
X126092666Y-53415250D01*
X126251416Y-53574000D01*
X126265666Y-53577072D01*
X126390148Y-53564812D01*
X126509846Y-53528502D01*
X126620160Y-53469537D01*
X126716851Y-53390185D01*
X126796203Y-53293494D01*
X126855168Y-53183180D01*
X126891478Y-53063482D01*
X126903738Y-52939000D01*
X126900666Y-52599750D01*
X126741916Y-52441000D01*
X126092666Y-52441000D01*
X125838666Y-52441000D01*
X125189416Y-52441000D01*
X125030666Y-52599750D01*
X125027594Y-52939000D01*
X125039854Y-53063482D01*
X125044070Y-53077379D01*
X124983308Y-53044901D01*
X124993738Y-52939000D01*
X124993738Y-51689000D01*
X124981478Y-51564518D01*
X124954952Y-51477072D01*
X125066380Y-51477072D01*
X125039854Y-51564518D01*
X125027594Y-51689000D01*
X125030666Y-52028250D01*
X125189416Y-52187000D01*
X125838666Y-52187000D01*
X125838666Y-51212750D01*
X126092666Y-51212750D01*
X126092666Y-52187000D01*
X126741916Y-52187000D01*
X126900666Y-52028250D01*
X126903738Y-51689000D01*
X126891478Y-51564518D01*
X126855168Y-51444820D01*
X126796203Y-51334506D01*
X126716851Y-51237815D01*
X126620160Y-51158463D01*
X126509846Y-51099498D01*
X126390148Y-51063188D01*
X126265666Y-51050928D01*
X126251416Y-51054000D01*
X126092666Y-51212750D01*
X125838666Y-51212750D01*
X125831380Y-51205464D01*
X125841203Y-51193494D01*
X125900168Y-51083180D01*
X125936478Y-50963482D01*
X125948738Y-50839000D01*
X125948738Y-49589000D01*
X125940508Y-49505435D01*
X125979846Y-49493502D01*
X126090160Y-49434537D01*
X126186851Y-49355185D01*
X126266203Y-49258494D01*
X126325168Y-49148180D01*
X126361478Y-49028482D01*
X126373738Y-48904000D01*
X126373738Y-47904000D01*
X126361478Y-47779518D01*
X126325168Y-47659820D01*
X126266203Y-47549506D01*
X126187824Y-47454000D01*
X126266203Y-47358494D01*
X126325168Y-47248180D01*
X126327953Y-47239000D01*
X127859895Y-47239000D01*
X127896000Y-47242556D01*
X127932105Y-47239000D01*
X128040085Y-47228365D01*
X128178633Y-47186337D01*
X128306320Y-47118087D01*
X128418238Y-47026238D01*
X128441258Y-46998188D01*
X130594197Y-44845250D01*
X130622237Y-44822238D01*
X130645250Y-44794197D01*
X130645253Y-44794194D01*
X130714087Y-44710320D01*
X130782337Y-44582634D01*
X130824365Y-44444085D01*
X130838556Y-44300000D01*
X130835000Y-44263895D01*
X130835000Y-41174446D01*
X133631417Y-43970863D01*
%TA.AperFunction,Conductor*%
D28*
G36*
X133631417Y-43970863D02*
G01*
X133601939Y-43965000D01*
X133398061Y-43965000D01*
X133198102Y-44004774D01*
X133009744Y-44082795D01*
X132840226Y-44196063D01*
X132696063Y-44340226D01*
X132582795Y-44509744D01*
X132504774Y-44698102D01*
X132465000Y-44898061D01*
X132465000Y-45101939D01*
X132504774Y-45301898D01*
X132545990Y-45401402D01*
X132502820Y-45414498D01*
X132392506Y-45473463D01*
X132295815Y-45552815D01*
X132216463Y-45649506D01*
X132157498Y-45759820D01*
X132121188Y-45879518D01*
X132108928Y-46004000D01*
X132108928Y-47004000D01*
X132121188Y-47128482D01*
X132157498Y-47248180D01*
X132216463Y-47358494D01*
X132294842Y-47454000D01*
X132216463Y-47549506D01*
X132157498Y-47659820D01*
X132121188Y-47779518D01*
X132108928Y-47904000D01*
X132108928Y-48904000D01*
X132121188Y-49028482D01*
X132157498Y-49148180D01*
X132216463Y-49258494D01*
X132295815Y-49355185D01*
X132392506Y-49434537D01*
X132502820Y-49493502D01*
X132542158Y-49505435D01*
X132533928Y-49589000D01*
X132533928Y-50839000D01*
X132546188Y-50963482D01*
X132572714Y-51050928D01*
X132217000Y-51050928D01*
X132092518Y-51063188D01*
X131972820Y-51099498D01*
X131862506Y-51158463D01*
X131765815Y-51237815D01*
X131686463Y-51334506D01*
X131627498Y-51444820D01*
X131591188Y-51564518D01*
X131578928Y-51689000D01*
X131578928Y-52939000D01*
X131585389Y-53004598D01*
X131486820Y-53034498D01*
X131376506Y-53093463D01*
X131279815Y-53172815D01*
X131200463Y-53269506D01*
X131141498Y-53379820D01*
X131105188Y-53499518D01*
X131092928Y-53624000D01*
X131092928Y-54624000D01*
X131105188Y-54748482D01*
X131141498Y-54868180D01*
X131200463Y-54978494D01*
X131278842Y-55074000D01*
X131200463Y-55169506D01*
X131141498Y-55279820D01*
X131105188Y-55399518D01*
X131092928Y-55524000D01*
X131092928Y-56347626D01*
X131075554Y-56365000D01*
X125357738Y-56365000D01*
X125357738Y-55524000D01*
X125345478Y-55399518D01*
X125309168Y-55279820D01*
X125250203Y-55169506D01*
X125171824Y-55074000D01*
X125250203Y-54978494D01*
X125309168Y-54868180D01*
X125345478Y-54748482D01*
X125357738Y-54624000D01*
X125357738Y-54541429D01*
X127760000Y-54541429D01*
X127760000Y-54858571D01*
X127821871Y-55169620D01*
X127943237Y-55462621D01*
X128119431Y-55726315D01*
X128343685Y-55950569D01*
X128607379Y-56126763D01*
X128900380Y-56248129D01*
X129211429Y-56310000D01*
X129528571Y-56310000D01*
X129839620Y-56248129D01*
X130132621Y-56126763D01*
X130396315Y-55950569D01*
X130620569Y-55726315D01*
X130796763Y-55462621D01*
X130918129Y-55169620D01*
X130980000Y-54858571D01*
X130980000Y-54541429D01*
X130918129Y-54230380D01*
X130796763Y-53937379D01*
X130620569Y-53673685D01*
X130396315Y-53449431D01*
X130132621Y-53273237D01*
X129839620Y-53151871D01*
X129528571Y-53090000D01*
X129211429Y-53090000D01*
X128900380Y-53151871D01*
X128607379Y-53273237D01*
X128343685Y-53449431D01*
X128119431Y-53673685D01*
X127943237Y-53937379D01*
X127821871Y-54230380D01*
X127760000Y-54541429D01*
X125357738Y-54541429D01*
X125357738Y-53624000D01*
X125345478Y-53499518D01*
X125341262Y-53485621D01*
X125421486Y-53528502D01*
X125541184Y-53564812D01*
X125665666Y-53577072D01*
X125679916Y-53574000D01*
X125838666Y-53415250D01*
X125838666Y-52441000D01*
X126092666Y-52441000D01*
X126092666Y-53415250D01*
X126251416Y-53574000D01*
X126265666Y-53577072D01*
X126390148Y-53564812D01*
X126509846Y-53528502D01*
X126620160Y-53469537D01*
X126716851Y-53390185D01*
X126796203Y-53293494D01*
X126855168Y-53183180D01*
X126891478Y-53063482D01*
X126903738Y-52939000D01*
X126900666Y-52599750D01*
X126741916Y-52441000D01*
X126092666Y-52441000D01*
X125838666Y-52441000D01*
X125189416Y-52441000D01*
X125030666Y-52599750D01*
X125027594Y-52939000D01*
X125039854Y-53063482D01*
X125044070Y-53077379D01*
X124983308Y-53044901D01*
X124993738Y-52939000D01*
X124993738Y-51689000D01*
X124981478Y-51564518D01*
X124954952Y-51477072D01*
X125066380Y-51477072D01*
X125039854Y-51564518D01*
X125027594Y-51689000D01*
X125030666Y-52028250D01*
X125189416Y-52187000D01*
X125838666Y-52187000D01*
X125838666Y-51212750D01*
X126092666Y-51212750D01*
X126092666Y-52187000D01*
X126741916Y-52187000D01*
X126900666Y-52028250D01*
X126903738Y-51689000D01*
X126891478Y-51564518D01*
X126855168Y-51444820D01*
X126796203Y-51334506D01*
X126716851Y-51237815D01*
X126620160Y-51158463D01*
X126509846Y-51099498D01*
X126390148Y-51063188D01*
X126265666Y-51050928D01*
X126251416Y-51054000D01*
X126092666Y-51212750D01*
X125838666Y-51212750D01*
X125831380Y-51205464D01*
X125841203Y-51193494D01*
X125900168Y-51083180D01*
X125936478Y-50963482D01*
X125948738Y-50839000D01*
X125948738Y-49589000D01*
X125940508Y-49505435D01*
X125979846Y-49493502D01*
X126090160Y-49434537D01*
X126186851Y-49355185D01*
X126266203Y-49258494D01*
X126325168Y-49148180D01*
X126361478Y-49028482D01*
X126373738Y-48904000D01*
X126373738Y-47904000D01*
X126361478Y-47779518D01*
X126325168Y-47659820D01*
X126266203Y-47549506D01*
X126187824Y-47454000D01*
X126266203Y-47358494D01*
X126325168Y-47248180D01*
X126327953Y-47239000D01*
X127859895Y-47239000D01*
X127896000Y-47242556D01*
X127932105Y-47239000D01*
X128040085Y-47228365D01*
X128178633Y-47186337D01*
X128306320Y-47118087D01*
X128418238Y-47026238D01*
X128441258Y-46998188D01*
X130594197Y-44845250D01*
X130622237Y-44822238D01*
X130645250Y-44794197D01*
X130645253Y-44794194D01*
X130714087Y-44710320D01*
X130782337Y-44582634D01*
X130824365Y-44444085D01*
X130838556Y-44300000D01*
X130835000Y-44263895D01*
X130835000Y-41174446D01*
X133631417Y-43970863D01*
G37*
%TD.AperFunction*%
D27*
X123362629Y-32886043D02*
X123514201Y-33112886D01*
X123707114Y-33305799D01*
X123855000Y-33404614D01*
X123855000Y-34253895D01*
X123851444Y-34290000D01*
X123863989Y-34417368D01*
X123865635Y-34434084D01*
X123907663Y-34572632D01*
X123975913Y-34700319D01*
X124067762Y-34812237D01*
X124095808Y-34835254D01*
X125254746Y-35994193D01*
X125277762Y-36022238D01*
X125389680Y-36114087D01*
X125517367Y-36182337D01*
X125655915Y-36224365D01*
X125763895Y-36235000D01*
X125763904Y-36235000D01*
X125799999Y-36238555D01*
X125836094Y-36235000D01*
X128195554Y-36235000D01*
X129365001Y-37404448D01*
X129365000Y-43995553D01*
X127591554Y-45769000D01*
X126327953Y-45769000D01*
X126325168Y-45759820D01*
X126266203Y-45649506D01*
X126186851Y-45552815D01*
X126090160Y-45473463D01*
X125979846Y-45414498D01*
X125860148Y-45378188D01*
X125735666Y-45365928D01*
X124285666Y-45365928D01*
X124161184Y-45378188D01*
X124041486Y-45414498D01*
X123931172Y-45473463D01*
X123834481Y-45552815D01*
X123755129Y-45649506D01*
X123696164Y-45759820D01*
X123659854Y-45879518D01*
X123647594Y-46004000D01*
X123647594Y-47004000D01*
X123659854Y-47128482D01*
X123696164Y-47248180D01*
X123755129Y-47358494D01*
X123833508Y-47454000D01*
X123755129Y-47549506D01*
X123696164Y-47659820D01*
X123659854Y-47779518D01*
X123647594Y-47904000D01*
X123647594Y-48904000D01*
X123659854Y-49028482D01*
X123696164Y-49148180D01*
X123755129Y-49258494D01*
X123834481Y-49355185D01*
X123931172Y-49434537D01*
X124041486Y-49493502D01*
X124080824Y-49505435D01*
X124072594Y-49589000D01*
X124072594Y-50839000D01*
X124084854Y-50963482D01*
X124111380Y-51050928D01*
X123755666Y-51050928D01*
X123631184Y-51063188D01*
X123511486Y-51099498D01*
X123401172Y-51158463D01*
X123304481Y-51237815D01*
X123225129Y-51334506D01*
X123166164Y-51444820D01*
X123129854Y-51564518D01*
X123117594Y-51689000D01*
X123117594Y-52939000D01*
X123124055Y-53004598D01*
X123025486Y-53034498D01*
X122915172Y-53093463D01*
X122818481Y-53172815D01*
X122739129Y-53269506D01*
X122680164Y-53379820D01*
X122643854Y-53499518D01*
X122631594Y-53624000D01*
X122631594Y-54624000D01*
X122643854Y-54748482D01*
X122680164Y-54868180D01*
X122739129Y-54978494D01*
X122817508Y-55074000D01*
X122739129Y-55169506D01*
X122680164Y-55279820D01*
X122677379Y-55289000D01*
X118112096Y-55289000D01*
X118075999Y-55285445D01*
X118039902Y-55289000D01*
X118039895Y-55289000D01*
X117946132Y-55298235D01*
X117931914Y-55299635D01*
X117889886Y-55312384D01*
X117793367Y-55341663D01*
X117665680Y-55409913D01*
X117553762Y-55501762D01*
X117530746Y-55529807D01*
X116896405Y-56164149D01*
X116896405Y-55524000D01*
X116884145Y-55399518D01*
X116847835Y-55279820D01*
X116788870Y-55169506D01*
X116710491Y-55074000D01*
X116788870Y-54978494D01*
X116847835Y-54868180D01*
X116884145Y-54748482D01*
X116896405Y-54624000D01*
X116896405Y-53624000D01*
X116884145Y-53499518D01*
X116879929Y-53485621D01*
X116960153Y-53528502D01*
X117079851Y-53564812D01*
X117204333Y-53577072D01*
X117218583Y-53574000D01*
X117377333Y-53415250D01*
X117377333Y-52441000D01*
X117631333Y-52441000D01*
X117631333Y-53415250D01*
X117790083Y-53574000D01*
X117804333Y-53577072D01*
X117928815Y-53564812D01*
X118048513Y-53528502D01*
X118158827Y-53469537D01*
X118255518Y-53390185D01*
X118334870Y-53293494D01*
X118393835Y-53183180D01*
X118430145Y-53063482D01*
X118442405Y-52939000D01*
X118439333Y-52599750D01*
X118280583Y-52441000D01*
X117631333Y-52441000D01*
X117377333Y-52441000D01*
X116728083Y-52441000D01*
X116569333Y-52599750D01*
X116566261Y-52939000D01*
X116578521Y-53063482D01*
X116582737Y-53077379D01*
X116521975Y-53044901D01*
X116532405Y-52939000D01*
X116532405Y-51689000D01*
X116520145Y-51564518D01*
X116493619Y-51477072D01*
X116605047Y-51477072D01*
X116578521Y-51564518D01*
X116566261Y-51689000D01*
X116569333Y-52028250D01*
X116728083Y-52187000D01*
X117377333Y-52187000D01*
X117377333Y-51212750D01*
X117631333Y-51212750D01*
X117631333Y-52187000D01*
X118280583Y-52187000D01*
X118439333Y-52028250D01*
X118442405Y-51689000D01*
X118430145Y-51564518D01*
X118393835Y-51444820D01*
X118334870Y-51334506D01*
X118255518Y-51237815D01*
X118158827Y-51158463D01*
X118048513Y-51099498D01*
X117928815Y-51063188D01*
X117804333Y-51050928D01*
X117790083Y-51054000D01*
X117631333Y-51212750D01*
X117377333Y-51212750D01*
X117370047Y-51205464D01*
X117379870Y-51193494D01*
X117438835Y-51083180D01*
X117475145Y-50963482D01*
X117487405Y-50839000D01*
X117487405Y-49589000D01*
X117479175Y-49505435D01*
X117518513Y-49493502D01*
X117628827Y-49434537D01*
X117725518Y-49355185D01*
X117804870Y-49258494D01*
X117863835Y-49148180D01*
X117900145Y-49028482D01*
X117912405Y-48904000D01*
X117912405Y-47904000D01*
X117900145Y-47779518D01*
X117863835Y-47659820D01*
X117804870Y-47549506D01*
X117726491Y-47454000D01*
X117804870Y-47358494D01*
X117863835Y-47248180D01*
X117900145Y-47128482D01*
X117912405Y-47004000D01*
X117912405Y-46004000D01*
X117900145Y-45879518D01*
X117863835Y-45759820D01*
X117804870Y-45649506D01*
X117725518Y-45552815D01*
X117628827Y-45473463D01*
X117518513Y-45414498D01*
X117398815Y-45378188D01*
X117274333Y-45365928D01*
X115824333Y-45365928D01*
X115699851Y-45378188D01*
X115580153Y-45414498D01*
X115469839Y-45473463D01*
X115373148Y-45552815D01*
X115293796Y-45649506D01*
X115234831Y-45759820D01*
X115232046Y-45769000D01*
X112208447Y-45769000D01*
X109635000Y-43195554D01*
X109635000Y-41918665D01*
X109728324Y-41918665D01*
X109928283Y-41878891D01*
X110116641Y-41800870D01*
X110286159Y-41687602D01*
X110355096Y-41618665D01*
X113044029Y-41618665D01*
X113041928Y-41640000D01*
X113041928Y-43140000D01*
X113054188Y-43264482D01*
X113090498Y-43384180D01*
X113149463Y-43494494D01*
X113228815Y-43591185D01*
X113325506Y-43670537D01*
X113435820Y-43729502D01*
X113555518Y-43765812D01*
X113680000Y-43778072D01*
X115180000Y-43778072D01*
X115304482Y-43765812D01*
X115424180Y-43729502D01*
X115534494Y-43670537D01*
X115631185Y-43591185D01*
X115710537Y-43494494D01*
X115769502Y-43384180D01*
X115805812Y-43264482D01*
X115816445Y-43156517D01*
X115894201Y-43272886D01*
X116087114Y-43465799D01*
X116313957Y-43617371D01*
X116566011Y-43721775D01*
X116833589Y-43775000D01*
X117106411Y-43775000D01*
X117373989Y-43721775D01*
X117626043Y-43617371D01*
X117852886Y-43465799D01*
X118045799Y-43272886D01*
X118197371Y-43046043D01*
X118240000Y-42943127D01*
X118282629Y-43046043D01*
X118434201Y-43272886D01*
X118627114Y-43465799D01*
X118853957Y-43617371D01*
X119106011Y-43721775D01*
X119373589Y-43775000D01*
X119646411Y-43775000D01*
X119913989Y-43721775D01*
X120166043Y-43617371D01*
X120392886Y-43465799D01*
X120585799Y-43272886D01*
X120737371Y-43046043D01*
X120780000Y-42943127D01*
X120822629Y-43046043D01*
X120974201Y-43272886D01*
X121167114Y-43465799D01*
X121393957Y-43617371D01*
X121646011Y-43721775D01*
X121913589Y-43775000D01*
X122186411Y-43775000D01*
X122453989Y-43721775D01*
X122706043Y-43617371D01*
X122932886Y-43465799D01*
X123125799Y-43272886D01*
X123277371Y-43046043D01*
X123320000Y-42943127D01*
X123362629Y-43046043D01*
X123514201Y-43272886D01*
X123707114Y-43465799D01*
X123933957Y-43617371D01*
X124186011Y-43721775D01*
X124453589Y-43775000D01*
X124726411Y-43775000D01*
X124993989Y-43721775D01*
X125246043Y-43617371D01*
X125472886Y-43465799D01*
X125665799Y-43272886D01*
X125817371Y-43046043D01*
X125860000Y-42943127D01*
X125902629Y-43046043D01*
X126054201Y-43272886D01*
X126247114Y-43465799D01*
X126473957Y-43617371D01*
X126726011Y-43721775D01*
X126993589Y-43775000D01*
X127266411Y-43775000D01*
X127533989Y-43721775D01*
X127786043Y-43617371D01*
X128012886Y-43465799D01*
X128205799Y-43272886D01*
X128357371Y-43046043D01*
X128461775Y-42793989D01*
X128515000Y-42526411D01*
X128515000Y-42253589D01*
X128461775Y-41986011D01*
X128357371Y-41733957D01*
X128205799Y-41507114D01*
X128012886Y-41314201D01*
X127786043Y-41162629D01*
X127533989Y-41058225D01*
X127266411Y-41005000D01*
X126993589Y-41005000D01*
X126726011Y-41058225D01*
X126473957Y-41162629D01*
X126247114Y-41314201D01*
X126054201Y-41507114D01*
X125902629Y-41733957D01*
X125860000Y-41836873D01*
X125817371Y-41733957D01*
X125665799Y-41507114D01*
X125472886Y-41314201D01*
X125246043Y-41162629D01*
X124993989Y-41058225D01*
X124726411Y-41005000D01*
X124453589Y-41005000D01*
X124186011Y-41058225D01*
X123933957Y-41162629D01*
X123707114Y-41314201D01*
X123514201Y-41507114D01*
X123362629Y-41733957D01*
X123320000Y-41836873D01*
X123277371Y-41733957D01*
X123125799Y-41507114D01*
X122932886Y-41314201D01*
X122706043Y-41162629D01*
X122453989Y-41058225D01*
X122186411Y-41005000D01*
X121913589Y-41005000D01*
X121739146Y-41039699D01*
X121088923Y-40389477D01*
X121065903Y-40361427D01*
X120953985Y-40269578D01*
X120826298Y-40201328D01*
X120687750Y-40159300D01*
X120579770Y-40148665D01*
X120543665Y-40145109D01*
X120507560Y-40148665D01*
X110355096Y-40148665D01*
X110286159Y-40079728D01*
X110116641Y-39966460D01*
X109928283Y-39888439D01*
X109728324Y-39848665D01*
X109635000Y-39848665D01*
X109635000Y-37804446D01*
X111104447Y-36335000D01*
X121063895Y-36335000D01*
X121100000Y-36338556D01*
X121136105Y-36335000D01*
X121244085Y-36324365D01*
X121382633Y-36282337D01*
X121510320Y-36214087D01*
X121622238Y-36122238D01*
X121645258Y-36094188D01*
X122544193Y-35195254D01*
X122572238Y-35172238D01*
X122664087Y-35060320D01*
X122732337Y-34932633D01*
X122774365Y-34794085D01*
X122785000Y-34686105D01*
X122788556Y-34650000D01*
X122785000Y-34613895D01*
X122785000Y-33404613D01*
X122932886Y-33305799D01*
X123125799Y-33112886D01*
X123277371Y-32886043D01*
X123320000Y-32783127D01*
X123362629Y-32886043D01*
%TA.AperFunction,Conductor*%
D28*
G36*
X123362629Y-32886043D02*
G01*
X123514201Y-33112886D01*
X123707114Y-33305799D01*
X123855000Y-33404614D01*
X123855000Y-34253895D01*
X123851444Y-34290000D01*
X123863989Y-34417368D01*
X123865635Y-34434084D01*
X123907663Y-34572632D01*
X123975913Y-34700319D01*
X124067762Y-34812237D01*
X124095808Y-34835254D01*
X125254746Y-35994193D01*
X125277762Y-36022238D01*
X125389680Y-36114087D01*
X125517367Y-36182337D01*
X125655915Y-36224365D01*
X125763895Y-36235000D01*
X125763904Y-36235000D01*
X125799999Y-36238555D01*
X125836094Y-36235000D01*
X128195554Y-36235000D01*
X129365001Y-37404448D01*
X129365000Y-43995553D01*
X127591554Y-45769000D01*
X126327953Y-45769000D01*
X126325168Y-45759820D01*
X126266203Y-45649506D01*
X126186851Y-45552815D01*
X126090160Y-45473463D01*
X125979846Y-45414498D01*
X125860148Y-45378188D01*
X125735666Y-45365928D01*
X124285666Y-45365928D01*
X124161184Y-45378188D01*
X124041486Y-45414498D01*
X123931172Y-45473463D01*
X123834481Y-45552815D01*
X123755129Y-45649506D01*
X123696164Y-45759820D01*
X123659854Y-45879518D01*
X123647594Y-46004000D01*
X123647594Y-47004000D01*
X123659854Y-47128482D01*
X123696164Y-47248180D01*
X123755129Y-47358494D01*
X123833508Y-47454000D01*
X123755129Y-47549506D01*
X123696164Y-47659820D01*
X123659854Y-47779518D01*
X123647594Y-47904000D01*
X123647594Y-48904000D01*
X123659854Y-49028482D01*
X123696164Y-49148180D01*
X123755129Y-49258494D01*
X123834481Y-49355185D01*
X123931172Y-49434537D01*
X124041486Y-49493502D01*
X124080824Y-49505435D01*
X124072594Y-49589000D01*
X124072594Y-50839000D01*
X124084854Y-50963482D01*
X124111380Y-51050928D01*
X123755666Y-51050928D01*
X123631184Y-51063188D01*
X123511486Y-51099498D01*
X123401172Y-51158463D01*
X123304481Y-51237815D01*
X123225129Y-51334506D01*
X123166164Y-51444820D01*
X123129854Y-51564518D01*
X123117594Y-51689000D01*
X123117594Y-52939000D01*
X123124055Y-53004598D01*
X123025486Y-53034498D01*
X122915172Y-53093463D01*
X122818481Y-53172815D01*
X122739129Y-53269506D01*
X122680164Y-53379820D01*
X122643854Y-53499518D01*
X122631594Y-53624000D01*
X122631594Y-54624000D01*
X122643854Y-54748482D01*
X122680164Y-54868180D01*
X122739129Y-54978494D01*
X122817508Y-55074000D01*
X122739129Y-55169506D01*
X122680164Y-55279820D01*
X122677379Y-55289000D01*
X118112096Y-55289000D01*
X118075999Y-55285445D01*
X118039902Y-55289000D01*
X118039895Y-55289000D01*
X117946132Y-55298235D01*
X117931914Y-55299635D01*
X117889886Y-55312384D01*
X117793367Y-55341663D01*
X117665680Y-55409913D01*
X117553762Y-55501762D01*
X117530746Y-55529807D01*
X116896405Y-56164149D01*
X116896405Y-55524000D01*
X116884145Y-55399518D01*
X116847835Y-55279820D01*
X116788870Y-55169506D01*
X116710491Y-55074000D01*
X116788870Y-54978494D01*
X116847835Y-54868180D01*
X116884145Y-54748482D01*
X116896405Y-54624000D01*
X116896405Y-53624000D01*
X116884145Y-53499518D01*
X116879929Y-53485621D01*
X116960153Y-53528502D01*
X117079851Y-53564812D01*
X117204333Y-53577072D01*
X117218583Y-53574000D01*
X117377333Y-53415250D01*
X117377333Y-52441000D01*
X117631333Y-52441000D01*
X117631333Y-53415250D01*
X117790083Y-53574000D01*
X117804333Y-53577072D01*
X117928815Y-53564812D01*
X118048513Y-53528502D01*
X118158827Y-53469537D01*
X118255518Y-53390185D01*
X118334870Y-53293494D01*
X118393835Y-53183180D01*
X118430145Y-53063482D01*
X118442405Y-52939000D01*
X118439333Y-52599750D01*
X118280583Y-52441000D01*
X117631333Y-52441000D01*
X117377333Y-52441000D01*
X116728083Y-52441000D01*
X116569333Y-52599750D01*
X116566261Y-52939000D01*
X116578521Y-53063482D01*
X116582737Y-53077379D01*
X116521975Y-53044901D01*
X116532405Y-52939000D01*
X116532405Y-51689000D01*
X116520145Y-51564518D01*
X116493619Y-51477072D01*
X116605047Y-51477072D01*
X116578521Y-51564518D01*
X116566261Y-51689000D01*
X116569333Y-52028250D01*
X116728083Y-52187000D01*
X117377333Y-52187000D01*
X117377333Y-51212750D01*
X117631333Y-51212750D01*
X117631333Y-52187000D01*
X118280583Y-52187000D01*
X118439333Y-52028250D01*
X118442405Y-51689000D01*
X118430145Y-51564518D01*
X118393835Y-51444820D01*
X118334870Y-51334506D01*
X118255518Y-51237815D01*
X118158827Y-51158463D01*
X118048513Y-51099498D01*
X117928815Y-51063188D01*
X117804333Y-51050928D01*
X117790083Y-51054000D01*
X117631333Y-51212750D01*
X117377333Y-51212750D01*
X117370047Y-51205464D01*
X117379870Y-51193494D01*
X117438835Y-51083180D01*
X117475145Y-50963482D01*
X117487405Y-50839000D01*
X117487405Y-49589000D01*
X117479175Y-49505435D01*
X117518513Y-49493502D01*
X117628827Y-49434537D01*
X117725518Y-49355185D01*
X117804870Y-49258494D01*
X117863835Y-49148180D01*
X117900145Y-49028482D01*
X117912405Y-48904000D01*
X117912405Y-47904000D01*
X117900145Y-47779518D01*
X117863835Y-47659820D01*
X117804870Y-47549506D01*
X117726491Y-47454000D01*
X117804870Y-47358494D01*
X117863835Y-47248180D01*
X117900145Y-47128482D01*
X117912405Y-47004000D01*
X117912405Y-46004000D01*
X117900145Y-45879518D01*
X117863835Y-45759820D01*
X117804870Y-45649506D01*
X117725518Y-45552815D01*
X117628827Y-45473463D01*
X117518513Y-45414498D01*
X117398815Y-45378188D01*
X117274333Y-45365928D01*
X115824333Y-45365928D01*
X115699851Y-45378188D01*
X115580153Y-45414498D01*
X115469839Y-45473463D01*
X115373148Y-45552815D01*
X115293796Y-45649506D01*
X115234831Y-45759820D01*
X115232046Y-45769000D01*
X112208447Y-45769000D01*
X109635000Y-43195554D01*
X109635000Y-41918665D01*
X109728324Y-41918665D01*
X109928283Y-41878891D01*
X110116641Y-41800870D01*
X110286159Y-41687602D01*
X110355096Y-41618665D01*
X113044029Y-41618665D01*
X113041928Y-41640000D01*
X113041928Y-43140000D01*
X113054188Y-43264482D01*
X113090498Y-43384180D01*
X113149463Y-43494494D01*
X113228815Y-43591185D01*
X113325506Y-43670537D01*
X113435820Y-43729502D01*
X113555518Y-43765812D01*
X113680000Y-43778072D01*
X115180000Y-43778072D01*
X115304482Y-43765812D01*
X115424180Y-43729502D01*
X115534494Y-43670537D01*
X115631185Y-43591185D01*
X115710537Y-43494494D01*
X115769502Y-43384180D01*
X115805812Y-43264482D01*
X115816445Y-43156517D01*
X115894201Y-43272886D01*
X116087114Y-43465799D01*
X116313957Y-43617371D01*
X116566011Y-43721775D01*
X116833589Y-43775000D01*
X117106411Y-43775000D01*
X117373989Y-43721775D01*
X117626043Y-43617371D01*
X117852886Y-43465799D01*
X118045799Y-43272886D01*
X118197371Y-43046043D01*
X118240000Y-42943127D01*
X118282629Y-43046043D01*
X118434201Y-43272886D01*
X118627114Y-43465799D01*
X118853957Y-43617371D01*
X119106011Y-43721775D01*
X119373589Y-43775000D01*
X119646411Y-43775000D01*
X119913989Y-43721775D01*
X120166043Y-43617371D01*
X120392886Y-43465799D01*
X120585799Y-43272886D01*
X120737371Y-43046043D01*
X120780000Y-42943127D01*
X120822629Y-43046043D01*
X120974201Y-43272886D01*
X121167114Y-43465799D01*
X121393957Y-43617371D01*
X121646011Y-43721775D01*
X121913589Y-43775000D01*
X122186411Y-43775000D01*
X122453989Y-43721775D01*
X122706043Y-43617371D01*
X122932886Y-43465799D01*
X123125799Y-43272886D01*
X123277371Y-43046043D01*
X123320000Y-42943127D01*
X123362629Y-43046043D01*
X123514201Y-43272886D01*
X123707114Y-43465799D01*
X123933957Y-43617371D01*
X124186011Y-43721775D01*
X124453589Y-43775000D01*
X124726411Y-43775000D01*
X124993989Y-43721775D01*
X125246043Y-43617371D01*
X125472886Y-43465799D01*
X125665799Y-43272886D01*
X125817371Y-43046043D01*
X125860000Y-42943127D01*
X125902629Y-43046043D01*
X126054201Y-43272886D01*
X126247114Y-43465799D01*
X126473957Y-43617371D01*
X126726011Y-43721775D01*
X126993589Y-43775000D01*
X127266411Y-43775000D01*
X127533989Y-43721775D01*
X127786043Y-43617371D01*
X128012886Y-43465799D01*
X128205799Y-43272886D01*
X128357371Y-43046043D01*
X128461775Y-42793989D01*
X128515000Y-42526411D01*
X128515000Y-42253589D01*
X128461775Y-41986011D01*
X128357371Y-41733957D01*
X128205799Y-41507114D01*
X128012886Y-41314201D01*
X127786043Y-41162629D01*
X127533989Y-41058225D01*
X127266411Y-41005000D01*
X126993589Y-41005000D01*
X126726011Y-41058225D01*
X126473957Y-41162629D01*
X126247114Y-41314201D01*
X126054201Y-41507114D01*
X125902629Y-41733957D01*
X125860000Y-41836873D01*
X125817371Y-41733957D01*
X125665799Y-41507114D01*
X125472886Y-41314201D01*
X125246043Y-41162629D01*
X124993989Y-41058225D01*
X124726411Y-41005000D01*
X124453589Y-41005000D01*
X124186011Y-41058225D01*
X123933957Y-41162629D01*
X123707114Y-41314201D01*
X123514201Y-41507114D01*
X123362629Y-41733957D01*
X123320000Y-41836873D01*
X123277371Y-41733957D01*
X123125799Y-41507114D01*
X122932886Y-41314201D01*
X122706043Y-41162629D01*
X122453989Y-41058225D01*
X122186411Y-41005000D01*
X121913589Y-41005000D01*
X121739146Y-41039699D01*
X121088923Y-40389477D01*
X121065903Y-40361427D01*
X120953985Y-40269578D01*
X120826298Y-40201328D01*
X120687750Y-40159300D01*
X120579770Y-40148665D01*
X120543665Y-40145109D01*
X120507560Y-40148665D01*
X110355096Y-40148665D01*
X110286159Y-40079728D01*
X110116641Y-39966460D01*
X109928283Y-39888439D01*
X109728324Y-39848665D01*
X109635000Y-39848665D01*
X109635000Y-37804446D01*
X111104447Y-36335000D01*
X121063895Y-36335000D01*
X121100000Y-36338556D01*
X121136105Y-36335000D01*
X121244085Y-36324365D01*
X121382633Y-36282337D01*
X121510320Y-36214087D01*
X121622238Y-36122238D01*
X121645258Y-36094188D01*
X122544193Y-35195254D01*
X122572238Y-35172238D01*
X122664087Y-35060320D01*
X122732337Y-34932633D01*
X122774365Y-34794085D01*
X122785000Y-34686105D01*
X122788556Y-34650000D01*
X122785000Y-34613895D01*
X122785000Y-33404613D01*
X122932886Y-33305799D01*
X123125799Y-33112886D01*
X123277371Y-32886043D01*
X123320000Y-32783127D01*
X123362629Y-32886043D01*
G37*
%TD.AperFunction*%
D27*
X111358746Y-46998193D02*
X111381762Y-47026238D01*
X111409806Y-47049253D01*
X111493680Y-47118087D01*
X111621366Y-47186337D01*
X111759915Y-47228365D01*
X111904000Y-47242556D01*
X111940105Y-47239000D01*
X115232046Y-47239000D01*
X115234831Y-47248180D01*
X115293796Y-47358494D01*
X115372175Y-47454000D01*
X115293796Y-47549506D01*
X115234831Y-47659820D01*
X115198521Y-47779518D01*
X115186261Y-47904000D01*
X115186261Y-48904000D01*
X115198521Y-49028482D01*
X115234831Y-49148180D01*
X115293796Y-49258494D01*
X115373148Y-49355185D01*
X115469839Y-49434537D01*
X115580153Y-49493502D01*
X115619491Y-49505435D01*
X115611261Y-49589000D01*
X115611261Y-50839000D01*
X115623521Y-50963482D01*
X115650047Y-51050928D01*
X115294333Y-51050928D01*
X115169851Y-51063188D01*
X115050153Y-51099498D01*
X114939839Y-51158463D01*
X114843148Y-51237815D01*
X114763796Y-51334506D01*
X114704831Y-51444820D01*
X114668521Y-51564518D01*
X114656261Y-51689000D01*
X114656261Y-52939000D01*
X114662722Y-53004598D01*
X114564153Y-53034498D01*
X114453839Y-53093463D01*
X114357148Y-53172815D01*
X114277796Y-53269506D01*
X114218831Y-53379820D01*
X114182521Y-53499518D01*
X114170261Y-53624000D01*
X114170261Y-54624000D01*
X114182521Y-54748482D01*
X114218831Y-54868180D01*
X114277796Y-54978494D01*
X114356175Y-55074000D01*
X114277796Y-55169506D01*
X114218831Y-55279820D01*
X114216046Y-55289000D01*
X111412104Y-55289000D01*
X111375999Y-55285444D01*
X111231914Y-55299635D01*
X111199668Y-55309417D01*
X111093367Y-55341663D01*
X110965680Y-55409913D01*
X110853762Y-55501762D01*
X110830741Y-55529813D01*
X110656808Y-55703746D01*
X110628762Y-55726763D01*
X110536913Y-55838681D01*
X110468663Y-55966368D01*
X110466646Y-55973016D01*
X110301898Y-55904774D01*
X110278729Y-55900165D01*
X110307979Y-55817584D01*
X109370000Y-54879605D01*
X109355858Y-54893748D01*
X109176253Y-54714143D01*
X109190395Y-54700000D01*
X109549605Y-54700000D01*
X110487584Y-55637979D01*
X110749429Y-55545234D01*
X110887820Y-55259880D01*
X110967883Y-54953010D01*
X110986540Y-54636416D01*
X110943074Y-54322267D01*
X110839156Y-54022633D01*
X110749429Y-53854766D01*
X110487584Y-53762021D01*
X109549605Y-54700000D01*
X109190395Y-54700000D01*
X109176253Y-54685858D01*
X109355858Y-54506253D01*
X109370000Y-54520395D01*
X110307979Y-53582416D01*
X110215234Y-53320571D01*
X109932387Y-53183396D01*
X109932502Y-53183180D01*
X109968812Y-53063482D01*
X109981072Y-52939000D01*
X109978000Y-52599750D01*
X109819250Y-52441000D01*
X109170000Y-52441000D01*
X109170000Y-52461000D01*
X108916000Y-52461000D01*
X108916000Y-52441000D01*
X108266750Y-52441000D01*
X108108000Y-52599750D01*
X108104928Y-52939000D01*
X108117188Y-53063482D01*
X108121404Y-53077379D01*
X108060642Y-53044901D01*
X108071072Y-52939000D01*
X108071072Y-51689000D01*
X108058812Y-51564518D01*
X108032286Y-51477072D01*
X108143714Y-51477072D01*
X108117188Y-51564518D01*
X108104928Y-51689000D01*
X108108000Y-52028250D01*
X108266750Y-52187000D01*
X108916000Y-52187000D01*
X108916000Y-51212750D01*
X109170000Y-51212750D01*
X109170000Y-52187000D01*
X109819250Y-52187000D01*
X109978000Y-52028250D01*
X109981072Y-51689000D01*
X109968812Y-51564518D01*
X109932502Y-51444820D01*
X109873537Y-51334506D01*
X109794185Y-51237815D01*
X109697494Y-51158463D01*
X109587180Y-51099498D01*
X109467482Y-51063188D01*
X109343000Y-51050928D01*
X109328750Y-51054000D01*
X109170000Y-51212750D01*
X108916000Y-51212750D01*
X108908714Y-51205464D01*
X108918537Y-51193494D01*
X108977502Y-51083180D01*
X109013812Y-50963482D01*
X109026072Y-50839000D01*
X109026072Y-49589000D01*
X109017842Y-49505435D01*
X109057180Y-49493502D01*
X109167494Y-49434537D01*
X109264185Y-49355185D01*
X109343537Y-49258494D01*
X109402502Y-49148180D01*
X109438812Y-49028482D01*
X109451072Y-48904000D01*
X109451072Y-47904000D01*
X109438812Y-47779518D01*
X109402502Y-47659820D01*
X109343537Y-47549506D01*
X109265158Y-47454000D01*
X109343537Y-47358494D01*
X109402502Y-47248180D01*
X109438812Y-47128482D01*
X109451072Y-47004000D01*
X109451072Y-46004000D01*
X109438812Y-45879518D01*
X109402502Y-45759820D01*
X109343537Y-45649506D01*
X109264185Y-45552815D01*
X109167494Y-45473463D01*
X109057180Y-45414498D01*
X108937482Y-45378188D01*
X108823000Y-45366913D01*
X108823000Y-44462446D01*
X111358746Y-46998193D01*
%TA.AperFunction,Conductor*%
D28*
G36*
X111358746Y-46998193D02*
G01*
X111381762Y-47026238D01*
X111409806Y-47049253D01*
X111493680Y-47118087D01*
X111621366Y-47186337D01*
X111759915Y-47228365D01*
X111904000Y-47242556D01*
X111940105Y-47239000D01*
X115232046Y-47239000D01*
X115234831Y-47248180D01*
X115293796Y-47358494D01*
X115372175Y-47454000D01*
X115293796Y-47549506D01*
X115234831Y-47659820D01*
X115198521Y-47779518D01*
X115186261Y-47904000D01*
X115186261Y-48904000D01*
X115198521Y-49028482D01*
X115234831Y-49148180D01*
X115293796Y-49258494D01*
X115373148Y-49355185D01*
X115469839Y-49434537D01*
X115580153Y-49493502D01*
X115619491Y-49505435D01*
X115611261Y-49589000D01*
X115611261Y-50839000D01*
X115623521Y-50963482D01*
X115650047Y-51050928D01*
X115294333Y-51050928D01*
X115169851Y-51063188D01*
X115050153Y-51099498D01*
X114939839Y-51158463D01*
X114843148Y-51237815D01*
X114763796Y-51334506D01*
X114704831Y-51444820D01*
X114668521Y-51564518D01*
X114656261Y-51689000D01*
X114656261Y-52939000D01*
X114662722Y-53004598D01*
X114564153Y-53034498D01*
X114453839Y-53093463D01*
X114357148Y-53172815D01*
X114277796Y-53269506D01*
X114218831Y-53379820D01*
X114182521Y-53499518D01*
X114170261Y-53624000D01*
X114170261Y-54624000D01*
X114182521Y-54748482D01*
X114218831Y-54868180D01*
X114277796Y-54978494D01*
X114356175Y-55074000D01*
X114277796Y-55169506D01*
X114218831Y-55279820D01*
X114216046Y-55289000D01*
X111412104Y-55289000D01*
X111375999Y-55285444D01*
X111231914Y-55299635D01*
X111199668Y-55309417D01*
X111093367Y-55341663D01*
X110965680Y-55409913D01*
X110853762Y-55501762D01*
X110830741Y-55529813D01*
X110656808Y-55703746D01*
X110628762Y-55726763D01*
X110536913Y-55838681D01*
X110468663Y-55966368D01*
X110466646Y-55973016D01*
X110301898Y-55904774D01*
X110278729Y-55900165D01*
X110307979Y-55817584D01*
X109370000Y-54879605D01*
X109355858Y-54893748D01*
X109176253Y-54714143D01*
X109190395Y-54700000D01*
X109549605Y-54700000D01*
X110487584Y-55637979D01*
X110749429Y-55545234D01*
X110887820Y-55259880D01*
X110967883Y-54953010D01*
X110986540Y-54636416D01*
X110943074Y-54322267D01*
X110839156Y-54022633D01*
X110749429Y-53854766D01*
X110487584Y-53762021D01*
X109549605Y-54700000D01*
X109190395Y-54700000D01*
X109176253Y-54685858D01*
X109355858Y-54506253D01*
X109370000Y-54520395D01*
X110307979Y-53582416D01*
X110215234Y-53320571D01*
X109932387Y-53183396D01*
X109932502Y-53183180D01*
X109968812Y-53063482D01*
X109981072Y-52939000D01*
X109978000Y-52599750D01*
X109819250Y-52441000D01*
X109170000Y-52441000D01*
X109170000Y-52461000D01*
X108916000Y-52461000D01*
X108916000Y-52441000D01*
X108266750Y-52441000D01*
X108108000Y-52599750D01*
X108104928Y-52939000D01*
X108117188Y-53063482D01*
X108121404Y-53077379D01*
X108060642Y-53044901D01*
X108071072Y-52939000D01*
X108071072Y-51689000D01*
X108058812Y-51564518D01*
X108032286Y-51477072D01*
X108143714Y-51477072D01*
X108117188Y-51564518D01*
X108104928Y-51689000D01*
X108108000Y-52028250D01*
X108266750Y-52187000D01*
X108916000Y-52187000D01*
X108916000Y-51212750D01*
X109170000Y-51212750D01*
X109170000Y-52187000D01*
X109819250Y-52187000D01*
X109978000Y-52028250D01*
X109981072Y-51689000D01*
X109968812Y-51564518D01*
X109932502Y-51444820D01*
X109873537Y-51334506D01*
X109794185Y-51237815D01*
X109697494Y-51158463D01*
X109587180Y-51099498D01*
X109467482Y-51063188D01*
X109343000Y-51050928D01*
X109328750Y-51054000D01*
X109170000Y-51212750D01*
X108916000Y-51212750D01*
X108908714Y-51205464D01*
X108918537Y-51193494D01*
X108977502Y-51083180D01*
X109013812Y-50963482D01*
X109026072Y-50839000D01*
X109026072Y-49589000D01*
X109017842Y-49505435D01*
X109057180Y-49493502D01*
X109167494Y-49434537D01*
X109264185Y-49355185D01*
X109343537Y-49258494D01*
X109402502Y-49148180D01*
X109438812Y-49028482D01*
X109451072Y-48904000D01*
X109451072Y-47904000D01*
X109438812Y-47779518D01*
X109402502Y-47659820D01*
X109343537Y-47549506D01*
X109265158Y-47454000D01*
X109343537Y-47358494D01*
X109402502Y-47248180D01*
X109438812Y-47128482D01*
X109451072Y-47004000D01*
X109451072Y-46004000D01*
X109438812Y-45879518D01*
X109402502Y-45759820D01*
X109343537Y-45649506D01*
X109264185Y-45552815D01*
X109167494Y-45473463D01*
X109057180Y-45414498D01*
X108937482Y-45378188D01*
X108823000Y-45366913D01*
X108823000Y-44462446D01*
X111358746Y-46998193D01*
G37*
%TD.AperFunction*%
D27*
X136365001Y-46704448D02*
X136365000Y-53161238D01*
X133819072Y-55707166D01*
X133819072Y-55524000D01*
X133806812Y-55399518D01*
X133770502Y-55279820D01*
X133711537Y-55169506D01*
X133633158Y-55074000D01*
X133711537Y-54978494D01*
X133770502Y-54868180D01*
X133806812Y-54748482D01*
X133819072Y-54624000D01*
X133819072Y-53624000D01*
X133806812Y-53499518D01*
X133802596Y-53485621D01*
X133882820Y-53528502D01*
X134002518Y-53564812D01*
X134127000Y-53577072D01*
X134141250Y-53574000D01*
X134300000Y-53415250D01*
X134300000Y-52441000D01*
X134554000Y-52441000D01*
X134554000Y-53415250D01*
X134712750Y-53574000D01*
X134727000Y-53577072D01*
X134851482Y-53564812D01*
X134971180Y-53528502D01*
X135081494Y-53469537D01*
X135178185Y-53390185D01*
X135257537Y-53293494D01*
X135316502Y-53183180D01*
X135352812Y-53063482D01*
X135365072Y-52939000D01*
X135362000Y-52599750D01*
X135203250Y-52441000D01*
X134554000Y-52441000D01*
X134300000Y-52441000D01*
X133650750Y-52441000D01*
X133492000Y-52599750D01*
X133488928Y-52939000D01*
X133501188Y-53063482D01*
X133505404Y-53077379D01*
X133444642Y-53044901D01*
X133455072Y-52939000D01*
X133455072Y-51689000D01*
X133442812Y-51564518D01*
X133416286Y-51477072D01*
X133527714Y-51477072D01*
X133501188Y-51564518D01*
X133488928Y-51689000D01*
X133492000Y-52028250D01*
X133650750Y-52187000D01*
X134300000Y-52187000D01*
X134300000Y-51212750D01*
X134554000Y-51212750D01*
X134554000Y-52187000D01*
X135203250Y-52187000D01*
X135362000Y-52028250D01*
X135365072Y-51689000D01*
X135352812Y-51564518D01*
X135316502Y-51444820D01*
X135257537Y-51334506D01*
X135178185Y-51237815D01*
X135081494Y-51158463D01*
X134971180Y-51099498D01*
X134851482Y-51063188D01*
X134727000Y-51050928D01*
X134712750Y-51054000D01*
X134554000Y-51212750D01*
X134300000Y-51212750D01*
X134292714Y-51205464D01*
X134302537Y-51193494D01*
X134361502Y-51083180D01*
X134397812Y-50963482D01*
X134410072Y-50839000D01*
X134410072Y-49589000D01*
X134401842Y-49505435D01*
X134441180Y-49493502D01*
X134551494Y-49434537D01*
X134648185Y-49355185D01*
X134727537Y-49258494D01*
X134786502Y-49148180D01*
X134822812Y-49028482D01*
X134835072Y-48904000D01*
X134835072Y-47904000D01*
X134822812Y-47779518D01*
X134786502Y-47659820D01*
X134727537Y-47549506D01*
X134649158Y-47454000D01*
X134727537Y-47358494D01*
X134786502Y-47248180D01*
X134822812Y-47128482D01*
X134835072Y-47004000D01*
X134835072Y-46004000D01*
X134822812Y-45879518D01*
X134786502Y-45759820D01*
X134727537Y-45649506D01*
X134648185Y-45552815D01*
X134551494Y-45473463D01*
X134447243Y-45417739D01*
X134495226Y-45301898D01*
X134535000Y-45101939D01*
X134535000Y-44898061D01*
X134529137Y-44868583D01*
X136365001Y-46704448D01*
%TA.AperFunction,Conductor*%
D28*
G36*
X136365001Y-46704448D02*
G01*
X136365000Y-53161238D01*
X133819072Y-55707166D01*
X133819072Y-55524000D01*
X133806812Y-55399518D01*
X133770502Y-55279820D01*
X133711537Y-55169506D01*
X133633158Y-55074000D01*
X133711537Y-54978494D01*
X133770502Y-54868180D01*
X133806812Y-54748482D01*
X133819072Y-54624000D01*
X133819072Y-53624000D01*
X133806812Y-53499518D01*
X133802596Y-53485621D01*
X133882820Y-53528502D01*
X134002518Y-53564812D01*
X134127000Y-53577072D01*
X134141250Y-53574000D01*
X134300000Y-53415250D01*
X134300000Y-52441000D01*
X134554000Y-52441000D01*
X134554000Y-53415250D01*
X134712750Y-53574000D01*
X134727000Y-53577072D01*
X134851482Y-53564812D01*
X134971180Y-53528502D01*
X135081494Y-53469537D01*
X135178185Y-53390185D01*
X135257537Y-53293494D01*
X135316502Y-53183180D01*
X135352812Y-53063482D01*
X135365072Y-52939000D01*
X135362000Y-52599750D01*
X135203250Y-52441000D01*
X134554000Y-52441000D01*
X134300000Y-52441000D01*
X133650750Y-52441000D01*
X133492000Y-52599750D01*
X133488928Y-52939000D01*
X133501188Y-53063482D01*
X133505404Y-53077379D01*
X133444642Y-53044901D01*
X133455072Y-52939000D01*
X133455072Y-51689000D01*
X133442812Y-51564518D01*
X133416286Y-51477072D01*
X133527714Y-51477072D01*
X133501188Y-51564518D01*
X133488928Y-51689000D01*
X133492000Y-52028250D01*
X133650750Y-52187000D01*
X134300000Y-52187000D01*
X134300000Y-51212750D01*
X134554000Y-51212750D01*
X134554000Y-52187000D01*
X135203250Y-52187000D01*
X135362000Y-52028250D01*
X135365072Y-51689000D01*
X135352812Y-51564518D01*
X135316502Y-51444820D01*
X135257537Y-51334506D01*
X135178185Y-51237815D01*
X135081494Y-51158463D01*
X134971180Y-51099498D01*
X134851482Y-51063188D01*
X134727000Y-51050928D01*
X134712750Y-51054000D01*
X134554000Y-51212750D01*
X134300000Y-51212750D01*
X134292714Y-51205464D01*
X134302537Y-51193494D01*
X134361502Y-51083180D01*
X134397812Y-50963482D01*
X134410072Y-50839000D01*
X134410072Y-49589000D01*
X134401842Y-49505435D01*
X134441180Y-49493502D01*
X134551494Y-49434537D01*
X134648185Y-49355185D01*
X134727537Y-49258494D01*
X134786502Y-49148180D01*
X134822812Y-49028482D01*
X134835072Y-48904000D01*
X134835072Y-47904000D01*
X134822812Y-47779518D01*
X134786502Y-47659820D01*
X134727537Y-47549506D01*
X134649158Y-47454000D01*
X134727537Y-47358494D01*
X134786502Y-47248180D01*
X134822812Y-47128482D01*
X134835072Y-47004000D01*
X134835072Y-46004000D01*
X134822812Y-45879518D01*
X134786502Y-45759820D01*
X134727537Y-45649506D01*
X134648185Y-45552815D01*
X134551494Y-45473463D01*
X134447243Y-45417739D01*
X134495226Y-45301898D01*
X134535000Y-45101939D01*
X134535000Y-44898061D01*
X134529137Y-44868583D01*
X136365001Y-46704448D01*
G37*
%TD.AperFunction*%
D27*
X120877000Y-26573000D02*
X121359750Y-26573000D01*
X121413750Y-26627000D01*
X122017000Y-26627000D01*
X122017000Y-26553000D01*
X122123000Y-26553000D01*
X122123000Y-26627000D01*
X122217000Y-26627000D01*
X122217000Y-26773000D01*
X122123000Y-26773000D01*
X122123000Y-26847000D01*
X122017000Y-26847000D01*
X122017000Y-26773000D01*
X121413750Y-26773000D01*
X121359750Y-26827000D01*
X120877000Y-26827000D01*
X120877000Y-26847000D01*
X120623000Y-26847000D01*
X120623000Y-26827000D01*
X120603000Y-26827000D01*
X120603000Y-26573000D01*
X120623000Y-26573000D01*
X120623000Y-26553000D01*
X120877000Y-26553000D01*
X120877000Y-26573000D01*
%TA.AperFunction,Conductor*%
D28*
G36*
X120877000Y-26573000D02*
G01*
X121359750Y-26573000D01*
X121413750Y-26627000D01*
X122017000Y-26627000D01*
X122017000Y-26553000D01*
X122123000Y-26553000D01*
X122123000Y-26627000D01*
X122217000Y-26627000D01*
X122217000Y-26773000D01*
X122123000Y-26773000D01*
X122123000Y-26847000D01*
X122017000Y-26847000D01*
X122017000Y-26773000D01*
X121413750Y-26773000D01*
X121359750Y-26827000D01*
X120877000Y-26827000D01*
X120877000Y-26847000D01*
X120623000Y-26847000D01*
X120623000Y-26827000D01*
X120603000Y-26827000D01*
X120603000Y-26573000D01*
X120623000Y-26573000D01*
X120623000Y-26553000D01*
X120877000Y-26553000D01*
X120877000Y-26573000D01*
G37*
%TD.AperFunction*%
%TD*%
M02*
