%TF.GenerationSoftware,KiCad,Pcbnew,(5.1.10)-1*%
%TF.CreationDate,2021-11-08T18:16:21+01:00*%
%TF.ProjectId,RHT device,52485420-6465-4766-9963-652e6b696361,rev?*%
%TF.SameCoordinates,Original*%
%TF.FileFunction,Legend,Bot*%
%TF.FilePolarity,Positive*%
%FSLAX46Y46*%
G04 Gerber Fmt 4.6, Leading zero omitted, Abs format (unit mm)*
G04 Created by KiCad (PCBNEW (5.1.10)-1) date 2021-11-08 18:16:21*
%MOMM*%
%LPD*%
G01*
G04 APERTURE LIST*
%ADD10C,0.275000*%
%ADD11C,0.300000*%
%ADD12C,0.200000*%
%ADD13C,0.010000*%
%ADD14C,0.100000*%
%ADD15C,1.950000*%
%ADD16C,1.850000*%
%ADD17C,1.550000*%
%ADD18C,1.500000*%
%ADD19R,1.500000X1.500000*%
G04 APERTURE END LIST*
D10*
X120178571Y-54521428D02*
X120021428Y-54573809D01*
X119969047Y-54626190D01*
X119916666Y-54730952D01*
X119916666Y-54888095D01*
X119969047Y-54992857D01*
X120021428Y-55045238D01*
X120126190Y-55097619D01*
X120545238Y-55097619D01*
X120545238Y-53997619D01*
X120178571Y-53997619D01*
X120073809Y-54050000D01*
X120021428Y-54102380D01*
X119969047Y-54207142D01*
X119969047Y-54311904D01*
X120021428Y-54416666D01*
X120073809Y-54469047D01*
X120178571Y-54521428D01*
X120545238Y-54521428D01*
X118973809Y-55097619D02*
X118973809Y-54521428D01*
X119026190Y-54416666D01*
X119130952Y-54364285D01*
X119340476Y-54364285D01*
X119445238Y-54416666D01*
X118973809Y-55045238D02*
X119078571Y-55097619D01*
X119340476Y-55097619D01*
X119445238Y-55045238D01*
X119497619Y-54940476D01*
X119497619Y-54835714D01*
X119445238Y-54730952D01*
X119340476Y-54678571D01*
X119078571Y-54678571D01*
X118973809Y-54626190D01*
X118607142Y-54364285D02*
X118188095Y-54364285D01*
X118450000Y-53997619D02*
X118450000Y-54940476D01*
X118397619Y-55045238D01*
X118292857Y-55097619D01*
X118188095Y-55097619D01*
X117978571Y-54364285D02*
X117559523Y-54364285D01*
X117821428Y-53997619D02*
X117821428Y-54940476D01*
X117769047Y-55045238D01*
X117664285Y-55097619D01*
X117559523Y-55097619D01*
X116773809Y-55045238D02*
X116878571Y-55097619D01*
X117088095Y-55097619D01*
X117192857Y-55045238D01*
X117245238Y-54940476D01*
X117245238Y-54521428D01*
X117192857Y-54416666D01*
X117088095Y-54364285D01*
X116878571Y-54364285D01*
X116773809Y-54416666D01*
X116721428Y-54521428D01*
X116721428Y-54626190D01*
X117245238Y-54730952D01*
X116250000Y-55097619D02*
X116250000Y-54364285D01*
X116250000Y-54573809D02*
X116197619Y-54469047D01*
X116145238Y-54416666D01*
X116040476Y-54364285D01*
X115935714Y-54364285D01*
X115673809Y-54364285D02*
X115411904Y-55097619D01*
X115150000Y-54364285D02*
X115411904Y-55097619D01*
X115516666Y-55359523D01*
X115569047Y-55411904D01*
X115673809Y-55464285D01*
D11*
D12*
X138197619Y-38678571D02*
X137673809Y-38311904D01*
X138197619Y-38050000D02*
X137097619Y-38050000D01*
X137097619Y-38469047D01*
X137150000Y-38573809D01*
X137202380Y-38626190D01*
X137307142Y-38678571D01*
X137464285Y-38678571D01*
X137569047Y-38626190D01*
X137621428Y-38573809D01*
X137673809Y-38469047D01*
X137673809Y-38050000D01*
X138197619Y-39150000D02*
X137097619Y-39150000D01*
X137621428Y-39150000D02*
X137621428Y-39778571D01*
X138197619Y-39778571D02*
X137097619Y-39778571D01*
X137097619Y-40145238D02*
X137097619Y-40773809D01*
X138197619Y-40459523D02*
X137097619Y-40459523D01*
X138197619Y-41978571D02*
X137097619Y-41978571D01*
X137097619Y-42240476D01*
X137150000Y-42397619D01*
X137254761Y-42502380D01*
X137359523Y-42554761D01*
X137569047Y-42607142D01*
X137726190Y-42607142D01*
X137935714Y-42554761D01*
X138040476Y-42502380D01*
X138145238Y-42397619D01*
X138197619Y-42240476D01*
X138197619Y-41978571D01*
X138145238Y-43497619D02*
X138197619Y-43392857D01*
X138197619Y-43183333D01*
X138145238Y-43078571D01*
X138040476Y-43026190D01*
X137621428Y-43026190D01*
X137516666Y-43078571D01*
X137464285Y-43183333D01*
X137464285Y-43392857D01*
X137516666Y-43497619D01*
X137621428Y-43550000D01*
X137726190Y-43550000D01*
X137830952Y-43026190D01*
X137464285Y-43916666D02*
X138197619Y-44178571D01*
X137464285Y-44440476D01*
X138197619Y-44859523D02*
X137464285Y-44859523D01*
X137097619Y-44859523D02*
X137150000Y-44807142D01*
X137202380Y-44859523D01*
X137150000Y-44911904D01*
X137097619Y-44859523D01*
X137202380Y-44859523D01*
X138145238Y-45854761D02*
X138197619Y-45750000D01*
X138197619Y-45540476D01*
X138145238Y-45435714D01*
X138092857Y-45383333D01*
X137988095Y-45330952D01*
X137673809Y-45330952D01*
X137569047Y-45383333D01*
X137516666Y-45435714D01*
X137464285Y-45540476D01*
X137464285Y-45750000D01*
X137516666Y-45854761D01*
X138145238Y-46745238D02*
X138197619Y-46640476D01*
X138197619Y-46430952D01*
X138145238Y-46326190D01*
X138040476Y-46273809D01*
X137621428Y-46273809D01*
X137516666Y-46326190D01*
X137464285Y-46430952D01*
X137464285Y-46640476D01*
X137516666Y-46745238D01*
X137621428Y-46797619D01*
X137726190Y-46797619D01*
X137830952Y-46273809D01*
X138197619Y-48735714D02*
X137673809Y-48369047D01*
X138197619Y-48107142D02*
X137097619Y-48107142D01*
X137097619Y-48526190D01*
X137150000Y-48630952D01*
X137202380Y-48683333D01*
X137307142Y-48735714D01*
X137464285Y-48735714D01*
X137569047Y-48683333D01*
X137621428Y-48630952D01*
X137673809Y-48526190D01*
X137673809Y-48107142D01*
X138145238Y-49626190D02*
X138197619Y-49521428D01*
X138197619Y-49311904D01*
X138145238Y-49207142D01*
X138040476Y-49154761D01*
X137621428Y-49154761D01*
X137516666Y-49207142D01*
X137464285Y-49311904D01*
X137464285Y-49521428D01*
X137516666Y-49626190D01*
X137621428Y-49678571D01*
X137726190Y-49678571D01*
X137830952Y-49154761D01*
X137464285Y-50045238D02*
X138197619Y-50307142D01*
X137464285Y-50569047D01*
X137097619Y-52035714D02*
X137097619Y-52140476D01*
X137150000Y-52245238D01*
X137202380Y-52297619D01*
X137307142Y-52350000D01*
X137516666Y-52402380D01*
X137778571Y-52402380D01*
X137988095Y-52350000D01*
X138092857Y-52297619D01*
X138145238Y-52245238D01*
X138197619Y-52140476D01*
X138197619Y-52035714D01*
X138145238Y-51930952D01*
X138092857Y-51878571D01*
X137988095Y-51826190D01*
X137778571Y-51773809D01*
X137516666Y-51773809D01*
X137307142Y-51826190D01*
X137202380Y-51878571D01*
X137150000Y-51930952D01*
X137097619Y-52035714D01*
X138092857Y-52873809D02*
X138145238Y-52926190D01*
X138197619Y-52873809D01*
X138145238Y-52821428D01*
X138092857Y-52873809D01*
X138197619Y-52873809D01*
X138197619Y-53973809D02*
X138197619Y-53345238D01*
X138197619Y-53659523D02*
X137097619Y-53659523D01*
X137254761Y-53554761D01*
X137359523Y-53450000D01*
X137411904Y-53345238D01*
X137778571Y-55283333D02*
X137778571Y-56121428D01*
X137202380Y-57430952D02*
X137150000Y-57483333D01*
X137097619Y-57588095D01*
X137097619Y-57850000D01*
X137150000Y-57954761D01*
X137202380Y-58007142D01*
X137307142Y-58059523D01*
X137411904Y-58059523D01*
X137569047Y-58007142D01*
X138197619Y-57378571D01*
X138197619Y-58059523D01*
X137097619Y-58740476D02*
X137097619Y-58845238D01*
X137150000Y-58950000D01*
X137202380Y-59002380D01*
X137307142Y-59054761D01*
X137516666Y-59107142D01*
X137778571Y-59107142D01*
X137988095Y-59054761D01*
X138092857Y-59002380D01*
X138145238Y-58950000D01*
X138197619Y-58845238D01*
X138197619Y-58740476D01*
X138145238Y-58635714D01*
X138092857Y-58583333D01*
X137988095Y-58530952D01*
X137778571Y-58478571D01*
X137516666Y-58478571D01*
X137307142Y-58530952D01*
X137202380Y-58583333D01*
X137150000Y-58635714D01*
X137097619Y-58740476D01*
X137202380Y-59526190D02*
X137150000Y-59578571D01*
X137097619Y-59683333D01*
X137097619Y-59945238D01*
X137150000Y-60050000D01*
X137202380Y-60102380D01*
X137307142Y-60154761D01*
X137411904Y-60154761D01*
X137569047Y-60102380D01*
X138197619Y-59473809D01*
X138197619Y-60154761D01*
X138197619Y-61202380D02*
X138197619Y-60573809D01*
X138197619Y-60888095D02*
X137097619Y-60888095D01*
X137254761Y-60783333D01*
X137359523Y-60678571D01*
X137411904Y-60573809D01*
X140097619Y-38064285D02*
X138997619Y-38064285D01*
X139521428Y-38064285D02*
X139521428Y-38692857D01*
X140097619Y-38692857D02*
X138997619Y-38692857D01*
X139364285Y-39059523D02*
X139364285Y-39478571D01*
X138997619Y-39216666D02*
X139940476Y-39216666D01*
X140045238Y-39269047D01*
X140097619Y-39373809D01*
X140097619Y-39478571D01*
X139364285Y-39688095D02*
X139364285Y-40107142D01*
X138997619Y-39845238D02*
X139940476Y-39845238D01*
X140045238Y-39897619D01*
X140097619Y-40002380D01*
X140097619Y-40107142D01*
X139364285Y-40473809D02*
X140464285Y-40473809D01*
X139416666Y-40473809D02*
X139364285Y-40578571D01*
X139364285Y-40788095D01*
X139416666Y-40892857D01*
X139469047Y-40945238D01*
X139573809Y-40997619D01*
X139888095Y-40997619D01*
X139992857Y-40945238D01*
X140045238Y-40892857D01*
X140097619Y-40788095D01*
X140097619Y-40578571D01*
X140045238Y-40473809D01*
X140045238Y-41416666D02*
X140097619Y-41521428D01*
X140097619Y-41730952D01*
X140045238Y-41835714D01*
X139940476Y-41888095D01*
X139888095Y-41888095D01*
X139783333Y-41835714D01*
X139730952Y-41730952D01*
X139730952Y-41573809D01*
X139678571Y-41469047D01*
X139573809Y-41416666D01*
X139521428Y-41416666D01*
X139416666Y-41469047D01*
X139364285Y-41573809D01*
X139364285Y-41730952D01*
X139416666Y-41835714D01*
X139992857Y-42359523D02*
X140045238Y-42411904D01*
X140097619Y-42359523D01*
X140045238Y-42307142D01*
X139992857Y-42359523D01*
X140097619Y-42359523D01*
X139416666Y-42359523D02*
X139469047Y-42411904D01*
X139521428Y-42359523D01*
X139469047Y-42307142D01*
X139416666Y-42359523D01*
X139521428Y-42359523D01*
X138945238Y-43669047D02*
X140359523Y-42726190D01*
X138945238Y-44821428D02*
X140359523Y-43878571D01*
X140097619Y-45188095D02*
X139364285Y-45188095D01*
X139469047Y-45188095D02*
X139416666Y-45240476D01*
X139364285Y-45345238D01*
X139364285Y-45502380D01*
X139416666Y-45607142D01*
X139521428Y-45659523D01*
X140097619Y-45659523D01*
X139521428Y-45659523D02*
X139416666Y-45711904D01*
X139364285Y-45816666D01*
X139364285Y-45973809D01*
X139416666Y-46078571D01*
X139521428Y-46130952D01*
X140097619Y-46130952D01*
X140097619Y-47126190D02*
X139521428Y-47126190D01*
X139416666Y-47073809D01*
X139364285Y-46969047D01*
X139364285Y-46759523D01*
X139416666Y-46654761D01*
X140045238Y-47126190D02*
X140097619Y-47021428D01*
X140097619Y-46759523D01*
X140045238Y-46654761D01*
X139940476Y-46602380D01*
X139835714Y-46602380D01*
X139730952Y-46654761D01*
X139678571Y-46759523D01*
X139678571Y-47021428D01*
X139626190Y-47126190D01*
X140097619Y-47650000D02*
X138997619Y-47650000D01*
X139678571Y-47754761D02*
X140097619Y-48069047D01*
X139364285Y-48069047D02*
X139783333Y-47650000D01*
X140097619Y-48540476D02*
X139364285Y-48540476D01*
X138997619Y-48540476D02*
X139050000Y-48488095D01*
X139102380Y-48540476D01*
X139050000Y-48592857D01*
X138997619Y-48540476D01*
X139102380Y-48540476D01*
X139364285Y-49064285D02*
X140097619Y-49064285D01*
X139469047Y-49064285D02*
X139416666Y-49116666D01*
X139364285Y-49221428D01*
X139364285Y-49378571D01*
X139416666Y-49483333D01*
X139521428Y-49535714D01*
X140097619Y-49535714D01*
X139364285Y-50530952D02*
X140254761Y-50530952D01*
X140359523Y-50478571D01*
X140411904Y-50426190D01*
X140464285Y-50321428D01*
X140464285Y-50164285D01*
X140411904Y-50059523D01*
X140045238Y-50530952D02*
X140097619Y-50426190D01*
X140097619Y-50216666D01*
X140045238Y-50111904D01*
X139992857Y-50059523D01*
X139888095Y-50007142D01*
X139573809Y-50007142D01*
X139469047Y-50059523D01*
X139416666Y-50111904D01*
X139364285Y-50216666D01*
X139364285Y-50426190D01*
X139416666Y-50530952D01*
X140097619Y-51526190D02*
X138997619Y-51526190D01*
X140045238Y-51526190D02*
X140097619Y-51421428D01*
X140097619Y-51211904D01*
X140045238Y-51107142D01*
X139992857Y-51054761D01*
X139888095Y-51002380D01*
X139573809Y-51002380D01*
X139469047Y-51054761D01*
X139416666Y-51107142D01*
X139364285Y-51211904D01*
X139364285Y-51421428D01*
X139416666Y-51526190D01*
X140045238Y-52469047D02*
X140097619Y-52364285D01*
X140097619Y-52154761D01*
X140045238Y-52050000D01*
X139940476Y-51997619D01*
X139521428Y-51997619D01*
X139416666Y-52050000D01*
X139364285Y-52154761D01*
X139364285Y-52364285D01*
X139416666Y-52469047D01*
X139521428Y-52521428D01*
X139626190Y-52521428D01*
X139730952Y-51997619D01*
X139364285Y-52888095D02*
X140097619Y-53150000D01*
X139364285Y-53411904D01*
X140097619Y-53830952D02*
X139364285Y-53830952D01*
X138997619Y-53830952D02*
X139050000Y-53778571D01*
X139102380Y-53830952D01*
X139050000Y-53883333D01*
X138997619Y-53830952D01*
X139102380Y-53830952D01*
X140045238Y-54826190D02*
X140097619Y-54721428D01*
X140097619Y-54511904D01*
X140045238Y-54407142D01*
X139992857Y-54354761D01*
X139888095Y-54302380D01*
X139573809Y-54302380D01*
X139469047Y-54354761D01*
X139416666Y-54407142D01*
X139364285Y-54511904D01*
X139364285Y-54721428D01*
X139416666Y-54826190D01*
X140045238Y-55716666D02*
X140097619Y-55611904D01*
X140097619Y-55402380D01*
X140045238Y-55297619D01*
X139940476Y-55245238D01*
X139521428Y-55245238D01*
X139416666Y-55297619D01*
X139364285Y-55402380D01*
X139364285Y-55611904D01*
X139416666Y-55716666D01*
X139521428Y-55769047D01*
X139626190Y-55769047D01*
X139730952Y-55245238D01*
X140045238Y-56188095D02*
X140097619Y-56292857D01*
X140097619Y-56502380D01*
X140045238Y-56607142D01*
X139940476Y-56659523D01*
X139888095Y-56659523D01*
X139783333Y-56607142D01*
X139730952Y-56502380D01*
X139730952Y-56345238D01*
X139678571Y-56240476D01*
X139573809Y-56188095D01*
X139521428Y-56188095D01*
X139416666Y-56240476D01*
X139364285Y-56345238D01*
X139364285Y-56502380D01*
X139416666Y-56607142D01*
X139992857Y-57130952D02*
X140045238Y-57183333D01*
X140097619Y-57130952D01*
X140045238Y-57078571D01*
X139992857Y-57130952D01*
X140097619Y-57130952D01*
X140045238Y-58126190D02*
X140097619Y-58021428D01*
X140097619Y-57811904D01*
X140045238Y-57707142D01*
X139992857Y-57654761D01*
X139888095Y-57602380D01*
X139573809Y-57602380D01*
X139469047Y-57654761D01*
X139416666Y-57707142D01*
X139364285Y-57811904D01*
X139364285Y-58021428D01*
X139416666Y-58126190D01*
X140097619Y-58754761D02*
X140045238Y-58649999D01*
X139992857Y-58597619D01*
X139888095Y-58545238D01*
X139573809Y-58545238D01*
X139469047Y-58597619D01*
X139416666Y-58649999D01*
X139364285Y-58754761D01*
X139364285Y-58911904D01*
X139416666Y-59016666D01*
X139469047Y-59069047D01*
X139573809Y-59121428D01*
X139888095Y-59121428D01*
X139992857Y-59069047D01*
X140045238Y-59016666D01*
X140097619Y-58911904D01*
X140097619Y-58754761D01*
X140097619Y-59592857D02*
X139364285Y-59592857D01*
X139469047Y-59592857D02*
X139416666Y-59645238D01*
X139364285Y-59749999D01*
X139364285Y-59907142D01*
X139416666Y-60011904D01*
X139521428Y-60064285D01*
X140097619Y-60064285D01*
X139521428Y-60064285D02*
X139416666Y-60116666D01*
X139364285Y-60221428D01*
X139364285Y-60378571D01*
X139416666Y-60483333D01*
X139521428Y-60535714D01*
X140097619Y-60535714D01*
D13*
%TO.C,REF\u002A\u002A*%
G36*
X139619918Y-31299744D02*
G01*
X139647568Y-31355201D01*
X139698480Y-31404148D01*
X139717338Y-31417629D01*
X139742015Y-31432314D01*
X139768816Y-31441842D01*
X139804587Y-31447293D01*
X139856169Y-31449747D01*
X139924267Y-31450286D01*
X140017588Y-31447852D01*
X140087657Y-31439394D01*
X140139931Y-31423174D01*
X140179869Y-31397454D01*
X140212929Y-31360497D01*
X140214886Y-31357782D01*
X140234908Y-31321360D01*
X140244815Y-31277502D01*
X140247257Y-31221724D01*
X140247257Y-31131048D01*
X140335283Y-31131010D01*
X140384308Y-31130166D01*
X140413065Y-31125024D01*
X140430311Y-31111587D01*
X140444808Y-31085858D01*
X140447769Y-31079679D01*
X140461648Y-31050764D01*
X140470414Y-31028376D01*
X140471171Y-31011729D01*
X140461023Y-31000036D01*
X140437073Y-30992510D01*
X140396426Y-30988366D01*
X140336186Y-30986815D01*
X140253455Y-30987071D01*
X140145339Y-30988349D01*
X140113000Y-30988748D01*
X140001524Y-30990185D01*
X139928603Y-30991472D01*
X139928603Y-31130971D01*
X139990499Y-31131755D01*
X140030997Y-31135240D01*
X140057708Y-31143124D01*
X140078244Y-31157105D01*
X140088260Y-31166597D01*
X140117567Y-31205404D01*
X140119952Y-31239763D01*
X140095750Y-31275216D01*
X140094857Y-31276114D01*
X140076153Y-31290539D01*
X140050732Y-31299313D01*
X140011584Y-31303739D01*
X139951697Y-31305118D01*
X139938430Y-31305143D01*
X139855901Y-31301812D01*
X139798691Y-31290969D01*
X139763766Y-31271340D01*
X139748094Y-31241650D01*
X139746514Y-31224491D01*
X139753926Y-31183766D01*
X139778330Y-31155832D01*
X139822980Y-31139017D01*
X139891130Y-31131650D01*
X139928603Y-31130971D01*
X139928603Y-30991472D01*
X139915245Y-30991708D01*
X139850333Y-30993677D01*
X139802958Y-30996450D01*
X139769290Y-31000388D01*
X139745498Y-31005849D01*
X139727753Y-31013192D01*
X139712224Y-31022777D01*
X139706381Y-31026887D01*
X139651185Y-31081405D01*
X139619890Y-31150336D01*
X139611165Y-31230072D01*
X139619918Y-31299744D01*
G37*
X139619918Y-31299744D02*
X139647568Y-31355201D01*
X139698480Y-31404148D01*
X139717338Y-31417629D01*
X139742015Y-31432314D01*
X139768816Y-31441842D01*
X139804587Y-31447293D01*
X139856169Y-31449747D01*
X139924267Y-31450286D01*
X140017588Y-31447852D01*
X140087657Y-31439394D01*
X140139931Y-31423174D01*
X140179869Y-31397454D01*
X140212929Y-31360497D01*
X140214886Y-31357782D01*
X140234908Y-31321360D01*
X140244815Y-31277502D01*
X140247257Y-31221724D01*
X140247257Y-31131048D01*
X140335283Y-31131010D01*
X140384308Y-31130166D01*
X140413065Y-31125024D01*
X140430311Y-31111587D01*
X140444808Y-31085858D01*
X140447769Y-31079679D01*
X140461648Y-31050764D01*
X140470414Y-31028376D01*
X140471171Y-31011729D01*
X140461023Y-31000036D01*
X140437073Y-30992510D01*
X140396426Y-30988366D01*
X140336186Y-30986815D01*
X140253455Y-30987071D01*
X140145339Y-30988349D01*
X140113000Y-30988748D01*
X140001524Y-30990185D01*
X139928603Y-30991472D01*
X139928603Y-31130971D01*
X139990499Y-31131755D01*
X140030997Y-31135240D01*
X140057708Y-31143124D01*
X140078244Y-31157105D01*
X140088260Y-31166597D01*
X140117567Y-31205404D01*
X140119952Y-31239763D01*
X140095750Y-31275216D01*
X140094857Y-31276114D01*
X140076153Y-31290539D01*
X140050732Y-31299313D01*
X140011584Y-31303739D01*
X139951697Y-31305118D01*
X139938430Y-31305143D01*
X139855901Y-31301812D01*
X139798691Y-31290969D01*
X139763766Y-31271340D01*
X139748094Y-31241650D01*
X139746514Y-31224491D01*
X139753926Y-31183766D01*
X139778330Y-31155832D01*
X139822980Y-31139017D01*
X139891130Y-31131650D01*
X139928603Y-31130971D01*
X139928603Y-30991472D01*
X139915245Y-30991708D01*
X139850333Y-30993677D01*
X139802958Y-30996450D01*
X139769290Y-31000388D01*
X139745498Y-31005849D01*
X139727753Y-31013192D01*
X139712224Y-31022777D01*
X139706381Y-31026887D01*
X139651185Y-31081405D01*
X139619890Y-31150336D01*
X139611165Y-31230072D01*
X139619918Y-31299744D01*
G36*
X139627780Y-32416093D02*
G01*
X139654723Y-32462672D01*
X139681466Y-32495057D01*
X139709484Y-32518742D01*
X139743748Y-32535059D01*
X139789227Y-32545339D01*
X139850892Y-32550914D01*
X139933711Y-32553116D01*
X139993246Y-32553371D01*
X140212391Y-32553371D01*
X140240044Y-32491686D01*
X140267697Y-32430000D01*
X140027670Y-32422743D01*
X139938028Y-32419744D01*
X139872962Y-32416598D01*
X139828026Y-32412701D01*
X139798770Y-32407447D01*
X139780748Y-32400231D01*
X139769511Y-32390450D01*
X139767079Y-32387312D01*
X139748083Y-32339761D01*
X139755600Y-32291697D01*
X139775543Y-32263086D01*
X139789675Y-32251447D01*
X139808220Y-32243391D01*
X139836334Y-32238271D01*
X139879173Y-32235441D01*
X139941895Y-32234256D01*
X140007261Y-32234057D01*
X140089268Y-32234018D01*
X140147316Y-32232614D01*
X140186465Y-32227914D01*
X140211780Y-32217987D01*
X140228323Y-32200903D01*
X140241156Y-32174732D01*
X140254491Y-32139775D01*
X140269007Y-32101596D01*
X140011389Y-32106141D01*
X139918519Y-32107971D01*
X139849889Y-32110112D01*
X139800711Y-32113181D01*
X139766198Y-32117794D01*
X139741562Y-32124568D01*
X139722016Y-32134119D01*
X139704770Y-32145634D01*
X139649680Y-32201190D01*
X139617822Y-32268980D01*
X139610191Y-32342713D01*
X139627780Y-32416093D01*
G37*
X139627780Y-32416093D02*
X139654723Y-32462672D01*
X139681466Y-32495057D01*
X139709484Y-32518742D01*
X139743748Y-32535059D01*
X139789227Y-32545339D01*
X139850892Y-32550914D01*
X139933711Y-32553116D01*
X139993246Y-32553371D01*
X140212391Y-32553371D01*
X140240044Y-32491686D01*
X140267697Y-32430000D01*
X140027670Y-32422743D01*
X139938028Y-32419744D01*
X139872962Y-32416598D01*
X139828026Y-32412701D01*
X139798770Y-32407447D01*
X139780748Y-32400231D01*
X139769511Y-32390450D01*
X139767079Y-32387312D01*
X139748083Y-32339761D01*
X139755600Y-32291697D01*
X139775543Y-32263086D01*
X139789675Y-32251447D01*
X139808220Y-32243391D01*
X139836334Y-32238271D01*
X139879173Y-32235441D01*
X139941895Y-32234256D01*
X140007261Y-32234057D01*
X140089268Y-32234018D01*
X140147316Y-32232614D01*
X140186465Y-32227914D01*
X140211780Y-32217987D01*
X140228323Y-32200903D01*
X140241156Y-32174732D01*
X140254491Y-32139775D01*
X140269007Y-32101596D01*
X140011389Y-32106141D01*
X139918519Y-32107971D01*
X139849889Y-32110112D01*
X139800711Y-32113181D01*
X139766198Y-32117794D01*
X139741562Y-32124568D01*
X139722016Y-32134119D01*
X139704770Y-32145634D01*
X139649680Y-32201190D01*
X139617822Y-32268980D01*
X139610191Y-32342713D01*
X139627780Y-32416093D01*
G36*
X139621962Y-30741115D02*
G01*
X139657733Y-30809145D01*
X139715301Y-30859351D01*
X139752312Y-30877185D01*
X139807882Y-30891063D01*
X139878096Y-30898167D01*
X139954727Y-30898840D01*
X140029552Y-30893427D01*
X140094342Y-30882270D01*
X140140873Y-30865714D01*
X140148887Y-30860626D01*
X140208707Y-30800355D01*
X140244535Y-30728769D01*
X140255020Y-30651092D01*
X140238810Y-30572548D01*
X140229092Y-30550689D01*
X140199143Y-30508122D01*
X140159433Y-30470763D01*
X140154397Y-30467232D01*
X140130124Y-30452881D01*
X140104178Y-30443394D01*
X140070022Y-30437790D01*
X140021119Y-30435086D01*
X139950935Y-30434299D01*
X139935200Y-30434286D01*
X139930192Y-30434322D01*
X139930192Y-30579429D01*
X139996430Y-30580273D01*
X140040386Y-30583596D01*
X140068779Y-30590583D01*
X140088325Y-30602416D01*
X140094857Y-30608457D01*
X140119680Y-30643186D01*
X140118548Y-30676903D01*
X140097016Y-30710995D01*
X140074029Y-30731329D01*
X140040478Y-30743371D01*
X139987569Y-30750134D01*
X139981399Y-30750598D01*
X139885513Y-30751752D01*
X139814299Y-30739688D01*
X139768194Y-30714570D01*
X139747635Y-30676560D01*
X139746514Y-30662992D01*
X139752152Y-30627364D01*
X139771686Y-30602994D01*
X139809042Y-30588093D01*
X139868150Y-30580875D01*
X139930192Y-30579429D01*
X139930192Y-30434322D01*
X139860413Y-30434826D01*
X139808159Y-30437096D01*
X139771949Y-30442068D01*
X139745299Y-30450713D01*
X139721722Y-30464005D01*
X139717338Y-30466943D01*
X139658249Y-30516313D01*
X139623947Y-30570109D01*
X139610331Y-30635602D01*
X139609665Y-30657842D01*
X139621962Y-30741115D01*
G37*
X139621962Y-30741115D02*
X139657733Y-30809145D01*
X139715301Y-30859351D01*
X139752312Y-30877185D01*
X139807882Y-30891063D01*
X139878096Y-30898167D01*
X139954727Y-30898840D01*
X140029552Y-30893427D01*
X140094342Y-30882270D01*
X140140873Y-30865714D01*
X140148887Y-30860626D01*
X140208707Y-30800355D01*
X140244535Y-30728769D01*
X140255020Y-30651092D01*
X140238810Y-30572548D01*
X140229092Y-30550689D01*
X140199143Y-30508122D01*
X140159433Y-30470763D01*
X140154397Y-30467232D01*
X140130124Y-30452881D01*
X140104178Y-30443394D01*
X140070022Y-30437790D01*
X140021119Y-30435086D01*
X139950935Y-30434299D01*
X139935200Y-30434286D01*
X139930192Y-30434322D01*
X139930192Y-30579429D01*
X139996430Y-30580273D01*
X140040386Y-30583596D01*
X140068779Y-30590583D01*
X140088325Y-30602416D01*
X140094857Y-30608457D01*
X140119680Y-30643186D01*
X140118548Y-30676903D01*
X140097016Y-30710995D01*
X140074029Y-30731329D01*
X140040478Y-30743371D01*
X139987569Y-30750134D01*
X139981399Y-30750598D01*
X139885513Y-30751752D01*
X139814299Y-30739688D01*
X139768194Y-30714570D01*
X139747635Y-30676560D01*
X139746514Y-30662992D01*
X139752152Y-30627364D01*
X139771686Y-30602994D01*
X139809042Y-30588093D01*
X139868150Y-30580875D01*
X139930192Y-30579429D01*
X139930192Y-30434322D01*
X139860413Y-30434826D01*
X139808159Y-30437096D01*
X139771949Y-30442068D01*
X139745299Y-30450713D01*
X139721722Y-30464005D01*
X139717338Y-30466943D01*
X139658249Y-30516313D01*
X139623947Y-30570109D01*
X139610331Y-30635602D01*
X139609665Y-30657842D01*
X139621962Y-30741115D01*
G36*
X139631239Y-31868303D02*
G01*
X139669735Y-31925527D01*
X139725335Y-31969749D01*
X139796086Y-31996167D01*
X139848162Y-32001510D01*
X139869893Y-32000903D01*
X139886531Y-31995822D01*
X139901437Y-31981855D01*
X139917973Y-31954589D01*
X139939498Y-31909612D01*
X139969374Y-31842511D01*
X139969524Y-31842171D01*
X139997813Y-31780407D01*
X140022933Y-31729759D01*
X140042179Y-31695404D01*
X140052848Y-31682518D01*
X140052934Y-31682514D01*
X140076166Y-31693872D01*
X140101774Y-31720431D01*
X140120221Y-31750923D01*
X140123886Y-31766370D01*
X140111212Y-31808515D01*
X140079471Y-31844808D01*
X140044572Y-31862517D01*
X140018845Y-31879552D01*
X139989546Y-31912922D01*
X139964235Y-31952149D01*
X139950471Y-31986756D01*
X139949714Y-31993993D01*
X139962160Y-32002139D01*
X139993972Y-32002630D01*
X140036866Y-31996643D01*
X140082558Y-31985357D01*
X140122761Y-31969950D01*
X140124322Y-31969171D01*
X140189062Y-31922804D01*
X140233097Y-31862711D01*
X140254711Y-31794465D01*
X140252185Y-31723638D01*
X140223804Y-31655804D01*
X140221808Y-31652788D01*
X140173448Y-31599427D01*
X140110352Y-31564340D01*
X140027387Y-31544922D01*
X140004078Y-31542316D01*
X139894055Y-31537701D01*
X139842748Y-31543233D01*
X139842748Y-31682514D01*
X139874753Y-31684324D01*
X139884093Y-31694222D01*
X139877105Y-31718898D01*
X139860587Y-31757795D01*
X139839881Y-31801275D01*
X139839333Y-31802356D01*
X139819949Y-31839209D01*
X139807013Y-31854000D01*
X139793451Y-31850353D01*
X139775632Y-31834995D01*
X139749845Y-31795923D01*
X139747950Y-31753846D01*
X139766717Y-31716103D01*
X139802915Y-31690034D01*
X139842748Y-31682514D01*
X139842748Y-31543233D01*
X139806027Y-31547194D01*
X139736212Y-31571550D01*
X139687302Y-31605456D01*
X139637878Y-31666653D01*
X139613359Y-31734063D01*
X139611797Y-31802880D01*
X139631239Y-31868303D01*
G37*
X139631239Y-31868303D02*
X139669735Y-31925527D01*
X139725335Y-31969749D01*
X139796086Y-31996167D01*
X139848162Y-32001510D01*
X139869893Y-32000903D01*
X139886531Y-31995822D01*
X139901437Y-31981855D01*
X139917973Y-31954589D01*
X139939498Y-31909612D01*
X139969374Y-31842511D01*
X139969524Y-31842171D01*
X139997813Y-31780407D01*
X140022933Y-31729759D01*
X140042179Y-31695404D01*
X140052848Y-31682518D01*
X140052934Y-31682514D01*
X140076166Y-31693872D01*
X140101774Y-31720431D01*
X140120221Y-31750923D01*
X140123886Y-31766370D01*
X140111212Y-31808515D01*
X140079471Y-31844808D01*
X140044572Y-31862517D01*
X140018845Y-31879552D01*
X139989546Y-31912922D01*
X139964235Y-31952149D01*
X139950471Y-31986756D01*
X139949714Y-31993993D01*
X139962160Y-32002139D01*
X139993972Y-32002630D01*
X140036866Y-31996643D01*
X140082558Y-31985357D01*
X140122761Y-31969950D01*
X140124322Y-31969171D01*
X140189062Y-31922804D01*
X140233097Y-31862711D01*
X140254711Y-31794465D01*
X140252185Y-31723638D01*
X140223804Y-31655804D01*
X140221808Y-31652788D01*
X140173448Y-31599427D01*
X140110352Y-31564340D01*
X140027387Y-31544922D01*
X140004078Y-31542316D01*
X139894055Y-31537701D01*
X139842748Y-31543233D01*
X139842748Y-31682514D01*
X139874753Y-31684324D01*
X139884093Y-31694222D01*
X139877105Y-31718898D01*
X139860587Y-31757795D01*
X139839881Y-31801275D01*
X139839333Y-31802356D01*
X139819949Y-31839209D01*
X139807013Y-31854000D01*
X139793451Y-31850353D01*
X139775632Y-31834995D01*
X139749845Y-31795923D01*
X139747950Y-31753846D01*
X139766717Y-31716103D01*
X139802915Y-31690034D01*
X139842748Y-31682514D01*
X139842748Y-31543233D01*
X139806027Y-31547194D01*
X139736212Y-31571550D01*
X139687302Y-31605456D01*
X139637878Y-31666653D01*
X139613359Y-31734063D01*
X139611797Y-31802880D01*
X139631239Y-31868303D01*
G36*
X139551289Y-33075886D02*
G01*
X139610613Y-33080139D01*
X139645572Y-33085025D01*
X139660820Y-33091795D01*
X139661015Y-33101702D01*
X139659195Y-33104914D01*
X139646015Y-33147644D01*
X139646785Y-33203227D01*
X139660333Y-33259737D01*
X139677861Y-33295082D01*
X139705861Y-33331321D01*
X139737549Y-33357813D01*
X139777813Y-33375999D01*
X139831543Y-33387322D01*
X139903626Y-33393222D01*
X139998951Y-33395143D01*
X140017237Y-33395177D01*
X140222646Y-33395200D01*
X140238580Y-33349491D01*
X140249420Y-33317027D01*
X140254468Y-33299215D01*
X140254514Y-33298691D01*
X140240828Y-33296937D01*
X140203076Y-33295444D01*
X140146224Y-33294326D01*
X140075234Y-33293697D01*
X140032073Y-33293600D01*
X139946973Y-33293398D01*
X139885981Y-33292358D01*
X139844177Y-33289831D01*
X139816642Y-33285164D01*
X139798456Y-33277707D01*
X139784698Y-33266811D01*
X139778073Y-33260007D01*
X139751375Y-33213272D01*
X139749375Y-33162272D01*
X139771955Y-33116001D01*
X139780107Y-33107444D01*
X139795436Y-33094893D01*
X139813618Y-33086188D01*
X139839909Y-33080631D01*
X139879562Y-33077526D01*
X139937832Y-33076176D01*
X140018173Y-33075886D01*
X140222646Y-33075886D01*
X140238580Y-33030177D01*
X140249420Y-32997713D01*
X140254468Y-32979901D01*
X140254514Y-32979377D01*
X140240623Y-32978037D01*
X140201439Y-32976828D01*
X140140700Y-32975801D01*
X140062141Y-32975002D01*
X139969498Y-32974481D01*
X139866509Y-32974286D01*
X139469342Y-32974286D01*
X139449444Y-33021457D01*
X139429547Y-33068629D01*
X139551289Y-33075886D01*
G37*
X139551289Y-33075886D02*
X139610613Y-33080139D01*
X139645572Y-33085025D01*
X139660820Y-33091795D01*
X139661015Y-33101702D01*
X139659195Y-33104914D01*
X139646015Y-33147644D01*
X139646785Y-33203227D01*
X139660333Y-33259737D01*
X139677861Y-33295082D01*
X139705861Y-33331321D01*
X139737549Y-33357813D01*
X139777813Y-33375999D01*
X139831543Y-33387322D01*
X139903626Y-33393222D01*
X139998951Y-33395143D01*
X140017237Y-33395177D01*
X140222646Y-33395200D01*
X140238580Y-33349491D01*
X140249420Y-33317027D01*
X140254468Y-33299215D01*
X140254514Y-33298691D01*
X140240828Y-33296937D01*
X140203076Y-33295444D01*
X140146224Y-33294326D01*
X140075234Y-33293697D01*
X140032073Y-33293600D01*
X139946973Y-33293398D01*
X139885981Y-33292358D01*
X139844177Y-33289831D01*
X139816642Y-33285164D01*
X139798456Y-33277707D01*
X139784698Y-33266811D01*
X139778073Y-33260007D01*
X139751375Y-33213272D01*
X139749375Y-33162272D01*
X139771955Y-33116001D01*
X139780107Y-33107444D01*
X139795436Y-33094893D01*
X139813618Y-33086188D01*
X139839909Y-33080631D01*
X139879562Y-33077526D01*
X139937832Y-33076176D01*
X140018173Y-33075886D01*
X140222646Y-33075886D01*
X140238580Y-33030177D01*
X140249420Y-32997713D01*
X140254468Y-32979901D01*
X140254514Y-32979377D01*
X140240623Y-32978037D01*
X140201439Y-32976828D01*
X140140700Y-32975801D01*
X140062141Y-32975002D01*
X139969498Y-32974481D01*
X139866509Y-32974286D01*
X139469342Y-32974286D01*
X139449444Y-33021457D01*
X139429547Y-33068629D01*
X139551289Y-33075886D01*
G36*
X139650968Y-33739744D02*
G01*
X139672087Y-33796616D01*
X139672493Y-33797267D01*
X139698380Y-33832440D01*
X139728633Y-33858407D01*
X139768058Y-33876670D01*
X139821462Y-33888732D01*
X139893651Y-33896096D01*
X139989432Y-33900264D01*
X140003078Y-33900629D01*
X140208842Y-33905876D01*
X140231678Y-33861716D01*
X140247110Y-33829763D01*
X140254423Y-33810470D01*
X140254514Y-33809578D01*
X140241022Y-33806239D01*
X140204626Y-33803587D01*
X140151452Y-33801956D01*
X140108393Y-33801600D01*
X140038641Y-33801592D01*
X139994837Y-33798403D01*
X139973944Y-33787288D01*
X139972925Y-33763501D01*
X139988741Y-33722296D01*
X140017815Y-33660086D01*
X140041963Y-33614341D01*
X140062913Y-33590813D01*
X140085747Y-33583896D01*
X140086877Y-33583886D01*
X140126212Y-33595299D01*
X140147462Y-33629092D01*
X140150539Y-33680809D01*
X140150006Y-33718061D01*
X140160735Y-33737703D01*
X140186505Y-33749952D01*
X140219337Y-33757002D01*
X140237966Y-33746842D01*
X140240632Y-33743017D01*
X140251340Y-33707001D01*
X140252856Y-33656566D01*
X140245759Y-33604626D01*
X140232788Y-33567822D01*
X140189585Y-33516938D01*
X140129446Y-33488014D01*
X140082462Y-33482286D01*
X140040082Y-33486657D01*
X140005488Y-33502475D01*
X139974763Y-33533797D01*
X139943990Y-33584678D01*
X139909252Y-33659176D01*
X139907288Y-33663714D01*
X139876287Y-33730821D01*
X139850862Y-33772232D01*
X139828014Y-33789981D01*
X139804745Y-33786107D01*
X139778056Y-33762643D01*
X139771914Y-33755627D01*
X139748100Y-33708630D01*
X139749103Y-33659933D01*
X139772451Y-33617522D01*
X139815675Y-33589384D01*
X139824160Y-33586769D01*
X139865308Y-33561308D01*
X139885128Y-33529001D01*
X139904770Y-33482286D01*
X139853950Y-33482286D01*
X139780082Y-33496496D01*
X139712327Y-33538675D01*
X139689661Y-33560624D01*
X139660569Y-33610517D01*
X139647400Y-33673967D01*
X139650968Y-33739744D01*
G37*
X139650968Y-33739744D02*
X139672087Y-33796616D01*
X139672493Y-33797267D01*
X139698380Y-33832440D01*
X139728633Y-33858407D01*
X139768058Y-33876670D01*
X139821462Y-33888732D01*
X139893651Y-33896096D01*
X139989432Y-33900264D01*
X140003078Y-33900629D01*
X140208842Y-33905876D01*
X140231678Y-33861716D01*
X140247110Y-33829763D01*
X140254423Y-33810470D01*
X140254514Y-33809578D01*
X140241022Y-33806239D01*
X140204626Y-33803587D01*
X140151452Y-33801956D01*
X140108393Y-33801600D01*
X140038641Y-33801592D01*
X139994837Y-33798403D01*
X139973944Y-33787288D01*
X139972925Y-33763501D01*
X139988741Y-33722296D01*
X140017815Y-33660086D01*
X140041963Y-33614341D01*
X140062913Y-33590813D01*
X140085747Y-33583896D01*
X140086877Y-33583886D01*
X140126212Y-33595299D01*
X140147462Y-33629092D01*
X140150539Y-33680809D01*
X140150006Y-33718061D01*
X140160735Y-33737703D01*
X140186505Y-33749952D01*
X140219337Y-33757002D01*
X140237966Y-33746842D01*
X140240632Y-33743017D01*
X140251340Y-33707001D01*
X140252856Y-33656566D01*
X140245759Y-33604626D01*
X140232788Y-33567822D01*
X140189585Y-33516938D01*
X140129446Y-33488014D01*
X140082462Y-33482286D01*
X140040082Y-33486657D01*
X140005488Y-33502475D01*
X139974763Y-33533797D01*
X139943990Y-33584678D01*
X139909252Y-33659176D01*
X139907288Y-33663714D01*
X139876287Y-33730821D01*
X139850862Y-33772232D01*
X139828014Y-33789981D01*
X139804745Y-33786107D01*
X139778056Y-33762643D01*
X139771914Y-33755627D01*
X139748100Y-33708630D01*
X139749103Y-33659933D01*
X139772451Y-33617522D01*
X139815675Y-33589384D01*
X139824160Y-33586769D01*
X139865308Y-33561308D01*
X139885128Y-33529001D01*
X139904770Y-33482286D01*
X139853950Y-33482286D01*
X139780082Y-33496496D01*
X139712327Y-33538675D01*
X139689661Y-33560624D01*
X139660569Y-33610517D01*
X139647400Y-33673967D01*
X139650968Y-33739744D01*
G36*
X139649755Y-34229926D02*
G01*
X139674084Y-34295858D01*
X139717117Y-34349273D01*
X139747409Y-34370164D01*
X139802994Y-34392939D01*
X139843186Y-34392466D01*
X139870217Y-34368562D01*
X139874813Y-34359717D01*
X139889144Y-34321530D01*
X139885472Y-34302028D01*
X139861407Y-34295422D01*
X139848114Y-34295086D01*
X139799210Y-34282992D01*
X139764999Y-34251471D01*
X139748476Y-34207659D01*
X139752634Y-34158695D01*
X139774227Y-34118894D01*
X139786544Y-34105450D01*
X139801487Y-34095921D01*
X139824075Y-34089485D01*
X139859328Y-34085317D01*
X139912266Y-34082597D01*
X139987907Y-34080502D01*
X140011857Y-34079960D01*
X140093790Y-34077981D01*
X140151455Y-34075731D01*
X140189608Y-34072357D01*
X140213004Y-34067006D01*
X140226398Y-34058824D01*
X140234545Y-34046959D01*
X140238144Y-34039362D01*
X140250452Y-34007102D01*
X140254514Y-33988111D01*
X140240948Y-33981836D01*
X140199934Y-33978006D01*
X140130999Y-33976600D01*
X140033669Y-33977598D01*
X140018657Y-33977908D01*
X139929859Y-33980101D01*
X139865019Y-33982693D01*
X139819067Y-33986382D01*
X139786935Y-33991864D01*
X139763553Y-33999835D01*
X139743852Y-34010993D01*
X139735410Y-34016830D01*
X139698057Y-34050296D01*
X139669003Y-34087727D01*
X139666467Y-34092309D01*
X139646443Y-34159426D01*
X139649755Y-34229926D01*
G37*
X139649755Y-34229926D02*
X139674084Y-34295858D01*
X139717117Y-34349273D01*
X139747409Y-34370164D01*
X139802994Y-34392939D01*
X139843186Y-34392466D01*
X139870217Y-34368562D01*
X139874813Y-34359717D01*
X139889144Y-34321530D01*
X139885472Y-34302028D01*
X139861407Y-34295422D01*
X139848114Y-34295086D01*
X139799210Y-34282992D01*
X139764999Y-34251471D01*
X139748476Y-34207659D01*
X139752634Y-34158695D01*
X139774227Y-34118894D01*
X139786544Y-34105450D01*
X139801487Y-34095921D01*
X139824075Y-34089485D01*
X139859328Y-34085317D01*
X139912266Y-34082597D01*
X139987907Y-34080502D01*
X140011857Y-34079960D01*
X140093790Y-34077981D01*
X140151455Y-34075731D01*
X140189608Y-34072357D01*
X140213004Y-34067006D01*
X140226398Y-34058824D01*
X140234545Y-34046959D01*
X140238144Y-34039362D01*
X140250452Y-34007102D01*
X140254514Y-33988111D01*
X140240948Y-33981836D01*
X140199934Y-33978006D01*
X140130999Y-33976600D01*
X140033669Y-33977598D01*
X140018657Y-33977908D01*
X139929859Y-33980101D01*
X139865019Y-33982693D01*
X139819067Y-33986382D01*
X139786935Y-33991864D01*
X139763553Y-33999835D01*
X139743852Y-34010993D01*
X139735410Y-34016830D01*
X139698057Y-34050296D01*
X139669003Y-34087727D01*
X139666467Y-34092309D01*
X139646443Y-34159426D01*
X139649755Y-34229926D01*
G36*
X139765358Y-34890117D02*
G01*
X139873837Y-34889933D01*
X139957287Y-34889219D01*
X140019704Y-34887675D01*
X140065085Y-34885001D01*
X140097429Y-34880894D01*
X140120733Y-34875055D01*
X140138995Y-34867182D01*
X140149418Y-34861221D01*
X140205945Y-34811855D01*
X140241377Y-34749264D01*
X140254090Y-34680013D01*
X140242463Y-34610668D01*
X140221568Y-34569375D01*
X140185422Y-34526025D01*
X140141276Y-34496481D01*
X140083462Y-34478655D01*
X140006313Y-34470463D01*
X139949714Y-34469302D01*
X139945647Y-34469458D01*
X139945647Y-34570857D01*
X140010550Y-34571476D01*
X140053514Y-34574314D01*
X140081622Y-34580840D01*
X140101953Y-34592523D01*
X140117288Y-34606483D01*
X140146890Y-34653365D01*
X140149419Y-34703701D01*
X140124705Y-34751276D01*
X140121356Y-34754979D01*
X140103935Y-34770783D01*
X140083209Y-34780693D01*
X140052362Y-34786058D01*
X140004577Y-34788228D01*
X139951748Y-34788571D01*
X139885381Y-34787827D01*
X139841106Y-34784748D01*
X139812009Y-34778061D01*
X139791173Y-34766496D01*
X139780107Y-34757013D01*
X139752198Y-34712960D01*
X139748843Y-34662224D01*
X139770159Y-34613796D01*
X139778073Y-34604450D01*
X139795647Y-34588540D01*
X139816587Y-34578610D01*
X139847782Y-34573278D01*
X139896122Y-34571163D01*
X139945647Y-34570857D01*
X139945647Y-34469458D01*
X139858568Y-34472810D01*
X139790086Y-34484726D01*
X139738600Y-34507135D01*
X139698443Y-34542124D01*
X139677861Y-34569375D01*
X139655625Y-34618907D01*
X139645304Y-34676316D01*
X139648067Y-34729682D01*
X139659212Y-34759543D01*
X139662383Y-34771261D01*
X139650557Y-34779037D01*
X139618866Y-34784465D01*
X139570593Y-34788571D01*
X139516829Y-34793067D01*
X139484482Y-34799313D01*
X139465985Y-34810676D01*
X139453770Y-34830528D01*
X139448362Y-34843000D01*
X139428601Y-34890171D01*
X139765358Y-34890117D01*
G37*
X139765358Y-34890117D02*
X139873837Y-34889933D01*
X139957287Y-34889219D01*
X140019704Y-34887675D01*
X140065085Y-34885001D01*
X140097429Y-34880894D01*
X140120733Y-34875055D01*
X140138995Y-34867182D01*
X140149418Y-34861221D01*
X140205945Y-34811855D01*
X140241377Y-34749264D01*
X140254090Y-34680013D01*
X140242463Y-34610668D01*
X140221568Y-34569375D01*
X140185422Y-34526025D01*
X140141276Y-34496481D01*
X140083462Y-34478655D01*
X140006313Y-34470463D01*
X139949714Y-34469302D01*
X139945647Y-34469458D01*
X139945647Y-34570857D01*
X140010550Y-34571476D01*
X140053514Y-34574314D01*
X140081622Y-34580840D01*
X140101953Y-34592523D01*
X140117288Y-34606483D01*
X140146890Y-34653365D01*
X140149419Y-34703701D01*
X140124705Y-34751276D01*
X140121356Y-34754979D01*
X140103935Y-34770783D01*
X140083209Y-34780693D01*
X140052362Y-34786058D01*
X140004577Y-34788228D01*
X139951748Y-34788571D01*
X139885381Y-34787827D01*
X139841106Y-34784748D01*
X139812009Y-34778061D01*
X139791173Y-34766496D01*
X139780107Y-34757013D01*
X139752198Y-34712960D01*
X139748843Y-34662224D01*
X139770159Y-34613796D01*
X139778073Y-34604450D01*
X139795647Y-34588540D01*
X139816587Y-34578610D01*
X139847782Y-34573278D01*
X139896122Y-34571163D01*
X139945647Y-34570857D01*
X139945647Y-34469458D01*
X139858568Y-34472810D01*
X139790086Y-34484726D01*
X139738600Y-34507135D01*
X139698443Y-34542124D01*
X139677861Y-34569375D01*
X139655625Y-34618907D01*
X139645304Y-34676316D01*
X139648067Y-34729682D01*
X139659212Y-34759543D01*
X139662383Y-34771261D01*
X139650557Y-34779037D01*
X139618866Y-34784465D01*
X139570593Y-34788571D01*
X139516829Y-34793067D01*
X139484482Y-34799313D01*
X139465985Y-34810676D01*
X139453770Y-34830528D01*
X139448362Y-34843000D01*
X139428601Y-34890171D01*
X139765358Y-34890117D01*
G36*
X139658663Y-35479833D02*
G01*
X139696850Y-35482048D01*
X139754886Y-35483784D01*
X139828180Y-35484899D01*
X139905055Y-35485257D01*
X140165196Y-35485257D01*
X140211127Y-35439326D01*
X140239429Y-35407675D01*
X140250893Y-35379890D01*
X140250168Y-35341915D01*
X140248321Y-35326840D01*
X140242948Y-35279726D01*
X140239869Y-35240756D01*
X140239585Y-35231257D01*
X140241445Y-35199233D01*
X140246114Y-35153432D01*
X140248321Y-35135674D01*
X140251735Y-35092057D01*
X140244320Y-35062745D01*
X140221427Y-35033680D01*
X140211127Y-35023188D01*
X140165196Y-34977257D01*
X139678602Y-34977257D01*
X139661758Y-35014226D01*
X139649282Y-35046059D01*
X139644914Y-35064683D01*
X139658718Y-35069458D01*
X139697286Y-35073921D01*
X139756356Y-35077775D01*
X139831663Y-35080722D01*
X139895286Y-35082143D01*
X140145657Y-35086114D01*
X140150556Y-35120759D01*
X140147131Y-35152268D01*
X140136041Y-35167708D01*
X140115308Y-35172023D01*
X140071145Y-35175708D01*
X140009146Y-35178469D01*
X139934909Y-35180012D01*
X139896706Y-35180235D01*
X139676783Y-35180457D01*
X139660849Y-35226166D01*
X139650015Y-35258518D01*
X139644962Y-35276115D01*
X139644914Y-35276623D01*
X139658648Y-35278388D01*
X139696730Y-35280329D01*
X139754482Y-35282282D01*
X139827227Y-35284084D01*
X139895286Y-35285343D01*
X140145657Y-35289314D01*
X140145657Y-35376400D01*
X139917240Y-35380396D01*
X139688822Y-35384392D01*
X139666868Y-35426847D01*
X139651793Y-35458192D01*
X139644951Y-35476744D01*
X139644914Y-35477279D01*
X139658663Y-35479833D01*
G37*
X139658663Y-35479833D02*
X139696850Y-35482048D01*
X139754886Y-35483784D01*
X139828180Y-35484899D01*
X139905055Y-35485257D01*
X140165196Y-35485257D01*
X140211127Y-35439326D01*
X140239429Y-35407675D01*
X140250893Y-35379890D01*
X140250168Y-35341915D01*
X140248321Y-35326840D01*
X140242948Y-35279726D01*
X140239869Y-35240756D01*
X140239585Y-35231257D01*
X140241445Y-35199233D01*
X140246114Y-35153432D01*
X140248321Y-35135674D01*
X140251735Y-35092057D01*
X140244320Y-35062745D01*
X140221427Y-35033680D01*
X140211127Y-35023188D01*
X140165196Y-34977257D01*
X139678602Y-34977257D01*
X139661758Y-35014226D01*
X139649282Y-35046059D01*
X139644914Y-35064683D01*
X139658718Y-35069458D01*
X139697286Y-35073921D01*
X139756356Y-35077775D01*
X139831663Y-35080722D01*
X139895286Y-35082143D01*
X140145657Y-35086114D01*
X140150556Y-35120759D01*
X140147131Y-35152268D01*
X140136041Y-35167708D01*
X140115308Y-35172023D01*
X140071145Y-35175708D01*
X140009146Y-35178469D01*
X139934909Y-35180012D01*
X139896706Y-35180235D01*
X139676783Y-35180457D01*
X139660849Y-35226166D01*
X139650015Y-35258518D01*
X139644962Y-35276115D01*
X139644914Y-35276623D01*
X139658648Y-35278388D01*
X139696730Y-35280329D01*
X139754482Y-35282282D01*
X139827227Y-35284084D01*
X139895286Y-35285343D01*
X140145657Y-35289314D01*
X140145657Y-35376400D01*
X139917240Y-35380396D01*
X139688822Y-35384392D01*
X139666868Y-35426847D01*
X139651793Y-35458192D01*
X139644951Y-35476744D01*
X139644914Y-35477279D01*
X139658663Y-35479833D01*
G36*
X139656335Y-35844876D02*
G01*
X139675344Y-35886667D01*
X139698378Y-35919469D01*
X139724133Y-35943503D01*
X139757358Y-35960097D01*
X139802800Y-35970577D01*
X139865207Y-35976271D01*
X139949327Y-35978507D01*
X140004721Y-35978743D01*
X140220826Y-35978743D01*
X140237670Y-35941774D01*
X140249981Y-35912656D01*
X140254514Y-35898231D01*
X140241025Y-35895472D01*
X140204653Y-35893282D01*
X140151542Y-35891942D01*
X140109372Y-35891657D01*
X140048447Y-35890434D01*
X140000115Y-35887136D01*
X139970518Y-35882321D01*
X139964229Y-35878496D01*
X139970652Y-35852783D01*
X139987125Y-35812418D01*
X140009458Y-35765679D01*
X140033457Y-35720845D01*
X140054930Y-35686193D01*
X140069685Y-35670002D01*
X140069845Y-35669938D01*
X140097152Y-35671330D01*
X140123219Y-35683818D01*
X140144392Y-35705743D01*
X140151474Y-35737743D01*
X140150649Y-35765092D01*
X140150042Y-35803826D01*
X140159116Y-35824158D01*
X140183092Y-35836369D01*
X140187613Y-35837909D01*
X140221806Y-35843203D01*
X140242568Y-35829047D01*
X140252462Y-35792148D01*
X140254292Y-35752289D01*
X140240727Y-35680562D01*
X140221355Y-35643432D01*
X140175845Y-35597576D01*
X140119983Y-35573256D01*
X140060957Y-35571073D01*
X140005953Y-35591629D01*
X139971486Y-35622549D01*
X139952189Y-35653420D01*
X139927759Y-35701942D01*
X139902985Y-35758485D01*
X139899199Y-35767910D01*
X139871791Y-35830019D01*
X139847634Y-35865822D01*
X139823619Y-35877337D01*
X139796635Y-35866580D01*
X139775543Y-35848114D01*
X139749572Y-35804469D01*
X139747624Y-35756446D01*
X139767637Y-35712406D01*
X139807551Y-35680709D01*
X139817848Y-35676549D01*
X139855724Y-35652327D01*
X139883842Y-35616965D01*
X139906917Y-35572343D01*
X139841485Y-35572343D01*
X139801506Y-35574969D01*
X139769997Y-35586230D01*
X139736378Y-35611199D01*
X139710484Y-35635169D01*
X139673817Y-35672441D01*
X139654121Y-35701401D01*
X139646220Y-35732505D01*
X139644914Y-35767713D01*
X139656335Y-35844876D01*
G37*
X139656335Y-35844876D02*
X139675344Y-35886667D01*
X139698378Y-35919469D01*
X139724133Y-35943503D01*
X139757358Y-35960097D01*
X139802800Y-35970577D01*
X139865207Y-35976271D01*
X139949327Y-35978507D01*
X140004721Y-35978743D01*
X140220826Y-35978743D01*
X140237670Y-35941774D01*
X140249981Y-35912656D01*
X140254514Y-35898231D01*
X140241025Y-35895472D01*
X140204653Y-35893282D01*
X140151542Y-35891942D01*
X140109372Y-35891657D01*
X140048447Y-35890434D01*
X140000115Y-35887136D01*
X139970518Y-35882321D01*
X139964229Y-35878496D01*
X139970652Y-35852783D01*
X139987125Y-35812418D01*
X140009458Y-35765679D01*
X140033457Y-35720845D01*
X140054930Y-35686193D01*
X140069685Y-35670002D01*
X140069845Y-35669938D01*
X140097152Y-35671330D01*
X140123219Y-35683818D01*
X140144392Y-35705743D01*
X140151474Y-35737743D01*
X140150649Y-35765092D01*
X140150042Y-35803826D01*
X140159116Y-35824158D01*
X140183092Y-35836369D01*
X140187613Y-35837909D01*
X140221806Y-35843203D01*
X140242568Y-35829047D01*
X140252462Y-35792148D01*
X140254292Y-35752289D01*
X140240727Y-35680562D01*
X140221355Y-35643432D01*
X140175845Y-35597576D01*
X140119983Y-35573256D01*
X140060957Y-35571073D01*
X140005953Y-35591629D01*
X139971486Y-35622549D01*
X139952189Y-35653420D01*
X139927759Y-35701942D01*
X139902985Y-35758485D01*
X139899199Y-35767910D01*
X139871791Y-35830019D01*
X139847634Y-35865822D01*
X139823619Y-35877337D01*
X139796635Y-35866580D01*
X139775543Y-35848114D01*
X139749572Y-35804469D01*
X139747624Y-35756446D01*
X139767637Y-35712406D01*
X139807551Y-35680709D01*
X139817848Y-35676549D01*
X139855724Y-35652327D01*
X139883842Y-35616965D01*
X139906917Y-35572343D01*
X139841485Y-35572343D01*
X139801506Y-35574969D01*
X139769997Y-35586230D01*
X139736378Y-35611199D01*
X139710484Y-35635169D01*
X139673817Y-35672441D01*
X139654121Y-35701401D01*
X139646220Y-35732505D01*
X139644914Y-35767713D01*
X139656335Y-35844876D01*
G36*
X139658752Y-36352600D02*
G01*
X139666334Y-36369948D01*
X139699128Y-36411356D01*
X139746547Y-36446765D01*
X139797151Y-36468664D01*
X139822098Y-36472229D01*
X139856927Y-36460279D01*
X139875357Y-36434067D01*
X139886516Y-36405964D01*
X139888572Y-36393095D01*
X139873649Y-36386829D01*
X139841175Y-36374456D01*
X139826502Y-36369028D01*
X139775744Y-36338590D01*
X139750427Y-36294520D01*
X139751206Y-36238010D01*
X139752203Y-36233825D01*
X139766507Y-36203655D01*
X139794393Y-36181476D01*
X139839287Y-36166327D01*
X139904615Y-36157250D01*
X139993804Y-36153286D01*
X140041261Y-36152914D01*
X140116071Y-36152730D01*
X140167069Y-36151522D01*
X140199471Y-36148309D01*
X140218495Y-36142109D01*
X140229356Y-36131940D01*
X140237272Y-36116819D01*
X140237670Y-36115946D01*
X140249981Y-36086828D01*
X140254514Y-36072403D01*
X140240809Y-36070186D01*
X140202925Y-36068289D01*
X140145715Y-36066847D01*
X140074027Y-36065998D01*
X140021565Y-36065829D01*
X139920047Y-36066692D01*
X139843032Y-36070070D01*
X139786023Y-36077142D01*
X139744526Y-36089088D01*
X139714043Y-36107090D01*
X139690080Y-36132327D01*
X139673355Y-36157247D01*
X139651097Y-36217171D01*
X139646076Y-36286911D01*
X139658752Y-36352600D01*
G37*
X139658752Y-36352600D02*
X139666334Y-36369948D01*
X139699128Y-36411356D01*
X139746547Y-36446765D01*
X139797151Y-36468664D01*
X139822098Y-36472229D01*
X139856927Y-36460279D01*
X139875357Y-36434067D01*
X139886516Y-36405964D01*
X139888572Y-36393095D01*
X139873649Y-36386829D01*
X139841175Y-36374456D01*
X139826502Y-36369028D01*
X139775744Y-36338590D01*
X139750427Y-36294520D01*
X139751206Y-36238010D01*
X139752203Y-36233825D01*
X139766507Y-36203655D01*
X139794393Y-36181476D01*
X139839287Y-36166327D01*
X139904615Y-36157250D01*
X139993804Y-36153286D01*
X140041261Y-36152914D01*
X140116071Y-36152730D01*
X140167069Y-36151522D01*
X140199471Y-36148309D01*
X140218495Y-36142109D01*
X140229356Y-36131940D01*
X140237272Y-36116819D01*
X140237670Y-36115946D01*
X140249981Y-36086828D01*
X140254514Y-36072403D01*
X140240809Y-36070186D01*
X140202925Y-36068289D01*
X140145715Y-36066847D01*
X140074027Y-36065998D01*
X140021565Y-36065829D01*
X139920047Y-36066692D01*
X139843032Y-36070070D01*
X139786023Y-36077142D01*
X139744526Y-36089088D01*
X139714043Y-36107090D01*
X139690080Y-36132327D01*
X139673355Y-36157247D01*
X139651097Y-36217171D01*
X139646076Y-36286911D01*
X139658752Y-36352600D01*
G36*
X139666966Y-36853595D02*
G01*
X139704497Y-36911021D01*
X139738096Y-36938719D01*
X139799064Y-36960662D01*
X139847308Y-36962405D01*
X139911816Y-36958457D01*
X139976934Y-36809686D01*
X140010202Y-36737349D01*
X140036964Y-36690084D01*
X140060144Y-36665507D01*
X140082667Y-36661237D01*
X140107455Y-36674889D01*
X140123886Y-36689943D01*
X140150235Y-36733746D01*
X140152081Y-36781389D01*
X140131546Y-36825145D01*
X140090752Y-36857289D01*
X140076347Y-36863038D01*
X140031356Y-36890576D01*
X140012182Y-36922258D01*
X139995779Y-36965714D01*
X140057966Y-36965714D01*
X140100283Y-36961872D01*
X140135969Y-36946823D01*
X140176943Y-36915280D01*
X140182267Y-36910592D01*
X140218720Y-36875506D01*
X140238283Y-36845347D01*
X140247283Y-36807615D01*
X140250230Y-36776335D01*
X140250965Y-36720385D01*
X140241660Y-36680555D01*
X140227846Y-36655708D01*
X140197467Y-36616656D01*
X140164613Y-36589625D01*
X140123294Y-36572517D01*
X140067521Y-36563238D01*
X139991305Y-36559693D01*
X139952622Y-36559410D01*
X139906247Y-36560372D01*
X139906247Y-36648007D01*
X139931126Y-36649023D01*
X139935200Y-36651556D01*
X139929665Y-36668274D01*
X139915017Y-36704249D01*
X139894190Y-36752331D01*
X139889714Y-36762386D01*
X139858814Y-36823152D01*
X139831657Y-36856632D01*
X139806220Y-36863990D01*
X139780481Y-36846391D01*
X139769109Y-36831856D01*
X139746364Y-36779410D01*
X139750122Y-36730322D01*
X139777884Y-36689227D01*
X139827152Y-36660758D01*
X139866257Y-36651631D01*
X139906247Y-36648007D01*
X139906247Y-36560372D01*
X139862249Y-36561285D01*
X139795384Y-36568196D01*
X139746695Y-36581884D01*
X139710849Y-36604096D01*
X139682513Y-36636574D01*
X139673355Y-36650733D01*
X139649507Y-36715053D01*
X139648006Y-36785473D01*
X139666966Y-36853595D01*
G37*
X139666966Y-36853595D02*
X139704497Y-36911021D01*
X139738096Y-36938719D01*
X139799064Y-36960662D01*
X139847308Y-36962405D01*
X139911816Y-36958457D01*
X139976934Y-36809686D01*
X140010202Y-36737349D01*
X140036964Y-36690084D01*
X140060144Y-36665507D01*
X140082667Y-36661237D01*
X140107455Y-36674889D01*
X140123886Y-36689943D01*
X140150235Y-36733746D01*
X140152081Y-36781389D01*
X140131546Y-36825145D01*
X140090752Y-36857289D01*
X140076347Y-36863038D01*
X140031356Y-36890576D01*
X140012182Y-36922258D01*
X139995779Y-36965714D01*
X140057966Y-36965714D01*
X140100283Y-36961872D01*
X140135969Y-36946823D01*
X140176943Y-36915280D01*
X140182267Y-36910592D01*
X140218720Y-36875506D01*
X140238283Y-36845347D01*
X140247283Y-36807615D01*
X140250230Y-36776335D01*
X140250965Y-36720385D01*
X140241660Y-36680555D01*
X140227846Y-36655708D01*
X140197467Y-36616656D01*
X140164613Y-36589625D01*
X140123294Y-36572517D01*
X140067521Y-36563238D01*
X139991305Y-36559693D01*
X139952622Y-36559410D01*
X139906247Y-36560372D01*
X139906247Y-36648007D01*
X139931126Y-36649023D01*
X139935200Y-36651556D01*
X139929665Y-36668274D01*
X139915017Y-36704249D01*
X139894190Y-36752331D01*
X139889714Y-36762386D01*
X139858814Y-36823152D01*
X139831657Y-36856632D01*
X139806220Y-36863990D01*
X139780481Y-36846391D01*
X139769109Y-36831856D01*
X139746364Y-36779410D01*
X139750122Y-36730322D01*
X139777884Y-36689227D01*
X139827152Y-36660758D01*
X139866257Y-36651631D01*
X139906247Y-36648007D01*
X139906247Y-36560372D01*
X139862249Y-36561285D01*
X139795384Y-36568196D01*
X139746695Y-36581884D01*
X139710849Y-36604096D01*
X139682513Y-36636574D01*
X139673355Y-36650733D01*
X139649507Y-36715053D01*
X139648006Y-36785473D01*
X139666966Y-36853595D01*
G36*
X134942348Y-33803910D02*
G01*
X134942778Y-33882454D01*
X134943942Y-33939298D01*
X134946207Y-33978105D01*
X134949940Y-34002538D01*
X134955506Y-34016262D01*
X134963273Y-34022940D01*
X134973605Y-34026236D01*
X134974943Y-34026556D01*
X134999079Y-34031562D01*
X135046701Y-34040829D01*
X135112741Y-34053392D01*
X135192128Y-34068287D01*
X135279796Y-34084551D01*
X135282875Y-34085119D01*
X135368789Y-34101410D01*
X135444696Y-34116652D01*
X135506045Y-34129861D01*
X135548282Y-34140054D01*
X135566855Y-34146248D01*
X135567184Y-34146543D01*
X135576253Y-34164788D01*
X135591367Y-34202405D01*
X135609262Y-34251271D01*
X135609358Y-34251543D01*
X135632493Y-34313093D01*
X135661965Y-34385657D01*
X135691597Y-34454057D01*
X135693062Y-34457294D01*
X135743626Y-34568702D01*
X135575160Y-34815399D01*
X135523803Y-34891077D01*
X135477889Y-34959631D01*
X135440030Y-35017088D01*
X135412837Y-35059476D01*
X135398921Y-35082825D01*
X135397889Y-35085042D01*
X135402484Y-35102010D01*
X135424655Y-35133701D01*
X135465447Y-35181352D01*
X135525905Y-35246198D01*
X135590227Y-35312397D01*
X135653612Y-35376214D01*
X135711451Y-35433329D01*
X135760175Y-35480305D01*
X135796210Y-35513703D01*
X135815984Y-35530085D01*
X135817002Y-35530694D01*
X135830572Y-35532505D01*
X135852733Y-35525683D01*
X135886478Y-35508540D01*
X135934800Y-35479393D01*
X136000692Y-35436555D01*
X136085517Y-35379448D01*
X136160177Y-35328766D01*
X136227140Y-35283461D01*
X136282516Y-35246150D01*
X136322420Y-35219452D01*
X136342962Y-35205985D01*
X136344356Y-35205137D01*
X136364038Y-35206781D01*
X136402293Y-35219245D01*
X136451889Y-35240048D01*
X136467728Y-35247462D01*
X136538290Y-35279814D01*
X136618353Y-35314328D01*
X136687629Y-35342365D01*
X136739045Y-35362568D01*
X136778119Y-35378615D01*
X136798541Y-35387888D01*
X136800114Y-35389041D01*
X136802721Y-35406096D01*
X136809863Y-35446298D01*
X136820523Y-35504302D01*
X136833685Y-35574763D01*
X136848333Y-35652335D01*
X136863449Y-35731672D01*
X136878018Y-35807431D01*
X136891022Y-35874264D01*
X136901445Y-35926828D01*
X136908270Y-35959776D01*
X136910199Y-35967857D01*
X136914962Y-35976205D01*
X136925718Y-35982506D01*
X136946098Y-35987045D01*
X136979734Y-35990104D01*
X137030255Y-35991967D01*
X137101292Y-35992918D01*
X137196476Y-35993240D01*
X137235492Y-35993257D01*
X137552799Y-35993257D01*
X137567839Y-35917057D01*
X137575995Y-35874663D01*
X137587899Y-35811400D01*
X137602116Y-35734962D01*
X137617210Y-35653043D01*
X137621355Y-35630400D01*
X137636053Y-35554806D01*
X137650505Y-35488953D01*
X137663375Y-35438366D01*
X137673322Y-35408574D01*
X137676287Y-35403612D01*
X137697283Y-35391426D01*
X137737967Y-35373953D01*
X137790322Y-35354577D01*
X137801600Y-35350734D01*
X137871523Y-35325339D01*
X137950418Y-35293817D01*
X138021266Y-35262969D01*
X138021595Y-35262817D01*
X138132733Y-35211447D01*
X138381253Y-35380399D01*
X138629772Y-35549352D01*
X138847058Y-35332429D01*
X138911726Y-35266819D01*
X138968733Y-35206979D01*
X139015033Y-35156267D01*
X139047584Y-35118046D01*
X139063343Y-35095675D01*
X139064343Y-35092466D01*
X139056469Y-35073626D01*
X139034578Y-35035180D01*
X139001267Y-34981330D01*
X138959131Y-34916276D01*
X138911943Y-34845940D01*
X138863810Y-34774555D01*
X138821928Y-34710908D01*
X138788871Y-34659041D01*
X138767218Y-34622995D01*
X138759543Y-34606867D01*
X138766037Y-34587189D01*
X138783150Y-34549875D01*
X138807326Y-34502621D01*
X138810013Y-34497612D01*
X138841927Y-34433977D01*
X138857579Y-34390341D01*
X138857745Y-34363202D01*
X138843204Y-34349057D01*
X138843000Y-34348975D01*
X138825779Y-34341905D01*
X138784899Y-34325042D01*
X138723525Y-34299695D01*
X138644819Y-34267171D01*
X138551947Y-34228778D01*
X138448072Y-34185822D01*
X138347502Y-34144222D01*
X138236516Y-34098504D01*
X138133703Y-34056526D01*
X138042215Y-34019548D01*
X137965201Y-33988827D01*
X137905815Y-33965622D01*
X137867209Y-33951190D01*
X137852800Y-33946743D01*
X137836272Y-33957896D01*
X137809930Y-33987069D01*
X137780887Y-34025971D01*
X137689039Y-34136757D01*
X137583759Y-34223351D01*
X137467266Y-34284716D01*
X137341776Y-34319815D01*
X137209507Y-34327608D01*
X137148457Y-34321943D01*
X137021795Y-34291078D01*
X136909941Y-34237920D01*
X136814001Y-34165767D01*
X136735076Y-34077917D01*
X136674270Y-33977665D01*
X136632687Y-33868310D01*
X136611428Y-33753147D01*
X136611599Y-33635475D01*
X136634301Y-33518590D01*
X136680638Y-33405789D01*
X136751713Y-33300369D01*
X136791911Y-33256368D01*
X136895129Y-33171979D01*
X137007925Y-33113222D01*
X137127010Y-33079704D01*
X137249095Y-33071035D01*
X137370893Y-33086823D01*
X137489116Y-33126678D01*
X137600475Y-33190207D01*
X137701684Y-33277021D01*
X137780887Y-33374029D01*
X137811162Y-33414437D01*
X137837219Y-33442982D01*
X137852825Y-33453257D01*
X137869843Y-33447877D01*
X137910500Y-33432575D01*
X137971642Y-33408612D01*
X138050119Y-33377244D01*
X138142780Y-33339732D01*
X138246472Y-33297333D01*
X138347526Y-33255663D01*
X138458607Y-33209690D01*
X138561541Y-33167107D01*
X138653165Y-33129221D01*
X138730316Y-33097340D01*
X138789831Y-33072771D01*
X138828544Y-33056820D01*
X138843000Y-33050910D01*
X138857685Y-33036948D01*
X138857642Y-33009940D01*
X138842099Y-32966413D01*
X138810284Y-32902890D01*
X138810013Y-32902388D01*
X138785323Y-32854560D01*
X138767338Y-32815897D01*
X138759614Y-32794095D01*
X138759543Y-32793133D01*
X138767378Y-32776721D01*
X138789165Y-32740487D01*
X138822328Y-32688474D01*
X138864291Y-32624725D01*
X138911943Y-32554060D01*
X138960191Y-32482116D01*
X139002151Y-32417274D01*
X139035227Y-32363735D01*
X139056821Y-32325697D01*
X139064343Y-32307533D01*
X139054457Y-32290808D01*
X139026826Y-32257180D01*
X138984495Y-32210010D01*
X138930505Y-32152658D01*
X138867899Y-32088484D01*
X138846983Y-32067497D01*
X138629623Y-31850499D01*
X138387220Y-32015668D01*
X138312781Y-32065864D01*
X138245972Y-32109919D01*
X138190665Y-32145362D01*
X138150729Y-32169719D01*
X138130036Y-32180522D01*
X138128563Y-32180838D01*
X138109058Y-32175143D01*
X138069822Y-32159826D01*
X138017430Y-32137537D01*
X137982355Y-32121893D01*
X137915201Y-32092641D01*
X137847358Y-32065094D01*
X137790034Y-32043737D01*
X137772572Y-32037935D01*
X137725938Y-32021452D01*
X137689905Y-32005340D01*
X137676287Y-31996490D01*
X137667952Y-31976960D01*
X137656137Y-31934334D01*
X137642181Y-31874145D01*
X137627422Y-31801922D01*
X137621355Y-31769600D01*
X137606273Y-31687522D01*
X137591669Y-31608795D01*
X137578980Y-31541109D01*
X137569642Y-31492160D01*
X137567839Y-31482943D01*
X137552799Y-31406743D01*
X137235492Y-31406743D01*
X137131154Y-31406914D01*
X137052213Y-31407616D01*
X136995038Y-31409134D01*
X136955999Y-31411749D01*
X136931465Y-31415746D01*
X136917805Y-31421409D01*
X136911389Y-31429020D01*
X136910199Y-31432143D01*
X136905980Y-31450978D01*
X136897562Y-31492588D01*
X136885961Y-31551630D01*
X136872195Y-31622757D01*
X136857280Y-31700625D01*
X136842232Y-31779887D01*
X136828069Y-31855198D01*
X136815806Y-31921213D01*
X136806461Y-31972587D01*
X136801050Y-32003975D01*
X136800114Y-32010959D01*
X136787596Y-32017285D01*
X136754246Y-32031290D01*
X136706377Y-32050355D01*
X136687629Y-32057634D01*
X136615195Y-32086996D01*
X136535170Y-32121571D01*
X136467728Y-32152537D01*
X136416159Y-32175323D01*
X136373785Y-32190482D01*
X136347834Y-32195542D01*
X136344356Y-32194736D01*
X136327936Y-32184041D01*
X136291417Y-32159620D01*
X136238687Y-32124095D01*
X136173635Y-32080087D01*
X136100151Y-32030217D01*
X136085645Y-32020356D01*
X135999704Y-31962492D01*
X135934261Y-31919956D01*
X135886304Y-31891054D01*
X135852820Y-31874090D01*
X135830795Y-31867367D01*
X135817217Y-31869190D01*
X135817131Y-31869236D01*
X135799297Y-31883586D01*
X135764817Y-31915323D01*
X135717268Y-31961010D01*
X135660222Y-32017204D01*
X135597255Y-32080468D01*
X135590227Y-32087602D01*
X135513020Y-32167330D01*
X135456330Y-32228857D01*
X135419110Y-32273421D01*
X135400315Y-32302257D01*
X135397889Y-32314958D01*
X135408471Y-32333494D01*
X135432916Y-32371961D01*
X135468612Y-32426386D01*
X135512947Y-32492798D01*
X135563311Y-32567225D01*
X135575160Y-32584601D01*
X135743626Y-32831297D01*
X135693062Y-32942706D01*
X135663595Y-33010457D01*
X135633959Y-33083183D01*
X135610330Y-33145703D01*
X135609358Y-33148457D01*
X135591457Y-33197360D01*
X135576320Y-33235057D01*
X135567210Y-33253425D01*
X135567184Y-33253456D01*
X135550717Y-33259285D01*
X135510219Y-33269192D01*
X135450242Y-33282195D01*
X135375340Y-33297309D01*
X135290064Y-33313552D01*
X135282875Y-33314881D01*
X135195014Y-33331175D01*
X135115260Y-33346133D01*
X135048681Y-33358791D01*
X135000347Y-33368186D01*
X134975325Y-33373354D01*
X134974943Y-33373444D01*
X134964299Y-33376589D01*
X134956262Y-33382704D01*
X134950467Y-33395453D01*
X134946547Y-33418500D01*
X134944135Y-33455509D01*
X134942865Y-33510144D01*
X134942371Y-33586067D01*
X134942286Y-33686944D01*
X134942286Y-33700000D01*
X134942348Y-33803910D01*
G37*
X134942348Y-33803910D02*
X134942778Y-33882454D01*
X134943942Y-33939298D01*
X134946207Y-33978105D01*
X134949940Y-34002538D01*
X134955506Y-34016262D01*
X134963273Y-34022940D01*
X134973605Y-34026236D01*
X134974943Y-34026556D01*
X134999079Y-34031562D01*
X135046701Y-34040829D01*
X135112741Y-34053392D01*
X135192128Y-34068287D01*
X135279796Y-34084551D01*
X135282875Y-34085119D01*
X135368789Y-34101410D01*
X135444696Y-34116652D01*
X135506045Y-34129861D01*
X135548282Y-34140054D01*
X135566855Y-34146248D01*
X135567184Y-34146543D01*
X135576253Y-34164788D01*
X135591367Y-34202405D01*
X135609262Y-34251271D01*
X135609358Y-34251543D01*
X135632493Y-34313093D01*
X135661965Y-34385657D01*
X135691597Y-34454057D01*
X135693062Y-34457294D01*
X135743626Y-34568702D01*
X135575160Y-34815399D01*
X135523803Y-34891077D01*
X135477889Y-34959631D01*
X135440030Y-35017088D01*
X135412837Y-35059476D01*
X135398921Y-35082825D01*
X135397889Y-35085042D01*
X135402484Y-35102010D01*
X135424655Y-35133701D01*
X135465447Y-35181352D01*
X135525905Y-35246198D01*
X135590227Y-35312397D01*
X135653612Y-35376214D01*
X135711451Y-35433329D01*
X135760175Y-35480305D01*
X135796210Y-35513703D01*
X135815984Y-35530085D01*
X135817002Y-35530694D01*
X135830572Y-35532505D01*
X135852733Y-35525683D01*
X135886478Y-35508540D01*
X135934800Y-35479393D01*
X136000692Y-35436555D01*
X136085517Y-35379448D01*
X136160177Y-35328766D01*
X136227140Y-35283461D01*
X136282516Y-35246150D01*
X136322420Y-35219452D01*
X136342962Y-35205985D01*
X136344356Y-35205137D01*
X136364038Y-35206781D01*
X136402293Y-35219245D01*
X136451889Y-35240048D01*
X136467728Y-35247462D01*
X136538290Y-35279814D01*
X136618353Y-35314328D01*
X136687629Y-35342365D01*
X136739045Y-35362568D01*
X136778119Y-35378615D01*
X136798541Y-35387888D01*
X136800114Y-35389041D01*
X136802721Y-35406096D01*
X136809863Y-35446298D01*
X136820523Y-35504302D01*
X136833685Y-35574763D01*
X136848333Y-35652335D01*
X136863449Y-35731672D01*
X136878018Y-35807431D01*
X136891022Y-35874264D01*
X136901445Y-35926828D01*
X136908270Y-35959776D01*
X136910199Y-35967857D01*
X136914962Y-35976205D01*
X136925718Y-35982506D01*
X136946098Y-35987045D01*
X136979734Y-35990104D01*
X137030255Y-35991967D01*
X137101292Y-35992918D01*
X137196476Y-35993240D01*
X137235492Y-35993257D01*
X137552799Y-35993257D01*
X137567839Y-35917057D01*
X137575995Y-35874663D01*
X137587899Y-35811400D01*
X137602116Y-35734962D01*
X137617210Y-35653043D01*
X137621355Y-35630400D01*
X137636053Y-35554806D01*
X137650505Y-35488953D01*
X137663375Y-35438366D01*
X137673322Y-35408574D01*
X137676287Y-35403612D01*
X137697283Y-35391426D01*
X137737967Y-35373953D01*
X137790322Y-35354577D01*
X137801600Y-35350734D01*
X137871523Y-35325339D01*
X137950418Y-35293817D01*
X138021266Y-35262969D01*
X138021595Y-35262817D01*
X138132733Y-35211447D01*
X138381253Y-35380399D01*
X138629772Y-35549352D01*
X138847058Y-35332429D01*
X138911726Y-35266819D01*
X138968733Y-35206979D01*
X139015033Y-35156267D01*
X139047584Y-35118046D01*
X139063343Y-35095675D01*
X139064343Y-35092466D01*
X139056469Y-35073626D01*
X139034578Y-35035180D01*
X139001267Y-34981330D01*
X138959131Y-34916276D01*
X138911943Y-34845940D01*
X138863810Y-34774555D01*
X138821928Y-34710908D01*
X138788871Y-34659041D01*
X138767218Y-34622995D01*
X138759543Y-34606867D01*
X138766037Y-34587189D01*
X138783150Y-34549875D01*
X138807326Y-34502621D01*
X138810013Y-34497612D01*
X138841927Y-34433977D01*
X138857579Y-34390341D01*
X138857745Y-34363202D01*
X138843204Y-34349057D01*
X138843000Y-34348975D01*
X138825779Y-34341905D01*
X138784899Y-34325042D01*
X138723525Y-34299695D01*
X138644819Y-34267171D01*
X138551947Y-34228778D01*
X138448072Y-34185822D01*
X138347502Y-34144222D01*
X138236516Y-34098504D01*
X138133703Y-34056526D01*
X138042215Y-34019548D01*
X137965201Y-33988827D01*
X137905815Y-33965622D01*
X137867209Y-33951190D01*
X137852800Y-33946743D01*
X137836272Y-33957896D01*
X137809930Y-33987069D01*
X137780887Y-34025971D01*
X137689039Y-34136757D01*
X137583759Y-34223351D01*
X137467266Y-34284716D01*
X137341776Y-34319815D01*
X137209507Y-34327608D01*
X137148457Y-34321943D01*
X137021795Y-34291078D01*
X136909941Y-34237920D01*
X136814001Y-34165767D01*
X136735076Y-34077917D01*
X136674270Y-33977665D01*
X136632687Y-33868310D01*
X136611428Y-33753147D01*
X136611599Y-33635475D01*
X136634301Y-33518590D01*
X136680638Y-33405789D01*
X136751713Y-33300369D01*
X136791911Y-33256368D01*
X136895129Y-33171979D01*
X137007925Y-33113222D01*
X137127010Y-33079704D01*
X137249095Y-33071035D01*
X137370893Y-33086823D01*
X137489116Y-33126678D01*
X137600475Y-33190207D01*
X137701684Y-33277021D01*
X137780887Y-33374029D01*
X137811162Y-33414437D01*
X137837219Y-33442982D01*
X137852825Y-33453257D01*
X137869843Y-33447877D01*
X137910500Y-33432575D01*
X137971642Y-33408612D01*
X138050119Y-33377244D01*
X138142780Y-33339732D01*
X138246472Y-33297333D01*
X138347526Y-33255663D01*
X138458607Y-33209690D01*
X138561541Y-33167107D01*
X138653165Y-33129221D01*
X138730316Y-33097340D01*
X138789831Y-33072771D01*
X138828544Y-33056820D01*
X138843000Y-33050910D01*
X138857685Y-33036948D01*
X138857642Y-33009940D01*
X138842099Y-32966413D01*
X138810284Y-32902890D01*
X138810013Y-32902388D01*
X138785323Y-32854560D01*
X138767338Y-32815897D01*
X138759614Y-32794095D01*
X138759543Y-32793133D01*
X138767378Y-32776721D01*
X138789165Y-32740487D01*
X138822328Y-32688474D01*
X138864291Y-32624725D01*
X138911943Y-32554060D01*
X138960191Y-32482116D01*
X139002151Y-32417274D01*
X139035227Y-32363735D01*
X139056821Y-32325697D01*
X139064343Y-32307533D01*
X139054457Y-32290808D01*
X139026826Y-32257180D01*
X138984495Y-32210010D01*
X138930505Y-32152658D01*
X138867899Y-32088484D01*
X138846983Y-32067497D01*
X138629623Y-31850499D01*
X138387220Y-32015668D01*
X138312781Y-32065864D01*
X138245972Y-32109919D01*
X138190665Y-32145362D01*
X138150729Y-32169719D01*
X138130036Y-32180522D01*
X138128563Y-32180838D01*
X138109058Y-32175143D01*
X138069822Y-32159826D01*
X138017430Y-32137537D01*
X137982355Y-32121893D01*
X137915201Y-32092641D01*
X137847358Y-32065094D01*
X137790034Y-32043737D01*
X137772572Y-32037935D01*
X137725938Y-32021452D01*
X137689905Y-32005340D01*
X137676287Y-31996490D01*
X137667952Y-31976960D01*
X137656137Y-31934334D01*
X137642181Y-31874145D01*
X137627422Y-31801922D01*
X137621355Y-31769600D01*
X137606273Y-31687522D01*
X137591669Y-31608795D01*
X137578980Y-31541109D01*
X137569642Y-31492160D01*
X137567839Y-31482943D01*
X137552799Y-31406743D01*
X137235492Y-31406743D01*
X137131154Y-31406914D01*
X137052213Y-31407616D01*
X136995038Y-31409134D01*
X136955999Y-31411749D01*
X136931465Y-31415746D01*
X136917805Y-31421409D01*
X136911389Y-31429020D01*
X136910199Y-31432143D01*
X136905980Y-31450978D01*
X136897562Y-31492588D01*
X136885961Y-31551630D01*
X136872195Y-31622757D01*
X136857280Y-31700625D01*
X136842232Y-31779887D01*
X136828069Y-31855198D01*
X136815806Y-31921213D01*
X136806461Y-31972587D01*
X136801050Y-32003975D01*
X136800114Y-32010959D01*
X136787596Y-32017285D01*
X136754246Y-32031290D01*
X136706377Y-32050355D01*
X136687629Y-32057634D01*
X136615195Y-32086996D01*
X136535170Y-32121571D01*
X136467728Y-32152537D01*
X136416159Y-32175323D01*
X136373785Y-32190482D01*
X136347834Y-32195542D01*
X136344356Y-32194736D01*
X136327936Y-32184041D01*
X136291417Y-32159620D01*
X136238687Y-32124095D01*
X136173635Y-32080087D01*
X136100151Y-32030217D01*
X136085645Y-32020356D01*
X135999704Y-31962492D01*
X135934261Y-31919956D01*
X135886304Y-31891054D01*
X135852820Y-31874090D01*
X135830795Y-31867367D01*
X135817217Y-31869190D01*
X135817131Y-31869236D01*
X135799297Y-31883586D01*
X135764817Y-31915323D01*
X135717268Y-31961010D01*
X135660222Y-32017204D01*
X135597255Y-32080468D01*
X135590227Y-32087602D01*
X135513020Y-32167330D01*
X135456330Y-32228857D01*
X135419110Y-32273421D01*
X135400315Y-32302257D01*
X135397889Y-32314958D01*
X135408471Y-32333494D01*
X135432916Y-32371961D01*
X135468612Y-32426386D01*
X135512947Y-32492798D01*
X135563311Y-32567225D01*
X135575160Y-32584601D01*
X135743626Y-32831297D01*
X135693062Y-32942706D01*
X135663595Y-33010457D01*
X135633959Y-33083183D01*
X135610330Y-33145703D01*
X135609358Y-33148457D01*
X135591457Y-33197360D01*
X135576320Y-33235057D01*
X135567210Y-33253425D01*
X135567184Y-33253456D01*
X135550717Y-33259285D01*
X135510219Y-33269192D01*
X135450242Y-33282195D01*
X135375340Y-33297309D01*
X135290064Y-33313552D01*
X135282875Y-33314881D01*
X135195014Y-33331175D01*
X135115260Y-33346133D01*
X135048681Y-33358791D01*
X135000347Y-33368186D01*
X134975325Y-33373354D01*
X134974943Y-33373444D01*
X134964299Y-33376589D01*
X134956262Y-33382704D01*
X134950467Y-33395453D01*
X134946547Y-33418500D01*
X134944135Y-33455509D01*
X134942865Y-33510144D01*
X134942371Y-33586067D01*
X134942286Y-33686944D01*
X134942286Y-33700000D01*
X134942348Y-33803910D01*
D14*
%TO.C,U2*%
X115870000Y-66150000D02*
X115870000Y-66150000D01*
X115870000Y-43250000D02*
X115870000Y-43250000D01*
X126870000Y-57700000D02*
X131870000Y-57700000D01*
X131870000Y-57700000D02*
X131870000Y-51700000D01*
X131870000Y-51700000D02*
X126870000Y-51700000D01*
X115870000Y-66150000D02*
G75*
G03*
X115870000Y-43250000I0J11450000D01*
G01*
X115870000Y-43250000D02*
G75*
G03*
X115870000Y-66150000I0J-11450000D01*
G01*
%TD*%
%LPC*%
D15*
%TO.C,U2*%
X109370000Y-54700000D03*
X129370000Y-54700000D03*
%TD*%
D16*
%TO.C,S1*%
X126070000Y-62500000D03*
X138570000Y-62500000D03*
X126070000Y-67500000D03*
X138570000Y-67500000D03*
%TD*%
D17*
%TO.C,ISCP*%
X106820000Y-68649000D03*
X106820000Y-70681000D03*
X111900000Y-69665000D03*
%TD*%
D18*
%TO.C,U1*%
X114430000Y-32230000D03*
X116970000Y-32230000D03*
X119510000Y-32230000D03*
X122050000Y-32230000D03*
X124590000Y-32230000D03*
X127130000Y-32230000D03*
X127130000Y-42390000D03*
X124590000Y-42390000D03*
X122050000Y-42390000D03*
X119510000Y-42390000D03*
X116970000Y-42390000D03*
D19*
X114430000Y-42390000D03*
%TD*%
M02*
